# MagicaVoxel @ Ephtracy

# group
o deer

# material
mtllib char-5-deer.mtl
usemtl palette

# normals
vn -1 0 0
vn 1 0 0
vn 0 0 1
vn 0 0 -1
vn 0 -1 0
vn 0 1 0

# texcoords
vt 0.232422 0.5
vt 0.310547 0.5
vt 0.353516 0.5
vt 0.416016 0.5
vt 0.642578 0.5
vt 0.677734 0.5
vt 0.744141 0.5
vt 0.990234 0.5

# verts
v -0.5 1.1 0
v -0.5 1.1 -0.1
v -0.5 1.2 0
v -0.5 1.2 -0.1
v -0.4 1.2 0
v -0.4 1.2 -0.1
v -0.4 1.3 0
v -0.4 1.3 -0.1
v -0.3 0.7 0.3
v -0.3 0.7 -0.1
v -0.3 0.8 0.1
v -0.3 0.8 0
v -0.3 0.9 0.1
v -0.3 0.9 0
v -0.3 1 0.3
v -0.3 1 0
v -0.3 1 -0.1
v -0.3 1.1 0
v -0.3 1.1 -0.1
v -0.2 0 0
v -0.2 0 -0.1
v -0.2 0.1 0
v -0.2 0.1 -0.1
v -0.2 0.3 0
v -0.2 0.3 -0.1
v -0.2 0.6 0
v -0.2 0.6 -0.1
v -0.1 0.6 0
v -0.1 0.6 -0.1
v -0.1 0.7 0
v -0.1 0.7 -0.1
v 0 0 0
v 0 0 -0.1
v 0 0.1 0
v 0 0.1 -0.1
v 0 0.3 0
v 0 0.3 -0.1
v 0.1 1 0
v 0.1 1 -0.1
v 0.1 1.2 0
v 0.1 1.2 -0.1
v 0.2 1.2 0
v 0.2 1.2 -0.1
v 0.2 1.3 0
v 0.2 1.3 -0.1
v -0.3 1.2 0
v -0.3 1.2 -0.1
v -0.3 1.3 0
v -0.3 1.3 -0.1
v -0.2 1 0
v -0.2 1 -0.1
v -0.2 1.2 0
v -0.2 1.2 -0.1
v -0.1 0 0
v -0.1 0 -0.1
v -0.1 0.1 0
v -0.1 0.1 -0.1
v -0.1 0.3 0
v -0.1 0.3 -0.1
v 0 0.6 0
v 0 0.6 -0.1
v 0 0.7 0
v 0 0.7 -0.1
v 0.1 0 0
v 0.1 0 -0.1
v 0.1 0.1 0
v 0.1 0.1 -0.1
v 0.1 0.3 0
v 0.1 0.3 -0.1
v 0.1 0.6 0
v 0.1 0.6 -0.1
v 0.2 0.7 0.3
v 0.2 0.7 -0.1
v 0.2 0.8 0.1
v 0.2 0.8 0
v 0.2 0.9 0.1
v 0.2 0.9 0
v 0.2 1 0.3
v 0.2 1 0
v 0.2 1 -0.1
v 0.2 1.1 0
v 0.2 1.1 -0.1
v 0.3 1.2 0
v 0.3 1.2 -0.1
v 0.3 1.3 0
v 0.3 1.3 -0.1
v 0.4 1.1 0
v 0.4 1.1 -0.1
v 0.4 1.2 0
v 0.4 1.2 -0.1
v -0.3 0.7 0.3
v -0.3 1 0.3
v -0.1 0.8 0.3
v -0.1 0.9 0.3
v 0 0.8 0.3
v 0 0.9 0.3
v 0.2 0.7 0.3
v 0.2 1 0.3
v -0.5 1.1 0
v -0.5 1.2 0
v -0.4 1.2 0
v -0.4 1.3 0
v -0.3 1 0
v -0.3 1.1 0
v -0.3 1.2 0
v -0.3 1.3 0
v -0.2 0 0
v -0.2 0.1 0
v -0.2 0.3 0
v -0.2 0.6 0
v -0.2 1 0
v -0.2 1.2 0
v -0.1 0 0
v -0.1 0.1 0
v -0.1 0.3 0
v -0.1 0.4 0
v -0.1 0.5 0
v -0.1 0.6 0
v -0.1 0.7 0
v 0 0 0
v 0 0.1 0
v 0 0.3 0
v 0 0.4 0
v 0 0.5 0
v 0 0.6 0
v 0 0.7 0
v 0.1 0 0
v 0.1 0.1 0
v 0.1 0.3 0
v 0.1 0.6 0
v 0.1 1 0
v 0.1 1.2 0
v 0.2 1 0
v 0.2 1.1 0
v 0.2 1.2 0
v 0.2 1.3 0
v 0.3 1.2 0
v 0.3 1.3 0
v 0.4 1.1 0
v 0.4 1.2 0
v -0.5 1.1 -0.1
v -0.5 1.2 -0.1
v -0.4 1.2 -0.1
v -0.4 1.3 -0.1
v -0.3 0.7 -0.1
v -0.3 1 -0.1
v -0.3 1.1 -0.1
v -0.3 1.2 -0.1
v -0.3 1.3 -0.1
v -0.2 0 -0.1
v -0.2 0.1 -0.1
v -0.2 0.3 -0.1
v -0.2 0.6 -0.1
v -0.2 1 -0.1
v -0.2 1.2 -0.1
v -0.1 0 -0.1
v -0.1 0.1 -0.1
v -0.1 0.3 -0.1
v -0.1 0.4 -0.1
v -0.1 0.5 -0.1
v -0.1 0.6 -0.1
v -0.1 0.7 -0.1
v 0 0 -0.1
v 0 0.1 -0.1
v 0 0.3 -0.1
v 0 0.4 -0.1
v 0 0.5 -0.1
v 0 0.6 -0.1
v 0 0.7 -0.1
v 0.1 0 -0.1
v 0.1 0.1 -0.1
v 0.1 0.3 -0.1
v 0.1 0.6 -0.1
v 0.1 1 -0.1
v 0.1 1.2 -0.1
v 0.2 0.7 -0.1
v 0.2 1 -0.1
v 0.2 1.1 -0.1
v 0.2 1.2 -0.1
v 0.2 1.3 -0.1
v 0.3 1.2 -0.1
v 0.3 1.3 -0.1
v 0.4 1.1 -0.1
v 0.4 1.2 -0.1
v -0.2 0 0
v -0.1 0 0
v 0 0 0
v 0.1 0 0
v -0.2 0 -0.1
v -0.1 0 -0.1
v 0 0 -0.1
v 0.1 0 -0.1
v -0.1 0.3 0
v 0 0.3 0
v -0.1 0.3 -0.1
v 0 0.3 -0.1
v -0.3 0.7 0.3
v 0.2 0.7 0.3
v -0.1 0.7 0
v 0 0.7 0
v -0.3 0.7 -0.1
v -0.1 0.7 -0.1
v 0 0.7 -0.1
v 0.2 0.7 -0.1
v -0.5 1.1 0
v -0.3 1.1 0
v 0.2 1.1 0
v 0.4 1.1 0
v -0.5 1.1 -0.1
v -0.3 1.1 -0.1
v 0.2 1.1 -0.1
v 0.4 1.1 -0.1
v -0.2 0.6 0
v -0.1 0.6 0
v 0 0.6 0
v 0.1 0.6 0
v -0.2 0.6 -0.1
v -0.1 0.6 -0.1
v 0 0.6 -0.1
v 0.1 0.6 -0.1
v -0.3 1 0.3
v 0.2 1 0.3
v -0.3 1 0
v -0.2 1 0
v 0.1 1 0
v 0.2 1 0
v -0.2 1 -0.1
v 0.1 1 -0.1
v -0.5 1.2 0
v -0.4 1.2 0
v -0.3 1.2 0
v -0.2 1.2 0
v 0.1 1.2 0
v 0.2 1.2 0
v 0.3 1.2 0
v 0.4 1.2 0
v -0.5 1.2 -0.1
v -0.4 1.2 -0.1
v -0.3 1.2 -0.1
v -0.2 1.2 -0.1
v 0.1 1.2 -0.1
v 0.2 1.2 -0.1
v 0.3 1.2 -0.1
v 0.4 1.2 -0.1
v -0.4 1.3 0
v -0.3 1.3 0
v 0.2 1.3 0
v 0.3 1.3 0
v -0.4 1.3 -0.1
v -0.3 1.3 -0.1
v 0.2 1.3 -0.1
v 0.3 1.3 -0.1

# faces
f 3/4/1 2/4/1 1/4/1
f 4/4/1 2/4/1 3/4/1
f 7/4/1 6/4/1 5/4/1
f 8/4/1 6/4/1 7/4/1
f 11/3/1 10/3/1 9/3/1
f 12/3/1 10/3/1 11/3/1
f 13/3/1 11/3/1 9/3/1
f 13/8/1 12/8/1 11/8/1
f 14/3/1 10/3/1 12/3/1
f 14/8/1 12/8/1 13/8/1
f 15/3/1 13/3/1 9/3/1
f 15/3/1 14/3/1 13/3/1
f 16/3/1 10/3/1 14/3/1
f 16/3/1 14/3/1 15/3/1
f 17/3/1 10/3/1 16/3/1
f 18/4/1 17/4/1 16/4/1
f 19/4/1 17/4/1 18/4/1
f 22/8/1 21/8/1 20/8/1
f 23/8/1 21/8/1 22/8/1
f 24/7/1 23/7/1 22/7/1
f 25/7/1 23/7/1 24/7/1
f 26/5/1 25/5/1 24/5/1
f 27/5/1 25/5/1 26/5/1
f 30/3/1 29/3/1 28/3/1
f 31/3/1 29/3/1 30/3/1
f 34/8/1 33/8/1 32/8/1
f 35/8/1 33/8/1 34/8/1
f 36/7/1 35/7/1 34/7/1
f 37/7/1 35/7/1 36/7/1
f 40/4/1 39/4/1 38/4/1
f 41/4/1 39/4/1 40/4/1
f 44/4/1 43/4/1 42/4/1
f 45/4/1 43/4/1 44/4/1
f 46/4/2 47/4/2 48/4/2
f 48/4/2 47/4/2 49/4/2
f 50/4/2 51/4/2 52/4/2
f 52/4/2 51/4/2 53/4/2
f 54/8/2 55/8/2 56/8/2
f 56/8/2 55/8/2 57/8/2
f 56/7/2 57/7/2 58/7/2
f 58/7/2 57/7/2 59/7/2
f 60/3/2 61/3/2 62/3/2
f 62/3/2 61/3/2 63/3/2
f 64/8/2 65/8/2 66/8/2
f 66/8/2 65/8/2 67/8/2
f 66/7/2 67/7/2 68/7/2
f 68/7/2 67/7/2 69/7/2
f 68/5/2 69/5/2 70/5/2
f 70/5/2 69/5/2 71/5/2
f 72/3/2 73/3/2 74/3/2
f 74/3/2 73/3/2 75/3/2
f 72/3/2 74/3/2 76/3/2
f 74/8/2 75/8/2 76/8/2
f 75/3/2 73/3/2 77/3/2
f 76/8/2 75/8/2 77/8/2
f 72/3/2 76/3/2 78/3/2
f 76/3/2 77/3/2 78/3/2
f 77/3/2 73/3/2 79/3/2
f 78/3/2 77/3/2 79/3/2
f 79/3/2 73/3/2 80/3/2
f 79/4/2 80/4/2 81/4/2
f 81/4/2 80/4/2 82/4/2
f 83/4/2 84/4/2 85/4/2
f 85/4/2 84/4/2 86/4/2
f 87/4/2 88/4/2 89/4/2
f 89/4/2 88/4/2 90/4/2
f 93/3/3 92/3/3 91/3/3
f 94/3/3 92/3/3 93/3/3
f 95/3/3 93/3/3 91/3/3
f 95/2/3 94/2/3 93/2/3
f 96/3/3 92/3/3 94/3/3
f 96/2/3 94/2/3 95/2/3
f 97/3/3 95/3/3 91/3/3
f 97/3/3 96/3/3 95/3/3
f 98/3/3 92/3/3 96/3/3
f 98/3/3 96/3/3 97/3/3
f 101/4/3 100/4/3 99/4/3
f 104/4/3 101/4/3 99/4/3
f 104/4/3 102/4/3 101/4/3
f 105/4/3 102/4/3 104/4/3
f 106/4/3 102/4/3 105/4/3
f 111/4/3 104/4/3 103/4/3
f 111/4/3 105/4/3 104/4/3
f 112/4/3 105/4/3 111/4/3
f 113/8/3 108/8/3 107/8/3
f 114/7/3 109/7/3 108/7/3
f 114/8/3 108/8/3 113/8/3
f 115/5/3 110/5/3 109/5/3
f 115/7/3 109/7/3 114/7/3
f 116/5/3 110/5/3 115/5/3
f 117/5/3 110/5/3 116/5/3
f 118/5/3 110/5/3 117/5/3
f 122/5/3 116/5/3 115/5/3
f 123/6/3 117/6/3 116/6/3
f 123/5/3 116/5/3 122/5/3
f 124/5/3 118/5/3 117/5/3
f 124/6/3 117/6/3 123/6/3
f 125/3/3 119/3/3 118/3/3
f 125/5/3 118/5/3 124/5/3
f 126/3/3 119/3/3 125/3/3
f 127/8/3 121/8/3 120/8/3
f 128/7/3 122/7/3 121/7/3
f 128/8/3 121/8/3 127/8/3
f 129/5/3 124/5/3 123/5/3
f 129/7/3 122/7/3 128/7/3
f 129/5/3 123/5/3 122/5/3
f 129/5/3 125/5/3 124/5/3
f 130/5/3 125/5/3 129/5/3
f 133/4/3 132/4/3 131/4/3
f 134/4/3 132/4/3 133/4/3
f 135/4/3 132/4/3 134/4/3
f 137/4/3 135/4/3 134/4/3
f 137/4/3 136/4/3 135/4/3
f 138/4/3 136/4/3 137/4/3
f 139/4/3 137/4/3 134/4/3
f 140/4/3 137/4/3 139/4/3
f 141/4/4 142/4/4 143/4/4
f 141/4/4 143/4/4 147/4/4
f 143/4/4 144/4/4 147/4/4
f 147/4/4 144/4/4 148/4/4
f 148/4/4 144/4/4 149/4/4
f 145/3/4 146/3/4 154/3/4
f 146/4/4 147/4/4 154/4/4
f 147/4/4 148/4/4 154/4/4
f 154/4/4 148/4/4 155/4/4
f 150/8/4 151/8/4 156/8/4
f 151/7/4 152/7/4 157/7/4
f 156/8/4 151/8/4 157/8/4
f 152/5/4 153/5/4 158/5/4
f 157/7/4 152/7/4 158/7/4
f 158/5/4 153/5/4 159/5/4
f 159/5/4 153/5/4 160/5/4
f 160/5/4 153/5/4 161/5/4
f 145/3/4 154/3/4 162/3/4
f 158/5/4 159/5/4 165/5/4
f 159/6/4 160/6/4 166/6/4
f 165/5/4 159/5/4 166/5/4
f 160/5/4 161/5/4 167/5/4
f 166/6/4 160/6/4 167/6/4
f 161/3/4 162/3/4 168/3/4
f 167/5/4 161/5/4 168/5/4
f 162/3/4 154/3/4 169/3/4
f 168/3/4 162/3/4 169/3/4
f 163/8/4 164/8/4 170/8/4
f 164/7/4 165/7/4 171/7/4
f 170/8/4 164/8/4 171/8/4
f 166/5/4 167/5/4 172/5/4
f 171/7/4 165/7/4 172/7/4
f 165/5/4 166/5/4 172/5/4
f 167/5/4 168/5/4 172/5/4
f 172/5/4 168/5/4 173/5/4
f 169/3/4 154/3/4 174/3/4
f 169/3/4 174/3/4 176/3/4
f 174/4/4 175/4/4 177/4/4
f 176/3/4 174/3/4 177/3/4
f 177/4/4 175/4/4 178/4/4
f 178/4/4 175/4/4 179/4/4
f 178/4/4 179/4/4 181/4/4
f 179/4/4 180/4/4 181/4/4
f 181/4/4 180/4/4 182/4/4
f 178/4/4 181/4/4 183/4/4
f 183/4/4 181/4/4 184/4/4
f 189/8/5 186/8/5 185/8/5
f 190/8/5 186/8/5 189/8/5
f 191/8/5 188/8/5 187/8/5
f 192/8/5 188/8/5 191/8/5
f 195/5/5 194/5/5 193/5/5
f 196/5/5 194/5/5 195/5/5
f 199/3/5 198/3/5 197/3/5
f 200/3/5 198/3/5 199/3/5
f 201/3/5 199/3/5 197/3/5
f 202/3/5 199/3/5 201/3/5
f 203/3/5 198/3/5 200/3/5
f 204/3/5 198/3/5 203/3/5
f 209/4/5 206/4/5 205/4/5
f 210/4/5 206/4/5 209/4/5
f 211/4/5 208/4/5 207/4/5
f 212/4/5 208/4/5 211/4/5
f 213/5/6 214/5/6 217/5/6
f 217/5/6 214/5/6 218/5/6
f 215/5/6 216/5/6 219/5/6
f 219/5/6 216/5/6 220/5/6
f 221/3/6 222/3/6 223/3/6
f 223/3/6 222/3/6 224/3/6
f 224/3/6 222/3/6 225/3/6
f 225/3/6 222/3/6 226/3/6
f 224/3/6 225/3/6 227/3/6
f 227/3/6 225/3/6 228/3/6
f 229/4/6 230/4/6 237/4/6
f 237/4/6 230/4/6 238/4/6
f 231/4/6 232/4/6 239/4/6
f 239/4/6 232/4/6 240/4/6
f 233/4/6 234/4/6 241/4/6
f 241/4/6 234/4/6 242/4/6
f 235/4/6 236/4/6 243/4/6
f 243/4/6 236/4/6 244/4/6
f 245/4/6 246/4/6 249/4/6
f 249/4/6 246/4/6 250/4/6
f 247/4/6 248/4/6 251/4/6
f 251/4/6 248/4/6 252/4/6
