# MagicaVoxel @ Ephtracy

# group
o rail1-broken

# material
mtllib environ-8-rail1-broken.mtl
usemtl palette

# normals
vn -1 0 0
vn 1 0 0
vn 0 0 1
vn 0 0 -1
vn 0 -1 0
vn 0 1 0

# texcoords
vt 0.201172 0.5
vt 0.236328 0.5

# verts
v 1.1 0.6 1.5
v 1.1 0.6 1.4
v 1.1 0.9 1.5
v 1.1 0.9 1.4
v 1.1 1 1.5
v 1.1 1 1.4
v 1.4 0.6 1.5
v 1.4 0.6 1.4
v 1.4 0.7 1.5
v 1.4 0.7 1.4
v 1.5 0.9 1.5
v 1.5 0.9 1.4
v 1.5 1 1.5
v 1.5 1 1.4
v 1.6 0.6 1.5
v 1.6 0.6 1.4
v 1.6 0.9 1.5
v 1.6 0.9 1.4
v 1.2 0.6 1.5
v 1.2 0.6 1.4
v 1.2 0.9 1.5
v 1.2 0.9 1.4
v 1.2 1 1.5
v 1.2 1 1.4
v 1.5 0.6 1.5
v 1.5 0.6 1.4
v 1.5 0.7 1.5
v 1.5 0.7 1.4
v 1.7 0.6 1.5
v 1.7 0.6 1.4
v 1.7 0.9 1.5
v 1.7 0.9 1.4
v 1.7 1 1.5
v 1.7 1 1.4
v 1.1 0.6 1.5
v 1.1 0.9 1.5
v 1.1 1 1.5
v 1.2 0.6 1.5
v 1.2 0.9 1.5
v 1.2 1 1.5
v 1.4 0.6 1.5
v 1.4 0.7 1.5
v 1.5 0.6 1.5
v 1.5 0.7 1.5
v 1.5 0.9 1.5
v 1.5 1 1.5
v 1.6 0.6 1.5
v 1.6 0.9 1.5
v 1.7 0.6 1.5
v 1.7 0.9 1.5
v 1.7 1 1.5
v 1.1 0.6 1.4
v 1.1 0.9 1.4
v 1.1 1 1.4
v 1.2 0.6 1.4
v 1.2 0.9 1.4
v 1.2 1 1.4
v 1.4 0.6 1.4
v 1.4 0.7 1.4
v 1.5 0.6 1.4
v 1.5 0.7 1.4
v 1.5 0.9 1.4
v 1.5 1 1.4
v 1.6 0.6 1.4
v 1.6 0.9 1.4
v 1.7 0.6 1.4
v 1.7 0.9 1.4
v 1.7 1 1.4
v 1.1 0.6 1.5
v 1.2 0.6 1.5
v 1.4 0.6 1.5
v 1.5 0.6 1.5
v 1.6 0.6 1.5
v 1.7 0.6 1.5
v 1.1 0.6 1.4
v 1.2 0.6 1.4
v 1.4 0.6 1.4
v 1.5 0.6 1.4
v 1.6 0.6 1.4
v 1.7 0.6 1.4
v 1.5 0.9 1.5
v 1.6 0.9 1.5
v 1.5 0.9 1.4
v 1.6 0.9 1.4
v 1.4 0.7 1.5
v 1.5 0.7 1.5
v 1.4 0.7 1.4
v 1.5 0.7 1.4
v 1.1 1 1.5
v 1.2 1 1.5
v 1.5 1 1.5
v 1.7 1 1.5
v 1.1 1 1.4
v 1.2 1 1.4
v 1.5 1 1.4
v 1.7 1 1.4

# faces
f 3/1/1 2/1/1 1/1/1
f 4/1/1 2/1/1 3/1/1
f 5/2/1 4/2/1 3/2/1
f 6/2/1 4/2/1 5/2/1
f 9/1/1 8/1/1 7/1/1
f 10/1/1 8/1/1 9/1/1
f 13/2/1 12/2/1 11/2/1
f 14/2/1 12/2/1 13/2/1
f 17/1/1 16/1/1 15/1/1
f 18/1/1 16/1/1 17/1/1
f 19/1/2 20/1/2 21/1/2
f 21/1/2 20/1/2 22/1/2
f 21/2/2 22/2/2 23/2/2
f 23/2/2 22/2/2 24/2/2
f 25/1/2 26/1/2 27/1/2
f 27/1/2 26/1/2 28/1/2
f 29/1/2 30/1/2 31/1/2
f 31/1/2 30/1/2 32/1/2
f 31/2/2 32/2/2 33/2/2
f 33/2/2 32/2/2 34/2/2
f 38/1/3 36/1/3 35/1/3
f 39/2/3 37/2/3 36/2/3
f 39/1/3 36/1/3 38/1/3
f 40/2/3 37/2/3 39/2/3
f 43/1/3 42/1/3 41/1/3
f 44/1/3 42/1/3 43/1/3
f 48/2/3 46/2/3 45/2/3
f 49/1/3 48/1/3 47/1/3
f 50/2/3 46/2/3 48/2/3
f 50/1/3 48/1/3 49/1/3
f 51/2/3 46/2/3 50/2/3
f 52/1/4 53/1/4 55/1/4
f 53/2/4 54/2/4 56/2/4
f 55/1/4 53/1/4 56/1/4
f 56/2/4 54/2/4 57/2/4
f 58/1/4 59/1/4 60/1/4
f 60/1/4 59/1/4 61/1/4
f 62/2/4 63/2/4 65/2/4
f 64/1/4 65/1/4 66/1/4
f 65/2/4 63/2/4 67/2/4
f 66/1/4 65/1/4 67/1/4
f 67/2/4 63/2/4 68/2/4
f 75/1/5 70/1/5 69/1/5
f 76/1/5 70/1/5 75/1/5
f 77/1/5 72/1/5 71/1/5
f 78/1/5 72/1/5 77/1/5
f 79/1/5 74/1/5 73/1/5
f 80/1/5 74/1/5 79/1/5
f 83/2/5 82/2/5 81/2/5
f 84/2/5 82/2/5 83/2/5
f 85/1/6 86/1/6 87/1/6
f 87/1/6 86/1/6 88/1/6
f 89/2/6 90/2/6 93/2/6
f 93/2/6 90/2/6 94/2/6
f 91/2/6 92/2/6 95/2/6
f 95/2/6 92/2/6 96/2/6
