# MagicaVoxel @ Ephtracy

# group
o grate4

# material
mtllib environ-37-grate4.mtl
usemtl palette

# normals
vn -1 0 0
vn 1 0 0
vn 0 0 1
vn 0 0 -1
vn 0 -1 0
vn 0 1 0

# texcoords
vt 0.974609 0.5
vt 0.978516 0.5
vt 0.986328 0.5

# verts
v -1 0 0.3
v -1 0 -0.4
v -1 0.1 0.3
v -1 0.1 -0.4
v -0.3 0 0.3
v -0.3 0 0.2
v -0.3 0 0.1
v -0.3 0 0
v -0.3 0 -0.1
v -0.3 0 -0.2
v -0.3 0 -0.3
v -0.3 0 -0.4
v -0.3 0.1 0.3
v -0.3 0.1 0.2
v -0.3 0.1 0.1
v -0.3 0.1 0
v -0.3 0.1 -0.1
v -0.3 0.1 -0.2
v -0.3 0.1 -0.3
v -0.3 0.1 -0.4
v -1 0 0.3
v -1 0.1 0.3
v -0.9 0 0.3
v -0.9 0.1 0.3
v -0.3 0 0.3
v -0.3 0.1 0.3
v -1 0 -0.4
v -1 0.1 -0.4
v -0.9 0 -0.4
v -0.9 0.1 -0.4
v -0.3 0 -0.4
v -0.3 0.1 -0.4
v -1 0 0.3
v -0.9 0 0.3
v -0.3 0 0.3
v -0.8 0 0.2
v -0.7 0 0.2
v -0.6 0 0.2
v -0.5 0 0.2
v -0.4 0 0.2
v -0.3 0 0.2
v -0.8 0 0.1
v -0.7 0 0.1
v -0.6 0 0.1
v -0.5 0 0.1
v -0.4 0 0.1
v -0.3 0 0.1
v -0.8 0 0
v -0.7 0 0
v -0.6 0 0
v -0.5 0 0
v -0.4 0 0
v -0.3 0 0
v -0.8 0 -0.1
v -0.7 0 -0.1
v -0.6 0 -0.1
v -0.5 0 -0.1
v -0.4 0 -0.1
v -0.3 0 -0.1
v -0.8 0 -0.2
v -0.7 0 -0.2
v -0.6 0 -0.2
v -0.5 0 -0.2
v -0.4 0 -0.2
v -0.3 0 -0.2
v -0.8 0 -0.3
v -0.7 0 -0.3
v -0.6 0 -0.3
v -0.5 0 -0.3
v -0.4 0 -0.3
v -0.3 0 -0.3
v -1 0 -0.4
v -0.9 0 -0.4
v -0.3 0 -0.4
v -1 0.1 0.3
v -0.9 0.1 0.3
v -0.3 0.1 0.3
v -0.8 0.1 0.2
v -0.7 0.1 0.2
v -0.6 0.1 0.2
v -0.5 0.1 0.2
v -0.4 0.1 0.2
v -0.3 0.1 0.2
v -0.8 0.1 0.1
v -0.7 0.1 0.1
v -0.6 0.1 0.1
v -0.5 0.1 0.1
v -0.4 0.1 0.1
v -0.3 0.1 0.1
v -0.8 0.1 0
v -0.7 0.1 0
v -0.6 0.1 0
v -0.5 0.1 0
v -0.4 0.1 0
v -0.3 0.1 0
v -0.8 0.1 -0.1
v -0.7 0.1 -0.1
v -0.6 0.1 -0.1
v -0.5 0.1 -0.1
v -0.4 0.1 -0.1
v -0.3 0.1 -0.1
v -0.8 0.1 -0.2
v -0.7 0.1 -0.2
v -0.6 0.1 -0.2
v -0.5 0.1 -0.2
v -0.4 0.1 -0.2
v -0.3 0.1 -0.2
v -0.8 0.1 -0.3
v -0.7 0.1 -0.3
v -0.6 0.1 -0.3
v -0.5 0.1 -0.3
v -0.4 0.1 -0.3
v -0.3 0.1 -0.3
v -1 0.1 -0.4
v -0.9 0.1 -0.4
v -0.3 0.1 -0.4

# faces
f 3/1/1 2/1/1 1/1/1
f 4/1/1 2/1/1 3/1/1
f 5/2/2 6/2/2 13/2/2
f 6/3/2 7/3/2 14/3/2
f 13/2/2 6/2/2 14/2/2
f 7/2/2 8/2/2 15/2/2
f 14/3/2 7/3/2 15/3/2
f 8/3/2 9/3/2 16/3/2
f 15/2/2 8/2/2 16/2/2
f 9/2/2 10/2/2 17/2/2
f 16/3/2 9/3/2 17/3/2
f 10/3/2 11/3/2 18/3/2
f 17/2/2 10/2/2 18/2/2
f 11/2/2 12/2/2 19/2/2
f 18/3/2 11/3/2 19/3/2
f 19/2/2 12/2/2 20/2/2
f 23/1/3 22/1/3 21/1/3
f 24/1/3 22/1/3 23/1/3
f 25/2/3 24/2/3 23/2/3
f 26/2/3 24/2/3 25/2/3
f 27/1/4 28/1/4 29/1/4
f 29/1/4 28/1/4 30/1/4
f 29/2/4 30/2/4 31/2/4
f 31/2/4 30/2/4 32/2/4
f 36/2/5 35/2/5 34/2/5
f 37/2/5 35/2/5 36/2/5
f 38/2/5 35/2/5 37/2/5
f 39/2/5 35/2/5 38/2/5
f 40/2/5 35/2/5 39/2/5
f 41/2/5 35/2/5 40/2/5
f 42/2/5 36/2/5 34/2/5
f 42/3/5 37/3/5 36/3/5
f 43/2/5 38/2/5 37/2/5
f 43/3/5 37/3/5 42/3/5
f 44/3/5 39/3/5 38/3/5
f 44/2/5 38/2/5 43/2/5
f 45/2/5 40/2/5 39/2/5
f 45/3/5 39/3/5 44/3/5
f 46/3/5 41/3/5 40/3/5
f 46/2/5 40/2/5 45/2/5
f 47/3/5 41/3/5 46/3/5
f 48/2/5 45/2/5 44/2/5
f 48/2/5 42/2/5 34/2/5
f 48/2/5 47/2/5 46/2/5
f 48/2/5 46/2/5 45/2/5
f 48/2/5 44/2/5 43/2/5
f 48/2/5 43/2/5 42/2/5
f 49/2/5 47/2/5 48/2/5
f 50/2/5 47/2/5 49/2/5
f 51/2/5 47/2/5 50/2/5
f 52/2/5 47/2/5 51/2/5
f 53/2/5 47/2/5 52/2/5
f 54/2/5 48/2/5 34/2/5
f 54/3/5 49/3/5 48/3/5
f 55/2/5 50/2/5 49/2/5
f 55/3/5 49/3/5 54/3/5
f 56/3/5 51/3/5 50/3/5
f 56/2/5 50/2/5 55/2/5
f 57/2/5 52/2/5 51/2/5
f 57/3/5 51/3/5 56/3/5
f 58/3/5 53/3/5 52/3/5
f 58/2/5 52/2/5 57/2/5
f 59/3/5 53/3/5 58/3/5
f 60/2/5 57/2/5 56/2/5
f 60/2/5 54/2/5 34/2/5
f 60/2/5 59/2/5 58/2/5
f 60/2/5 58/2/5 57/2/5
f 60/2/5 56/2/5 55/2/5
f 60/2/5 55/2/5 54/2/5
f 61/2/5 59/2/5 60/2/5
f 62/2/5 59/2/5 61/2/5
f 63/2/5 59/2/5 62/2/5
f 64/2/5 59/2/5 63/2/5
f 65/2/5 59/2/5 64/2/5
f 66/2/5 60/2/5 34/2/5
f 66/3/5 61/3/5 60/3/5
f 67/2/5 62/2/5 61/2/5
f 67/3/5 61/3/5 66/3/5
f 68/3/5 63/3/5 62/3/5
f 68/2/5 62/2/5 67/2/5
f 69/2/5 64/2/5 63/2/5
f 69/3/5 63/3/5 68/3/5
f 70/3/5 65/3/5 64/3/5
f 70/2/5 64/2/5 69/2/5
f 71/3/5 65/3/5 70/3/5
f 72/1/5 34/1/5 33/1/5
f 73/2/5 69/2/5 68/2/5
f 73/1/5 34/1/5 72/1/5
f 73/2/5 66/2/5 34/2/5
f 73/2/5 71/2/5 70/2/5
f 73/2/5 70/2/5 69/2/5
f 73/2/5 68/2/5 67/2/5
f 73/2/5 67/2/5 66/2/5
f 74/2/5 71/2/5 73/2/5
f 76/2/6 77/2/6 78/2/6
f 78/2/6 77/2/6 79/2/6
f 79/2/6 77/2/6 80/2/6
f 80/2/6 77/2/6 81/2/6
f 81/2/6 77/2/6 82/2/6
f 82/2/6 77/2/6 83/2/6
f 76/2/6 78/2/6 84/2/6
f 78/3/6 79/3/6 84/3/6
f 79/2/6 80/2/6 85/2/6
f 84/3/6 79/3/6 85/3/6
f 80/3/6 81/3/6 86/3/6
f 85/2/6 80/2/6 86/2/6
f 81/2/6 82/2/6 87/2/6
f 86/3/6 81/3/6 87/3/6
f 82/3/6 83/3/6 88/3/6
f 87/2/6 82/2/6 88/2/6
f 88/3/6 83/3/6 89/3/6
f 86/2/6 87/2/6 90/2/6
f 76/2/6 84/2/6 90/2/6
f 88/2/6 89/2/6 90/2/6
f 87/2/6 88/2/6 90/2/6
f 85/2/6 86/2/6 90/2/6
f 84/2/6 85/2/6 90/2/6
f 90/2/6 89/2/6 91/2/6
f 91/2/6 89/2/6 92/2/6
f 92/2/6 89/2/6 93/2/6
f 93/2/6 89/2/6 94/2/6
f 94/2/6 89/2/6 95/2/6
f 76/2/6 90/2/6 96/2/6
f 90/3/6 91/3/6 96/3/6
f 91/2/6 92/2/6 97/2/6
f 96/3/6 91/3/6 97/3/6
f 92/3/6 93/3/6 98/3/6
f 97/2/6 92/2/6 98/2/6
f 93/2/6 94/2/6 99/2/6
f 98/3/6 93/3/6 99/3/6
f 94/3/6 95/3/6 100/3/6
f 99/2/6 94/2/6 100/2/6
f 100/3/6 95/3/6 101/3/6
f 98/2/6 99/2/6 102/2/6
f 76/2/6 96/2/6 102/2/6
f 100/2/6 101/2/6 102/2/6
f 99/2/6 100/2/6 102/2/6
f 97/2/6 98/2/6 102/2/6
f 96/2/6 97/2/6 102/2/6
f 102/2/6 101/2/6 103/2/6
f 103/2/6 101/2/6 104/2/6
f 104/2/6 101/2/6 105/2/6
f 105/2/6 101/2/6 106/2/6
f 106/2/6 101/2/6 107/2/6
f 76/2/6 102/2/6 108/2/6
f 102/3/6 103/3/6 108/3/6
f 103/2/6 104/2/6 109/2/6
f 108/3/6 103/3/6 109/3/6
f 104/3/6 105/3/6 110/3/6
f 109/2/6 104/2/6 110/2/6
f 105/2/6 106/2/6 111/2/6
f 110/3/6 105/3/6 111/3/6
f 106/3/6 107/3/6 112/3/6
f 111/2/6 106/2/6 112/2/6
f 112/3/6 107/3/6 113/3/6
f 75/1/6 76/1/6 114/1/6
f 110/2/6 111/2/6 115/2/6
f 114/1/6 76/1/6 115/1/6
f 76/2/6 108/2/6 115/2/6
f 112/2/6 113/2/6 115/2/6
f 111/2/6 112/2/6 115/2/6
f 109/2/6 110/2/6 115/2/6
f 108/2/6 109/2/6 115/2/6
f 115/2/6 113/2/6 116/2/6
