# MagicaVoxel @ Ephtracy

# group
o rail3

# material
mtllib environ-24-rail3.mtl
usemtl palette

# normals
vn -1 0 0
vn 1 0 0
vn 0 0 1
vn 0 0 -1
vn 0 -1 0
vn 0 1 0

# texcoords
vt 0.201172 0.5
vt 0.216797 0.5
vt 0.232422 0.5

# verts
v -2.4 0 1.3
v -2.4 0 1.1
v -2.4 0 1
v -2.4 0.1 1.4
v -2.4 0.1 1.3
v -2.4 0.1 1.1
v -2.4 0.1 1
v -2.4 0.2 1.5
v -2.4 0.2 1.4
v -2.4 0.2 1.3
v -2.4 0.3 1.5
v -2.4 0.3 1.4
v -2.4 0.4 1.5
v -2.4 0.4 1.4
v -2.4 0.5 1.5
v -2.4 0.5 1.4
v -2.4 0.6 1.5
v -2.4 0.6 1.4
v -2.1 0.1 1.3
v -2.1 0.1 1.2
v -2.1 0.1 1.1
v -2.1 0.1 1
v -2.1 0.2 1.4
v -2.1 0.2 1.3
v -2.1 0.3 1.4
v -2.1 0.3 1.3
v -2.1 0.3 1.2
v -2.1 0.3 1
v -2.1 0.4 1.4
v -2.1 0.4 1.2
v -2.1 0.4 1
v -2.1 0.5 1.4
v -2.1 0.5 1
v -2.1 0.6 1.4
v -2.1 0.6 1
v -1.5 0.1 1.4
v -1.5 0.1 1.3
v -1.5 0.2 1.5
v -1.5 0.2 1.4
v -1.5 0.2 1.3
v -1.5 0.3 1.5
v -1.5 0.3 1.4
v -1.5 0.4 1.5
v -1.5 0.4 1.4
v -1.5 0.5 1.5
v -1.5 0.5 1.4
v -1.4 0.1 1.3
v -1.4 0.1 1.2
v -1.4 0.1 1.1
v -1.4 0.1 1
v -1.4 0.2 1.4
v -1.4 0.2 1.3
v -1.4 0.3 1.4
v -1.4 0.3 1.3
v -1.4 0.3 1.2
v -1.4 0.3 1
v -1.4 0.4 1.4
v -1.4 0.4 1.2
v -1.4 0.4 1
v -1.4 0.5 1.4
v -1.4 0.5 1
v -1.4 0.6 1.4
v -1.4 0.6 1
v -2 0.1 1.3
v -2 0.1 1.2
v -2 0.1 1
v -2 0.2 1.4
v -2 0.2 1.3
v -2 0.3 1.4
v -2 0.3 1.3
v -2 0.3 1.2
v -2 0.3 1
v -2 0.4 1.4
v -2 0.4 1.2
v -2 0.4 1
v -2 0.5 1.4
v -2 0.5 1
v -2 0.6 1.4
v -2 0.6 1
v -1.9 0.1 1.4
v -1.9 0.1 1.3
v -1.9 0.2 1.5
v -1.9 0.2 1.4
v -1.9 0.2 1.3
v -1.9 0.3 1.5
v -1.9 0.3 1.4
v -1.9 0.4 1.5
v -1.9 0.4 1.4
v -1.9 0.5 1.5
v -1.9 0.5 1.4
v -1.3 0.1 1.3
v -1.3 0.1 1.2
v -1.3 0.1 1
v -1.3 0.2 1.4
v -1.3 0.2 1.3
v -1.3 0.3 1.4
v -1.3 0.3 1.3
v -1.3 0.3 1.2
v -1.3 0.3 1
v -1.3 0.4 1.4
v -1.3 0.4 1.2
v -1.3 0.4 1
v -1.3 0.5 1.4
v -1.3 0.5 1
v -1.3 0.6 1.4
v -1.3 0.6 1
v -1 0 1.3
v -1 0 1.1
v -1 0 1
v -1 0.1 1.4
v -1 0.1 1.3
v -1 0.1 1.1
v -1 0.1 1
v -1 0.2 1.5
v -1 0.2 1.4
v -1 0.2 1.3
v -1 0.5 1.5
v -1 0.5 1.4
v -1 0.6 1.5
v -1 0.6 1.4
v -2.4 0.2 1.5
v -2.4 0.3 1.5
v -2.4 0.4 1.5
v -2.4 0.5 1.5
v -2.4 0.6 1.5
v -2.1 0.3 1.5
v -2.1 0.4 1.5
v -2 0.3 1.5
v -2 0.4 1.5
v -1.9 0.2 1.5
v -1.9 0.3 1.5
v -1.9 0.4 1.5
v -1.9 0.5 1.5
v -1.5 0.2 1.5
v -1.5 0.3 1.5
v -1.5 0.4 1.5
v -1.5 0.5 1.5
v -1.4 0.3 1.5
v -1.4 0.4 1.5
v -1.3 0.3 1.5
v -1.3 0.4 1.5
v -1.2 0.3 1.5
v -1.2 0.4 1.5
v -1 0.2 1.5
v -1 0.5 1.5
v -1 0.6 1.5
v -2.4 0.1 1.4
v -2.4 0.2 1.4
v -2.3 0.1 1.4
v -2.3 0.2 1.4
v -2.1 0.1 1.4
v -2.1 0.2 1.4
v -1.9 0.1 1.4
v -1.9 0.2 1.4
v -1.5 0.1 1.4
v -1.5 0.2 1.4
v -1.4 0.1 1.4
v -1.4 0.2 1.4
v -1.2 0.1 1.4
v -1.2 0.2 1.4
v -1 0.1 1.4
v -1 0.2 1.4
v -2.4 0 1.3
v -2.4 0.1 1.3
v -2.3 0.1 1.3
v -2.2 0 1.3
v -2.2 0.1 1.3
v -2.1 0.1 1.3
v -1.9 0.1 1.3
v -1.8 0 1.3
v -1.8 0.1 1.3
v -1.5 0 1.3
v -1.5 0.1 1.3
v -1.4 0.1 1.3
v -1.2 0.1 1.3
v -1.1 0 1.3
v -1.1 0.1 1.3
v -1 0 1.3
v -1 0.1 1.3
v -2.4 0.2 1.4
v -2.4 0.3 1.4
v -2.4 0.4 1.4
v -2.4 0.5 1.4
v -2.4 0.6 1.4
v -2.3 0.2 1.4
v -2.1 0.2 1.4
v -2.1 0.3 1.4
v -2.1 0.4 1.4
v -2.1 0.5 1.4
v -2.1 0.6 1.4
v -2 0.2 1.4
v -2 0.3 1.4
v -2 0.4 1.4
v -2 0.5 1.4
v -2 0.6 1.4
v -1.9 0.2 1.4
v -1.9 0.3 1.4
v -1.9 0.4 1.4
v -1.9 0.5 1.4
v -1.5 0.2 1.4
v -1.5 0.3 1.4
v -1.5 0.4 1.4
v -1.5 0.5 1.4
v -1.4 0.2 1.4
v -1.4 0.3 1.4
v -1.4 0.4 1.4
v -1.4 0.5 1.4
v -1.4 0.6 1.4
v -1.3 0.2 1.4
v -1.3 0.3 1.4
v -1.3 0.4 1.4
v -1.3 0.5 1.4
v -1.3 0.6 1.4
v -1.2 0.2 1.4
v -1.2 0.3 1.4
v -1.2 0.4 1.4
v -1 0.2 1.4
v -1 0.5 1.4
v -1 0.6 1.4
v -2.4 0.1 1.3
v -2.4 0.2 1.3
v -2.3 0.1 1.3
v -2.3 0.2 1.3
v -2.2 0.1 1.3
v -2.1 0.1 1.3
v -2.1 0.2 1.3
v -2 0.1 1.3
v -2 0.2 1.3
v -1.9 0.1 1.3
v -1.9 0.2 1.3
v -1.5 0.1 1.3
v -1.5 0.2 1.3
v -1.4 0.1 1.3
v -1.4 0.2 1.3
v -1.3 0.1 1.3
v -1.3 0.2 1.3
v -1.2 0.1 1.3
v -1.2 0.2 1.3
v -1.1 0.1 1.3
v -1 0.1 1.3
v -1 0.2 1.3
v -2.4 0 1
v -2.4 0.1 1
v -2.2 0 1
v -2.2 0.1 1
v -2.1 0 1
v -2.1 0.1 1
v -2.1 0.3 1
v -2.1 0.4 1
v -2.1 0.5 1
v -2.1 0.6 1
v -2 0.1 1
v -2 0.3 1
v -2 0.4 1
v -2 0.5 1
v -2 0.6 1
v -1.8 0 1
v -1.8 0.1 1
v -1.5 0 1
v -1.5 0.1 1
v -1.4 0 1
v -1.4 0.1 1
v -1.4 0.3 1
v -1.4 0.4 1
v -1.4 0.5 1
v -1.4 0.6 1
v -1.3 0.1 1
v -1.3 0.3 1
v -1.3 0.4 1
v -1.3 0.5 1
v -1.3 0.6 1
v -1.1 0 1
v -1.1 0.1 1
v -1 0 1
v -1 0.1 1
v -2.4 0 1.3
v -2.2 0 1.3
v -1.8 0 1.3
v -1.5 0 1.3
v -1.1 0 1.3
v -1 0 1.3
v -2.2 0 1.2
v -1.8 0 1.2
v -1.5 0 1.2
v -1.1 0 1.2
v -2.4 0 1.1
v -2.2 0 1.1
v -2.1 0 1.1
v -1.8 0 1.1
v -1.5 0 1.1
v -1.4 0 1.1
v -1.1 0 1.1
v -1 0 1.1
v -2.4 0 1
v -2.2 0 1
v -2.1 0 1
v -1.8 0 1
v -1.5 0 1
v -1.4 0 1
v -1.1 0 1
v -1 0 1
v -2.4 0.1 1.4
v -2.3 0.1 1.4
v -2.1 0.1 1.4
v -1.9 0.1 1.4
v -1.5 0.1 1.4
v -1.4 0.1 1.4
v -1.2 0.1 1.4
v -1 0.1 1.4
v -2.4 0.1 1.3
v -2.3 0.1 1.3
v -2.2 0.1 1.3
v -2.1 0.1 1.3
v -1.9 0.1 1.3
v -1.5 0.1 1.3
v -1.4 0.1 1.3
v -1.2 0.1 1.3
v -1.1 0.1 1.3
v -1 0.1 1.3
v -2.4 0.2 1.5
v -1.9 0.2 1.5
v -1.5 0.2 1.5
v -1 0.2 1.5
v -2.4 0.2 1.4
v -2.3 0.2 1.4
v -2.1 0.2 1.4
v -1.9 0.2 1.4
v -1.5 0.2 1.4
v -1.4 0.2 1.4
v -1.2 0.2 1.4
v -1 0.2 1.4
v -1.9 0.5 1.5
v -1.5 0.5 1.5
v -1.9 0.5 1.4
v -1.5 0.5 1.4
v -2.4 0.1 1.3
v -2.3 0.1 1.3
v -2.2 0.1 1.3
v -2.1 0.1 1.3
v -2 0.1 1.3
v -1.9 0.1 1.3
v -1.8 0.1 1.3
v -1.5 0.1 1.3
v -1.4 0.1 1.3
v -1.3 0.1 1.3
v -1.2 0.1 1.3
v -1.1 0.1 1.3
v -1 0.1 1.3
v -2.2 0.1 1.2
v -2.1 0.1 1.2
v -2 0.1 1.2
v -1.8 0.1 1.2
v -1.5 0.1 1.2
v -1.4 0.1 1.2
v -1.3 0.1 1.2
v -1.1 0.1 1.2
v -2.4 0.1 1.1
v -2.2 0.1 1.1
v -2.1 0.1 1.1
v -1.8 0.1 1.1
v -1.5 0.1 1.1
v -1.4 0.1 1.1
v -1.1 0.1 1.1
v -1 0.1 1.1
v -2.4 0.1 1
v -2.2 0.1 1
v -2.1 0.1 1
v -2 0.1 1
v -1.8 0.1 1
v -1.5 0.1 1
v -1.4 0.1 1
v -1.3 0.1 1
v -1.1 0.1 1
v -1 0.1 1
v -2.4 0.2 1.4
v -2.3 0.2 1.4
v -2.1 0.2 1.4
v -2 0.2 1.4
v -1.9 0.2 1.4
v -1.5 0.2 1.4
v -1.4 0.2 1.4
v -1.3 0.2 1.4
v -1.2 0.2 1.4
v -1 0.2 1.4
v -2.4 0.2 1.3
v -2.3 0.2 1.3
v -2.1 0.2 1.3
v -2 0.2 1.3
v -1.9 0.2 1.3
v -1.5 0.2 1.3
v -1.4 0.2 1.3
v -1.3 0.2 1.3
v -1.2 0.2 1.3
v -1 0.2 1.3
v -2.4 0.6 1.5
v -1 0.6 1.5
v -2.4 0.6 1.4
v -2.1 0.6 1.4
v -2 0.6 1.4
v -1.4 0.6 1.4
v -1.3 0.6 1.4
v -1 0.6 1.4
v -2.1 0.6 1
v -2 0.6 1
v -1.4 0.6 1
v -1.3 0.6 1

# faces
f 5/3/1 2/3/1 1/3/1
f 6/2/1 3/2/1 2/2/1
f 6/3/1 2/3/1 5/3/1
f 7/2/1 3/2/1 6/2/1
f 9/3/1 5/3/1 4/3/1
f 10/3/1 5/3/1 9/3/1
f 11/3/1 9/3/1 8/3/1
f 12/3/1 9/3/1 11/3/1
f 13/1/1 12/1/1 11/1/1
f 14/1/1 12/1/1 13/1/1
f 15/3/1 14/3/1 13/3/1
f 16/3/1 14/3/1 15/3/1
f 17/2/1 16/2/1 15/2/1
f 18/2/1 16/2/1 17/2/1
f 24/3/1 20/3/1 19/3/1
f 24/3/1 22/3/1 21/3/1
f 24/3/1 21/3/1 20/3/1
f 25/1/1 24/1/1 23/1/1
f 26/3/1 22/3/1 24/3/1
f 26/1/1 24/1/1 25/1/1
f 27/3/1 22/3/1 26/3/1
f 28/3/1 22/3/1 27/3/1
f 29/3/1 26/3/1 25/3/1
f 29/3/1 27/3/1 26/3/1
f 30/1/1 28/1/1 27/1/1
f 30/3/1 27/3/1 29/3/1
f 31/1/1 28/1/1 30/1/1
f 32/3/1 30/3/1 29/3/1
f 32/3/1 31/3/1 30/3/1
f 33/3/1 31/3/1 32/3/1
f 34/2/1 33/2/1 32/2/1
f 35/2/1 33/2/1 34/2/1
f 39/1/1 37/1/1 36/1/1
f 40/1/1 37/1/1 39/1/1
f 41/3/1 39/3/1 38/3/1
f 42/3/1 39/3/1 41/3/1
f 43/1/1 42/1/1 41/1/1
f 44/1/1 42/1/1 43/1/1
f 45/3/1 44/3/1 43/3/1
f 46/3/1 44/3/1 45/3/1
f 52/3/1 48/3/1 47/3/1
f 52/3/1 50/3/1 49/3/1
f 52/3/1 49/3/1 48/3/1
f 53/1/1 52/1/1 51/1/1
f 54/3/1 50/3/1 52/3/1
f 54/1/1 52/1/1 53/1/1
f 55/3/1 50/3/1 54/3/1
f 56/3/1 50/3/1 55/3/1
f 57/3/1 54/3/1 53/3/1
f 57/3/1 55/3/1 54/3/1
f 58/1/1 56/1/1 55/1/1
f 58/3/1 55/3/1 57/3/1
f 59/1/1 56/1/1 58/1/1
f 60/3/1 58/3/1 57/3/1
f 60/3/1 59/3/1 58/3/1
f 61/3/1 59/3/1 60/3/1
f 62/2/1 61/2/1 60/2/1
f 63/2/1 61/2/1 62/2/1
f 64/3/2 65/3/2 68/3/2
f 65/3/2 66/3/2 68/3/2
f 67/1/2 68/1/2 69/1/2
f 68/3/2 66/3/2 70/3/2
f 69/1/2 68/1/2 70/1/2
f 70/3/2 66/3/2 71/3/2
f 71/3/2 66/3/2 72/3/2
f 69/3/2 70/3/2 73/3/2
f 70/3/2 71/3/2 73/3/2
f 71/1/2 72/1/2 74/1/2
f 73/3/2 71/3/2 74/3/2
f 74/1/2 72/1/2 75/1/2
f 73/3/2 74/3/2 76/3/2
f 74/3/2 75/3/2 76/3/2
f 76/3/2 75/3/2 77/3/2
f 76/2/2 77/2/2 78/2/2
f 78/2/2 77/2/2 79/2/2
f 80/3/2 81/3/2 83/3/2
f 83/3/2 81/3/2 84/3/2
f 82/3/2 83/3/2 85/3/2
f 85/3/2 83/3/2 86/3/2
f 85/1/2 86/1/2 87/1/2
f 87/1/2 86/1/2 88/1/2
f 87/3/2 88/3/2 89/3/2
f 89/3/2 88/3/2 90/3/2
f 91/3/2 92/3/2 95/3/2
f 92/3/2 93/3/2 95/3/2
f 94/1/2 95/1/2 96/1/2
f 95/3/2 93/3/2 97/3/2
f 96/1/2 95/1/2 97/1/2
f 97/3/2 93/3/2 98/3/2
f 98/3/2 93/3/2 99/3/2
f 96/3/2 97/3/2 100/3/2
f 97/3/2 98/3/2 100/3/2
f 98/1/2 99/1/2 101/1/2
f 100/3/2 98/3/2 101/3/2
f 101/1/2 99/1/2 102/1/2
f 100/3/2 101/3/2 103/3/2
f 101/3/2 102/3/2 103/3/2
f 103/3/2 102/3/2 104/3/2
f 103/2/2 104/2/2 105/2/2
f 105/2/2 104/2/2 106/2/2
f 107/3/2 108/3/2 111/3/2
f 108/2/2 109/2/2 112/2/2
f 111/3/2 108/3/2 112/3/2
f 112/2/2 109/2/2 113/2/2
f 110/1/2 111/1/2 115/1/2
f 115/1/2 111/1/2 116/1/2
f 114/3/2 115/3/2 117/3/2
f 117/3/2 115/3/2 118/3/2
f 117/2/2 118/2/2 119/2/2
f 119/2/2 118/2/2 120/2/2
f 126/3/3 122/3/3 121/3/3
f 126/1/3 123/1/3 122/1/3
f 127/3/3 124/3/3 123/3/3
f 127/1/3 123/1/3 126/1/3
f 128/3/3 126/3/3 121/3/3
f 128/3/3 127/3/3 126/3/3
f 129/3/3 124/3/3 127/3/3
f 129/3/3 127/3/3 128/3/3
f 130/3/3 128/3/3 121/3/3
f 131/1/3 129/1/3 128/1/3
f 131/3/3 128/3/3 130/3/3
f 132/3/3 124/3/3 129/3/3
f 132/1/3 129/1/3 131/1/3
f 133/2/3 125/2/3 124/2/3
f 133/3/3 124/3/3 132/3/3
f 137/2/3 125/2/3 133/2/3
f 138/1/3 136/1/3 135/1/3
f 138/3/3 135/3/3 134/3/3
f 139/3/3 137/3/3 136/3/3
f 139/1/3 136/1/3 138/1/3
f 140/3/3 138/3/3 134/3/3
f 140/3/3 139/3/3 138/3/3
f 141/3/3 137/3/3 139/3/3
f 141/3/3 139/3/3 140/3/3
f 142/3/3 140/3/3 134/3/3
f 142/1/3 141/1/3 140/1/3
f 143/3/3 137/3/3 141/3/3
f 143/1/3 141/1/3 142/1/3
f 144/3/3 142/3/3 134/3/3
f 144/3/3 143/3/3 142/3/3
f 145/3/3 137/3/3 143/3/3
f 145/3/3 143/3/3 144/3/3
f 145/2/3 125/2/3 137/2/3
f 146/2/3 125/2/3 145/2/3
f 149/3/3 148/3/3 147/3/3
f 150/3/3 148/3/3 149/3/3
f 151/1/3 150/1/3 149/1/3
f 152/1/3 150/1/3 151/1/3
f 153/3/3 152/3/3 151/3/3
f 154/3/3 152/3/3 153/3/3
f 157/1/3 156/1/3 155/1/3
f 158/1/3 156/1/3 157/1/3
f 159/3/3 158/3/3 157/3/3
f 160/3/3 158/3/3 159/3/3
f 161/1/3 160/1/3 159/1/3
f 162/1/3 160/1/3 161/1/3
f 165/3/3 164/3/3 163/3/3
f 166/3/3 165/3/3 163/3/3
f 167/3/3 165/3/3 166/3/3
f 168/1/3 167/1/3 166/1/3
f 169/1/3 168/1/3 166/1/3
f 170/1/3 169/1/3 166/1/3
f 171/1/3 169/1/3 170/1/3
f 172/3/3 171/3/3 170/3/3
f 173/3/3 171/3/3 172/3/3
f 174/1/3 173/1/3 172/1/3
f 175/1/3 174/1/3 172/1/3
f 176/1/3 175/1/3 172/1/3
f 177/1/3 175/1/3 176/1/3
f 178/3/3 177/3/3 176/3/3
f 179/3/3 177/3/3 178/3/3
f 180/3/4 181/3/4 185/3/4
f 185/3/4 181/3/4 186/3/4
f 181/1/4 182/1/4 187/1/4
f 186/3/4 181/3/4 187/3/4
f 182/3/4 183/3/4 188/3/4
f 187/1/4 182/1/4 188/1/4
f 183/2/4 184/2/4 189/2/4
f 188/3/4 183/3/4 189/3/4
f 189/2/4 184/2/4 190/2/4
f 191/3/4 192/3/4 196/3/4
f 192/1/4 193/1/4 197/1/4
f 196/3/4 192/3/4 197/3/4
f 193/3/4 194/3/4 198/3/4
f 197/1/4 193/1/4 198/1/4
f 194/2/4 195/2/4 199/2/4
f 198/3/4 194/3/4 199/3/4
f 199/2/4 195/2/4 203/2/4
f 200/3/4 201/3/4 204/3/4
f 201/1/4 202/1/4 205/1/4
f 204/3/4 201/3/4 205/3/4
f 202/3/4 203/3/4 206/3/4
f 205/1/4 202/1/4 206/1/4
f 203/2/4 195/2/4 207/2/4
f 206/3/4 203/3/4 207/3/4
f 207/2/4 195/2/4 208/2/4
f 209/3/4 210/3/4 214/3/4
f 210/1/4 211/1/4 215/1/4
f 214/3/4 210/3/4 215/3/4
f 211/3/4 212/3/4 216/3/4
f 215/1/4 211/1/4 216/1/4
f 214/3/4 215/3/4 217/3/4
f 215/3/4 216/3/4 217/3/4
f 212/2/4 213/2/4 218/2/4
f 217/3/4 216/3/4 218/3/4
f 216/3/4 212/3/4 218/3/4
f 218/2/4 213/2/4 219/2/4
f 220/3/4 221/3/4 222/3/4
f 222/3/4 221/3/4 223/3/4
f 222/1/4 223/1/4 224/1/4
f 224/1/4 223/1/4 225/1/4
f 225/1/4 223/1/4 226/1/4
f 227/3/4 228/3/4 229/3/4
f 229/3/4 228/3/4 230/3/4
f 231/1/4 232/1/4 233/1/4
f 233/1/4 232/1/4 234/1/4
f 235/3/4 236/3/4 237/3/4
f 237/3/4 236/3/4 238/3/4
f 237/1/4 238/1/4 239/1/4
f 239/1/4 238/1/4 240/1/4
f 240/1/4 238/1/4 241/1/4
f 242/2/4 243/2/4 244/2/4
f 244/2/4 243/2/4 245/2/4
f 244/1/4 245/1/4 246/1/4
f 246/1/4 245/1/4 247/1/4
f 246/3/4 247/3/4 252/3/4
f 247/3/4 248/3/4 252/3/4
f 248/1/4 249/1/4 253/1/4
f 252/3/4 248/3/4 253/3/4
f 249/3/4 250/3/4 254/3/4
f 253/1/4 249/1/4 254/1/4
f 250/2/4 251/2/4 255/2/4
f 254/3/4 250/3/4 255/3/4
f 255/2/4 251/2/4 256/2/4
f 246/3/4 252/3/4 257/3/4
f 257/3/4 252/3/4 258/3/4
f 257/2/4 258/2/4 259/2/4
f 259/2/4 258/2/4 260/2/4
f 259/1/4 260/1/4 261/1/4
f 261/1/4 260/1/4 262/1/4
f 261/3/4 262/3/4 267/3/4
f 262/3/4 263/3/4 267/3/4
f 263/1/4 264/1/4 268/1/4
f 267/3/4 263/3/4 268/3/4
f 264/3/4 265/3/4 269/3/4
f 268/1/4 264/1/4 269/1/4
f 265/2/4 266/2/4 270/2/4
f 269/3/4 265/3/4 270/3/4
f 270/2/4 266/2/4 271/2/4
f 261/3/4 267/3/4 272/3/4
f 272/3/4 267/3/4 273/3/4
f 272/2/4 273/2/4 274/2/4
f 274/2/4 273/2/4 275/2/4
f 282/3/5 277/3/5 276/3/5
f 282/1/5 278/1/5 277/1/5
f 283/3/5 279/3/5 278/3/5
f 283/1/5 278/1/5 282/1/5
f 284/1/5 280/1/5 279/1/5
f 284/3/5 279/3/5 283/3/5
f 285/3/5 281/3/5 280/3/5
f 285/1/5 280/1/5 284/1/5
f 286/3/5 284/3/5 283/3/5
f 286/3/5 283/3/5 282/3/5
f 286/3/5 285/3/5 284/3/5
f 286/3/5 282/3/5 276/3/5
f 287/3/5 285/3/5 286/3/5
f 288/3/5 285/3/5 287/3/5
f 289/3/5 285/3/5 288/3/5
f 290/3/5 285/3/5 289/3/5
f 291/3/5 285/3/5 290/3/5
f 292/3/5 281/3/5 285/3/5
f 292/3/5 285/3/5 291/3/5
f 293/3/5 281/3/5 292/3/5
f 294/2/5 287/2/5 286/2/5
f 295/1/5 288/1/5 287/1/5
f 295/2/5 287/2/5 294/2/5
f 296/3/5 289/3/5 288/3/5
f 296/1/5 288/1/5 295/1/5
f 297/2/5 290/2/5 289/2/5
f 297/3/5 289/3/5 296/3/5
f 298/1/5 291/1/5 290/1/5
f 298/2/5 290/2/5 297/2/5
f 299/3/5 292/3/5 291/3/5
f 299/1/5 291/1/5 298/1/5
f 300/2/5 293/2/5 292/2/5
f 300/3/5 292/3/5 299/3/5
f 301/2/5 293/2/5 300/2/5
f 310/3/5 303/3/5 302/3/5
f 311/1/5 304/1/5 303/1/5
f 311/3/5 303/3/5 310/3/5
f 312/1/5 304/1/5 311/1/5
f 313/3/5 305/3/5 304/3/5
f 313/1/5 304/1/5 312/1/5
f 314/3/5 305/3/5 313/3/5
f 315/1/5 307/1/5 306/1/5
f 316/3/5 308/3/5 307/3/5
f 316/1/5 307/1/5 315/1/5
f 317/1/5 309/1/5 308/1/5
f 317/3/5 308/3/5 316/3/5
f 318/1/5 309/1/5 317/1/5
f 319/1/5 309/1/5 318/1/5
f 324/3/5 321/3/5 320/3/5
f 325/3/5 321/3/5 324/3/5
f 326/3/5 321/3/5 325/3/5
f 327/3/5 321/3/5 326/3/5
f 328/3/5 323/3/5 322/3/5
f 329/3/5 323/3/5 328/3/5
f 330/3/5 323/3/5 329/3/5
f 331/3/5 323/3/5 330/3/5
f 334/2/5 333/2/5 332/2/5
f 335/2/5 333/2/5 334/2/5
f 336/3/6 337/3/6 349/3/6
f 337/3/6 338/3/6 349/3/6
f 338/1/6 339/1/6 349/1/6
f 349/1/6 339/1/6 350/1/6
f 340/1/6 341/1/6 351/1/6
f 341/1/6 342/1/6 351/1/6
f 342/3/6 343/3/6 352/3/6
f 351/1/6 342/1/6 352/1/6
f 343/1/6 344/1/6 353/1/6
f 352/3/6 343/3/6 353/3/6
f 353/1/6 344/1/6 354/1/6
f 346/1/6 347/1/6 355/1/6
f 345/1/6 346/1/6 355/1/6
f 347/3/6 348/3/6 356/3/6
f 355/1/6 347/1/6 356/1/6
f 349/3/6 350/3/6 357/3/6
f 336/3/6 349/3/6 357/3/6
f 357/3/6 350/3/6 358/3/6
f 358/3/6 350/3/6 359/3/6
f 353/3/6 354/3/6 360/3/6
f 352/3/6 353/3/6 360/3/6
f 351/3/6 352/3/6 360/3/6
f 360/3/6 354/3/6 361/3/6
f 361/3/6 354/3/6 362/3/6
f 356/3/6 348/3/6 363/3/6
f 355/3/6 356/3/6 363/3/6
f 363/3/6 348/3/6 364/3/6
f 357/2/6 358/2/6 365/2/6
f 358/1/6 359/1/6 366/1/6
f 365/2/6 358/2/6 366/2/6
f 366/1/6 359/1/6 367/1/6
f 351/3/6 360/3/6 368/3/6
f 360/2/6 361/2/6 369/2/6
f 368/3/6 360/3/6 369/3/6
f 361/1/6 362/1/6 370/1/6
f 369/2/6 361/2/6 370/2/6
f 370/1/6 362/1/6 371/1/6
f 355/3/6 363/3/6 372/3/6
f 363/2/6 364/2/6 373/2/6
f 372/3/6 363/3/6 373/3/6
f 373/2/6 364/2/6 374/2/6
f 375/3/6 376/3/6 385/3/6
f 376/1/6 377/1/6 386/1/6
f 385/3/6 376/3/6 386/3/6
f 386/1/6 377/1/6 387/1/6
f 378/3/6 379/3/6 388/3/6
f 388/3/6 379/3/6 389/3/6
f 380/1/6 381/1/6 390/1/6
f 390/1/6 381/1/6 391/1/6
f 382/3/6 383/3/6 392/3/6
f 383/1/6 384/1/6 393/1/6
f 392/3/6 383/3/6 393/3/6
f 393/1/6 384/1/6 394/1/6
f 395/2/6 396/2/6 397/2/6
f 397/2/6 396/2/6 398/2/6
f 398/2/6 396/2/6 399/2/6
f 399/2/6 396/2/6 400/2/6
f 400/2/6 396/2/6 401/2/6
f 401/2/6 396/2/6 402/2/6
f 398/2/6 399/2/6 403/2/6
f 403/2/6 399/2/6 404/2/6
f 400/2/6 401/2/6 405/2/6
f 405/2/6 401/2/6 406/2/6
