# MagicaVoxel @ Ephtracy

# group
o deck1-kraken-2

# material
mtllib environ-2-deck1-kraken-2.mtl
usemtl palette

# normals
vn -1 0 0
vn 1 0 0
vn 0 0 1
vn 0 0 -1
vn 0 -1 0
vn 0 1 0

# texcoords
vt 0.197266 0.5
vt 0.201172 0.5
vt 0.216797 0.5
vt 0.232422 0.5
vt 0.685547 0.5
vt 0.783203 0.5
vt 0.794922 0.5

# verts
v -4 0 0.4
v -4 0 0.2
v -4 0 0.1
v -4 0 0
v -4 0 -0.1
v -4 0 -0.2
v -4 0 -0.3
v -4 0.1 0.4
v -4 0.1 0.2
v -4 0.1 0.1
v -4 0.1 0
v -4 0.1 -0.1
v -4 0.1 -0.2
v -4 0.1 -0.3
v -4 0.2 0.2
v -4 0.2 0.1
v -3.8 0 0.3
v -3.8 0 0.2
v -3.8 0 0.1
v -3.8 0 -0.1
v -3.8 0.1 0.3
v -3.8 0.1 0.2
v -3.8 0.1 0.1
v -3.8 0.1 -0.1
v -3.8 0.3 0.3
v -3.8 0.3 0.2
v -3.8 0.4 -0.1
v -3.8 0.4 -0.2
v -3.8 0.5 0.1
v -3.8 0.5 0
v -3.8 0.5 -0.2
v -3.8 0.5 -0.3
v -3.8 0.6 -0.3
v -3.8 0.6 -0.4
v -3.8 0.7 0
v -3.8 0.7 -0.2
v -3.8 0.8 -0.2
v -3.8 0.8 -0.4
v -3.7 0.1 -0.1
v -3.7 0.1 -0.2
v -3.7 0.2 -0.1
v -3.7 0.2 -0.2
v -3.7 0.2 -0.3
v -3.7 0.3 -0.2
v -3.7 0.3 -0.3
v -3.7 0.7 -0.4
v -3.7 0.7 -0.5
v -3.7 0.8 -0.4
v -3.7 0.8 -0.5
v -3.7 0.9 -0.4
v -3.7 0.9 -0.5
v -3.6 0.9 -0.4
v -3.6 0.9 -0.5
v -3.6 1 -0.4
v -3.6 1 -0.5
v -3.5 0 0.3
v -3.5 0 0.2
v -3.5 0 0.1
v -3.5 0 0
v -3.5 0 -0.1
v -3.5 0 -0.2
v -3.5 0.1 0.3
v -3.5 0.1 0.2
v -3.5 0.1 0.1
v -3.5 0.1 0
v -3.5 0.1 -0.1
v -3.5 0.1 -0.2
v -3.5 0.2 0.3
v -3.5 0.2 0.2
v -3.4 0 0.2
v -3.4 0 0.1
v -3.4 0.1 0.2
v -3.4 0.1 0.1
v -3.4 0.2 0.2
v -3.4 0.2 0.1
v -3.2 0 0.3
v -3.2 0 0.2
v -3.2 0.1 0.3
v -3.2 0.1 0.2
v -3.9 0 0.3
v -3.9 0 0.2
v -3.9 0 0.1
v -3.9 0 0
v -3.9 0.1 0.3
v -3.9 0.1 0.2
v -3.9 0.1 0.1
v -3.9 0.1 0
v -3.9 0.2 0.2
v -3.9 0.2 0.1
v -3.7 0 0.3
v -3.7 0 0.2
v -3.7 0 0.1
v -3.7 0.1 0.3
v -3.7 0.1 0.2
v -3.7 0.1 0.1
v -3.7 0.3 0.3
v -3.7 0.3 0.2
v -3.6 0 0.1
v -3.6 0 -0.1
v -3.6 0 -0.2
v -3.6 0.1 -0.1
v -3.6 0.1 -0.2
v -3.6 0.2 -0.1
v -3.6 0.2 -0.2
v -3.6 0.2 -0.3
v -3.6 0.3 0
v -3.6 0.3 -0.1
v -3.6 0.3 -0.2
v -3.6 0.3 -0.3
v -3.6 0.4 0
v -3.6 0.4 -0.1
v -3.6 0.4 -0.2
v -3.6 0.5 0.1
v -3.6 0.5 0
v -3.6 0.5 -0.2
v -3.6 0.5 -0.3
v -3.6 0.6 -0.1
v -3.6 0.6 -0.2
v -3.6 0.6 -0.3
v -3.6 0.6 -0.4
v -3.6 0.7 0
v -3.6 0.7 -0.2
v -3.6 0.7 -0.4
v -3.6 0.7 -0.5
v -3.6 0.8 -0.2
v -3.6 0.8 -0.4
v -3.6 0.8 -0.5
v -3.5 0.8 -0.4
v -3.5 0.8 -0.5
v -3.5 0.9 -0.4
v -3.5 0.9 -0.5
v -3.4 0.9 -0.4
v -3.4 0.9 -0.5
v -3.4 1 -0.4
v -3.4 1 -0.5
v -3.3 0 0.4
v -3.3 0 0.3
v -3.3 0 0.1
v -3.3 0 0
v -3.3 0 -0.1
v -3.3 0 -0.2
v -3.3 0 -0.3
v -3.3 0.1 0.4
v -3.3 0.1 0.3
v -3.3 0.1 0.2
v -3.3 0.1 0.1
v -3.3 0.1 0
v -3.3 0.1 -0.1
v -3.3 0.1 -0.2
v -3.3 0.1 -0.3
v -3.3 0.2 0.2
v -3.3 0.2 0.1
v -3.2 0.1 0.3
v -3.2 0.1 0.2
v -3.2 0.2 0.3
v -3.2 0.2 0.2
v -3.1 0 0.3
v -3.1 0 0.2
v -3.1 0.1 0.3
v -3.1 0.1 0.2
v -4 0 0.4
v -4 0.1 0.4
v -3.6 0 0.4
v -3.6 0.1 0.4
v -3.3 0 0.4
v -3.3 0.1 0.4
v -3.8 0.1 0.3
v -3.8 0.3 0.3
v -3.7 0.1 0.3
v -3.7 0.3 0.3
v -3.5 0.1 0.3
v -3.5 0.2 0.3
v -3.3 0.1 0.3
v -3.2 0 0.3
v -3.2 0.1 0.3
v -3.2 0.2 0.3
v -3.1 0 0.3
v -3.1 0.1 0.3
v -4 0.1 0.2
v -4 0.2 0.2
v -3.9 0 0.2
v -3.9 0.1 0.2
v -3.9 0.2 0.2
v -3.8 0 0.2
v -3.8 0.1 0.2
v -3.8 0.1 0.1
v -3.8 0.5 0.1
v -3.7 0 0.1
v -3.7 0.1 0.1
v -3.6 0 0.1
v -3.6 0.5 0.1
v -3.5 0 0.1
v -3.5 0.1 0.1
v -3.4 0 0.1
v -3.4 0.1 0.1
v -3.8 0.5 0
v -3.8 0.7 0
v -3.6 0.5 0
v -3.6 0.7 0
v -4 0 -0.1
v -4 0.1 -0.1
v -3.8 0 -0.1
v -3.8 0.1 -0.1
v -3.5 0 -0.1
v -3.5 0.1 -0.1
v -3.4 0 -0.1
v -3.4 0.1 -0.1
v -3.3 0 -0.1
v -3.3 0.1 -0.1
v -3.8 0.7 -0.2
v -3.8 0.8 -0.2
v -3.7 0.2 -0.2
v -3.7 0.3 -0.2
v -3.6 0 -0.2
v -3.6 0.1 -0.2
v -3.6 0.2 -0.2
v -3.6 0.3 -0.2
v -3.6 0.7 -0.2
v -3.6 0.8 -0.2
v -3.5 0 -0.2
v -3.5 0.1 -0.2
v -3.7 0.8 -0.4
v -3.7 0.9 -0.4
v -3.6 0.8 -0.4
v -3.6 0.9 -0.4
v -3.6 1 -0.4
v -3.5 0.8 -0.4
v -3.5 0.9 -0.4
v -3.5 1 -0.4
v -3.4 0.9 -0.4
v -3.4 1 -0.4
v -3.9 0 0.3
v -3.9 0.1 0.3
v -3.8 0 0.3
v -3.8 0.1 0.3
v -3.7 0 0.3
v -3.7 0.1 0.3
v -3.6 0 0.3
v -3.6 0.1 0.3
v -3.5 0 0.3
v -3.5 0.1 0.3
v -3.8 0.1 0.2
v -3.8 0.3 0.2
v -3.7 0.1 0.2
v -3.7 0.3 0.2
v -3.5 0 0.2
v -3.5 0.1 0.2
v -3.5 0.2 0.2
v -3.4 0 0.2
v -3.4 0.1 0.2
v -3.4 0.2 0.2
v -3.3 0.1 0.2
v -3.3 0.2 0.2
v -3.2 0 0.2
v -3.2 0.1 0.2
v -3.2 0.2 0.2
v -3.1 0 0.2
v -3.1 0.1 0.2
v -4 0.1 0.1
v -4 0.2 0.1
v -3.9 0 0.1
v -3.9 0.1 0.1
v -3.9 0.2 0.1
v -3.8 0 0.1
v -3.8 0.1 0.1
v -3.4 0.1 0.1
v -3.4 0.2 0.1
v -3.3 0.1 0.1
v -3.3 0.2 0.1
v -4 0 0
v -4 0.1 0
v -3.9 0 0
v -3.9 0.1 0
v -3.5 0 0
v -3.5 0.1 0
v -3.4 0 0
v -3.4 0.1 0
v -3.3 0 0
v -3.3 0.1 0
v -3.8 0.1 -0.1
v -3.8 0.4 -0.1
v -3.7 0.1 -0.1
v -3.7 0.2 -0.1
v -3.7 0.3 -0.1
v -3.7 0.4 -0.1
v -3.6 0.2 -0.1
v -3.6 0.3 -0.1
v -3.6 0.4 -0.1
v -3.8 0.4 -0.2
v -3.8 0.5 -0.2
v -3.7 0.1 -0.2
v -3.7 0.2 -0.2
v -3.7 0.4 -0.2
v -3.7 0.5 -0.2
v -3.6 0.1 -0.2
v -3.6 0.2 -0.2
v -3.6 0.4 -0.2
v -3.6 0.5 -0.2
v -4 0 -0.3
v -4 0.1 -0.3
v -3.8 0.5 -0.3
v -3.8 0.6 -0.3
v -3.7 0 -0.3
v -3.7 0.1 -0.3
v -3.7 0.2 -0.3
v -3.7 0.3 -0.3
v -3.7 0.6 -0.3
v -3.6 0.2 -0.3
v -3.6 0.3 -0.3
v -3.6 0.5 -0.3
v -3.6 0.6 -0.3
v -3.4 0 -0.3
v -3.4 0.1 -0.3
v -3.3 0 -0.3
v -3.3 0.1 -0.3
v -3.8 0.6 -0.4
v -3.8 0.8 -0.4
v -3.7 0.6 -0.4
v -3.7 0.7 -0.4
v -3.7 0.8 -0.4
v -3.6 0.6 -0.4
v -3.6 0.7 -0.4
v -3.7 0.7 -0.5
v -3.7 0.8 -0.5
v -3.7 0.9 -0.5
v -3.6 0.7 -0.5
v -3.6 0.8 -0.5
v -3.6 0.9 -0.5
v -3.6 1 -0.5
v -3.5 0.8 -0.5
v -3.5 0.9 -0.5
v -3.5 1 -0.5
v -3.4 0.9 -0.5
v -3.4 1 -0.5
v -4 0 0.4
v -3.6 0 0.4
v -3.3 0 0.4
v -3.9 0 0.3
v -3.8 0 0.3
v -3.7 0 0.3
v -3.6 0 0.3
v -3.5 0 0.3
v -3.3 0 0.3
v -3.2 0 0.3
v -3.1 0 0.3
v -4 0 0.2
v -3.9 0 0.2
v -3.8 0 0.2
v -3.7 0 0.2
v -3.5 0 0.2
v -3.4 0 0.2
v -3.2 0 0.2
v -3.1 0 0.2
v -4 0 0.1
v -3.9 0 0.1
v -3.8 0 0.1
v -3.7 0 0.1
v -3.6 0 0.1
v -3.5 0 0.1
v -3.4 0 0.1
v -3.3 0 0.1
v -4 0 0
v -3.9 0 0
v -3.5 0 0
v -3.4 0 0
v -3.3 0 0
v -4 0 -0.1
v -3.8 0 -0.1
v -3.7 0 -0.1
v -3.6 0 -0.1
v -3.5 0 -0.1
v -3.4 0 -0.1
v -3.3 0 -0.1
v -4 0 -0.2
v -3.7 0 -0.2
v -3.6 0 -0.2
v -3.5 0 -0.2
v -3.4 0 -0.2
v -3.3 0 -0.2
v -4 0 -0.3
v -3.7 0 -0.3
v -3.4 0 -0.3
v -3.3 0 -0.3
v -3.3 0.1 0.3
v -3.2 0.1 0.3
v -3.3 0.1 0.2
v -3.2 0.1 0.2
v -3.7 0.2 -0.2
v -3.6 0.2 -0.2
v -3.7 0.2 -0.3
v -3.6 0.2 -0.3
v -3.8 0.4 -0.1
v -3.7 0.4 -0.1
v -3.6 0.4 -0.1
v -3.8 0.4 -0.2
v -3.7 0.4 -0.2
v -3.6 0.4 -0.2
v -3.8 0.5 -0.2
v -3.7 0.5 -0.2
v -3.6 0.5 -0.2
v -3.8 0.5 -0.3
v -3.6 0.5 -0.3
v -3.8 0.6 -0.3
v -3.7 0.6 -0.3
v -3.6 0.6 -0.3
v -3.8 0.6 -0.4
v -3.7 0.6 -0.4
v -3.6 0.6 -0.4
v -3.7 0.7 -0.4
v -3.6 0.7 -0.4
v -3.7 0.7 -0.5
v -3.6 0.7 -0.5
v -3.6 0.8 -0.4
v -3.5 0.8 -0.4
v -3.6 0.8 -0.5
v -3.5 0.8 -0.5
v -3.5 0.9 -0.4
v -3.4 0.9 -0.4
v -3.5 0.9 -0.5
v -3.4 0.9 -0.5
v -4 0.1 0.4
v -3.6 0.1 0.4
v -3.3 0.1 0.4
v -3.9 0.1 0.3
v -3.8 0.1 0.3
v -3.7 0.1 0.3
v -3.6 0.1 0.3
v -3.5 0.1 0.3
v -3.3 0.1 0.3
v -3.2 0.1 0.3
v -3.1 0.1 0.3
v -4 0.1 0.2
v -3.9 0.1 0.2
v -3.8 0.1 0.2
v -3.7 0.1 0.2
v -3.2 0.1 0.2
v -3.1 0.1 0.2
v -4 0.1 0.1
v -3.9 0.1 0.1
v -3.8 0.1 0.1
v -3.7 0.1 0.1
v -3.5 0.1 0.1
v -3.4 0.1 0.1
v -3.3 0.1 0.1
v -4 0.1 0
v -3.9 0.1 0
v -3.5 0.1 0
v -3.4 0.1 0
v -3.3 0.1 0
v -4 0.1 -0.1
v -3.8 0.1 -0.1
v -3.7 0.1 -0.1
v -3.5 0.1 -0.1
v -3.4 0.1 -0.1
v -3.3 0.1 -0.1
v -4 0.1 -0.2
v -3.7 0.1 -0.2
v -3.6 0.1 -0.2
v -3.5 0.1 -0.2
v -3.4 0.1 -0.2
v -3.3 0.1 -0.2
v -4 0.1 -0.3
v -3.7 0.1 -0.3
v -3.4 0.1 -0.3
v -3.3 0.1 -0.3
v -3.5 0.2 0.3
v -3.2 0.2 0.3
v -4 0.2 0.2
v -3.9 0.2 0.2
v -3.5 0.2 0.2
v -3.4 0.2 0.2
v -3.3 0.2 0.2
v -3.2 0.2 0.2
v -4 0.2 0.1
v -3.9 0.2 0.1
v -3.4 0.2 0.1
v -3.3 0.2 0.1
v -3.7 0.2 -0.1
v -3.6 0.2 -0.1
v -3.7 0.2 -0.2
v -3.6 0.2 -0.2
v -3.8 0.3 0.3
v -3.7 0.3 0.3
v -3.8 0.3 0.2
v -3.7 0.3 0.2
v -3.7 0.3 -0.2
v -3.6 0.3 -0.2
v -3.7 0.3 -0.3
v -3.6 0.3 -0.3
v -3.8 0.5 0.1
v -3.6 0.5 0.1
v -3.8 0.5 0
v -3.6 0.5 0
v -3.8 0.7 0
v -3.6 0.7 0
v -3.8 0.7 -0.2
v -3.6 0.7 -0.2
v -3.8 0.8 -0.2
v -3.6 0.8 -0.2
v -3.8 0.8 -0.4
v -3.7 0.8 -0.4
v -3.6 0.8 -0.4
v -3.7 0.9 -0.4
v -3.6 0.9 -0.4
v -3.7 0.9 -0.5
v -3.6 0.9 -0.5
v -3.6 1 -0.4
v -3.5 1 -0.4
v -3.4 1 -0.4
v -3.6 1 -0.5
v -3.5 1 -0.5
v -3.4 1 -0.5

# faces
f 8/4/1 2/4/1 1/4/1
f 9/3/1 3/3/1 2/3/1
f 9/4/1 2/4/1 8/4/1
f 10/2/1 4/2/1 3/2/1
f 10/3/1 3/3/1 9/3/1
f 11/2/1 4/2/1 10/2/1
f 12/4/1 6/4/1 5/4/1
f 13/2/1 7/2/1 6/2/1
f 13/4/1 6/4/1 12/4/1
f 14/2/1 7/2/1 13/2/1
f 15/5/1 10/5/1 9/5/1
f 16/5/1 10/5/1 15/5/1
f 21/1/1 18/1/1 17/1/1
f 22/1/1 18/1/1 21/1/1
f 23/7/1 20/7/1 19/7/1
f 24/7/1 20/7/1 23/7/1
f 25/5/1 22/5/1 21/5/1
f 26/5/1 22/5/1 25/5/1
f 27/7/1 24/7/1 23/7/1
f 29/7/1 27/7/1 23/7/1
f 29/7/1 28/7/1 27/7/1
f 30/7/1 28/7/1 29/7/1
f 31/7/1 28/7/1 30/7/1
f 33/7/1 32/7/1 31/7/1
f 33/7/1 31/7/1 30/7/1
f 35/7/1 33/7/1 30/7/1
f 35/7/1 34/7/1 33/7/1
f 36/7/1 34/7/1 35/7/1
f 37/7/1 34/7/1 36/7/1
f 38/7/1 34/7/1 37/7/1
f 41/5/1 40/5/1 39/5/1
f 42/5/1 40/5/1 41/5/1
f 44/5/1 43/5/1 42/5/1
f 45/5/1 43/5/1 44/5/1
f 48/6/1 47/6/1 46/6/1
f 49/6/1 47/6/1 48/6/1
f 50/7/1 49/7/1 48/7/1
f 51/7/1 49/7/1 50/7/1
f 54/7/1 53/7/1 52/7/1
f 55/7/1 53/7/1 54/7/1
f 62/4/1 57/4/1 56/4/1
f 63/4/1 57/4/1 62/4/1
f 64/1/1 59/1/1 58/1/1
f 65/1/1 59/1/1 64/1/1
f 66/1/1 61/1/1 60/1/1
f 67/1/1 61/1/1 66/1/1
f 68/5/1 63/5/1 62/5/1
f 69/5/1 63/5/1 68/5/1
f 72/4/1 71/4/1 70/4/1
f 73/4/1 71/4/1 72/4/1
f 74/5/1 73/5/1 72/5/1
f 75/5/1 73/5/1 74/5/1
f 78/5/1 77/5/1 76/5/1
f 79/5/1 77/5/1 78/5/1
f 80/4/2 81/4/2 84/4/2
f 84/4/2 81/4/2 85/4/2
f 82/2/2 83/2/2 86/2/2
f 86/2/2 83/2/2 87/2/2
f 85/5/2 86/5/2 88/5/2
f 88/5/2 86/5/2 89/5/2
f 90/1/2 91/1/2 93/1/2
f 91/5/2 92/5/2 94/5/2
f 93/1/2 91/1/2 94/1/2
f 94/5/2 92/5/2 95/5/2
f 93/5/2 94/5/2 96/5/2
f 96/5/2 94/5/2 97/5/2
f 98/7/2 99/7/2 101/7/2
f 99/1/2 100/1/2 101/1/2
f 101/1/2 100/1/2 102/1/2
f 98/7/2 101/7/2 103/7/2
f 101/5/2 102/5/2 103/5/2
f 103/5/2 102/5/2 104/5/2
f 98/7/2 103/7/2 106/7/2
f 106/7/2 103/7/2 107/7/2
f 104/5/2 105/5/2 108/5/2
f 108/5/2 105/5/2 109/5/2
f 106/6/2 107/6/2 110/6/2
f 98/7/2 106/7/2 110/7/2
f 110/6/2 107/6/2 111/6/2
f 98/7/2 110/7/2 113/7/2
f 110/7/2 111/7/2 113/7/2
f 113/7/2 111/7/2 114/7/2
f 111/6/2 112/6/2 115/6/2
f 114/7/2 111/7/2 117/7/2
f 111/6/2 115/6/2 117/6/2
f 115/7/2 116/7/2 118/7/2
f 117/6/2 115/6/2 118/6/2
f 118/7/2 116/7/2 119/7/2
f 114/7/2 117/7/2 121/7/2
f 117/7/2 118/7/2 121/7/2
f 118/6/2 119/6/2 122/6/2
f 121/7/2 118/7/2 122/7/2
f 119/6/2 120/6/2 122/6/2
f 122/6/2 120/6/2 123/6/2
f 122/7/2 123/7/2 125/7/2
f 123/6/2 124/6/2 126/6/2
f 125/7/2 123/7/2 126/7/2
f 126/6/2 124/6/2 127/6/2
f 128/7/2 129/7/2 130/7/2
f 130/7/2 129/7/2 131/7/2
f 132/6/2 133/6/2 134/6/2
f 134/6/2 133/6/2 135/6/2
f 136/2/2 137/2/2 143/2/2
f 137/4/2 138/4/2 144/4/2
f 143/2/2 137/2/2 144/2/2
f 144/4/2 138/4/2 145/4/2
f 138/2/2 139/2/2 146/2/2
f 145/4/2 138/4/2 146/4/2
f 146/2/2 139/2/2 147/2/2
f 140/4/2 141/4/2 148/4/2
f 141/1/2 142/1/2 149/1/2
f 148/4/2 141/4/2 149/4/2
f 149/1/2 142/1/2 150/1/2
f 145/5/2 146/5/2 151/5/2
f 151/5/2 146/5/2 152/5/2
f 153/5/2 154/5/2 155/5/2
f 155/5/2 154/5/2 156/5/2
f 157/5/2 158/5/2 159/5/2
f 159/5/2 158/5/2 160/5/2
f 163/4/3 162/4/3 161/4/3
f 164/4/3 162/4/3 163/4/3
f 165/2/3 164/2/3 163/2/3
f 166/2/3 164/2/3 165/2/3
f 169/5/3 168/5/3 167/5/3
f 170/5/3 168/5/3 169/5/3
f 173/5/3 172/5/3 171/5/3
f 175/5/3 172/5/3 173/5/3
f 176/5/3 172/5/3 175/5/3
f 177/5/3 175/5/3 174/5/3
f 178/5/3 175/5/3 177/5/3
f 182/5/3 180/5/3 179/5/3
f 183/5/3 180/5/3 182/5/3
f 184/1/3 182/1/3 181/1/3
f 185/1/3 182/1/3 184/1/3
f 189/7/3 187/7/3 186/7/3
f 190/7/3 189/7/3 188/7/3
f 191/7/3 187/7/3 189/7/3
f 191/7/3 189/7/3 190/7/3
f 194/1/3 193/1/3 192/1/3
f 195/1/3 193/1/3 194/1/3
f 198/7/3 197/7/3 196/7/3
f 199/7/3 197/7/3 198/7/3
f 202/4/3 201/4/3 200/4/3
f 203/4/3 201/4/3 202/4/3
f 206/1/3 205/1/3 204/1/3
f 207/1/3 205/1/3 206/1/3
f 208/4/3 207/4/3 206/4/3
f 209/4/3 207/4/3 208/4/3
f 216/5/3 213/5/3 212/5/3
f 217/5/3 213/5/3 216/5/3
f 218/7/3 211/7/3 210/7/3
f 219/7/3 211/7/3 218/7/3
f 220/4/3 215/4/3 214/4/3
f 221/4/3 215/4/3 220/4/3
f 224/7/3 223/7/3 222/7/3
f 225/7/3 223/7/3 224/7/3
f 227/7/3 225/7/3 224/7/3
f 227/7/3 226/7/3 225/7/3
f 228/7/3 226/7/3 227/7/3
f 229/7/3 226/7/3 228/7/3
f 230/6/3 229/6/3 228/6/3
f 231/6/3 229/6/3 230/6/3
f 232/4/4 233/4/4 234/4/4
f 234/4/4 233/4/4 235/4/4
f 236/4/4 237/4/4 238/4/4
f 238/4/4 237/4/4 239/4/4
f 238/2/4 239/2/4 240/2/4
f 240/2/4 239/2/4 241/2/4
f 242/5/4 243/5/4 244/5/4
f 244/5/4 243/5/4 245/5/4
f 246/4/4 247/4/4 249/4/4
f 247/5/4 248/5/4 250/5/4
f 249/4/4 247/4/4 250/4/4
f 250/5/4 248/5/4 251/5/4
f 252/5/4 253/5/4 255/5/4
f 255/5/4 253/5/4 256/5/4
f 254/5/4 255/5/4 257/5/4
f 257/5/4 255/5/4 258/5/4
f 259/5/4 260/5/4 262/5/4
f 262/5/4 260/5/4 263/5/4
f 261/1/4 262/1/4 264/1/4
f 264/1/4 262/1/4 265/1/4
f 266/5/4 267/5/4 268/5/4
f 268/5/4 267/5/4 269/5/4
f 270/2/4 271/2/4 272/2/4
f 272/2/4 271/2/4 273/2/4
f 274/1/4 275/1/4 276/1/4
f 276/1/4 275/1/4 277/1/4
f 276/2/4 277/2/4 278/2/4
f 278/2/4 277/2/4 279/2/4
f 280/7/4 281/7/4 282/7/4
f 282/7/4 281/7/4 283/7/4
f 283/7/4 281/7/4 284/7/4
f 284/7/4 281/7/4 285/7/4
f 283/7/4 284/7/4 286/7/4
f 284/6/4 285/6/4 287/6/4
f 286/7/4 284/7/4 287/7/4
f 287/6/4 285/6/4 288/6/4
f 289/7/4 290/7/4 293/7/4
f 293/7/4 290/7/4 294/7/4
f 291/5/4 292/5/4 295/5/4
f 295/5/4 292/5/4 296/5/4
f 293/6/4 294/6/4 297/6/4
f 297/6/4 294/6/4 298/6/4
f 299/2/4 300/2/4 303/2/4
f 303/2/4 300/2/4 304/2/4
f 301/7/4 302/7/4 307/7/4
f 305/5/4 306/5/4 308/5/4
f 308/5/4 306/5/4 309/5/4
f 301/7/4 307/7/4 310/7/4
f 310/7/4 307/7/4 311/7/4
f 303/4/4 304/4/4 312/4/4
f 312/4/4 304/4/4 313/4/4
f 312/1/4 313/1/4 314/1/4
f 314/1/4 313/1/4 315/1/4
f 316/7/4 317/7/4 318/7/4
f 318/7/4 317/7/4 319/7/4
f 319/7/4 317/7/4 320/7/4
f 318/6/4 319/6/4 321/6/4
f 321/6/4 319/6/4 322/6/4
f 323/6/4 324/6/4 326/6/4
f 324/7/4 325/7/4 327/7/4
f 326/6/4 324/6/4 327/6/4
f 327/7/4 325/7/4 328/7/4
f 328/7/4 329/7/4 330/7/4
f 327/7/4 328/7/4 330/7/4
f 330/7/4 329/7/4 331/7/4
f 331/7/4 329/7/4 332/7/4
f 331/6/4 332/6/4 333/6/4
f 333/6/4 332/6/4 334/6/4
f 338/4/5 336/4/5 335/4/5
f 339/4/5 336/4/5 338/4/5
f 340/4/5 336/4/5 339/4/5
f 341/2/5 337/2/5 336/2/5
f 341/4/5 336/4/5 340/4/5
f 342/2/5 337/2/5 341/2/5
f 343/2/5 337/2/5 342/2/5
f 346/4/5 338/4/5 335/4/5
f 347/4/5 338/4/5 346/4/5
f 348/1/5 340/1/5 339/1/5
f 349/1/5 340/1/5 348/1/5
f 350/4/5 343/4/5 342/4/5
f 351/4/5 343/4/5 350/4/5
f 352/5/5 345/5/5 344/5/5
f 353/5/5 345/5/5 352/5/5
f 354/3/5 347/3/5 346/3/5
f 355/1/5 348/1/5 347/1/5
f 355/3/5 347/3/5 354/3/5
f 356/5/5 349/5/5 348/5/5
f 356/1/5 348/1/5 355/1/5
f 357/5/5 349/5/5 356/5/5
f 360/4/5 343/4/5 351/4/5
f 361/4/5 343/4/5 360/4/5
f 362/2/5 355/2/5 354/2/5
f 363/2/5 355/2/5 362/2/5
f 364/1/5 360/1/5 359/1/5
f 365/2/5 361/2/5 360/2/5
f 365/1/5 360/1/5 364/1/5
f 366/2/5 361/2/5 365/2/5
f 368/7/5 358/7/5 357/7/5
f 368/7/5 357/7/5 356/7/5
f 369/7/5 358/7/5 368/7/5
f 370/7/5 358/7/5 369/7/5
f 374/4/5 368/4/5 367/4/5
f 374/4/5 369/4/5 368/4/5
f 375/1/5 370/1/5 369/1/5
f 375/4/5 369/4/5 374/4/5
f 376/1/5 370/1/5 375/1/5
f 377/1/5 372/1/5 371/1/5
f 378/4/5 373/4/5 372/4/5
f 378/1/5 372/1/5 377/1/5
f 379/4/5 373/4/5 378/4/5
f 380/2/5 375/2/5 374/2/5
f 381/4/5 377/4/5 376/4/5
f 381/2/5 375/2/5 380/2/5
f 381/4/5 376/4/5 375/4/5
f 381/4/5 378/4/5 377/4/5
f 382/1/5 379/1/5 378/1/5
f 382/4/5 378/4/5 381/4/5
f 383/1/5 379/1/5 382/1/5
f 386/5/5 385/5/5 384/5/5
f 387/5/5 385/5/5 386/5/5
f 390/5/5 389/5/5 388/5/5
f 391/5/5 389/5/5 390/5/5
f 395/7/5 393/7/5 392/7/5
f 396/6/5 394/6/5 393/6/5
f 396/7/5 393/7/5 395/7/5
f 397/6/5 394/6/5 396/6/5
f 401/7/5 399/7/5 398/7/5
f 401/7/5 400/7/5 399/7/5
f 402/7/5 400/7/5 401/7/5
f 406/7/5 404/7/5 403/7/5
f 407/6/5 405/6/5 404/6/5
f 407/7/5 404/7/5 406/7/5
f 408/6/5 405/6/5 407/6/5
f 411/6/5 410/6/5 409/6/5
f 412/6/5 410/6/5 411/6/5
f 415/7/5 414/7/5 413/7/5
f 416/7/5 414/7/5 415/7/5
f 419/6/5 418/6/5 417/6/5
f 420/6/5 418/6/5 419/6/5
f 421/4/6 422/4/6 424/4/6
f 424/4/6 422/4/6 425/4/6
f 425/4/6 422/4/6 426/4/6
f 422/2/6 423/2/6 427/2/6
f 426/4/6 422/4/6 427/4/6
f 427/2/6 423/2/6 428/2/6
f 428/2/6 423/2/6 429/2/6
f 421/4/6 424/4/6 432/4/6
f 432/4/6 424/4/6 433/4/6
f 430/5/6 431/5/6 436/5/6
f 436/5/6 431/5/6 437/5/6
f 433/1/6 434/1/6 439/1/6
f 434/5/6 435/5/6 440/5/6
f 439/1/6 434/1/6 440/1/6
f 440/5/6 435/5/6 441/5/6
f 438/2/6 439/2/6 445/2/6
f 445/2/6 439/2/6 446/2/6
f 442/1/6 443/1/6 447/1/6
f 443/2/6 444/2/6 448/2/6
f 447/1/6 443/1/6 448/1/6
f 448/2/6 444/2/6 449/2/6
f 450/4/6 451/4/6 456/4/6
f 451/4/6 452/4/6 456/4/6
f 456/4/6 452/4/6 457/4/6
f 453/1/6 454/1/6 459/1/6
f 454/4/6 455/4/6 460/4/6
f 459/1/6 454/1/6 460/1/6
f 460/4/6 455/4/6 461/4/6
f 456/2/6 457/2/6 462/2/6
f 458/4/6 459/4/6 463/4/6
f 462/2/6 457/2/6 463/2/6
f 457/4/6 458/4/6 463/4/6
f 459/4/6 460/4/6 463/4/6
f 460/1/6 461/1/6 464/1/6
f 463/4/6 460/4/6 464/4/6
f 464/1/6 461/1/6 465/1/6
f 466/5/6 467/5/6 470/5/6
f 470/5/6 467/5/6 471/5/6
f 471/5/6 467/5/6 472/5/6
f 472/5/6 467/5/6 473/5/6
f 468/5/6 469/5/6 474/5/6
f 474/5/6 469/5/6 475/5/6
f 471/5/6 472/5/6 476/5/6
f 476/5/6 472/5/6 477/5/6
f 478/5/6 479/5/6 480/5/6
f 480/5/6 479/5/6 481/5/6
f 482/5/6 483/5/6 484/5/6
f 484/5/6 483/5/6 485/5/6
f 486/5/6 487/5/6 488/5/6
f 488/5/6 487/5/6 489/5/6
f 490/7/6 491/7/6 492/7/6
f 492/7/6 491/7/6 493/7/6
f 494/7/6 495/7/6 496/7/6
f 496/7/6 495/7/6 497/7/6
f 498/7/6 499/7/6 500/7/6
f 500/7/6 499/7/6 501/7/6
f 501/7/6 499/7/6 502/7/6
f 503/7/6 504/7/6 505/7/6
f 505/7/6 504/7/6 506/7/6
f 507/7/6 508/7/6 510/7/6
f 508/6/6 509/6/6 511/6/6
f 510/7/6 508/7/6 511/7/6
f 511/6/6 509/6/6 512/6/6
