# MagicaVoxel @ Ephtracy

# group
o rail2

# material
mtllib environ-11-rail2.mtl
usemtl palette

# normals
vn -1 0 0
vn 1 0 0
vn 0 0 1
vn 0 0 -1
vn 0 -1 0
vn 0 1 0

# texcoords
vt 0.201172 0.5
vt 0.216797 0.5
vt 0.232422 0.5

# verts
v 0.4 0 1.3
v 0.4 0 1.1
v 0.4 0 1
v 0.4 0.1 1.4
v 0.4 0.1 1.3
v 0.4 0.1 1.1
v 0.4 0.1 1
v 0.4 0.2 1.5
v 0.4 0.2 1.4
v 0.4 0.2 1.3
v 0.4 0.3 1.5
v 0.4 0.3 1.4
v 0.4 0.4 1.5
v 0.4 0.4 1.4
v 0.4 0.5 1.5
v 0.4 0.5 1.4
v 0.4 0.6 1.5
v 0.4 0.6 1.4
v 0.7 0.1 1.3
v 0.7 0.1 1.2
v 0.7 0.1 1.1
v 0.7 0.1 1
v 0.7 0.2 1.4
v 0.7 0.2 1.3
v 0.7 0.3 1.4
v 0.7 0.3 1.3
v 0.7 0.3 1.2
v 0.7 0.3 1
v 0.7 0.4 1.4
v 0.7 0.4 1.2
v 0.7 0.4 1
v 0.7 0.5 1.4
v 0.7 0.5 1
v 0.7 0.6 1.4
v 0.7 0.6 1
v 0.8 0.1 1.3
v 0.8 0.1 1.2
v 0.8 0.1 1
v 0.8 0.2 1.4
v 0.8 0.2 1.3
v 0.8 0.3 1.4
v 0.8 0.3 1.3
v 0.8 0.3 1.2
v 0.8 0.3 1
v 0.8 0.4 1.4
v 0.8 0.4 1.2
v 0.8 0.4 1
v 0.8 0.5 1.4
v 0.8 0.5 1
v 0.8 0.6 1.4
v 0.8 0.6 1
v 1.1 0 1.3
v 1.1 0 1.1
v 1.1 0 1
v 1.1 0.1 1.4
v 1.1 0.1 1.3
v 1.1 0.1 1.1
v 1.1 0.1 1
v 1.1 0.2 1.5
v 1.1 0.2 1.4
v 1.1 0.2 1.3
v 1.1 0.5 1.5
v 1.1 0.5 1.4
v 1.1 0.6 1.5
v 1.1 0.6 1.4
v 0.4 0.2 1.5
v 0.4 0.3 1.5
v 0.4 0.4 1.5
v 0.4 0.5 1.5
v 0.4 0.6 1.5
v 0.7 0.3 1.5
v 0.7 0.4 1.5
v 0.8 0.3 1.5
v 0.8 0.4 1.5
v 0.9 0.3 1.5
v 0.9 0.4 1.5
v 1.1 0.2 1.5
v 1.1 0.5 1.5
v 1.1 0.6 1.5
v 0.4 0.1 1.4
v 0.4 0.2 1.4
v 0.5 0.1 1.4
v 0.5 0.2 1.4
v 0.7 0.1 1.4
v 0.7 0.2 1.4
v 0.9 0.1 1.4
v 0.9 0.2 1.4
v 1.1 0.1 1.4
v 1.1 0.2 1.4
v 0.4 0 1.3
v 0.4 0.1 1.3
v 0.5 0.1 1.3
v 0.6 0 1.3
v 0.6 0.1 1.3
v 0.7 0.1 1.3
v 0.9 0.1 1.3
v 1 0 1.3
v 1 0.1 1.3
v 1.1 0 1.3
v 1.1 0.1 1.3
v 0.4 0.2 1.4
v 0.4 0.3 1.4
v 0.4 0.4 1.4
v 0.4 0.5 1.4
v 0.4 0.6 1.4
v 0.5 0.2 1.4
v 0.7 0.2 1.4
v 0.7 0.3 1.4
v 0.7 0.4 1.4
v 0.7 0.5 1.4
v 0.7 0.6 1.4
v 0.8 0.2 1.4
v 0.8 0.3 1.4
v 0.8 0.4 1.4
v 0.8 0.5 1.4
v 0.8 0.6 1.4
v 0.9 0.2 1.4
v 0.9 0.3 1.4
v 0.9 0.4 1.4
v 1.1 0.2 1.4
v 1.1 0.5 1.4
v 1.1 0.6 1.4
v 0.4 0.1 1.3
v 0.4 0.2 1.3
v 0.5 0.1 1.3
v 0.5 0.2 1.3
v 0.6 0.1 1.3
v 0.7 0.1 1.3
v 0.7 0.2 1.3
v 0.8 0.1 1.3
v 0.8 0.2 1.3
v 0.9 0.1 1.3
v 0.9 0.2 1.3
v 1 0.1 1.3
v 1.1 0.1 1.3
v 1.1 0.2 1.3
v 0.4 0 1
v 0.4 0.1 1
v 0.6 0 1
v 0.6 0.1 1
v 0.7 0 1
v 0.7 0.1 1
v 0.7 0.3 1
v 0.7 0.4 1
v 0.7 0.5 1
v 0.7 0.6 1
v 0.8 0.1 1
v 0.8 0.3 1
v 0.8 0.4 1
v 0.8 0.5 1
v 0.8 0.6 1
v 1 0 1
v 1 0.1 1
v 1.1 0 1
v 1.1 0.1 1
v 0.4 0 1.3
v 0.6 0 1.3
v 1 0 1.3
v 1.1 0 1.3
v 0.6 0 1.2
v 1 0 1.2
v 0.4 0 1.1
v 0.6 0 1.1
v 0.7 0 1.1
v 1 0 1.1
v 1.1 0 1.1
v 0.4 0 1
v 0.6 0 1
v 0.7 0 1
v 1 0 1
v 1.1 0 1
v 0.4 0.1 1.4
v 0.5 0.1 1.4
v 0.7 0.1 1.4
v 0.9 0.1 1.4
v 1.1 0.1 1.4
v 0.4 0.1 1.3
v 0.5 0.1 1.3
v 0.6 0.1 1.3
v 0.7 0.1 1.3
v 0.9 0.1 1.3
v 1 0.1 1.3
v 1.1 0.1 1.3
v 0.4 0.2 1.5
v 1.1 0.2 1.5
v 0.4 0.2 1.4
v 0.5 0.2 1.4
v 0.7 0.2 1.4
v 0.9 0.2 1.4
v 1.1 0.2 1.4
v 0.4 0.1 1.3
v 0.5 0.1 1.3
v 0.6 0.1 1.3
v 0.7 0.1 1.3
v 0.8 0.1 1.3
v 0.9 0.1 1.3
v 1 0.1 1.3
v 1.1 0.1 1.3
v 0.6 0.1 1.2
v 0.7 0.1 1.2
v 0.8 0.1 1.2
v 1 0.1 1.2
v 0.4 0.1 1.1
v 0.6 0.1 1.1
v 0.7 0.1 1.1
v 1 0.1 1.1
v 1.1 0.1 1.1
v 0.4 0.1 1
v 0.6 0.1 1
v 0.7 0.1 1
v 0.8 0.1 1
v 1 0.1 1
v 1.1 0.1 1
v 0.4 0.2 1.4
v 0.5 0.2 1.4
v 0.7 0.2 1.4
v 0.8 0.2 1.4
v 0.9 0.2 1.4
v 1.1 0.2 1.4
v 0.4 0.2 1.3
v 0.5 0.2 1.3
v 0.7 0.2 1.3
v 0.8 0.2 1.3
v 0.9 0.2 1.3
v 1.1 0.2 1.3
v 0.4 0.6 1.5
v 1.1 0.6 1.5
v 0.4 0.6 1.4
v 0.7 0.6 1.4
v 0.8 0.6 1.4
v 1.1 0.6 1.4
v 0.7 0.6 1
v 0.8 0.6 1

# faces
f 5/3/1 2/3/1 1/3/1
f 6/2/1 3/2/1 2/2/1
f 6/3/1 2/3/1 5/3/1
f 7/2/1 3/2/1 6/2/1
f 9/3/1 5/3/1 4/3/1
f 10/3/1 5/3/1 9/3/1
f 11/3/1 9/3/1 8/3/1
f 12/3/1 9/3/1 11/3/1
f 13/1/1 12/1/1 11/1/1
f 14/1/1 12/1/1 13/1/1
f 15/3/1 14/3/1 13/3/1
f 16/3/1 14/3/1 15/3/1
f 17/2/1 16/2/1 15/2/1
f 18/2/1 16/2/1 17/2/1
f 24/3/1 20/3/1 19/3/1
f 24/3/1 22/3/1 21/3/1
f 24/3/1 21/3/1 20/3/1
f 25/1/1 24/1/1 23/1/1
f 26/3/1 22/3/1 24/3/1
f 26/1/1 24/1/1 25/1/1
f 27/3/1 22/3/1 26/3/1
f 28/3/1 22/3/1 27/3/1
f 29/3/1 26/3/1 25/3/1
f 29/3/1 27/3/1 26/3/1
f 30/1/1 28/1/1 27/1/1
f 30/3/1 27/3/1 29/3/1
f 31/1/1 28/1/1 30/1/1
f 32/3/1 30/3/1 29/3/1
f 32/3/1 31/3/1 30/3/1
f 33/3/1 31/3/1 32/3/1
f 34/2/1 33/2/1 32/2/1
f 35/2/1 33/2/1 34/2/1
f 36/3/2 37/3/2 40/3/2
f 37/3/2 38/3/2 40/3/2
f 39/1/2 40/1/2 41/1/2
f 40/3/2 38/3/2 42/3/2
f 41/1/2 40/1/2 42/1/2
f 42/3/2 38/3/2 43/3/2
f 43/3/2 38/3/2 44/3/2
f 41/3/2 42/3/2 45/3/2
f 42/3/2 43/3/2 45/3/2
f 43/1/2 44/1/2 46/1/2
f 45/3/2 43/3/2 46/3/2
f 46/1/2 44/1/2 47/1/2
f 45/3/2 46/3/2 48/3/2
f 46/3/2 47/3/2 48/3/2
f 48/3/2 47/3/2 49/3/2
f 48/2/2 49/2/2 50/2/2
f 50/2/2 49/2/2 51/2/2
f 52/3/2 53/3/2 56/3/2
f 53/2/2 54/2/2 57/2/2
f 56/3/2 53/3/2 57/3/2
f 57/2/2 54/2/2 58/2/2
f 55/1/2 56/1/2 60/1/2
f 60/1/2 56/1/2 61/1/2
f 59/3/2 60/3/2 62/3/2
f 62/3/2 60/3/2 63/3/2
f 62/2/2 63/2/2 64/2/2
f 64/2/2 63/2/2 65/2/2
f 71/3/3 67/3/3 66/3/3
f 71/1/3 68/1/3 67/1/3
f 72/3/3 69/3/3 68/3/3
f 72/1/3 68/1/3 71/1/3
f 73/3/3 71/3/3 66/3/3
f 73/3/3 72/3/3 71/3/3
f 74/3/3 69/3/3 72/3/3
f 74/3/3 72/3/3 73/3/3
f 75/3/3 73/3/3 66/3/3
f 75/1/3 74/1/3 73/1/3
f 76/3/3 69/3/3 74/3/3
f 76/1/3 74/1/3 75/1/3
f 77/3/3 75/3/3 66/3/3
f 77/3/3 76/3/3 75/3/3
f 78/2/3 70/2/3 69/2/3
f 78/3/3 76/3/3 77/3/3
f 78/3/3 69/3/3 76/3/3
f 79/2/3 70/2/3 78/2/3
f 82/3/3 81/3/3 80/3/3
f 83/3/3 81/3/3 82/3/3
f 84/1/3 83/1/3 82/1/3
f 85/1/3 83/1/3 84/1/3
f 86/3/3 85/3/3 84/3/3
f 87/3/3 85/3/3 86/3/3
f 88/1/3 87/1/3 86/1/3
f 89/1/3 87/1/3 88/1/3
f 92/3/3 91/3/3 90/3/3
f 93/3/3 92/3/3 90/3/3
f 94/3/3 92/3/3 93/3/3
f 95/1/3 94/1/3 93/1/3
f 96/1/3 95/1/3 93/1/3
f 97/1/3 96/1/3 93/1/3
f 98/1/3 96/1/3 97/1/3
f 99/3/3 98/3/3 97/3/3
f 100/3/3 98/3/3 99/3/3
f 101/3/4 102/3/4 106/3/4
f 106/3/4 102/3/4 107/3/4
f 102/1/4 103/1/4 108/1/4
f 107/3/4 102/3/4 108/3/4
f 103/3/4 104/3/4 109/3/4
f 108/1/4 103/1/4 109/1/4
f 104/2/4 105/2/4 110/2/4
f 109/3/4 104/3/4 110/3/4
f 110/2/4 105/2/4 111/2/4
f 112/3/4 113/3/4 117/3/4
f 113/1/4 114/1/4 118/1/4
f 117/3/4 113/3/4 118/3/4
f 114/3/4 115/3/4 119/3/4
f 118/1/4 114/1/4 119/1/4
f 117/3/4 118/3/4 120/3/4
f 118/3/4 119/3/4 120/3/4
f 115/2/4 116/2/4 121/2/4
f 120/3/4 119/3/4 121/3/4
f 119/3/4 115/3/4 121/3/4
f 121/2/4 116/2/4 122/2/4
f 123/3/4 124/3/4 125/3/4
f 125/3/4 124/3/4 126/3/4
f 125/1/4 126/1/4 127/1/4
f 127/1/4 126/1/4 128/1/4
f 128/1/4 126/1/4 129/1/4
f 130/3/4 131/3/4 132/3/4
f 132/3/4 131/3/4 133/3/4
f 132/1/4 133/1/4 134/1/4
f 134/1/4 133/1/4 135/1/4
f 135/1/4 133/1/4 136/1/4
f 137/2/4 138/2/4 139/2/4
f 139/2/4 138/2/4 140/2/4
f 139/1/4 140/1/4 141/1/4
f 141/1/4 140/1/4 142/1/4
f 141/3/4 142/3/4 147/3/4
f 142/3/4 143/3/4 147/3/4
f 143/1/4 144/1/4 148/1/4
f 147/3/4 143/3/4 148/3/4
f 144/3/4 145/3/4 149/3/4
f 148/1/4 144/1/4 149/1/4
f 145/2/4 146/2/4 150/2/4
f 149/3/4 145/3/4 150/3/4
f 150/2/4 146/2/4 151/2/4
f 141/3/4 147/3/4 152/3/4
f 152/3/4 147/3/4 153/3/4
f 152/2/4 153/2/4 154/2/4
f 154/2/4 153/2/4 155/2/4
f 160/3/5 157/3/5 156/3/5
f 160/1/5 158/1/5 157/1/5
f 161/3/5 159/3/5 158/3/5
f 161/1/5 158/1/5 160/1/5
f 162/3/5 160/3/5 156/3/5
f 162/3/5 161/3/5 160/3/5
f 163/3/5 161/3/5 162/3/5
f 164/3/5 161/3/5 163/3/5
f 165/3/5 159/3/5 161/3/5
f 165/3/5 161/3/5 164/3/5
f 166/3/5 159/3/5 165/3/5
f 167/2/5 163/2/5 162/2/5
f 168/1/5 164/1/5 163/1/5
f 168/2/5 163/2/5 167/2/5
f 169/3/5 165/3/5 164/3/5
f 169/1/5 164/1/5 168/1/5
f 170/2/5 166/2/5 165/2/5
f 170/3/5 165/3/5 169/3/5
f 171/2/5 166/2/5 170/2/5
f 177/3/5 173/3/5 172/3/5
f 178/1/5 174/1/5 173/1/5
f 178/3/5 173/3/5 177/3/5
f 179/1/5 174/1/5 178/1/5
f 180/3/5 175/3/5 174/3/5
f 180/1/5 174/1/5 179/1/5
f 181/1/5 176/1/5 175/1/5
f 181/3/5 175/3/5 180/3/5
f 182/1/5 176/1/5 181/1/5
f 183/1/5 176/1/5 182/1/5
f 186/3/5 185/3/5 184/3/5
f 187/3/5 185/3/5 186/3/5
f 188/3/5 185/3/5 187/3/5
f 189/3/5 185/3/5 188/3/5
f 190/3/5 185/3/5 189/3/5
f 191/3/6 192/3/6 199/3/6
f 192/3/6 193/3/6 199/3/6
f 193/1/6 194/1/6 199/1/6
f 199/1/6 194/1/6 200/1/6
f 196/1/6 197/1/6 201/1/6
f 195/1/6 196/1/6 201/1/6
f 197/3/6 198/3/6 202/3/6
f 201/1/6 197/1/6 202/1/6
f 199/3/6 200/3/6 203/3/6
f 191/3/6 199/3/6 203/3/6
f 203/3/6 200/3/6 204/3/6
f 204/3/6 200/3/6 205/3/6
f 202/3/6 198/3/6 206/3/6
f 201/3/6 202/3/6 206/3/6
f 206/3/6 198/3/6 207/3/6
f 203/2/6 204/2/6 208/2/6
f 204/1/6 205/1/6 209/1/6
f 208/2/6 204/2/6 209/2/6
f 209/1/6 205/1/6 210/1/6
f 201/3/6 206/3/6 211/3/6
f 206/2/6 207/2/6 212/2/6
f 211/3/6 206/3/6 212/3/6
f 212/2/6 207/2/6 213/2/6
f 214/3/6 215/3/6 220/3/6
f 215/1/6 216/1/6 221/1/6
f 220/3/6 215/3/6 221/3/6
f 221/1/6 216/1/6 222/1/6
f 217/3/6 218/3/6 223/3/6
f 218/1/6 219/1/6 224/1/6
f 223/3/6 218/3/6 224/3/6
f 224/1/6 219/1/6 225/1/6
f 226/2/6 227/2/6 228/2/6
f 228/2/6 227/2/6 229/2/6
f 229/2/6 227/2/6 230/2/6
f 230/2/6 227/2/6 231/2/6
f 229/2/6 230/2/6 232/2/6
f 232/2/6 230/2/6 233/2/6
