# MagicaVoxel @ Ephtracy

# group
o deck1-broken-1

# material
mtllib environ-7-deck1-broken-1.mtl
usemtl palette

# normals
vn -1 0 0
vn 1 0 0
vn 0 0 1
vn 0 0 -1
vn 0 -1 0
vn 0 1 0

# texcoords
vt 0.197266 0.5
vt 0.201172 0.5
vt 0.216797 0.5
vt 0.232422 0.5
vt 0.685547 0.5

# verts
v -3.1 0 -1.1
v -3.1 0 -1.3
v -3.1 0 -1.4
v -3.1 0 -1.5
v -3.1 0 -1.6
v -3.1 0 -1.7
v -3.1 0 -1.8
v -3.1 0.1 -1.1
v -3.1 0.1 -1.3
v -3.1 0.1 -1.4
v -3.1 0.1 -1.5
v -3.1 0.1 -1.6
v -3.1 0.1 -1.7
v -3.1 0.1 -1.8
v -3.1 0.2 -1.3
v -3.1 0.2 -1.4
v -2.9 0 -1.2
v -2.9 0 -1.3
v -2.9 0.1 -1.2
v -2.9 0.1 -1.3
v -2.8 0.1 -1.6
v -2.8 0.1 -1.7
v -2.8 0.2 -1.6
v -2.8 0.2 -1.7
v -2.8 0.2 -1.8
v -2.8 0.3 -1.7
v -2.8 0.3 -1.8
v -2.6 0 -1.2
v -2.6 0 -1.3
v -2.6 0 -1.4
v -2.6 0 -1.5
v -2.6 0 -1.6
v -2.6 0 -1.7
v -2.6 0.1 -1.2
v -2.6 0.1 -1.3
v -2.6 0.1 -1.4
v -2.6 0.1 -1.5
v -2.6 0.1 -1.6
v -2.6 0.1 -1.7
v -2.6 0.2 -1.2
v -2.6 0.2 -1.3
v -2.5 0 -1.3
v -2.5 0 -1.4
v -2.5 0.1 -1.3
v -2.5 0.1 -1.4
v -3 0 -1.2
v -3 0 -1.3
v -3 0 -1.4
v -3 0 -1.5
v -3 0.1 -1.2
v -3 0.1 -1.3
v -3 0.1 -1.4
v -3 0.1 -1.5
v -3 0.2 -1.3
v -3 0.2 -1.4
v -2.9 0 -1.3
v -2.9 0 -1.4
v -2.9 0.1 -1.3
v -2.9 0.1 -1.4
v -2.8 0 -1.2
v -2.8 0 -1.3
v -2.8 0.1 -1.2
v -2.8 0.1 -1.3
v -2.7 0 -1.6
v -2.7 0 -1.7
v -2.7 0.1 -1.6
v -2.7 0.1 -1.7
v -2.7 0.2 -1.6
v -2.7 0.2 -1.7
v -2.7 0.2 -1.8
v -2.7 0.3 -1.7
v -2.7 0.3 -1.8
v -2.5 0.1 -1.2
v -2.5 0.1 -1.3
v -2.5 0.2 -1.2
v -2.5 0.2 -1.3
v -2.4 0 -1.1
v -2.4 0 -1.2
v -2.4 0 -1.4
v -2.4 0 -1.5
v -2.4 0 -1.6
v -2.4 0 -1.7
v -2.4 0 -1.8
v -2.4 0.1 -1.1
v -2.4 0.1 -1.2
v -2.4 0.1 -1.4
v -2.4 0.1 -1.5
v -2.4 0.1 -1.6
v -2.4 0.1 -1.7
v -2.4 0.1 -1.8
v -3.1 0 -1.1
v -3.1 0.1 -1.1
v -2.7 0 -1.1
v -2.7 0.1 -1.1
v -2.4 0 -1.1
v -2.4 0.1 -1.1
v -2.6 0.1 -1.2
v -2.6 0.2 -1.2
v -2.5 0.1 -1.2
v -2.5 0.2 -1.2
v -3.1 0.1 -1.3
v -3.1 0.2 -1.3
v -3 0 -1.3
v -3 0.1 -1.3
v -3 0.2 -1.3
v -2.9 0 -1.3
v -2.9 0.1 -1.3
v -2.6 0 -1.4
v -2.6 0.1 -1.4
v -2.5 0 -1.4
v -2.5 0.1 -1.4
v -3.1 0 -1.6
v -3.1 0.1 -1.6
v -2.8 0 -1.6
v -2.8 0.1 -1.6
v -2.8 0.2 -1.6
v -2.7 0 -1.6
v -2.7 0.1 -1.6
v -2.7 0.2 -1.6
v -2.6 0 -1.6
v -2.6 0.1 -1.6
v -2.5 0 -1.6
v -2.5 0.1 -1.6
v -2.4 0 -1.6
v -2.4 0.1 -1.6
v -2.8 0.2 -1.7
v -2.8 0.3 -1.7
v -2.7 0 -1.7
v -2.7 0.1 -1.7
v -2.7 0.2 -1.7
v -2.7 0.3 -1.7
v -2.6 0 -1.7
v -2.6 0.1 -1.7
v -3 0 -1.2
v -3 0.1 -1.2
v -2.9 0 -1.2
v -2.9 0.1 -1.2
v -2.8 0 -1.2
v -2.8 0.1 -1.2
v -2.7 0 -1.2
v -2.7 0.1 -1.2
v -2.6 0 -1.2
v -2.6 0.1 -1.2
v -2.9 0 -1.3
v -2.9 0.1 -1.3
v -2.8 0 -1.3
v -2.8 0.1 -1.3
v -2.6 0 -1.3
v -2.6 0.1 -1.3
v -2.6 0.2 -1.3
v -2.5 0 -1.3
v -2.5 0.1 -1.3
v -2.5 0.2 -1.3
v -3.1 0.1 -1.4
v -3.1 0.2 -1.4
v -3 0 -1.4
v -3 0.1 -1.4
v -3 0.2 -1.4
v -2.9 0 -1.4
v -2.9 0.1 -1.4
v -3.1 0 -1.5
v -3.1 0.1 -1.5
v -3 0 -1.5
v -3 0.1 -1.5
v -2.6 0 -1.5
v -2.6 0.1 -1.5
v -2.5 0 -1.5
v -2.5 0.1 -1.5
v -2.4 0 -1.5
v -2.4 0.1 -1.5
v -2.8 0.1 -1.7
v -2.8 0.2 -1.7
v -2.7 0.1 -1.7
v -2.7 0.2 -1.7
v -3.1 0 -1.8
v -3.1 0.1 -1.8
v -2.8 0 -1.8
v -2.8 0.1 -1.8
v -2.8 0.2 -1.8
v -2.8 0.3 -1.8
v -2.7 0.2 -1.8
v -2.7 0.3 -1.8
v -2.5 0 -1.8
v -2.5 0.1 -1.8
v -2.4 0 -1.8
v -2.4 0.1 -1.8
v -3.1 0 -1.1
v -2.7 0 -1.1
v -2.4 0 -1.1
v -3 0 -1.2
v -2.9 0 -1.2
v -2.8 0 -1.2
v -2.7 0 -1.2
v -2.6 0 -1.2
v -2.4 0 -1.2
v -3.1 0 -1.3
v -3 0 -1.3
v -2.9 0 -1.3
v -2.8 0 -1.3
v -2.6 0 -1.3
v -2.5 0 -1.3
v -3.1 0 -1.4
v -3 0 -1.4
v -2.9 0 -1.4
v -2.6 0 -1.4
v -2.5 0 -1.4
v -2.4 0 -1.4
v -3.1 0 -1.5
v -3 0 -1.5
v -2.6 0 -1.5
v -2.5 0 -1.5
v -2.4 0 -1.5
v -3.1 0 -1.6
v -2.8 0 -1.6
v -2.7 0 -1.6
v -2.6 0 -1.6
v -2.5 0 -1.6
v -2.4 0 -1.6
v -3.1 0 -1.7
v -2.8 0 -1.7
v -2.7 0 -1.7
v -2.6 0 -1.7
v -2.5 0 -1.7
v -2.4 0 -1.7
v -3.1 0 -1.8
v -2.8 0 -1.8
v -2.5 0 -1.8
v -2.4 0 -1.8
v -2.8 0.2 -1.7
v -2.7 0.2 -1.7
v -2.8 0.2 -1.8
v -2.7 0.2 -1.8
v -3.1 0.1 -1.1
v -2.7 0.1 -1.1
v -2.4 0.1 -1.1
v -3 0.1 -1.2
v -2.9 0.1 -1.2
v -2.8 0.1 -1.2
v -2.7 0.1 -1.2
v -2.6 0.1 -1.2
v -2.5 0.1 -1.2
v -2.4 0.1 -1.2
v -3.1 0.1 -1.3
v -3 0.1 -1.3
v -2.9 0.1 -1.3
v -2.8 0.1 -1.3
v -2.5 0.1 -1.3
v -3.1 0.1 -1.4
v -3 0.1 -1.4
v -2.9 0.1 -1.4
v -2.6 0.1 -1.4
v -2.5 0.1 -1.4
v -2.4 0.1 -1.4
v -3.1 0.1 -1.5
v -3 0.1 -1.5
v -2.6 0.1 -1.5
v -2.5 0.1 -1.5
v -2.4 0.1 -1.5
v -3.1 0.1 -1.6
v -2.8 0.1 -1.6
v -2.6 0.1 -1.6
v -2.5 0.1 -1.6
v -2.4 0.1 -1.6
v -3.1 0.1 -1.7
v -2.8 0.1 -1.7
v -2.7 0.1 -1.7
v -2.6 0.1 -1.7
v -2.5 0.1 -1.7
v -2.4 0.1 -1.7
v -3.1 0.1 -1.8
v -2.8 0.1 -1.8
v -2.5 0.1 -1.8
v -2.4 0.1 -1.8
v -2.6 0.2 -1.2
v -2.5 0.2 -1.2
v -3.1 0.2 -1.3
v -3 0.2 -1.3
v -2.6 0.2 -1.3
v -2.5 0.2 -1.3
v -3.1 0.2 -1.4
v -3 0.2 -1.4
v -2.8 0.2 -1.6
v -2.7 0.2 -1.6
v -2.8 0.2 -1.7
v -2.7 0.2 -1.7
v -2.8 0.3 -1.7
v -2.7 0.3 -1.7
v -2.8 0.3 -1.8
v -2.7 0.3 -1.8

# faces
f 8/4/1 2/4/1 1/4/1
f 9/3/1 3/3/1 2/3/1
f 9/4/1 2/4/1 8/4/1
f 10/2/1 4/2/1 3/2/1
f 10/3/1 3/3/1 9/3/1
f 11/2/1 4/2/1 10/2/1
f 12/4/1 6/4/1 5/4/1
f 13/2/1 7/2/1 6/2/1
f 13/4/1 6/4/1 12/4/1
f 14/2/1 7/2/1 13/2/1
f 15/5/1 10/5/1 9/5/1
f 16/5/1 10/5/1 15/5/1
f 19/1/1 18/1/1 17/1/1
f 20/1/1 18/1/1 19/1/1
f 23/5/1 22/5/1 21/5/1
f 24/5/1 22/5/1 23/5/1
f 26/5/1 25/5/1 24/5/1
f 27/5/1 25/5/1 26/5/1
f 34/4/1 29/4/1 28/4/1
f 35/4/1 29/4/1 34/4/1
f 36/1/1 31/1/1 30/1/1
f 37/1/1 31/1/1 36/1/1
f 38/1/1 33/1/1 32/1/1
f 39/1/1 33/1/1 38/1/1
f 40/5/1 35/5/1 34/5/1
f 41/5/1 35/5/1 40/5/1
f 44/4/1 43/4/1 42/4/1
f 45/4/1 43/4/1 44/4/1
f 46/4/2 47/4/2 50/4/2
f 50/4/2 47/4/2 51/4/2
f 48/2/2 49/2/2 52/2/2
f 52/2/2 49/2/2 53/2/2
f 51/5/2 52/5/2 54/5/2
f 54/5/2 52/5/2 55/5/2
f 56/1/2 57/1/2 58/1/2
f 58/1/2 57/1/2 59/1/2
f 60/1/2 61/1/2 62/1/2
f 62/1/2 61/1/2 63/1/2
f 64/1/2 65/1/2 66/1/2
f 66/1/2 65/1/2 67/1/2
f 66/5/2 67/5/2 68/5/2
f 68/5/2 67/5/2 69/5/2
f 69/5/2 70/5/2 71/5/2
f 71/5/2 70/5/2 72/5/2
f 73/5/2 74/5/2 75/5/2
f 75/5/2 74/5/2 76/5/2
f 77/2/2 78/2/2 84/2/2
f 78/4/2 79/4/2 85/4/2
f 84/2/2 78/2/2 85/2/2
f 79/2/2 80/2/2 86/2/2
f 85/4/2 79/4/2 86/4/2
f 86/2/2 80/2/2 87/2/2
f 81/4/2 82/4/2 88/4/2
f 82/1/2 83/1/2 89/1/2
f 88/4/2 82/4/2 89/4/2
f 89/1/2 83/1/2 90/1/2
f 93/4/3 92/4/3 91/4/3
f 94/4/3 92/4/3 93/4/3
f 95/2/3 94/2/3 93/2/3
f 96/2/3 94/2/3 95/2/3
f 99/5/3 98/5/3 97/5/3
f 100/5/3 98/5/3 99/5/3
f 104/5/3 102/5/3 101/5/3
f 105/5/3 102/5/3 104/5/3
f 106/1/3 104/1/3 103/1/3
f 107/1/3 104/1/3 106/1/3
f 110/1/3 109/1/3 108/1/3
f 111/1/3 109/1/3 110/1/3
f 114/4/3 113/4/3 112/4/3
f 115/4/3 113/4/3 114/4/3
f 117/1/3 115/1/3 114/1/3
f 118/5/3 116/5/3 115/5/3
f 118/1/3 115/1/3 117/1/3
f 119/5/3 116/5/3 118/5/3
f 122/1/3 121/1/3 120/1/3
f 123/1/3 121/1/3 122/1/3
f 124/4/3 123/4/3 122/4/3
f 125/4/3 123/4/3 124/4/3
f 130/5/3 127/5/3 126/5/3
f 131/5/3 127/5/3 130/5/3
f 132/4/3 129/4/3 128/4/3
f 133/4/3 129/4/3 132/4/3
f 134/4/4 135/4/4 136/4/4
f 136/4/4 135/4/4 137/4/4
f 138/4/4 139/4/4 140/4/4
f 140/4/4 139/4/4 141/4/4
f 140/2/4 141/2/4 142/2/4
f 142/2/4 141/2/4 143/2/4
f 144/1/4 145/1/4 146/1/4
f 146/1/4 145/1/4 147/1/4
f 148/4/4 149/4/4 151/4/4
f 149/5/4 150/5/4 152/5/4
f 151/4/4 149/4/4 152/4/4
f 152/5/4 150/5/4 153/5/4
f 154/5/4 155/5/4 157/5/4
f 157/5/4 155/5/4 158/5/4
f 156/1/4 157/1/4 159/1/4
f 159/1/4 157/1/4 160/1/4
f 161/2/4 162/2/4 163/2/4
f 163/2/4 162/2/4 164/2/4
f 165/1/4 166/1/4 167/1/4
f 167/1/4 166/1/4 168/1/4
f 167/2/4 168/2/4 169/2/4
f 169/2/4 168/2/4 170/2/4
f 171/5/4 172/5/4 173/5/4
f 173/5/4 172/5/4 174/5/4
f 175/2/4 176/2/4 177/2/4
f 177/2/4 176/2/4 178/2/4
f 179/5/4 180/5/4 181/5/4
f 181/5/4 180/5/4 182/5/4
f 177/4/4 178/4/4 183/4/4
f 183/4/4 178/4/4 184/4/4
f 183/1/4 184/1/4 185/1/4
f 185/1/4 184/1/4 186/1/4
f 190/4/5 188/4/5 187/4/5
f 191/4/5 188/4/5 190/4/5
f 192/4/5 188/4/5 191/4/5
f 193/2/5 189/2/5 188/2/5
f 193/4/5 188/4/5 192/4/5
f 194/2/5 189/2/5 193/2/5
f 195/2/5 189/2/5 194/2/5
f 196/4/5 190/4/5 187/4/5
f 197/4/5 190/4/5 196/4/5
f 198/1/5 192/1/5 191/1/5
f 199/1/5 192/1/5 198/1/5
f 200/4/5 195/4/5 194/4/5
f 201/4/5 195/4/5 200/4/5
f 202/3/5 197/3/5 196/3/5
f 203/1/5 198/1/5 197/1/5
f 203/3/5 197/3/5 202/3/5
f 204/1/5 198/1/5 203/1/5
f 206/4/5 195/4/5 201/4/5
f 207/4/5 195/4/5 206/4/5
f 208/2/5 203/2/5 202/2/5
f 209/2/5 203/2/5 208/2/5
f 210/1/5 206/1/5 205/1/5
f 211/2/5 207/2/5 206/2/5
f 211/1/5 206/1/5 210/1/5
f 212/2/5 207/2/5 211/2/5
f 219/4/5 214/4/5 213/4/5
f 220/1/5 215/1/5 214/1/5
f 220/4/5 214/4/5 219/4/5
f 221/1/5 215/1/5 220/1/5
f 222/1/5 217/1/5 216/1/5
f 223/4/5 218/4/5 217/4/5
f 223/1/5 217/1/5 222/1/5
f 224/4/5 218/4/5 223/4/5
f 225/2/5 220/2/5 219/2/5
f 226/4/5 222/4/5 221/4/5
f 226/2/5 220/2/5 225/2/5
f 226/4/5 221/4/5 220/4/5
f 226/4/5 223/4/5 222/4/5
f 227/1/5 224/1/5 223/1/5
f 227/4/5 223/4/5 226/4/5
f 228/1/5 224/1/5 227/1/5
f 231/5/5 230/5/5 229/5/5
f 232/5/5 230/5/5 231/5/5
f 233/4/6 234/4/6 236/4/6
f 236/4/6 234/4/6 237/4/6
f 237/4/6 234/4/6 238/4/6
f 234/2/6 235/2/6 239/2/6
f 238/4/6 234/4/6 239/4/6
f 239/2/6 235/2/6 240/2/6
f 240/2/6 235/2/6 241/2/6
f 241/2/6 235/2/6 242/2/6
f 233/4/6 236/4/6 243/4/6
f 243/4/6 236/4/6 244/4/6
f 237/1/6 238/1/6 245/1/6
f 245/1/6 238/1/6 246/1/6
f 241/4/6 242/4/6 247/4/6
f 244/1/6 245/1/6 249/1/6
f 249/1/6 245/1/6 250/1/6
f 247/4/6 242/4/6 252/4/6
f 252/4/6 242/4/6 253/4/6
f 248/2/6 249/2/6 254/2/6
f 254/2/6 249/2/6 255/2/6
f 251/1/6 252/1/6 256/1/6
f 252/2/6 253/2/6 257/2/6
f 256/1/6 252/1/6 257/1/6
f 257/2/6 253/2/6 258/2/6
f 259/4/6 260/4/6 264/4/6
f 264/4/6 260/4/6 265/4/6
f 261/1/6 262/1/6 267/1/6
f 262/4/6 263/4/6 268/4/6
f 267/1/6 262/1/6 268/1/6
f 268/4/6 263/4/6 269/4/6
f 264/2/6 265/2/6 270/2/6
f 266/4/6 267/4/6 271/4/6
f 270/2/6 265/2/6 271/2/6
f 265/4/6 266/4/6 271/4/6
f 267/4/6 268/4/6 271/4/6
f 268/1/6 269/1/6 272/1/6
f 271/4/6 268/4/6 272/4/6
f 272/1/6 269/1/6 273/1/6
f 274/5/6 275/5/6 278/5/6
f 278/5/6 275/5/6 279/5/6
f 276/5/6 277/5/6 280/5/6
f 280/5/6 277/5/6 281/5/6
f 282/5/6 283/5/6 284/5/6
f 284/5/6 283/5/6 285/5/6
f 286/5/6 287/5/6 288/5/6
f 288/5/6 287/5/6 289/5/6
