# MagicaVoxel @ Ephtracy

# group
o cannon

# material
mtllib environ-13-cannon.mtl
usemtl palette

# normals
vn -1 0 0
vn 1 0 0
vn 0 0 1
vn 0 0 -1
vn 0 -1 0
vn 0 1 0

# texcoords
vt 0.263672 0.5
vt 0.982422 0.5
vt 0.986328 0.5
vt 0.990234 0.5

# verts
v -1.8 0.1 1.1
v -1.8 0.1 1
v -1.8 0.3 1.1
v -1.8 0.3 1
v -1.7 0 1.4
v -1.7 0 1.2
v -1.7 0 1.1
v -1.7 0 1
v -1.7 0.1 2
v -1.7 0.1 1.9
v -1.7 0.1 1.4
v -1.7 0.1 1.2
v -1.7 0.1 1.1
v -1.7 0.1 1
v -1.7 0.3 2
v -1.7 0.3 1.9
v -1.7 0.3 1.1
v -1.7 0.3 1
v -1.7 0.4 1.1
v -1.7 0.4 1
v -1.5 0 1.4
v -1.5 0 1.2
v -1.5 0 1.1
v -1.5 0 1
v -1.5 0.1 2
v -1.5 0.1 1.9
v -1.5 0.1 1.4
v -1.5 0.1 1.2
v -1.5 0.1 1.1
v -1.5 0.1 1
v -1.5 0.3 2
v -1.5 0.3 1.9
v -1.5 0.3 1.1
v -1.5 0.3 1
v -1.5 0.4 1.1
v -1.5 0.4 1
v -1.4 0.1 1.1
v -1.4 0.1 1
v -1.4 0.3 1.1
v -1.4 0.3 1
v -1.7 0.1 2
v -1.7 0.3 2
v -1.5 0.1 2
v -1.5 0.3 2
v -1.7 0 1.4
v -1.7 0.1 1.4
v -1.5 0 1.4
v -1.5 0.1 1.4
v -1.8 0.1 1.1
v -1.8 0.3 1.1
v -1.7 0 1.1
v -1.7 0.1 1.1
v -1.7 0.3 1.1
v -1.7 0.4 1.1
v -1.5 0 1.1
v -1.5 0.1 1.1
v -1.5 0.3 1.1
v -1.5 0.4 1.1
v -1.4 0.1 1.1
v -1.4 0.3 1.1
v -1.7 0 1.2
v -1.7 0.1 1.2
v -1.5 0 1.2
v -1.5 0.1 1.2
v -1.8 0.1 1
v -1.8 0.3 1
v -1.7 0 1
v -1.7 0.1 1
v -1.7 0.3 1
v -1.7 0.4 1
v -1.5 0 1
v -1.5 0.1 1
v -1.5 0.3 1
v -1.5 0.4 1
v -1.4 0.1 1
v -1.4 0.3 1
v -1.7 0 1.4
v -1.5 0 1.4
v -1.7 0 1.2
v -1.5 0 1.2
v -1.7 0 1.1
v -1.5 0 1.1
v -1.7 0 1
v -1.5 0 1
v -1.7 0.1 2
v -1.5 0.1 2
v -1.7 0.1 1.9
v -1.5 0.1 1.9
v -1.7 0.1 1.4
v -1.5 0.1 1.4
v -1.7 0.1 1.2
v -1.5 0.1 1.2
v -1.8 0.1 1.1
v -1.7 0.1 1.1
v -1.5 0.1 1.1
v -1.4 0.1 1.1
v -1.8 0.1 1
v -1.7 0.1 1
v -1.5 0.1 1
v -1.4 0.1 1
v -1.7 0.3 2
v -1.5 0.3 2
v -1.7 0.3 1.9
v -1.5 0.3 1.9
v -1.8 0.3 1.1
v -1.7 0.3 1.1
v -1.5 0.3 1.1
v -1.4 0.3 1.1
v -1.8 0.3 1
v -1.7 0.3 1
v -1.5 0.3 1
v -1.4 0.3 1
v -1.7 0.4 1.1
v -1.5 0.4 1.1
v -1.7 0.4 1
v -1.5 0.4 1

# faces
f 3/3/1 2/3/1 1/3/1
f 4/3/1 2/3/1 3/3/1
f 11/1/1 6/1/1 5/1/1
f 12/1/1 6/1/1 11/1/1
f 13/3/1 8/3/1 7/3/1
f 14/3/1 8/3/1 13/3/1
f 15/2/1 10/2/1 9/2/1
f 16/3/1 12/3/1 11/3/1
f 16/2/1 10/2/1 15/2/1
f 16/3/1 11/3/1 10/3/1
f 16/3/1 13/3/1 12/3/1
f 17/3/1 13/3/1 16/3/1
f 19/3/1 18/3/1 17/3/1
f 20/3/1 18/3/1 19/3/1
f 21/1/2 22/1/2 27/1/2
f 27/1/2 22/1/2 28/1/2
f 23/3/2 24/3/2 29/3/2
f 29/3/2 24/3/2 30/3/2
f 25/2/2 26/2/2 31/2/2
f 27/3/2 28/3/2 32/3/2
f 31/2/2 26/2/2 32/2/2
f 26/3/2 27/3/2 32/3/2
f 28/3/2 29/3/2 32/3/2
f 32/3/2 29/3/2 33/3/2
f 33/3/2 34/3/2 35/3/2
f 35/3/2 34/3/2 36/3/2
f 37/3/2 38/3/2 39/3/2
f 39/3/2 38/3/2 40/3/2
f 43/2/3 42/2/3 41/2/3
f 44/2/3 42/2/3 43/2/3
f 47/1/3 46/1/3 45/1/3
f 48/1/3 46/1/3 47/1/3
f 52/3/3 50/3/3 49/3/3
f 53/3/3 50/3/3 52/3/3
f 55/3/3 52/3/3 51/3/3
f 56/3/3 52/3/3 55/3/3
f 57/3/3 54/3/3 53/3/3
f 58/3/3 54/3/3 57/3/3
f 59/3/3 57/3/3 56/3/3
f 60/3/3 57/3/3 59/3/3
f 61/1/4 62/1/4 63/1/4
f 63/1/4 62/1/4 64/1/4
f 65/3/4 66/3/4 68/3/4
f 68/3/4 66/3/4 69/3/4
f 67/3/4 68/3/4 71/3/4
f 68/4/4 69/4/4 72/4/4
f 71/3/4 68/3/4 72/3/4
f 69/3/4 70/3/4 73/3/4
f 72/4/4 69/4/4 73/4/4
f 73/3/4 70/3/4 74/3/4
f 72/3/4 73/3/4 75/3/4
f 75/3/4 73/3/4 76/3/4
f 79/1/5 78/1/5 77/1/5
f 80/1/5 78/1/5 79/1/5
f 83/3/5 82/3/5 81/3/5
f 84/3/5 82/3/5 83/3/5
f 87/2/5 86/2/5 85/2/5
f 88/2/5 86/2/5 87/2/5
f 89/3/5 88/3/5 87/3/5
f 90/3/5 88/3/5 89/3/5
f 94/3/5 92/3/5 91/3/5
f 95/3/5 92/3/5 94/3/5
f 97/3/5 94/3/5 93/3/5
f 98/3/5 94/3/5 97/3/5
f 99/3/5 96/3/5 95/3/5
f 100/3/5 96/3/5 99/3/5
f 101/2/6 102/2/6 103/2/6
f 103/2/6 102/2/6 104/2/6
f 103/3/6 104/3/6 106/3/6
f 106/3/6 104/3/6 107/3/6
f 105/3/6 106/3/6 109/3/6
f 109/3/6 106/3/6 110/3/6
f 107/3/6 108/3/6 111/3/6
f 111/3/6 108/3/6 112/3/6
f 113/3/6 114/3/6 115/3/6
f 115/3/6 114/3/6 116/3/6
