# MagicaVoxel @ Ephtracy

# group
o grate1

# material
mtllib environ-27-grate1.mtl
usemtl palette

# normals
vn -1 0 0
vn 1 0 0
vn 0 0 1
vn 0 0 -1
vn 0 -1 0
vn 0 1 0

# texcoords
vt 0.974609 0.5
vt 0.978516 0.5
vt 0.986328 0.5

# verts
v -0.3 0 -0.4
v -0.3 0 -1
v -0.3 0 -1.1
v -0.3 0.1 -0.4
v -0.3 0.1 -1
v -0.3 0.1 -1.1
v 0.4 0 -0.4
v 0.4 0 -1
v 0.4 0 -1.1
v 0.4 0.1 -0.4
v 0.4 0.1 -1
v 0.4 0.1 -1.1
v -0.3 0 -0.4
v -0.3 0.1 -0.4
v -0.2 0 -0.4
v -0.2 0.1 -0.4
v -0.1 0 -0.4
v -0.1 0.1 -0.4
v 0 0 -0.4
v 0 0.1 -0.4
v 0.1 0 -0.4
v 0.1 0.1 -0.4
v 0.2 0 -0.4
v 0.2 0.1 -0.4
v 0.3 0 -0.4
v 0.3 0.1 -0.4
v 0.4 0 -0.4
v 0.4 0.1 -0.4
v -0.3 0 -1.1
v -0.3 0.1 -1.1
v 0.4 0 -1.1
v 0.4 0.1 -1.1
v -0.3 0 -0.4
v -0.2 0 -0.4
v -0.1 0 -0.4
v 0 0 -0.4
v 0.1 0 -0.4
v 0.2 0 -0.4
v 0.3 0 -0.4
v 0.4 0 -0.4
v -0.2 0 -0.5
v -0.1 0 -0.5
v 0 0 -0.5
v 0.1 0 -0.5
v 0.2 0 -0.5
v 0.3 0 -0.5
v -0.2 0 -0.6
v -0.1 0 -0.6
v 0 0 -0.6
v 0.1 0 -0.6
v 0.2 0 -0.6
v 0.3 0 -0.6
v -0.2 0 -0.7
v -0.1 0 -0.7
v 0 0 -0.7
v 0.1 0 -0.7
v 0.2 0 -0.7
v 0.3 0 -0.7
v -0.2 0 -0.8
v -0.1 0 -0.8
v 0 0 -0.8
v 0.1 0 -0.8
v 0.2 0 -0.8
v 0.3 0 -0.8
v -0.2 0 -0.9
v -0.1 0 -0.9
v 0 0 -0.9
v 0.1 0 -0.9
v 0.2 0 -0.9
v 0.3 0 -0.9
v -0.3 0 -1
v 0.4 0 -1
v -0.3 0 -1.1
v 0.4 0 -1.1
v -0.3 0.1 -0.4
v -0.2 0.1 -0.4
v -0.1 0.1 -0.4
v 0 0.1 -0.4
v 0.1 0.1 -0.4
v 0.2 0.1 -0.4
v 0.3 0.1 -0.4
v 0.4 0.1 -0.4
v -0.2 0.1 -0.5
v -0.1 0.1 -0.5
v 0 0.1 -0.5
v 0.1 0.1 -0.5
v 0.2 0.1 -0.5
v 0.3 0.1 -0.5
v -0.2 0.1 -0.6
v -0.1 0.1 -0.6
v 0 0.1 -0.6
v 0.1 0.1 -0.6
v 0.2 0.1 -0.6
v 0.3 0.1 -0.6
v -0.2 0.1 -0.7
v -0.1 0.1 -0.7
v 0 0.1 -0.7
v 0.1 0.1 -0.7
v 0.2 0.1 -0.7
v 0.3 0.1 -0.7
v -0.2 0.1 -0.8
v -0.1 0.1 -0.8
v 0 0.1 -0.8
v 0.1 0.1 -0.8
v 0.2 0.1 -0.8
v 0.3 0.1 -0.8
v -0.2 0.1 -0.9
v -0.1 0.1 -0.9
v 0 0.1 -0.9
v 0.1 0.1 -0.9
v 0.2 0.1 -0.9
v 0.3 0.1 -0.9
v -0.3 0.1 -1
v 0.4 0.1 -1
v -0.3 0.1 -1.1
v 0.4 0.1 -1.1

# faces
f 4/2/1 2/2/1 1/2/1
f 5/1/1 3/1/1 2/1/1
f 5/2/1 2/2/1 4/2/1
f 6/1/1 3/1/1 5/1/1
f 7/2/2 8/2/2 10/2/2
f 8/1/2 9/1/2 11/1/2
f 10/2/2 8/2/2 11/2/2
f 11/1/2 9/1/2 12/1/2
f 15/2/3 14/2/3 13/2/3
f 16/2/3 14/2/3 15/2/3
f 17/3/3 16/3/3 15/3/3
f 18/3/3 16/3/3 17/3/3
f 19/2/3 18/2/3 17/2/3
f 20/2/3 18/2/3 19/2/3
f 21/3/3 20/3/3 19/3/3
f 22/3/3 20/3/3 21/3/3
f 23/2/3 22/2/3 21/2/3
f 24/2/3 22/2/3 23/2/3
f 25/3/3 24/3/3 23/3/3
f 26/3/3 24/3/3 25/3/3
f 27/2/3 26/2/3 25/2/3
f 28/2/3 26/2/3 27/2/3
f 29/1/4 30/1/4 31/1/4
f 31/1/4 30/1/4 32/1/4
f 41/2/5 34/2/5 33/2/5
f 41/3/5 35/3/5 34/3/5
f 42/2/5 36/2/5 35/2/5
f 42/3/5 35/3/5 41/3/5
f 43/3/5 37/3/5 36/3/5
f 43/2/5 36/2/5 42/2/5
f 44/2/5 38/2/5 37/2/5
f 44/3/5 37/3/5 43/3/5
f 45/3/5 39/3/5 38/3/5
f 45/2/5 38/2/5 44/2/5
f 46/2/5 40/2/5 39/2/5
f 46/3/5 39/3/5 45/3/5
f 47/2/5 45/2/5 44/2/5
f 47/2/5 44/2/5 43/2/5
f 47/2/5 46/2/5 45/2/5
f 47/2/5 43/2/5 42/2/5
f 47/2/5 42/2/5 41/2/5
f 47/2/5 41/2/5 33/2/5
f 48/2/5 46/2/5 47/2/5
f 49/2/5 46/2/5 48/2/5
f 50/2/5 46/2/5 49/2/5
f 51/2/5 46/2/5 50/2/5
f 52/2/5 40/2/5 46/2/5
f 52/2/5 46/2/5 51/2/5
f 53/2/5 47/2/5 33/2/5
f 53/3/5 48/3/5 47/3/5
f 54/2/5 49/2/5 48/2/5
f 54/3/5 48/3/5 53/3/5
f 55/3/5 50/3/5 49/3/5
f 55/2/5 49/2/5 54/2/5
f 56/2/5 51/2/5 50/2/5
f 56/3/5 50/3/5 55/3/5
f 57/3/5 52/3/5 51/3/5
f 57/2/5 51/2/5 56/2/5
f 58/2/5 40/2/5 52/2/5
f 58/3/5 52/3/5 57/3/5
f 59/2/5 55/2/5 54/2/5
f 59/2/5 57/2/5 56/2/5
f 59/2/5 58/2/5 57/2/5
f 59/2/5 54/2/5 53/2/5
f 59/2/5 53/2/5 33/2/5
f 59/2/5 56/2/5 55/2/5
f 60/2/5 58/2/5 59/2/5
f 61/2/5 58/2/5 60/2/5
f 62/2/5 58/2/5 61/2/5
f 63/2/5 58/2/5 62/2/5
f 64/2/5 40/2/5 58/2/5
f 64/2/5 58/2/5 63/2/5
f 65/2/5 59/2/5 33/2/5
f 65/3/5 60/3/5 59/3/5
f 66/2/5 61/2/5 60/2/5
f 66/3/5 60/3/5 65/3/5
f 67/3/5 62/3/5 61/3/5
f 67/2/5 61/2/5 66/2/5
f 68/2/5 63/2/5 62/2/5
f 68/3/5 62/3/5 67/3/5
f 69/3/5 64/3/5 63/3/5
f 69/2/5 63/2/5 68/2/5
f 70/2/5 40/2/5 64/2/5
f 70/3/5 64/3/5 69/3/5
f 71/2/5 67/2/5 66/2/5
f 71/2/5 69/2/5 68/2/5
f 71/2/5 70/2/5 69/2/5
f 71/2/5 66/2/5 65/2/5
f 71/2/5 65/2/5 33/2/5
f 71/2/5 68/2/5 67/2/5
f 72/2/5 40/2/5 70/2/5
f 72/2/5 70/2/5 71/2/5
f 73/1/5 72/1/5 71/1/5
f 74/1/5 72/1/5 73/1/5
f 75/2/6 76/2/6 83/2/6
f 76/3/6 77/3/6 83/3/6
f 77/2/6 78/2/6 84/2/6
f 83/3/6 77/3/6 84/3/6
f 78/3/6 79/3/6 85/3/6
f 84/2/6 78/2/6 85/2/6
f 79/2/6 80/2/6 86/2/6
f 85/3/6 79/3/6 86/3/6
f 80/3/6 81/3/6 87/3/6
f 86/2/6 80/2/6 87/2/6
f 81/2/6 82/2/6 88/2/6
f 87/3/6 81/3/6 88/3/6
f 86/2/6 87/2/6 89/2/6
f 85/2/6 86/2/6 89/2/6
f 87/2/6 88/2/6 89/2/6
f 84/2/6 85/2/6 89/2/6
f 83/2/6 84/2/6 89/2/6
f 75/2/6 83/2/6 89/2/6
f 89/2/6 88/2/6 90/2/6
f 90/2/6 88/2/6 91/2/6
f 91/2/6 88/2/6 92/2/6
f 92/2/6 88/2/6 93/2/6
f 88/2/6 82/2/6 94/2/6
f 93/2/6 88/2/6 94/2/6
f 75/2/6 89/2/6 95/2/6
f 89/3/6 90/3/6 95/3/6
f 90/2/6 91/2/6 96/2/6
f 95/3/6 90/3/6 96/3/6
f 91/3/6 92/3/6 97/3/6
f 96/2/6 91/2/6 97/2/6
f 92/2/6 93/2/6 98/2/6
f 97/3/6 92/3/6 98/3/6
f 93/3/6 94/3/6 99/3/6
f 98/2/6 93/2/6 99/2/6
f 94/2/6 82/2/6 100/2/6
f 99/3/6 94/3/6 100/3/6
f 96/2/6 97/2/6 101/2/6
f 98/2/6 99/2/6 101/2/6
f 99/2/6 100/2/6 101/2/6
f 95/2/6 96/2/6 101/2/6
f 75/2/6 95/2/6 101/2/6
f 97/2/6 98/2/6 101/2/6
f 101/2/6 100/2/6 102/2/6
f 102/2/6 100/2/6 103/2/6
f 103/2/6 100/2/6 104/2/6
f 104/2/6 100/2/6 105/2/6
f 100/2/6 82/2/6 106/2/6
f 105/2/6 100/2/6 106/2/6
f 75/2/6 101/2/6 107/2/6
f 101/3/6 102/3/6 107/3/6
f 102/2/6 103/2/6 108/2/6
f 107/3/6 102/3/6 108/3/6
f 103/3/6 104/3/6 109/3/6
f 108/2/6 103/2/6 109/2/6
f 104/2/6 105/2/6 110/2/6
f 109/3/6 104/3/6 110/3/6
f 105/3/6 106/3/6 111/3/6
f 110/2/6 105/2/6 111/2/6
f 106/2/6 82/2/6 112/2/6
f 111/3/6 106/3/6 112/3/6
f 108/2/6 109/2/6 113/2/6
f 110/2/6 111/2/6 113/2/6
f 111/2/6 112/2/6 113/2/6
f 107/2/6 108/2/6 113/2/6
f 75/2/6 107/2/6 113/2/6
f 109/2/6 110/2/6 113/2/6
f 112/2/6 82/2/6 114/2/6
f 113/2/6 112/2/6 114/2/6
f 113/1/6 114/1/6 115/1/6
f 115/1/6 114/1/6 116/1/6
