# MagicaVoxel @ Ephtracy

# group
o pig

# material
mtllib environ-24-pig.mtl
usemtl palette

# normals
vn -1 0 0
vn 1 0 0
vn 0 0 1
vn 0 0 -1
vn 0 -1 0
vn 0 1 0

# texcoords
vt 0.00976562 0.5
vt 0.0214844 0.5
vt 0.0996094 0.5
vt 0.166016 0.5
vt 0.173828 0.5
vt 0.986328 0.5

# verts
v -1.1 0.7 1
v -1.1 0.7 0.6
v -1.1 0.8 0.8
v -1.1 0.8 0.7
v -1.1 0.9 0.8
v -1.1 0.9 0.7
v -1.1 1 1
v -1.1 1 0.7
v -1.1 1.1 0.8
v -1.1 1.1 0.7
v -1.1 1.1 0.6
v -1.1 1.2 0.8
v -1.1 1.2 0.7
v -1 0 0.7
v -1 0 0.6
v -1 0.2 0.7
v -1 0.2 0.6
v -1 0.3 0.7
v -1 0.3 0.6
v -1 0.4 0.7
v -1 0.4 0.6
v -1 0.6 0.7
v -1 0.6 0.6
v -0.9 0.3 0.6
v -0.9 0.3 0.5
v -0.9 0.4 0.6
v -0.9 0.4 0.5
v -0.9 0.4 0.4
v -0.9 0.5 0.5
v -0.9 0.5 0.4
v -0.9 0.6 0.7
v -0.9 0.6 0.6
v -0.9 0.7 0.7
v -0.9 0.7 0.6
v -0.8 0 0.7
v -0.8 0 0.6
v -0.8 0.2 0.7
v -0.8 0.2 0.6
v -0.8 0.3 0.7
v -0.8 0.3 0.6
v -0.8 1 0.7
v -0.8 1 0.6
v -0.8 1.1 0.7
v -0.8 1.1 0.6
v -0.7 1.1 0.8
v -0.7 1.1 0.7
v -0.7 1.2 0.8
v -0.7 1.2 0.7
v -1 1.1 0.8
v -1 1.1 0.7
v -1 1.2 0.8
v -1 1.2 0.7
v -0.9 0 0.7
v -0.9 0 0.6
v -0.9 0.2 0.7
v -0.9 0.2 0.6
v -0.9 0.3 0.7
v -0.9 0.3 0.6
v -0.9 1 0.7
v -0.9 1 0.6
v -0.9 1.1 0.7
v -0.9 1.1 0.6
v -0.8 0.3 0.6
v -0.8 0.3 0.5
v -0.8 0.4 0.6
v -0.8 0.4 0.5
v -0.8 0.4 0.4
v -0.8 0.5 0.5
v -0.8 0.5 0.4
v -0.8 0.6 0.7
v -0.8 0.6 0.6
v -0.8 0.7 0.7
v -0.8 0.7 0.6
v -0.7 0 0.7
v -0.7 0 0.6
v -0.7 0.2 0.7
v -0.7 0.2 0.6
v -0.7 0.3 0.7
v -0.7 0.3 0.6
v -0.7 0.4 0.7
v -0.7 0.4 0.6
v -0.7 0.6 0.7
v -0.7 0.6 0.6
v -0.6 0.7 1
v -0.6 0.7 0.6
v -0.6 0.8 0.8
v -0.6 0.8 0.7
v -0.6 0.9 0.8
v -0.6 0.9 0.7
v -0.6 1 1
v -0.6 1 0.7
v -0.6 1.1 0.8
v -0.6 1.1 0.7
v -0.6 1.1 0.6
v -0.6 1.2 0.8
v -0.6 1.2 0.7
v -1.1 0.7 1
v -1.1 1 1
v -1 0.8 1
v -1 0.9 1
v -0.9 0.8 1
v -0.9 0.9 1
v -0.8 0.8 1
v -0.8 0.9 1
v -0.7 0.8 1
v -0.7 0.9 1
v -0.6 0.7 1
v -0.6 1 1
v -1.1 1.1 0.8
v -1.1 1.2 0.8
v -1 1.1 0.8
v -1 1.2 0.8
v -0.7 1.1 0.8
v -0.7 1.2 0.8
v -0.6 1.1 0.8
v -0.6 1.2 0.8
v -1.1 1 0.7
v -1.1 1.1 0.7
v -1 0 0.7
v -1 0.2 0.7
v -1 0.3 0.7
v -1 0.4 0.7
v -1 0.6 0.7
v -1 1.1 0.7
v -0.9 0 0.7
v -0.9 0.2 0.7
v -0.9 0.3 0.7
v -0.9 0.6 0.7
v -0.9 0.7 0.7
v -0.9 1 0.7
v -0.9 1.1 0.7
v -0.8 0 0.7
v -0.8 0.2 0.7
v -0.8 0.3 0.7
v -0.8 0.6 0.7
v -0.8 0.7 0.7
v -0.8 1 0.7
v -0.8 1.1 0.7
v -0.7 0 0.7
v -0.7 0.2 0.7
v -0.7 0.3 0.7
v -0.7 0.4 0.7
v -0.7 0.6 0.7
v -0.7 1.1 0.7
v -0.6 1 0.7
v -0.6 1.1 0.7
v -0.9 0.4 0.5
v -0.9 0.5 0.5
v -0.8 0.4 0.5
v -0.8 0.5 0.5
v -1.1 1.1 0.7
v -1.1 1.2 0.7
v -1 1.1 0.7
v -1 1.2 0.7
v -0.7 1.1 0.7
v -0.7 1.2 0.7
v -0.6 1.1 0.7
v -0.6 1.2 0.7
v -1.1 0.7 0.6
v -1.1 1.1 0.6
v -1 0 0.6
v -1 0.2 0.6
v -1 0.3 0.6
v -1 0.4 0.6
v -1 0.6 0.6
v -0.9 0 0.6
v -0.9 0.2 0.6
v -0.9 0.3 0.6
v -0.9 0.4 0.6
v -0.9 0.6 0.6
v -0.9 0.7 0.6
v -0.9 1 0.6
v -0.9 1.1 0.6
v -0.8 0 0.6
v -0.8 0.2 0.6
v -0.8 0.3 0.6
v -0.8 0.4 0.6
v -0.8 0.6 0.6
v -0.8 0.7 0.6
v -0.8 1 0.6
v -0.8 1.1 0.6
v -0.7 0 0.6
v -0.7 0.2 0.6
v -0.7 0.3 0.6
v -0.7 0.4 0.6
v -0.7 0.6 0.6
v -0.6 0.7 0.6
v -0.6 1.1 0.6
v -0.9 0.3 0.5
v -0.9 0.4 0.5
v -0.8 0.3 0.5
v -0.8 0.4 0.5
v -0.9 0.4 0.4
v -0.9 0.5 0.4
v -0.8 0.4 0.4
v -0.8 0.5 0.4
v -1 0 0.7
v -0.9 0 0.7
v -0.8 0 0.7
v -0.7 0 0.7
v -1 0 0.6
v -0.9 0 0.6
v -0.8 0 0.6
v -0.7 0 0.6
v -0.9 0.3 0.7
v -0.8 0.3 0.7
v -0.9 0.3 0.6
v -0.8 0.3 0.6
v -0.9 0.3 0.5
v -0.8 0.3 0.5
v -0.9 0.4 0.5
v -0.8 0.4 0.5
v -0.9 0.4 0.4
v -0.8 0.4 0.4
v -1.1 0.7 1
v -0.6 0.7 1
v -0.9 0.7 0.7
v -0.8 0.7 0.7
v -1.1 0.7 0.6
v -0.9 0.7 0.6
v -0.8 0.7 0.6
v -0.6 0.7 0.6
v -1.1 1.1 0.8
v -1 1.1 0.8
v -0.7 1.1 0.8
v -0.6 1.1 0.8
v -1.1 1.1 0.7
v -1 1.1 0.7
v -0.7 1.1 0.7
v -0.6 1.1 0.7
v -0.9 0.4 0.6
v -0.8 0.4 0.6
v -0.9 0.4 0.5
v -0.8 0.4 0.5
v -0.9 0.5 0.5
v -0.8 0.5 0.5
v -0.9 0.5 0.4
v -0.8 0.5 0.4
v -1 0.6 0.7
v -0.9 0.6 0.7
v -0.8 0.6 0.7
v -0.7 0.6 0.7
v -1 0.6 0.6
v -0.9 0.6 0.6
v -0.8 0.6 0.6
v -0.7 0.6 0.6
v -1.1 1 1
v -0.6 1 1
v -1.1 1 0.7
v -0.9 1 0.7
v -0.8 1 0.7
v -0.6 1 0.7
v -0.9 1 0.6
v -0.8 1 0.6
v -1.1 1.1 0.7
v -1 1.1 0.7
v -0.9 1.1 0.7
v -0.8 1.1 0.7
v -0.7 1.1 0.7
v -0.6 1.1 0.7
v -1.1 1.1 0.6
v -0.9 1.1 0.6
v -0.8 1.1 0.6
v -0.6 1.1 0.6
v -1.1 1.2 0.8
v -1 1.2 0.8
v -0.7 1.2 0.8
v -0.6 1.2 0.8
v -1.1 1.2 0.7
v -1 1.2 0.7
v -0.7 1.2 0.7
v -0.6 1.2 0.7

# faces
f 3/2/1 2/2/1 1/2/1
f 4/2/1 2/2/1 3/2/1
f 5/2/1 3/2/1 1/2/1
f 5/6/1 4/6/1 3/6/1
f 6/2/1 2/2/1 4/2/1
f 6/6/1 4/6/1 5/6/1
f 7/2/1 5/2/1 1/2/1
f 7/2/1 6/2/1 5/2/1
f 8/2/1 2/2/1 6/2/1
f 8/2/1 6/2/1 7/2/1
f 10/2/1 2/2/1 8/2/1
f 11/2/1 2/2/1 10/2/1
f 12/2/1 10/2/1 9/2/1
f 13/2/1 10/2/1 12/2/1
f 16/3/1 15/3/1 14/3/1
f 17/3/1 15/3/1 16/3/1
f 18/2/1 17/2/1 16/2/1
f 19/2/1 17/2/1 18/2/1
f 20/5/1 19/5/1 18/5/1
f 21/5/1 19/5/1 20/5/1
f 22/4/1 21/4/1 20/4/1
f 23/4/1 21/4/1 22/4/1
f 26/2/1 25/2/1 24/2/1
f 27/2/1 25/2/1 26/2/1
f 29/2/1 28/2/1 27/2/1
f 30/2/1 28/2/1 29/2/1
f 33/2/1 32/2/1 31/2/1
f 34/2/1 32/2/1 33/2/1
f 37/3/1 36/3/1 35/3/1
f 38/3/1 36/3/1 37/3/1
f 39/2/1 38/2/1 37/2/1
f 40/2/1 38/2/1 39/2/1
f 43/2/1 42/2/1 41/2/1
f 44/2/1 42/2/1 43/2/1
f 47/2/1 46/2/1 45/2/1
f 48/2/1 46/2/1 47/2/1
f 49/2/2 50/2/2 51/2/2
f 51/2/2 50/2/2 52/2/2
f 53/3/2 54/3/2 55/3/2
f 55/3/2 54/3/2 56/3/2
f 55/2/2 56/2/2 57/2/2
f 57/2/2 56/2/2 58/2/2
f 59/2/2 60/2/2 61/2/2
f 61/2/2 60/2/2 62/2/2
f 63/2/2 64/2/2 65/2/2
f 65/2/2 64/2/2 66/2/2
f 66/2/2 67/2/2 68/2/2
f 68/2/2 67/2/2 69/2/2
f 70/2/2 71/2/2 72/2/2
f 72/2/2 71/2/2 73/2/2
f 74/3/2 75/3/2 76/3/2
f 76/3/2 75/3/2 77/3/2
f 76/2/2 77/2/2 78/2/2
f 78/2/2 77/2/2 79/2/2
f 78/5/2 79/5/2 80/5/2
f 80/5/2 79/5/2 81/5/2
f 80/4/2 81/4/2 82/4/2
f 82/4/2 81/4/2 83/4/2
f 84/2/2 85/2/2 86/2/2
f 86/2/2 85/2/2 87/2/2
f 84/2/2 86/2/2 88/2/2
f 86/6/2 87/6/2 88/6/2
f 87/2/2 85/2/2 89/2/2
f 88/6/2 87/6/2 89/6/2
f 84/2/2 88/2/2 90/2/2
f 88/2/2 89/2/2 90/2/2
f 89/2/2 85/2/2 91/2/2
f 90/2/2 89/2/2 91/2/2
f 91/2/2 85/2/2 93/2/2
f 93/2/2 85/2/2 94/2/2
f 92/2/2 93/2/2 95/2/2
f 95/2/2 93/2/2 96/2/2
f 99/2/3 98/2/3 97/2/3
f 100/2/3 98/2/3 99/2/3
f 101/2/3 99/2/3 97/2/3
f 101/1/3 100/1/3 99/1/3
f 102/2/3 98/2/3 100/2/3
f 102/1/3 100/1/3 101/1/3
f 103/2/3 101/2/3 97/2/3
f 103/2/3 102/2/3 101/2/3
f 104/2/3 98/2/3 102/2/3
f 104/2/3 102/2/3 103/2/3
f 105/2/3 103/2/3 97/2/3
f 105/1/3 104/1/3 103/1/3
f 106/2/3 98/2/3 104/2/3
f 106/1/3 104/1/3 105/1/3
f 107/2/3 105/2/3 97/2/3
f 107/2/3 106/2/3 105/2/3
f 108/2/3 98/2/3 106/2/3
f 108/2/3 106/2/3 107/2/3
f 111/2/3 110/2/3 109/2/3
f 112/2/3 110/2/3 111/2/3
f 115/2/3 114/2/3 113/2/3
f 116/2/3 114/2/3 115/2/3
f 124/2/3 118/2/3 117/2/3
f 125/3/3 120/3/3 119/3/3
f 126/2/3 121/2/3 120/2/3
f 126/3/3 120/3/3 125/3/3
f 127/5/3 122/5/3 121/5/3
f 127/2/3 121/2/3 126/2/3
f 128/4/3 123/4/3 122/4/3
f 130/2/3 124/2/3 117/2/3
f 131/2/3 124/2/3 130/2/3
f 134/5/3 122/5/3 127/5/3
f 135/2/3 129/2/3 128/2/3
f 135/4/3 128/4/3 122/4/3
f 136/2/3 129/2/3 135/2/3
f 139/3/3 133/3/3 132/3/3
f 140/2/3 134/2/3 133/2/3
f 140/3/3 133/3/3 139/3/3
f 141/5/3 122/5/3 134/5/3
f 141/2/3 134/2/3 140/2/3
f 142/4/3 135/4/3 122/4/3
f 142/5/3 122/5/3 141/5/3
f 143/4/3 135/4/3 142/4/3
f 144/2/3 138/2/3 137/2/3
f 145/2/3 144/2/3 137/2/3
f 146/2/3 144/2/3 145/2/3
f 149/2/3 148/2/3 147/2/3
f 150/2/3 148/2/3 149/2/3
f 151/2/4 152/2/4 153/2/4
f 153/2/4 152/2/4 154/2/4
f 155/2/4 156/2/4 157/2/4
f 157/2/4 156/2/4 158/2/4
f 161/3/4 162/3/4 166/3/4
f 162/2/4 163/2/4 167/2/4
f 166/3/4 162/3/4 167/3/4
f 163/5/4 164/5/4 168/5/4
f 167/2/4 163/2/4 168/2/4
f 164/4/4 165/4/4 169/4/4
f 168/5/4 164/5/4 169/5/4
f 169/4/4 165/4/4 170/4/4
f 159/2/4 160/2/4 171/2/4
f 171/2/4 160/2/4 172/2/4
f 172/2/4 160/2/4 173/2/4
f 169/4/4 170/4/4 177/4/4
f 171/2/4 172/2/4 178/2/4
f 170/2/4 171/2/4 178/2/4
f 177/4/4 170/4/4 178/4/4
f 178/2/4 172/2/4 179/2/4
f 179/2/4 172/2/4 180/2/4
f 174/3/4 175/3/4 182/3/4
f 175/2/4 176/2/4 183/2/4
f 182/3/4 175/3/4 183/3/4
f 176/5/4 177/5/4 184/5/4
f 183/2/4 176/2/4 184/2/4
f 177/4/4 178/4/4 185/4/4
f 184/5/4 177/5/4 185/5/4
f 185/4/4 178/4/4 186/4/4
f 179/2/4 180/2/4 187/2/4
f 180/2/4 181/2/4 187/2/4
f 187/2/4 181/2/4 188/2/4
f 189/2/4 190/2/4 191/2/4
f 191/2/4 190/2/4 192/2/4
f 193/2/4 194/2/4 195/2/4
f 195/2/4 194/2/4 196/2/4
f 201/3/5 198/3/5 197/3/5
f 202/3/5 198/3/5 201/3/5
f 203/3/5 200/3/5 199/3/5
f 204/3/5 200/3/5 203/3/5
f 207/5/5 206/5/5 205/5/5
f 208/5/5 206/5/5 207/5/5
f 209/2/5 208/2/5 207/2/5
f 210/2/5 208/2/5 209/2/5
f 213/2/5 212/2/5 211/2/5
f 214/2/5 212/2/5 213/2/5
f 217/2/5 216/2/5 215/2/5
f 218/2/5 216/2/5 217/2/5
f 219/2/5 217/2/5 215/2/5
f 220/2/5 217/2/5 219/2/5
f 221/2/5 216/2/5 218/2/5
f 222/2/5 216/2/5 221/2/5
f 227/2/5 224/2/5 223/2/5
f 228/2/5 224/2/5 227/2/5
f 229/2/5 226/2/5 225/2/5
f 230/2/5 226/2/5 229/2/5
f 231/2/6 232/2/6 233/2/6
f 233/2/6 232/2/6 234/2/6
f 235/2/6 236/2/6 237/2/6
f 237/2/6 236/2/6 238/2/6
f 239/4/6 240/4/6 243/4/6
f 243/4/6 240/4/6 244/4/6
f 241/4/6 242/4/6 245/4/6
f 245/4/6 242/4/6 246/4/6
f 247/2/6 248/2/6 249/2/6
f 249/2/6 248/2/6 250/2/6
f 250/2/6 248/2/6 251/2/6
f 251/2/6 248/2/6 252/2/6
f 250/2/6 251/2/6 253/2/6
f 253/2/6 251/2/6 254/2/6
f 255/2/6 256/2/6 261/2/6
f 256/2/6 257/2/6 261/2/6
f 261/2/6 257/2/6 262/2/6
f 259/2/6 260/2/6 263/2/6
f 258/2/6 259/2/6 263/2/6
f 263/2/6 260/2/6 264/2/6
f 265/2/6 266/2/6 269/2/6
f 269/2/6 266/2/6 270/2/6
f 267/2/6 268/2/6 271/2/6
f 271/2/6 268/2/6 272/2/6
