# MagicaVoxel @ Ephtracy

# group
o char-ref

# material
mtllib obj-5-char-ref.mtl
usemtl palette

# normals
vn -1 0 0
vn 1 0 0
vn 0 0 1
vn 0 0 -1
vn 0 -1 0
vn 0 1 0

# texcoords
vt 0.0449219 0.5
vt 0.232422 0.5
vt 0.314453 0.5
vt 0.326172 0.5
vt 0.869141 0.5
vt 0.876953 0.5

# verts
v -2.2 1.1 -2.5
v -2.2 1.1 -2.6
v -2.2 1.2 -2.5
v -2.2 1.2 -2.6
v -2.1 1.2 -2.5
v -2.1 1.2 -2.6
v -2.1 1.3 -2.5
v -2.1 1.3 -2.6
v -2 0.7 -2.2
v -2 0.7 -2.6
v -2 0.8 -2.4
v -2 0.8 -2.5
v -2 0.9 -2.4
v -2 0.9 -2.5
v -2 1 -2.2
v -2 1 -2.5
v -2 1 -2.6
v -2 1.1 -2.5
v -2 1.1 -2.6
v -1.9 0 -2.5
v -1.9 0 -2.6
v -1.9 0.3 -2.5
v -1.9 0.3 -2.6
v -1.9 0.6 -2.5
v -1.9 0.6 -2.6
v -1.8 0.6 -2.5
v -1.8 0.6 -2.6
v -1.8 0.7 -2.5
v -1.8 0.7 -2.6
v -1.7 0 -2.5
v -1.7 0 -2.6
v -1.7 0.3 -2.5
v -1.7 0.3 -2.6
v -1.6 1 -2.5
v -1.6 1 -2.6
v -1.6 1.2 -2.5
v -1.6 1.2 -2.6
v -1.5 1.2 -2.5
v -1.5 1.2 -2.6
v -1.5 1.3 -2.5
v -1.5 1.3 -2.6
v -2 1.2 -2.5
v -2 1.2 -2.6
v -2 1.3 -2.5
v -2 1.3 -2.6
v -1.9 1 -2.5
v -1.9 1 -2.6
v -1.9 1.2 -2.5
v -1.9 1.2 -2.6
v -1.8 0 -2.5
v -1.8 0 -2.6
v -1.8 0.3 -2.5
v -1.8 0.3 -2.6
v -1.7 0.6 -2.5
v -1.7 0.6 -2.6
v -1.7 0.7 -2.5
v -1.7 0.7 -2.6
v -1.6 0 -2.5
v -1.6 0 -2.6
v -1.6 0.3 -2.5
v -1.6 0.3 -2.6
v -1.6 0.6 -2.5
v -1.6 0.6 -2.6
v -1.5 0.7 -2.2
v -1.5 0.7 -2.6
v -1.5 0.8 -2.4
v -1.5 0.8 -2.5
v -1.5 0.9 -2.4
v -1.5 0.9 -2.5
v -1.5 1 -2.2
v -1.5 1 -2.5
v -1.5 1 -2.6
v -1.5 1.1 -2.5
v -1.5 1.1 -2.6
v -1.4 1.2 -2.5
v -1.4 1.2 -2.6
v -1.4 1.3 -2.5
v -1.4 1.3 -2.6
v -1.3 1.1 -2.5
v -1.3 1.1 -2.6
v -1.3 1.2 -2.5
v -1.3 1.2 -2.6
v -2 0.7 -2.2
v -2 1 -2.2
v -1.8 0.8 -2.2
v -1.8 0.9 -2.2
v -1.7 0.8 -2.2
v -1.7 0.9 -2.2
v -1.5 0.7 -2.2
v -1.5 1 -2.2
v -2.2 1.1 -2.5
v -2.2 1.2 -2.5
v -2.1 1.2 -2.5
v -2.1 1.3 -2.5
v -2 1 -2.5
v -2 1.1 -2.5
v -2 1.2 -2.5
v -2 1.3 -2.5
v -1.9 0 -2.5
v -1.9 0.3 -2.5
v -1.9 0.6 -2.5
v -1.9 1 -2.5
v -1.9 1.2 -2.5
v -1.8 0 -2.5
v -1.8 0.3 -2.5
v -1.8 0.6 -2.5
v -1.8 0.7 -2.5
v -1.7 0 -2.5
v -1.7 0.3 -2.5
v -1.7 0.6 -2.5
v -1.7 0.7 -2.5
v -1.6 0 -2.5
v -1.6 0.3 -2.5
v -1.6 0.6 -2.5
v -1.6 1 -2.5
v -1.6 1.2 -2.5
v -1.5 1 -2.5
v -1.5 1.1 -2.5
v -1.5 1.2 -2.5
v -1.5 1.3 -2.5
v -1.4 1.2 -2.5
v -1.4 1.3 -2.5
v -1.3 1.1 -2.5
v -1.3 1.2 -2.5
v -2.2 1.1 -2.6
v -2.2 1.2 -2.6
v -2.1 1.2 -2.6
v -2.1 1.3 -2.6
v -2 0.7 -2.6
v -2 1 -2.6
v -2 1.1 -2.6
v -2 1.2 -2.6
v -2 1.3 -2.6
v -1.9 0 -2.6
v -1.9 0.3 -2.6
v -1.9 0.6 -2.6
v -1.9 1 -2.6
v -1.9 1.2 -2.6
v -1.8 0 -2.6
v -1.8 0.3 -2.6
v -1.8 0.6 -2.6
v -1.8 0.7 -2.6
v -1.8 0.8 -2.6
v -1.7 0 -2.6
v -1.7 0.3 -2.6
v -1.7 0.6 -2.6
v -1.7 0.7 -2.6
v -1.7 0.8 -2.6
v -1.6 0 -2.6
v -1.6 0.3 -2.6
v -1.6 0.6 -2.6
v -1.6 1 -2.6
v -1.6 1.2 -2.6
v -1.5 0.7 -2.6
v -1.5 1 -2.6
v -1.5 1.1 -2.6
v -1.5 1.2 -2.6
v -1.5 1.3 -2.6
v -1.4 1.2 -2.6
v -1.4 1.3 -2.6
v -1.3 1.1 -2.6
v -1.3 1.2 -2.6
v -1.9 0 -2.5
v -1.8 0 -2.5
v -1.7 0 -2.5
v -1.6 0 -2.5
v -1.9 0 -2.6
v -1.8 0 -2.6
v -1.7 0 -2.6
v -1.6 0 -2.6
v -1.8 0.3 -2.5
v -1.7 0.3 -2.5
v -1.8 0.3 -2.6
v -1.7 0.3 -2.6
v -2 0.7 -2.2
v -1.5 0.7 -2.2
v -1.9 0.7 -2.3
v -1.6 0.7 -2.3
v -1.9 0.7 -2.5
v -1.8 0.7 -2.5
v -1.7 0.7 -2.5
v -1.6 0.7 -2.5
v -2 0.7 -2.6
v -1.8 0.7 -2.6
v -1.7 0.7 -2.6
v -1.5 0.7 -2.6
v -2.2 1.1 -2.5
v -2 1.1 -2.5
v -1.5 1.1 -2.5
v -1.3 1.1 -2.5
v -2.2 1.1 -2.6
v -2 1.1 -2.6
v -1.5 1.1 -2.6
v -1.3 1.1 -2.6
v -1.9 0.6 -2.5
v -1.8 0.6 -2.5
v -1.7 0.6 -2.5
v -1.6 0.6 -2.5
v -1.9 0.6 -2.6
v -1.8 0.6 -2.6
v -1.7 0.6 -2.6
v -1.6 0.6 -2.6
v -2 1 -2.2
v -1.5 1 -2.2
v -2 1 -2.5
v -1.9 1 -2.5
v -1.6 1 -2.5
v -1.5 1 -2.5
v -1.9 1 -2.6
v -1.6 1 -2.6
v -2.2 1.2 -2.5
v -2.1 1.2 -2.5
v -2 1.2 -2.5
v -1.9 1.2 -2.5
v -1.6 1.2 -2.5
v -1.5 1.2 -2.5
v -1.4 1.2 -2.5
v -1.3 1.2 -2.5
v -2.2 1.2 -2.6
v -2.1 1.2 -2.6
v -2 1.2 -2.6
v -1.9 1.2 -2.6
v -1.6 1.2 -2.6
v -1.5 1.2 -2.6
v -1.4 1.2 -2.6
v -1.3 1.2 -2.6
v -2.1 1.3 -2.5
v -2 1.3 -2.5
v -1.5 1.3 -2.5
v -1.4 1.3 -2.5
v -2.1 1.3 -2.6
v -2 1.3 -2.6
v -1.5 1.3 -2.6
v -1.4 1.3 -2.6

# faces
f 3/3/1 2/3/1 1/3/1
f 4/3/1 2/3/1 3/3/1
f 7/3/1 6/3/1 5/3/1
f 8/3/1 6/3/1 7/3/1
f 11/4/1 10/4/1 9/4/1
f 12/4/1 10/4/1 11/4/1
f 13/4/1 11/4/1 9/4/1
f 13/6/1 12/6/1 11/6/1
f 14/4/1 10/4/1 12/4/1
f 14/6/1 12/6/1 13/6/1
f 15/4/1 13/4/1 9/4/1
f 15/4/1 14/4/1 13/4/1
f 16/4/1 10/4/1 14/4/1
f 16/4/1 14/4/1 15/4/1
f 17/4/1 10/4/1 16/4/1
f 18/3/1 17/3/1 16/3/1
f 19/3/1 17/3/1 18/3/1
f 22/4/1 21/4/1 20/4/1
f 23/4/1 21/4/1 22/4/1
f 24/1/1 23/1/1 22/1/1
f 25/1/1 23/1/1 24/1/1
f 28/4/1 27/4/1 26/4/1
f 29/4/1 27/4/1 28/4/1
f 32/4/1 31/4/1 30/4/1
f 33/4/1 31/4/1 32/4/1
f 36/3/1 35/3/1 34/3/1
f 37/3/1 35/3/1 36/3/1
f 40/3/1 39/3/1 38/3/1
f 41/3/1 39/3/1 40/3/1
f 42/3/2 43/3/2 44/3/2
f 44/3/2 43/3/2 45/3/2
f 46/3/2 47/3/2 48/3/2
f 48/3/2 47/3/2 49/3/2
f 50/4/2 51/4/2 52/4/2
f 52/4/2 51/4/2 53/4/2
f 54/4/2 55/4/2 56/4/2
f 56/4/2 55/4/2 57/4/2
f 58/4/2 59/4/2 60/4/2
f 60/4/2 59/4/2 61/4/2
f 60/1/2 61/1/2 62/1/2
f 62/1/2 61/1/2 63/1/2
f 64/4/2 65/4/2 66/4/2
f 66/4/2 65/4/2 67/4/2
f 64/4/2 66/4/2 68/4/2
f 66/6/2 67/6/2 68/6/2
f 67/4/2 65/4/2 69/4/2
f 68/6/2 67/6/2 69/6/2
f 64/4/2 68/4/2 70/4/2
f 68/4/2 69/4/2 70/4/2
f 69/4/2 65/4/2 71/4/2
f 70/4/2 69/4/2 71/4/2
f 71/4/2 65/4/2 72/4/2
f 71/3/2 72/3/2 73/3/2
f 73/3/2 72/3/2 74/3/2
f 75/3/2 76/3/2 77/3/2
f 77/3/2 76/3/2 78/3/2
f 79/3/2 80/3/2 81/3/2
f 81/3/2 80/3/2 82/3/2
f 85/4/3 84/4/3 83/4/3
f 86/4/3 84/4/3 85/4/3
f 87/4/3 85/4/3 83/4/3
f 87/5/3 86/5/3 85/5/3
f 88/4/3 84/4/3 86/4/3
f 88/5/3 86/5/3 87/5/3
f 89/4/3 87/4/3 83/4/3
f 89/4/3 88/4/3 87/4/3
f 90/4/3 84/4/3 88/4/3
f 90/4/3 88/4/3 89/4/3
f 93/3/3 92/3/3 91/3/3
f 96/3/3 93/3/3 91/3/3
f 96/3/3 94/3/3 93/3/3
f 97/3/3 94/3/3 96/3/3
f 98/3/3 94/3/3 97/3/3
f 102/3/3 96/3/3 95/3/3
f 102/3/3 97/3/3 96/3/3
f 103/3/3 97/3/3 102/3/3
f 104/4/3 100/4/3 99/4/3
f 105/1/3 101/1/3 100/1/3
f 105/4/3 100/4/3 104/4/3
f 106/1/3 101/1/3 105/1/3
f 109/1/3 106/1/3 105/1/3
f 110/4/3 107/4/3 106/4/3
f 110/1/3 106/1/3 109/1/3
f 111/4/3 107/4/3 110/4/3
f 112/4/3 109/4/3 108/4/3
f 113/1/3 110/1/3 109/1/3
f 113/4/3 109/4/3 112/4/3
f 114/1/3 110/1/3 113/1/3
f 117/3/3 116/3/3 115/3/3
f 118/3/3 116/3/3 117/3/3
f 119/3/3 116/3/3 118/3/3
f 121/3/3 119/3/3 118/3/3
f 121/3/3 120/3/3 119/3/3
f 122/3/3 120/3/3 121/3/3
f 123/3/3 121/3/3 118/3/3
f 124/3/3 121/3/3 123/3/3
f 125/3/4 126/3/4 127/3/4
f 125/3/4 127/3/4 131/3/4
f 127/3/4 128/3/4 131/3/4
f 131/3/4 128/3/4 132/3/4
f 132/3/4 128/3/4 133/3/4
f 129/4/4 130/4/4 137/4/4
f 130/3/4 131/3/4 137/3/4
f 131/3/4 132/3/4 137/3/4
f 137/3/4 132/3/4 138/3/4
f 134/4/4 135/4/4 139/4/4
f 135/1/4 136/1/4 140/1/4
f 139/4/4 135/4/4 140/4/4
f 140/1/4 136/1/4 141/1/4
f 129/4/4 137/4/4 142/4/4
f 142/4/4 137/4/4 143/4/4
f 140/1/4 141/1/4 145/1/4
f 141/4/4 142/4/4 146/4/4
f 145/1/4 141/1/4 146/1/4
f 142/1/4 143/1/4 147/1/4
f 146/4/4 142/4/4 147/4/4
f 143/4/4 137/4/4 148/4/4
f 147/1/4 143/1/4 148/1/4
f 144/4/4 145/4/4 149/4/4
f 145/1/4 146/1/4 150/1/4
f 149/4/4 145/4/4 150/4/4
f 150/1/4 146/1/4 151/1/4
f 148/4/4 137/4/4 152/4/4
f 147/4/4 148/4/4 152/4/4
f 147/4/4 152/4/4 154/4/4
f 152/3/4 153/3/4 155/3/4
f 154/4/4 152/4/4 155/4/4
f 155/3/4 153/3/4 156/3/4
f 156/3/4 153/3/4 157/3/4
f 156/3/4 157/3/4 159/3/4
f 157/3/4 158/3/4 159/3/4
f 159/3/4 158/3/4 160/3/4
f 156/3/4 159/3/4 161/3/4
f 161/3/4 159/3/4 162/3/4
f 167/4/5 164/4/5 163/4/5
f 168/4/5 164/4/5 167/4/5
f 169/4/5 166/4/5 165/4/5
f 170/4/5 166/4/5 169/4/5
f 173/1/5 172/1/5 171/1/5
f 174/1/5 172/1/5 173/1/5
f 177/4/5 176/4/5 175/4/5
f 178/4/5 176/4/5 177/4/5
f 179/4/5 177/4/5 175/4/5
f 179/1/5 178/1/5 177/1/5
f 180/1/5 178/1/5 179/1/5
f 181/1/5 178/1/5 180/1/5
f 182/4/5 176/4/5 178/4/5
f 182/1/5 178/1/5 181/1/5
f 183/4/5 179/4/5 175/4/5
f 183/4/5 180/4/5 179/4/5
f 184/4/5 180/4/5 183/4/5
f 185/4/5 182/4/5 181/4/5
f 186/4/5 176/4/5 182/4/5
f 186/4/5 182/4/5 185/4/5
f 191/3/5 188/3/5 187/3/5
f 192/3/5 188/3/5 191/3/5
f 193/3/5 190/3/5 189/3/5
f 194/3/5 190/3/5 193/3/5
f 195/1/6 196/1/6 199/1/6
f 199/1/6 196/1/6 200/1/6
f 197/1/6 198/1/6 201/1/6
f 201/1/6 198/1/6 202/1/6
f 203/4/6 204/4/6 205/4/6
f 205/4/6 204/4/6 206/4/6
f 206/4/6 204/4/6 207/4/6
f 207/4/6 204/4/6 208/4/6
f 206/4/6 207/4/6 209/4/6
f 209/4/6 207/4/6 210/4/6
f 211/3/6 212/3/6 219/3/6
f 219/3/6 212/3/6 220/3/6
f 213/3/6 214/3/6 221/3/6
f 221/3/6 214/3/6 222/3/6
f 215/3/6 216/3/6 223/3/6
f 223/3/6 216/3/6 224/3/6
f 217/3/6 218/3/6 225/3/6
f 225/3/6 218/3/6 226/3/6
f 227/3/6 228/3/6 231/3/6
f 231/3/6 228/3/6 232/3/6
f 229/3/6 230/3/6 233/3/6
f 233/3/6 230/3/6 234/3/6
