# MagicaVoxel @ Ephtracy

# group
o life-preserver

# material
mtllib obj-10-life-preserver.mtl
usemtl palette

# normals
vn -1 0 0
vn 1 0 0
vn 0 0 1
vn 0 0 -1
vn 0 -1 0
vn 0 1 0

# texcoords
vt 0.150391 0.5
vt 0.919922 0.5
vt 0.962891 0.5

# verts
v 1 0 -2.2
v 1 0 -2.3
v 1 0 -2.4
v 1 0 -2.5
v 1 0.1 -2.2
v 1 0.1 -2.3
v 1 0.1 -2.4
v 1 0.1 -2.5
v 1.1 0 -2.1
v 1.1 0 -2.2
v 1.1 0 -2.5
v 1.1 0 -2.6
v 1.1 0.1 -2.1
v 1.1 0.1 -2.2
v 1.1 0.1 -2.5
v 1.1 0.1 -2.6
v 1.3 0 -2.2
v 1.3 0 -2.3
v 1.3 0 -2.4
v 1.3 0 -2.5
v 1.3 0.1 -2.2
v 1.3 0.1 -2.3
v 1.3 0.1 -2.4
v 1.3 0.1 -2.5
v 1.4 0 -2.3
v 1.4 0 -2.4
v 1.4 0.1 -2.3
v 1.4 0.1 -2.4
v 1.1 0 -2.3
v 1.1 0 -2.4
v 1.1 0.1 -2.3
v 1.1 0.1 -2.4
v 1.2 0 -2.2
v 1.2 0 -2.3
v 1.2 0 -2.4
v 1.2 0 -2.5
v 1.2 0.1 -2.2
v 1.2 0.1 -2.3
v 1.2 0.1 -2.4
v 1.2 0.1 -2.5
v 1.4 0 -2.1
v 1.4 0 -2.2
v 1.4 0 -2.5
v 1.4 0 -2.6
v 1.4 0.1 -2.1
v 1.4 0.1 -2.2
v 1.4 0.1 -2.5
v 1.4 0.1 -2.6
v 1.5 0 -2.2
v 1.5 0 -2.3
v 1.5 0 -2.4
v 1.5 0 -2.5
v 1.5 0.1 -2.2
v 1.5 0.1 -2.3
v 1.5 0.1 -2.4
v 1.5 0.1 -2.5
v 1.1 0 -2.1
v 1.1 0.1 -2.1
v 1.2 0 -2.1
v 1.2 0.1 -2.1
v 1.3 0 -2.1
v 1.3 0.1 -2.1
v 1.4 0 -2.1
v 1.4 0.1 -2.1
v 1 0 -2.2
v 1 0.1 -2.2
v 1.1 0 -2.2
v 1.1 0.1 -2.2
v 1.4 0 -2.2
v 1.4 0.1 -2.2
v 1.5 0 -2.2
v 1.5 0.1 -2.2
v 1.1 0 -2.4
v 1.1 0.1 -2.4
v 1.2 0 -2.4
v 1.2 0.1 -2.4
v 1.3 0 -2.4
v 1.3 0.1 -2.4
v 1.4 0 -2.4
v 1.4 0.1 -2.4
v 1.2 0 -2.5
v 1.2 0.1 -2.5
v 1.3 0 -2.5
v 1.3 0.1 -2.5
v 1.2 0 -2.2
v 1.2 0.1 -2.2
v 1.3 0 -2.2
v 1.3 0.1 -2.2
v 1.1 0 -2.3
v 1.1 0.1 -2.3
v 1.2 0 -2.3
v 1.2 0.1 -2.3
v 1.3 0 -2.3
v 1.3 0.1 -2.3
v 1.4 0 -2.3
v 1.4 0.1 -2.3
v 1 0 -2.5
v 1 0.1 -2.5
v 1.1 0 -2.5
v 1.1 0.1 -2.5
v 1.4 0 -2.5
v 1.4 0.1 -2.5
v 1.5 0 -2.5
v 1.5 0.1 -2.5
v 1.1 0 -2.6
v 1.1 0.1 -2.6
v 1.2 0 -2.6
v 1.2 0.1 -2.6
v 1.3 0 -2.6
v 1.3 0.1 -2.6
v 1.4 0 -2.6
v 1.4 0.1 -2.6
v 1.1 0 -2.1
v 1.2 0 -2.1
v 1.3 0 -2.1
v 1.4 0 -2.1
v 1 0 -2.2
v 1.1 0 -2.2
v 1.2 0 -2.2
v 1.3 0 -2.2
v 1.4 0 -2.2
v 1.5 0 -2.2
v 1 0 -2.3
v 1.1 0 -2.3
v 1.2 0 -2.3
v 1.3 0 -2.3
v 1.4 0 -2.3
v 1.5 0 -2.3
v 1 0 -2.4
v 1.1 0 -2.4
v 1.2 0 -2.4
v 1.3 0 -2.4
v 1.4 0 -2.4
v 1.5 0 -2.4
v 1 0 -2.5
v 1.1 0 -2.5
v 1.2 0 -2.5
v 1.3 0 -2.5
v 1.4 0 -2.5
v 1.5 0 -2.5
v 1.1 0 -2.6
v 1.2 0 -2.6
v 1.3 0 -2.6
v 1.4 0 -2.6
v 1.1 0.1 -2.1
v 1.2 0.1 -2.1
v 1.3 0.1 -2.1
v 1.4 0.1 -2.1
v 1 0.1 -2.2
v 1.1 0.1 -2.2
v 1.2 0.1 -2.2
v 1.3 0.1 -2.2
v 1.4 0.1 -2.2
v 1.5 0.1 -2.2
v 1 0.1 -2.3
v 1.1 0.1 -2.3
v 1.2 0.1 -2.3
v 1.3 0.1 -2.3
v 1.4 0.1 -2.3
v 1.5 0.1 -2.3
v 1 0.1 -2.4
v 1.1 0.1 -2.4
v 1.2 0.1 -2.4
v 1.3 0.1 -2.4
v 1.4 0.1 -2.4
v 1.5 0.1 -2.4
v 1 0.1 -2.5
v 1.1 0.1 -2.5
v 1.2 0.1 -2.5
v 1.3 0.1 -2.5
v 1.4 0.1 -2.5
v 1.5 0.1 -2.5
v 1.1 0.1 -2.6
v 1.2 0.1 -2.6
v 1.3 0.1 -2.6
v 1.4 0.1 -2.6

# faces
f 5/2/1 2/2/1 1/2/1
f 6/1/1 3/1/1 2/1/1
f 6/2/1 2/2/1 5/2/1
f 7/3/1 4/3/1 3/3/1
f 7/1/1 3/1/1 6/1/1
f 8/3/1 4/3/1 7/3/1
f 13/1/1 10/1/1 9/1/1
f 14/1/1 10/1/1 13/1/1
f 15/1/1 12/1/1 11/1/1
f 16/1/1 12/1/1 15/1/1
f 21/1/1 18/1/1 17/1/1
f 22/1/1 18/1/1 21/1/1
f 23/1/1 20/1/1 19/1/1
f 24/1/1 20/1/1 23/1/1
f 27/1/1 26/1/1 25/1/1
f 28/1/1 26/1/1 27/1/1
f 29/1/2 30/1/2 31/1/2
f 31/1/2 30/1/2 32/1/2
f 33/1/2 34/1/2 37/1/2
f 37/1/2 34/1/2 38/1/2
f 35/1/2 36/1/2 39/1/2
f 39/1/2 36/1/2 40/1/2
f 41/1/2 42/1/2 45/1/2
f 45/1/2 42/1/2 46/1/2
f 43/1/2 44/1/2 47/1/2
f 47/1/2 44/1/2 48/1/2
f 49/2/2 50/2/2 53/2/2
f 50/1/2 51/1/2 54/1/2
f 53/2/2 50/2/2 54/2/2
f 51/3/2 52/3/2 55/3/2
f 54/1/2 51/1/2 55/1/2
f 55/3/2 52/3/2 56/3/2
f 59/1/3 58/1/3 57/1/3
f 60/1/3 58/1/3 59/1/3
f 61/3/3 60/3/3 59/3/3
f 62/3/3 60/3/3 61/3/3
f 63/1/3 62/1/3 61/1/3
f 64/1/3 62/1/3 63/1/3
f 67/2/3 66/2/3 65/2/3
f 68/2/3 66/2/3 67/2/3
f 71/2/3 70/2/3 69/2/3
f 72/2/3 70/2/3 71/2/3
f 75/1/3 74/1/3 73/1/3
f 76/1/3 74/1/3 75/1/3
f 79/1/3 78/1/3 77/1/3
f 80/1/3 78/1/3 79/1/3
f 83/2/3 82/2/3 81/2/3
f 84/2/3 82/2/3 83/2/3
f 85/3/4 86/3/4 87/3/4
f 87/3/4 86/3/4 88/3/4
f 89/1/4 90/1/4 91/1/4
f 91/1/4 90/1/4 92/1/4
f 93/1/4 94/1/4 95/1/4
f 95/1/4 94/1/4 96/1/4
f 97/3/4 98/3/4 99/3/4
f 99/3/4 98/3/4 100/3/4
f 101/3/4 102/3/4 103/3/4
f 103/3/4 102/3/4 104/3/4
f 105/1/4 106/1/4 107/1/4
f 107/1/4 106/1/4 108/1/4
f 107/2/4 108/2/4 109/2/4
f 109/2/4 108/2/4 110/2/4
f 109/1/4 110/1/4 111/1/4
f 111/1/4 110/1/4 112/1/4
f 118/1/5 114/1/5 113/1/5
f 119/3/5 115/3/5 114/3/5
f 119/1/5 114/1/5 118/1/5
f 120/1/5 116/1/5 115/1/5
f 120/3/5 115/3/5 119/3/5
f 121/1/5 116/1/5 120/1/5
f 123/2/5 118/2/5 117/2/5
f 124/1/5 119/1/5 118/1/5
f 124/2/5 118/2/5 123/2/5
f 125/1/5 119/1/5 124/1/5
f 126/1/5 121/1/5 120/1/5
f 127/2/5 122/2/5 121/2/5
f 127/1/5 121/1/5 126/1/5
f 128/2/5 122/2/5 127/2/5
f 129/1/5 124/1/5 123/1/5
f 130/1/5 124/1/5 129/1/5
f 133/1/5 128/1/5 127/1/5
f 134/1/5 128/1/5 133/1/5
f 135/3/5 130/3/5 129/3/5
f 136/1/5 131/1/5 130/1/5
f 136/3/5 130/3/5 135/3/5
f 137/1/5 131/1/5 136/1/5
f 138/1/5 133/1/5 132/1/5
f 139/3/5 134/3/5 133/3/5
f 139/1/5 133/1/5 138/1/5
f 140/3/5 134/3/5 139/3/5
f 141/1/5 137/1/5 136/1/5
f 142/2/5 138/2/5 137/2/5
f 142/1/5 137/1/5 141/1/5
f 143/1/5 139/1/5 138/1/5
f 143/2/5 138/2/5 142/2/5
f 144/1/5 139/1/5 143/1/5
f 145/1/6 146/1/6 150/1/6
f 146/3/6 147/3/6 151/3/6
f 150/1/6 146/1/6 151/1/6
f 147/1/6 148/1/6 152/1/6
f 151/3/6 147/3/6 152/3/6
f 152/1/6 148/1/6 153/1/6
f 149/2/6 150/2/6 155/2/6
f 150/1/6 151/1/6 156/1/6
f 155/2/6 150/2/6 156/2/6
f 156/1/6 151/1/6 157/1/6
f 152/1/6 153/1/6 158/1/6
f 153/2/6 154/2/6 159/2/6
f 158/1/6 153/1/6 159/1/6
f 159/2/6 154/2/6 160/2/6
f 155/1/6 156/1/6 161/1/6
f 161/1/6 156/1/6 162/1/6
f 159/1/6 160/1/6 165/1/6
f 165/1/6 160/1/6 166/1/6
f 161/3/6 162/3/6 167/3/6
f 162/1/6 163/1/6 168/1/6
f 167/3/6 162/3/6 168/3/6
f 168/1/6 163/1/6 169/1/6
f 164/1/6 165/1/6 170/1/6
f 165/3/6 166/3/6 171/3/6
f 170/1/6 165/1/6 171/1/6
f 171/3/6 166/3/6 172/3/6
f 168/1/6 169/1/6 173/1/6
f 169/2/6 170/2/6 174/2/6
f 173/1/6 169/1/6 174/1/6
f 170/1/6 171/1/6 175/1/6
f 174/2/6 170/2/6 175/2/6
f 175/1/6 171/1/6 176/1/6
