# MagicaVoxel @ Ephtracy

# group
o steering-wheel-broken

# material
mtllib obj-4-steering-wheel-broken.mtl
usemtl palette

# normals
vn -1 0 0
vn 1 0 0
vn 0 0 1
vn 0 0 -1
vn 0 -1 0
vn 0 1 0

# texcoords
vt 0.197266 0.5
vt 0.224609 0.5
vt 0.263672 0.5
vt 0.419922 0.5

# verts
v 2.5 0 1.3
v 2.5 0 1.2
v 2.5 0.1 1.3
v 2.5 0.1 1.2
v 2.5 0.5 1
v 2.5 0.5 0.9
v 2.5 0.6 1
v 2.5 0.6 0.9
v 2.5 0.7 1
v 2.5 0.7 0.9
v 2.5 0.8 1
v 2.5 0.8 0.9
v 2.6 0.2 1
v 2.6 0.2 0.9
v 2.6 0.3 1
v 2.6 0.3 0.9
v 2.6 0.4 1
v 2.6 0.4 0.9
v 2.6 0.5 1
v 2.6 0.5 0.9
v 2.6 0.6 1
v 2.6 0.6 0.9
v 2.6 0.7 1
v 2.6 0.7 0.9
v 2.6 0.8 1
v 2.6 0.8 0.9
v 2.6 0.9 1
v 2.6 0.9 0.9
v 2.6 1 1
v 2.6 1 0.9
v 2.6 1.1 1
v 2.6 1.1 0.9
v 2.7 0 1.1
v 2.7 0 0.8
v 2.7 0.1 1.1
v 2.7 0.1 0.8
v 2.7 0.3 1
v 2.7 0.3 0.9
v 2.7 0.4 1
v 2.7 0.4 0.9
v 2.7 0.9 1
v 2.7 0.9 0.9
v 2.7 1 1
v 2.7 1 0.9
v 2.8 0 1.2
v 2.8 0 1.1
v 2.8 0 0.8
v 2.8 0 0.7
v 2.8 0.1 1.2
v 2.8 0.1 1.1
v 2.8 0.1 1
v 2.8 0.1 0.9
v 2.8 0.1 0.8
v 2.8 0.1 0.7
v 2.8 0.2 1
v 2.8 0.2 0.9
v 2.8 0.5 1
v 2.8 0.5 0.9
v 2.8 0.6 1
v 2.8 0.6 0.9
v 2.8 0.7 1
v 2.8 0.7 0.9
v 2.8 0.8 1
v 2.8 0.8 0.9
v 2.9 0.1 1.1
v 2.9 0.1 1
v 2.9 0.1 0.9
v 2.9 0.1 0.8
v 2.9 0.2 1.1
v 2.9 0.2 1
v 2.9 0.2 0.9
v 2.9 0.2 0.8
v 2.9 0.3 1
v 2.9 0.3 0.9
v 2.9 0.9 1
v 2.9 0.9 0.9
v 2.9 1 1
v 2.9 1 0.9
v 3 0.4 1
v 3 0.4 0.9
v 3 0.5 1
v 3 0.5 0.9
v 3.1 0 1.5
v 3.1 0 1.4
v 3.1 0 1.3
v 3.1 0.1 1.5
v 3.1 0.1 1.4
v 3.1 0.1 1.3
v 3.2 0.2 1
v 3.2 0.2 0.9
v 3.2 0.3 1
v 3.2 0.3 0.9
v 3.3 0 1.5
v 3.3 0 1.2
v 3.3 0 1
v 3.3 0 0.9
v 3.3 0.1 1.5
v 3.3 0.1 1.2
v 3.3 0.1 1
v 3.3 0.1 0.9
v 2.6 0 1.3
v 2.6 0 1.2
v 2.6 0.1 1.3
v 2.6 0.1 1.2
v 2.7 0.2 1
v 2.7 0.2 0.9
v 2.7 0.3 1
v 2.7 0.3 0.9
v 2.7 0.5 1
v 2.7 0.5 0.9
v 2.7 0.6 1
v 2.7 0.6 0.9
v 2.7 0.7 1
v 2.7 0.7 0.9
v 2.7 0.8 1
v 2.7 0.8 0.9
v 2.7 1 1
v 2.7 1 0.9
v 2.7 1.1 1
v 2.7 1.1 0.9
v 2.8 0.9 1
v 2.8 0.9 0.9
v 2.8 1 1
v 2.8 1 0.9
v 2.9 0.4 1
v 2.9 0.4 0.9
v 2.9 0.5 1
v 2.9 0.5 0.9
v 2.9 0.6 1
v 2.9 0.6 0.9
v 2.9 0.8 1
v 2.9 0.8 0.9
v 2.9 0.9 1
v 2.9 0.9 0.9
v 3 0.1 1.1
v 3 0.1 1
v 3 0.1 0.9
v 3 0.1 0.8
v 3 0.2 1.1
v 3 0.2 1
v 3 0.2 0.9
v 3 0.2 0.8
v 3 0.3 1
v 3 0.3 0.9
v 3 0.6 1
v 3 0.6 0.9
v 3 0.7 1
v 3 0.7 0.9
v 3 0.8 1
v 3 0.8 0.9
v 3 0.9 1
v 3 0.9 0.9
v 3 1 1
v 3 1 0.9
v 3.1 0 1.2
v 3.1 0 1.1
v 3.1 0 0.8
v 3.1 0 0.7
v 3.1 0.1 1.2
v 3.1 0.1 1.1
v 3.1 0.1 1
v 3.1 0.1 0.9
v 3.1 0.1 0.8
v 3.1 0.1 0.7
v 3.1 0.2 1
v 3.1 0.2 0.9
v 3.1 0.4 1
v 3.1 0.4 0.9
v 3.1 0.5 1
v 3.1 0.5 0.9
v 3.2 0 1.5
v 3.2 0 1.4
v 3.2 0 1.3
v 3.2 0 1
v 3.2 0 0.8
v 3.2 0.1 1.5
v 3.2 0.1 1.4
v 3.2 0.1 1.3
v 3.2 0.1 1
v 3.2 0.1 0.8
v 3.2 0.3 1
v 3.2 0.3 0.9
v 3.2 0.4 1
v 3.2 0.4 0.9
v 3.3 0 1.1
v 3.3 0 1
v 3.3 0.1 1.1
v 3.3 0.1 1
v 3.3 0.2 1
v 3.3 0.2 0.9
v 3.3 0.3 1
v 3.3 0.3 0.9
v 3.4 0 1.4
v 3.4 0 1.3
v 3.4 0 1
v 3.4 0 0.9
v 3.4 0.1 1.4
v 3.4 0.1 1.3
v 3.4 0.1 1
v 3.4 0.1 0.9
v 3.5 0 1.5
v 3.5 0 1.4
v 3.5 0 1.3
v 3.5 0 1.2
v 3.5 0.1 1.5
v 3.5 0.1 1.4
v 3.5 0.1 1.3
v 3.5 0.1 1.2
v 3.1 0 1.5
v 3.1 0.1 1.5
v 3.2 0 1.5
v 3.2 0.1 1.5
v 3.3 0 1.5
v 3.3 0.1 1.5
v 3.4 0 1.5
v 3.4 0.1 1.5
v 3.5 0 1.5
v 3.5 0.1 1.5
v 2.5 0 1.3
v 2.5 0.1 1.3
v 2.6 0 1.3
v 2.6 0.1 1.3
v 3.4 0 1.3
v 3.4 0.1 1.3
v 3.5 0 1.3
v 3.5 0.1 1.3
v 2.8 0 1.2
v 2.8 0.1 1.2
v 3.1 0 1.2
v 3.1 0.1 1.2
v 2.7 0 1.1
v 2.7 0.1 1.1
v 2.8 0 1.1
v 2.8 0.1 1.1
v 2.9 0.1 1.1
v 2.9 0.2 1.1
v 3 0.1 1.1
v 3 0.2 1.1
v 3.1 0 1.1
v 3.1 0.1 1.1
v 3.2 0 1.1
v 3.2 0.1 1.1
v 3.3 0 1.1
v 3.3 0.1 1.1
v 2.5 0.5 1
v 2.5 0.6 1
v 2.5 0.7 1
v 2.5 0.8 1
v 2.6 0.2 1
v 2.6 0.3 1
v 2.6 0.4 1
v 2.6 0.5 1
v 2.6 0.6 1
v 2.6 0.7 1
v 2.6 0.8 1
v 2.6 0.9 1
v 2.6 1 1
v 2.6 1.1 1
v 2.7 0.2 1
v 2.7 0.3 1
v 2.7 0.4 1
v 2.7 0.5 1
v 2.7 0.6 1
v 2.7 0.7 1
v 2.7 0.8 1
v 2.7 0.9 1
v 2.7 1 1
v 2.7 1.1 1
v 2.8 0.1 1
v 2.8 0.2 1
v 2.8 0.3 1
v 2.8 0.4 1
v 2.8 0.5 1
v 2.8 0.6 1
v 2.8 0.7 1
v 2.8 0.8 1
v 2.8 0.9 1
v 2.8 1 1
v 2.9 0.1 1
v 2.9 0.2 1
v 2.9 0.3 1
v 2.9 0.4 1
v 2.9 0.5 1
v 2.9 0.6 1
v 2.9 0.7 1
v 2.9 0.8 1
v 2.9 0.9 1
v 2.9 1 1
v 3 0.1 1
v 3 0.2 1
v 3 0.3 1
v 3 0.4 1
v 3 0.5 1
v 3 0.6 1
v 3 0.7 1
v 3 0.8 1
v 3 0.9 1
v 3 1 1
v 3.1 0.1 1
v 3.1 0.2 1
v 3.1 0.3 1
v 3.1 0.4 1
v 3.1 0.5 1
v 3.2 0.2 1
v 3.2 0.3 1
v 3.2 0.4 1
v 3.3 0 1
v 3.3 0.1 1
v 3.3 0.2 1
v 3.3 0.3 1
v 3.4 0 1
v 3.4 0.1 1
v 3.4 0 1.4
v 3.4 0.1 1.4
v 3.5 0 1.4
v 3.5 0.1 1.4
v 3.1 0 1.3
v 3.1 0.1 1.3
v 3.2 0 1.3
v 3.2 0.1 1.3
v 2.5 0 1.2
v 2.5 0.1 1.2
v 2.6 0 1.2
v 2.6 0.1 1.2
v 3.3 0 1.2
v 3.3 0.1 1.2
v 3.4 0 1.2
v 3.4 0.1 1.2
v 3.5 0 1.2
v 3.5 0.1 1.2
v 3.2 0 1
v 3.2 0.1 1
v 3.3 0 1
v 3.3 0.1 1
v 2.5 0.5 0.9
v 2.5 0.6 0.9
v 2.5 0.7 0.9
v 2.5 0.8 0.9
v 2.6 0.2 0.9
v 2.6 0.3 0.9
v 2.6 0.4 0.9
v 2.6 0.5 0.9
v 2.6 0.6 0.9
v 2.6 0.7 0.9
v 2.6 0.8 0.9
v 2.6 0.9 0.9
v 2.6 1 0.9
v 2.6 1.1 0.9
v 2.7 0.2 0.9
v 2.7 0.3 0.9
v 2.7 0.4 0.9
v 2.7 0.5 0.9
v 2.7 0.6 0.9
v 2.7 0.7 0.9
v 2.7 0.8 0.9
v 2.7 0.9 0.9
v 2.7 1 0.9
v 2.7 1.1 0.9
v 2.8 0.1 0.9
v 2.8 0.2 0.9
v 2.8 0.3 0.9
v 2.8 0.4 0.9
v 2.8 0.5 0.9
v 2.8 0.6 0.9
v 2.8 0.7 0.9
v 2.8 0.8 0.9
v 2.8 0.9 0.9
v 2.8 1 0.9
v 2.9 0.1 0.9
v 2.9 0.2 0.9
v 2.9 0.3 0.9
v 2.9 0.4 0.9
v 2.9 0.5 0.9
v 2.9 0.6 0.9
v 2.9 0.7 0.9
v 2.9 0.8 0.9
v 2.9 0.9 0.9
v 2.9 1 0.9
v 3 0.1 0.9
v 3 0.2 0.9
v 3 0.3 0.9
v 3 0.4 0.9
v 3 0.5 0.9
v 3 0.6 0.9
v 3 0.7 0.9
v 3 0.8 0.9
v 3 0.9 0.9
v 3 1 0.9
v 3.1 0.1 0.9
v 3.1 0.2 0.9
v 3.1 0.3 0.9
v 3.1 0.4 0.9
v 3.1 0.5 0.9
v 3.2 0.2 0.9
v 3.2 0.3 0.9
v 3.2 0.4 0.9
v 3.3 0 0.9
v 3.3 0.1 0.9
v 3.3 0.2 0.9
v 3.3 0.3 0.9
v 3.4 0 0.9
v 3.4 0.1 0.9
v 2.7 0 0.8
v 2.7 0.1 0.8
v 2.8 0 0.8
v 2.8 0.1 0.8
v 2.9 0.1 0.8
v 2.9 0.2 0.8
v 3 0.1 0.8
v 3 0.2 0.8
v 3.1 0 0.8
v 3.1 0.1 0.8
v 3.2 0 0.8
v 3.2 0.1 0.8
v 2.8 0 0.7
v 2.8 0.1 0.7
v 3.1 0 0.7
v 3.1 0.1 0.7
v 3.1 0 1.5
v 3.2 0 1.5
v 3.3 0 1.5
v 3.4 0 1.5
v 3.5 0 1.5
v 3.1 0 1.4
v 3.2 0 1.4
v 3.4 0 1.4
v 3.5 0 1.4
v 2.5 0 1.3
v 2.6 0 1.3
v 3.1 0 1.3
v 3.2 0 1.3
v 3.4 0 1.3
v 3.5 0 1.3
v 2.5 0 1.2
v 2.6 0 1.2
v 2.8 0 1.2
v 3.1 0 1.2
v 3.3 0 1.2
v 3.4 0 1.2
v 3.5 0 1.2
v 2.7 0 1.1
v 2.8 0 1.1
v 3.1 0 1.1
v 3.2 0 1.1
v 3.3 0 1.1
v 3.2 0 1
v 3.3 0 1
v 3.4 0 1
v 3.3 0 0.9
v 3.4 0 0.9
v 2.7 0 0.8
v 2.8 0 0.8
v 3.1 0 0.8
v 3.2 0 0.8
v 2.8 0 0.7
v 3.1 0 0.7
v 2.6 0.2 1
v 2.7 0.2 1
v 3.2 0.2 1
v 3.3 0.2 1
v 2.6 0.2 0.9
v 2.7 0.2 0.9
v 3.2 0.2 0.9
v 3.3 0.2 0.9
v 2.7 0.3 1
v 2.8 0.3 1
v 2.9 0.3 1
v 3 0.3 1
v 3.1 0.3 1
v 3.2 0.3 1
v 2.7 0.3 0.9
v 2.8 0.3 0.9
v 2.9 0.3 0.9
v 3 0.3 0.9
v 3.1 0.3 0.9
v 3.2 0.3 0.9
v 2.6 0.4 1
v 2.7 0.4 1
v 2.6 0.4 0.9
v 2.7 0.4 0.9
v 2.5 0.5 1
v 2.6 0.5 1
v 2.5 0.5 0.9
v 2.6 0.5 0.9
v 2.7 0.6 1
v 2.8 0.6 1
v 2.9 0.6 1
v 3 0.6 1
v 2.7 0.6 0.9
v 2.8 0.6 0.9
v 2.9 0.6 0.9
v 3 0.6 0.9
v 2.5 0.7 1
v 2.6 0.7 1
v 2.5 0.7 0.9
v 2.6 0.7 0.9
v 2.7 0.8 1
v 2.8 0.8 1
v 2.7 0.8 0.9
v 2.8 0.8 0.9
v 2.9 0.9 1
v 3 0.9 1
v 2.9 0.9 0.9
v 3 0.9 0.9
v 2.6 1 1
v 2.7 1 1
v 2.6 1 0.9
v 2.7 1 0.9
v 3.1 0.1 1.5
v 3.2 0.1 1.5
v 3.3 0.1 1.5
v 3.4 0.1 1.5
v 3.5 0.1 1.5
v 3.1 0.1 1.4
v 3.2 0.1 1.4
v 3.4 0.1 1.4
v 3.5 0.1 1.4
v 2.5 0.1 1.3
v 2.6 0.1 1.3
v 3.1 0.1 1.3
v 3.2 0.1 1.3
v 3.4 0.1 1.3
v 3.5 0.1 1.3
v 2.5 0.1 1.2
v 2.6 0.1 1.2
v 2.8 0.1 1.2
v 3.1 0.1 1.2
v 3.3 0.1 1.2
v 3.4 0.1 1.2
v 3.5 0.1 1.2
v 2.7 0.1 1.1
v 2.8 0.1 1.1
v 2.9 0.1 1.1
v 3 0.1 1.1
v 3.1 0.1 1.1
v 3.2 0.1 1.1
v 3.3 0.1 1.1
v 2.8 0.1 1
v 2.9 0.1 1
v 3 0.1 1
v 3.1 0.1 1
v 3.2 0.1 1
v 3.3 0.1 1
v 3.4 0.1 1
v 2.8 0.1 0.9
v 2.9 0.1 0.9
v 3 0.1 0.9
v 3.1 0.1 0.9
v 3.3 0.1 0.9
v 3.4 0.1 0.9
v 2.7 0.1 0.8
v 2.8 0.1 0.8
v 2.9 0.1 0.8
v 3 0.1 0.8
v 3.1 0.1 0.8
v 3.2 0.1 0.8
v 2.8 0.1 0.7
v 3.1 0.1 0.7
v 2.9 0.2 1.1
v 3 0.2 1.1
v 2.8 0.2 1
v 2.9 0.2 1
v 3 0.2 1
v 3.1 0.2 1
v 2.8 0.2 0.9
v 2.9 0.2 0.9
v 3 0.2 0.9
v 3.1 0.2 0.9
v 2.9 0.2 0.8
v 3 0.2 0.8
v 2.6 0.3 1
v 2.7 0.3 1
v 3.2 0.3 1
v 3.3 0.3 1
v 2.6 0.3 0.9
v 2.7 0.3 0.9
v 3.2 0.3 0.9
v 3.3 0.3 0.9
v 2.9 0.4 1
v 3 0.4 1
v 3.1 0.4 1
v 3.2 0.4 1
v 2.9 0.4 0.9
v 3 0.4 0.9
v 3.1 0.4 0.9
v 3.2 0.4 0.9
v 2.7 0.5 1
v 2.8 0.5 1
v 3 0.5 1
v 3.1 0.5 1
v 2.7 0.5 0.9
v 2.8 0.5 0.9
v 3 0.5 0.9
v 3.1 0.5 0.9
v 2.5 0.6 1
v 2.6 0.6 1
v 2.5 0.6 0.9
v 2.6 0.6 0.9
v 2.7 0.7 1
v 2.8 0.7 1
v 2.7 0.7 0.9
v 2.8 0.7 0.9
v 2.5 0.8 1
v 2.6 0.8 1
v 2.9 0.8 1
v 3 0.8 1
v 2.5 0.8 0.9
v 2.6 0.8 0.9
v 2.9 0.8 0.9
v 3 0.8 0.9
v 2.6 0.9 1
v 2.7 0.9 1
v 2.8 0.9 1
v 2.9 0.9 1
v 2.6 0.9 0.9
v 2.7 0.9 0.9
v 2.8 0.9 0.9
v 2.9 0.9 0.9
v 2.7 1 1
v 2.8 1 1
v 2.9 1 1
v 3 1 1
v 2.7 1 0.9
v 2.8 1 0.9
v 2.9 1 0.9
v 3 1 0.9
v 2.6 1.1 1
v 2.7 1.1 1
v 2.6 1.1 0.9
v 2.7 1.1 0.9

# faces
f 3/3/1 2/3/1 1/3/1
f 4/3/1 2/3/1 3/3/1
f 7/2/1 6/2/1 5/2/1
f 8/2/1 6/2/1 7/2/1
f 11/2/1 10/2/1 9/2/1
f 12/2/1 10/2/1 11/2/1
f 15/2/1 14/2/1 13/2/1
f 16/2/1 14/2/1 15/2/1
f 19/3/1 18/3/1 17/3/1
f 20/3/1 18/3/1 19/3/1
f 23/3/1 22/3/1 21/3/1
f 24/3/1 22/3/1 23/3/1
f 27/3/1 26/3/1 25/3/1
f 28/3/1 26/3/1 27/3/1
f 31/2/1 30/2/1 29/2/1
f 32/2/1 30/2/1 31/2/1
f 35/3/1 34/3/1 33/3/1
f 36/3/1 34/3/1 35/3/1
f 39/2/1 38/2/1 37/2/1
f 40/2/1 38/2/1 39/2/1
f 43/2/1 42/2/1 41/2/1
f 44/2/1 42/2/1 43/2/1
f 49/3/1 46/3/1 45/3/1
f 50/3/1 46/3/1 49/3/1
f 53/3/1 48/3/1 47/3/1
f 54/3/1 48/3/1 53/3/1
f 55/2/1 52/2/1 51/2/1
f 56/2/1 52/2/1 55/2/1
f 59/4/1 58/4/1 57/4/1
f 60/4/1 58/4/1 59/4/1
f 63/4/1 62/4/1 61/4/1
f 64/4/1 62/4/1 63/4/1
f 69/2/1 66/2/1 65/2/1
f 70/2/1 66/2/1 69/2/1
f 71/2/1 68/2/1 67/2/1
f 72/2/1 68/2/1 71/2/1
f 73/2/1 71/2/1 70/2/1
f 74/2/1 71/2/1 73/2/1
f 77/3/1 76/3/1 75/3/1
f 78/3/1 76/3/1 77/3/1
f 81/2/1 80/2/1 79/2/1
f 82/2/1 80/2/1 81/2/1
f 86/4/1 84/4/1 83/4/1
f 87/2/1 85/2/1 84/2/1
f 87/4/1 84/4/1 86/4/1
f 88/2/1 85/2/1 87/2/1
f 91/2/1 90/2/1 89/2/1
f 92/2/1 90/2/1 91/2/1
f 97/3/1 94/3/1 93/3/1
f 98/3/1 94/3/1 97/3/1
f 99/2/1 96/2/1 95/2/1
f 100/2/1 96/2/1 99/2/1
f 101/3/2 102/3/2 103/3/2
f 103/3/2 102/3/2 104/3/2
f 105/2/2 106/2/2 107/2/2
f 107/2/2 106/2/2 108/2/2
f 109/3/2 110/3/2 111/3/2
f 111/3/2 110/3/2 112/3/2
f 113/3/2 114/3/2 115/3/2
f 115/3/2 114/3/2 116/3/2
f 117/2/2 118/2/2 119/2/2
f 119/2/2 118/2/2 120/2/2
f 121/2/2 122/2/2 123/2/2
f 123/2/2 122/2/2 124/2/2
f 125/2/2 126/2/2 127/2/2
f 127/2/2 126/2/2 128/2/2
f 127/4/2 128/4/2 129/4/2
f 129/4/2 128/4/2 130/4/2
f 131/2/2 132/2/2 133/2/2
f 133/2/2 132/2/2 134/2/2
f 135/2/2 136/2/2 139/2/2
f 139/2/2 136/2/2 140/2/2
f 137/2/2 138/2/2 141/2/2
f 141/2/2 138/2/2 142/2/2
f 140/2/2 141/2/2 143/2/2
f 143/2/2 141/2/2 144/2/2
f 145/1/2 146/1/2 147/1/2
f 147/1/2 146/1/2 148/1/2
f 147/3/2 148/3/2 149/3/2
f 149/3/2 148/3/2 150/3/2
f 151/3/2 152/3/2 153/3/2
f 153/3/2 152/3/2 154/3/2
f 155/3/2 156/3/2 159/3/2
f 159/3/2 156/3/2 160/3/2
f 157/3/2 158/3/2 163/3/2
f 163/3/2 158/3/2 164/3/2
f 161/2/2 162/2/2 165/2/2
f 165/2/2 162/2/2 166/2/2
f 167/2/2 168/2/2 169/2/2
f 169/2/2 168/2/2 170/2/2
f 171/4/2 172/4/2 176/4/2
f 172/2/2 173/2/2 177/2/2
f 176/4/2 172/4/2 177/4/2
f 177/2/2 173/2/2 178/2/2
f 174/3/2 175/3/2 179/3/2
f 179/3/2 175/3/2 180/3/2
f 181/2/2 182/2/2 183/2/2
f 183/2/2 182/2/2 184/2/2
f 185/2/2 186/2/2 187/2/2
f 187/2/2 186/2/2 188/2/2
f 189/2/2 190/2/2 191/2/2
f 191/2/2 190/2/2 192/2/2
f 193/3/2 194/3/2 197/3/2
f 197/3/2 194/3/2 198/3/2
f 195/2/2 196/2/2 199/2/2
f 199/2/2 196/2/2 200/2/2
f 201/2/2 202/2/2 205/2/2
f 205/2/2 202/2/2 206/2/2
f 203/2/2 204/2/2 207/2/2
f 207/2/2 204/2/2 208/2/2
f 211/4/3 210/4/3 209/4/3
f 212/4/3 210/4/3 211/4/3
f 215/3/3 214/3/3 213/3/3
f 216/3/3 214/3/3 215/3/3
f 217/2/3 216/2/3 215/2/3
f 218/2/3 216/2/3 217/2/3
f 221/3/3 220/3/3 219/3/3
f 222/3/3 220/3/3 221/3/3
f 225/2/3 224/2/3 223/2/3
f 226/2/3 224/2/3 225/2/3
f 229/3/3 228/3/3 227/3/3
f 230/3/3 228/3/3 229/3/3
f 233/3/3 232/3/3 231/3/3
f 234/3/3 232/3/3 233/3/3
f 237/2/3 236/2/3 235/2/3
f 238/2/3 236/2/3 237/2/3
f 241/3/3 240/3/3 239/3/3
f 242/3/3 240/3/3 241/3/3
f 243/2/3 242/2/3 241/2/3
f 244/2/3 242/2/3 243/2/3
f 252/2/3 246/2/3 245/2/3
f 253/2/3 246/2/3 252/2/3
f 254/2/3 248/2/3 247/2/3
f 255/2/3 248/2/3 254/2/3
f 259/2/3 250/2/3 249/2/3
f 260/2/3 250/2/3 259/2/3
f 261/3/3 253/3/3 252/3/3
f 261/3/3 252/3/3 251/3/3
f 261/3/3 254/3/3 253/3/3
f 261/3/3 256/3/3 255/3/3
f 261/3/3 255/3/3 254/3/3
f 262/3/3 256/3/3 261/3/3
f 263/3/3 256/3/3 262/3/3
f 264/3/3 256/3/3 263/3/3
f 265/3/3 256/3/3 264/3/3
f 266/3/3 256/3/3 265/3/3
f 267/2/3 258/2/3 257/2/3
f 268/2/3 258/2/3 267/2/3
f 271/2/3 261/2/3 260/2/3
f 272/3/3 262/3/3 261/3/3
f 272/2/3 261/2/3 271/2/3
f 273/3/3 262/3/3 272/3/3
f 274/2/3 264/2/3 263/2/3
f 275/2/3 264/2/3 274/2/3
f 276/3/3 266/3/3 265/3/3
f 277/2/3 267/2/3 266/2/3
f 277/3/3 266/3/3 276/3/3
f 278/2/3 267/2/3 277/2/3
f 279/2/3 270/2/3 269/2/3
f 280/2/3 270/2/3 279/2/3
f 281/3/3 272/3/3 271/3/3
f 282/2/3 273/2/3 272/2/3
f 282/3/3 272/3/3 281/3/3
f 283/4/3 274/4/3 273/4/3
f 283/2/3 273/2/3 282/2/3
f 284/2/3 275/2/3 274/2/3
f 284/4/3 274/4/3 283/4/3
f 285/4/3 276/4/3 275/4/3
f 285/2/3 275/2/3 284/2/3
f 286/2/3 277/2/3 276/2/3
f 286/4/3 276/4/3 285/4/3
f 287/2/3 277/2/3 286/2/3
f 290/2/3 281/2/3 280/2/3
f 291/3/3 282/3/3 281/3/3
f 291/2/3 281/2/3 290/2/3
f 292/3/3 282/3/3 291/3/3
f 294/1/3 285/1/3 284/1/3
f 295/3/3 286/3/3 285/3/3
f 295/1/3 285/1/3 294/1/3
f 296/3/3 286/3/3 295/3/3
f 297/3/3 288/3/3 287/3/3
f 298/3/3 288/3/3 297/3/3
f 299/2/3 290/2/3 289/2/3
f 300/2/3 290/2/3 299/2/3
f 301/3/3 292/3/3 291/3/3
f 302/2/3 293/2/3 292/2/3
f 302/3/3 292/3/3 301/3/3
f 303/2/3 293/2/3 302/2/3
f 305/2/3 302/2/3 301/2/3
f 306/2/3 302/2/3 305/2/3
f 309/2/3 305/2/3 304/2/3
f 310/2/3 305/2/3 309/2/3
f 311/2/3 308/2/3 307/2/3
f 312/2/3 308/2/3 311/2/3
f 313/2/4 314/2/4 315/2/4
f 315/2/4 314/2/4 316/2/4
f 317/2/4 318/2/4 319/2/4
f 319/2/4 318/2/4 320/2/4
f 321/3/4 322/3/4 323/3/4
f 323/3/4 322/3/4 324/3/4
f 325/3/4 326/3/4 327/3/4
f 327/3/4 326/3/4 328/3/4
f 327/2/4 328/2/4 329/2/4
f 329/2/4 328/2/4 330/2/4
f 331/2/4 332/2/4 333/2/4
f 333/2/4 332/2/4 334/2/4
f 335/2/4 336/2/4 342/2/4
f 342/2/4 336/2/4 343/2/4
f 337/2/4 338/2/4 344/2/4
f 344/2/4 338/2/4 345/2/4
f 339/2/4 340/2/4 349/2/4
f 349/2/4 340/2/4 350/2/4
f 342/3/4 343/3/4 351/3/4
f 341/3/4 342/3/4 351/3/4
f 343/3/4 344/3/4 351/3/4
f 345/3/4 346/3/4 351/3/4
f 344/3/4 345/3/4 351/3/4
f 351/3/4 346/3/4 352/3/4
f 352/3/4 346/3/4 353/3/4
f 353/3/4 346/3/4 354/3/4
f 354/3/4 346/3/4 355/3/4
f 355/3/4 346/3/4 356/3/4
f 347/2/4 348/2/4 357/2/4
f 357/2/4 348/2/4 358/2/4
f 350/2/4 351/2/4 361/2/4
f 351/3/4 352/3/4 362/3/4
f 361/2/4 351/2/4 362/2/4
f 362/3/4 352/3/4 363/3/4
f 353/2/4 354/2/4 364/2/4
f 364/2/4 354/2/4 365/2/4
f 355/3/4 356/3/4 366/3/4
f 356/2/4 357/2/4 367/2/4
f 366/3/4 356/3/4 367/3/4
f 367/2/4 357/2/4 368/2/4
f 359/2/4 360/2/4 369/2/4
f 369/2/4 360/2/4 370/2/4
f 361/3/4 362/3/4 371/3/4
f 362/2/4 363/2/4 372/2/4
f 371/3/4 362/3/4 372/3/4
f 363/4/4 364/4/4 373/4/4
f 372/2/4 363/2/4 373/2/4
f 364/2/4 365/2/4 374/2/4
f 373/4/4 364/4/4 374/4/4
f 365/4/4 366/4/4 375/4/4
f 374/2/4 365/2/4 375/2/4
f 366/2/4 367/2/4 376/2/4
f 375/4/4 366/4/4 376/4/4
f 376/2/4 367/2/4 377/2/4
f 370/2/4 371/2/4 380/2/4
f 371/3/4 372/3/4 381/3/4
f 380/2/4 371/2/4 381/2/4
f 381/3/4 372/3/4 382/3/4
f 374/1/4 375/1/4 384/1/4
f 375/3/4 376/3/4 385/3/4
f 384/1/4 375/1/4 385/1/4
f 385/3/4 376/3/4 386/3/4
f 377/3/4 378/3/4 387/3/4
f 387/3/4 378/3/4 388/3/4
f 379/2/4 380/2/4 389/2/4
f 389/2/4 380/2/4 390/2/4
f 381/3/4 382/3/4 391/3/4
f 382/2/4 383/2/4 392/2/4
f 391/3/4 382/3/4 392/3/4
f 392/2/4 383/2/4 393/2/4
f 391/2/4 392/2/4 395/2/4
f 395/2/4 392/2/4 396/2/4
f 394/2/4 395/2/4 399/2/4
f 399/2/4 395/2/4 400/2/4
f 397/2/4 398/2/4 401/2/4
f 401/2/4 398/2/4 402/2/4
f 403/3/4 404/3/4 405/3/4
f 405/3/4 404/3/4 406/3/4
f 407/2/4 408/2/4 409/2/4
f 409/2/4 408/2/4 410/2/4
f 411/3/4 412/3/4 413/3/4
f 413/3/4 412/3/4 414/3/4
f 415/3/4 416/3/4 417/3/4
f 417/3/4 416/3/4 418/3/4
f 424/4/5 420/4/5 419/4/5
f 425/4/5 420/4/5 424/4/5
f 426/2/5 423/2/5 422/2/5
f 426/3/5 422/3/5 421/3/5
f 427/2/5 423/2/5 426/2/5
f 430/2/5 425/2/5 424/2/5
f 431/2/5 425/2/5 430/2/5
f 432/3/5 426/3/5 421/3/5
f 434/3/5 429/3/5 428/3/5
f 435/3/5 429/3/5 434/3/5
f 438/3/5 432/3/5 421/3/5
f 439/2/5 433/2/5 432/2/5
f 439/3/5 432/3/5 438/3/5
f 440/2/5 433/2/5 439/2/5
f 442/3/5 437/3/5 436/3/5
f 443/3/5 437/3/5 442/3/5
f 446/3/5 442/3/5 441/3/5
f 446/2/5 445/2/5 444/2/5
f 446/3/5 444/3/5 443/3/5
f 446/3/5 443/3/5 442/3/5
f 447/2/5 445/2/5 446/2/5
f 449/2/5 448/2/5 447/2/5
f 450/2/5 448/2/5 449/2/5
f 451/3/5 446/3/5 441/3/5
f 452/3/5 446/3/5 451/3/5
f 453/3/5 446/3/5 452/3/5
f 454/3/5 446/3/5 453/3/5
f 455/3/5 453/3/5 452/3/5
f 456/3/5 453/3/5 455/3/5
f 461/2/5 458/2/5 457/2/5
f 462/2/5 458/2/5 461/2/5
f 463/2/5 460/2/5 459/2/5
f 464/2/5 460/2/5 463/2/5
f 471/2/5 466/2/5 465/2/5
f 472/3/5 467/3/5 466/3/5
f 472/2/5 466/2/5 471/2/5
f 473/3/5 467/3/5 472/3/5
f 474/3/5 469/3/5 468/3/5
f 475/2/5 470/2/5 469/2/5
f 475/3/5 469/3/5 474/3/5
f 476/2/5 470/2/5 475/2/5
f 479/3/5 478/3/5 477/3/5
f 480/3/5 478/3/5 479/3/5
f 483/2/5 482/2/5 481/2/5
f 484/2/5 482/2/5 483/2/5
f 489/2/5 486/2/5 485/2/5
f 490/2/5 486/2/5 489/2/5
f 491/1/5 488/1/5 487/1/5
f 492/1/5 488/1/5 491/1/5
f 495/2/5 494/2/5 493/2/5
f 496/2/5 494/2/5 495/2/5
f 499/3/5 498/3/5 497/3/5
f 500/3/5 498/3/5 499/3/5
f 503/3/5 502/3/5 501/3/5
f 504/3/5 502/3/5 503/3/5
f 507/2/5 506/2/5 505/2/5
f 508/2/5 506/2/5 507/2/5
f 509/4/6 510/4/6 514/4/6
f 514/4/6 510/4/6 515/4/6
f 512/2/6 513/2/6 516/2/6
f 511/3/6 512/3/6 516/3/6
f 516/2/6 513/2/6 517/2/6
f 514/2/6 515/2/6 520/2/6
f 520/2/6 515/2/6 521/2/6
f 511/3/6 516/3/6 522/3/6
f 518/3/6 519/3/6 524/3/6
f 524/3/6 519/3/6 525/3/6
f 511/3/6 522/3/6 528/3/6
f 522/2/6 523/2/6 529/2/6
f 528/3/6 522/3/6 529/3/6
f 529/2/6 523/2/6 530/2/6
f 526/3/6 527/3/6 532/3/6
f 532/3/6 527/3/6 533/3/6
f 533/3/6 527/3/6 534/3/6
f 534/3/6 527/3/6 535/3/6
f 531/3/6 532/3/6 538/3/6
f 532/3/6 533/3/6 538/3/6
f 538/3/6 533/3/6 539/3/6
f 535/3/6 536/3/6 540/3/6
f 534/3/6 535/3/6 540/3/6
f 540/3/6 536/3/6 541/3/6
f 536/2/6 537/2/6 542/2/6
f 541/3/6 536/3/6 542/3/6
f 542/2/6 537/2/6 543/2/6
f 531/3/6 538/3/6 545/3/6
f 541/3/6 542/3/6 548/3/6
f 543/2/6 544/2/6 549/2/6
f 549/2/6 544/2/6 550/2/6
f 545/3/6 546/3/6 551/3/6
f 531/3/6 545/3/6 551/3/6
f 551/3/6 546/3/6 552/3/6
f 552/3/6 546/3/6 553/3/6
f 547/3/6 548/3/6 554/3/6
f 548/3/6 542/3/6 555/3/6
f 554/3/6 548/3/6 555/3/6
f 555/3/6 542/3/6 556/3/6
f 552/3/6 553/3/6 557/3/6
f 553/3/6 554/3/6 557/3/6
f 554/3/6 555/3/6 557/3/6
f 557/3/6 555/3/6 558/3/6
f 559/2/6 560/2/6 562/2/6
f 562/2/6 560/2/6 563/2/6
f 561/2/6 562/2/6 565/2/6
f 565/2/6 562/2/6 566/2/6
f 563/2/6 564/2/6 567/2/6
f 567/2/6 564/2/6 568/2/6
f 566/2/6 567/2/6 569/2/6
f 569/2/6 567/2/6 570/2/6
f 571/2/6 572/2/6 575/2/6
f 575/2/6 572/2/6 576/2/6
f 573/2/6 574/2/6 577/2/6
f 577/2/6 574/2/6 578/2/6
f 579/3/6 580/3/6 583/3/6
f 583/3/6 580/3/6 584/3/6
f 581/2/6 582/2/6 585/2/6
f 585/2/6 582/2/6 586/2/6
f 587/3/6 588/3/6 591/3/6
f 591/3/6 588/3/6 592/3/6
f 589/2/6 590/2/6 593/2/6
f 593/2/6 590/2/6 594/2/6
f 595/2/6 596/2/6 597/2/6
f 597/2/6 596/2/6 598/2/6
f 599/2/6 600/2/6 601/2/6
f 601/2/6 600/2/6 602/2/6
f 603/2/6 604/2/6 607/2/6
f 607/2/6 604/2/6 608/2/6
f 605/3/6 606/3/6 609/3/6
f 609/3/6 606/3/6 610/3/6
f 611/3/6 612/3/6 615/3/6
f 615/3/6 612/3/6 616/3/6
f 613/2/6 614/2/6 617/2/6
f 617/2/6 614/2/6 618/2/6
f 619/2/6 620/2/6 623/2/6
f 623/2/6 620/2/6 624/2/6
f 621/3/6 622/3/6 625/3/6
f 625/3/6 622/3/6 626/3/6
f 627/2/6 628/2/6 629/2/6
f 629/2/6 628/2/6 630/2/6
