# MagicaVoxel @ Ephtracy

# group
o saw

# material
mtllib obj-1-saw.mtl
usemtl palette

# normals
vn -1 0 0
vn 1 0 0
vn 0 0 1
vn 0 0 -1
vn 0 -1 0
vn 0 1 0

# texcoords
vt 0.111328 0.5
vt 0.162109 0.5
vt 0.978516 0.5
vt 0.982422 0.5

# verts
v -3.4 0 0.8
v -3.4 0 0.6
v -3.4 0 0.5
v -3.4 0 0.4
v -3.4 0 0.3
v -3.4 0 0.2
v -3.4 0 0.1
v -3.4 0.1 0.8
v -3.4 0.1 0.6
v -3.4 0.1 0.5
v -3.4 0.1 0.4
v -3.4 0.1 0.3
v -3.4 0.1 0.2
v -3.4 0.1 0.1
v -3.3 0 0.5
v -3.3 0 0.4
v -3.3 0 0.3
v -3.3 0 0.2
v -3.3 0.1 0.5
v -3.3 0.1 0.4
v -3.3 0.1 0.3
v -3.3 0.1 0.2
v -3.1 0 0.8
v -3.1 0 0.6
v -3.1 0 0.1
v -3.1 0.1 0.8
v -3.1 0.1 0.6
v -3.1 0.1 0.1
v -3.4 0 0.8
v -3.4 0.1 0.8
v -3.2 0 0.8
v -3.2 0.1 0.8
v -3.1 0 0.8
v -3.1 0.1 0.8
v -3.4 0 0.4
v -3.4 0.1 0.4
v -3.3 0 0.4
v -3.3 0.1 0.4
v -3.4 0 0.2
v -3.4 0.1 0.2
v -3.3 0 0.2
v -3.3 0.1 0.2
v -3.4 0 0.5
v -3.4 0.1 0.5
v -3.3 0 0.5
v -3.3 0.1 0.5
v -3.4 0 0.3
v -3.4 0.1 0.3
v -3.3 0 0.3
v -3.3 0.1 0.3
v -3.4 0 0.1
v -3.4 0.1 0.1
v -3.3 0 0.1
v -3.3 0.1 0.1
v -3.1 0 0.1
v -3.1 0.1 0.1
v -3.4 0 0.8
v -3.2 0 0.8
v -3.1 0 0.8
v -3.4 0 0.6
v -3.3 0 0.6
v -3.2 0 0.6
v -3.1 0 0.6
v -3.4 0 0.5
v -3.3 0 0.5
v -3.2 0 0.5
v -3.4 0 0.4
v -3.3 0 0.4
v -3.2 0 0.4
v -3.4 0 0.3
v -3.3 0 0.3
v -3.2 0 0.3
v -3.4 0 0.2
v -3.3 0 0.2
v -3.2 0 0.2
v -3.4 0 0.1
v -3.3 0 0.1
v -3.1 0 0.1
v -3.4 0.1 0.8
v -3.2 0.1 0.8
v -3.1 0.1 0.8
v -3.4 0.1 0.6
v -3.3 0.1 0.6
v -3.2 0.1 0.6
v -3.1 0.1 0.6
v -3.4 0.1 0.5
v -3.3 0.1 0.5
v -3.2 0.1 0.5
v -3.4 0.1 0.4
v -3.3 0.1 0.4
v -3.2 0.1 0.4
v -3.4 0.1 0.3
v -3.3 0.1 0.3
v -3.2 0.1 0.3
v -3.4 0.1 0.2
v -3.3 0.1 0.2
v -3.2 0.1 0.2
v -3.4 0.1 0.1
v -3.3 0.1 0.1
v -3.1 0.1 0.1

# faces
f 8/1/1 2/1/1 1/1/1
f 9/4/1 3/4/1 2/4/1
f 9/1/1 2/1/1 8/1/1
f 10/4/1 3/4/1 9/4/1
f 11/4/1 5/4/1 4/4/1
f 12/4/1 5/4/1 11/4/1
f 13/4/1 7/4/1 6/4/1
f 14/4/1 7/4/1 13/4/1
f 19/4/1 16/4/1 15/4/1
f 20/4/1 16/4/1 19/4/1
f 21/4/1 18/4/1 17/4/1
f 22/4/1 18/4/1 21/4/1
f 23/2/2 24/2/2 26/2/2
f 24/3/2 25/3/2 27/3/2
f 26/2/2 24/2/2 27/2/2
f 27/3/2 25/3/2 28/3/2
f 31/1/3 30/1/3 29/1/3
f 32/1/3 30/1/3 31/1/3
f 33/2/3 32/2/3 31/2/3
f 34/2/3 32/2/3 33/2/3
f 37/4/3 36/4/3 35/4/3
f 38/4/3 36/4/3 37/4/3
f 41/4/3 40/4/3 39/4/3
f 42/4/3 40/4/3 41/4/3
f 43/4/4 44/4/4 45/4/4
f 45/4/4 44/4/4 46/4/4
f 47/4/4 48/4/4 49/4/4
f 49/4/4 48/4/4 50/4/4
f 51/4/4 52/4/4 53/4/4
f 53/4/4 52/4/4 54/4/4
f 53/3/4 54/3/4 55/3/4
f 55/3/4 54/3/4 56/3/4
f 60/1/5 58/1/5 57/1/5
f 61/1/5 58/1/5 60/1/5
f 62/2/5 59/2/5 58/2/5
f 62/1/5 58/1/5 61/1/5
f 63/2/5 59/2/5 62/2/5
f 64/4/5 61/4/5 60/4/5
f 65/3/5 62/3/5 61/3/5
f 65/4/5 61/4/5 64/4/5
f 65/3/5 63/3/5 62/3/5
f 66/3/5 63/3/5 65/3/5
f 68/4/5 66/4/5 65/4/5
f 69/3/5 63/3/5 66/3/5
f 69/4/5 66/4/5 68/4/5
f 70/4/5 68/4/5 67/4/5
f 71/3/5 69/3/5 68/3/5
f 71/4/5 68/4/5 70/4/5
f 72/3/5 63/3/5 69/3/5
f 72/3/5 69/3/5 71/3/5
f 74/4/5 72/4/5 71/4/5
f 75/3/5 63/3/5 72/3/5
f 75/4/5 72/4/5 74/4/5
f 76/4/5 74/4/5 73/4/5
f 77/3/5 75/3/5 74/3/5
f 77/4/5 74/4/5 76/4/5
f 78/3/5 63/3/5 75/3/5
f 78/3/5 75/3/5 77/3/5
f 79/1/6 80/1/6 82/1/6
f 82/1/6 80/1/6 83/1/6
f 80/2/6 81/2/6 84/2/6
f 83/1/6 80/1/6 84/1/6
f 84/2/6 81/2/6 85/2/6
f 82/4/6 83/4/6 86/4/6
f 83/3/6 84/3/6 87/3/6
f 86/4/6 83/4/6 87/4/6
f 84/3/6 85/3/6 87/3/6
f 87/3/6 85/3/6 88/3/6
f 87/4/6 88/4/6 90/4/6
f 88/3/6 85/3/6 91/3/6
f 90/4/6 88/4/6 91/4/6
f 89/4/6 90/4/6 92/4/6
f 90/3/6 91/3/6 93/3/6
f 92/4/6 90/4/6 93/4/6
f 91/3/6 85/3/6 94/3/6
f 93/3/6 91/3/6 94/3/6
f 93/4/6 94/4/6 96/4/6
f 94/3/6 85/3/6 97/3/6
f 96/4/6 94/4/6 97/4/6
f 95/4/6 96/4/6 98/4/6
f 96/3/6 97/3/6 99/3/6
f 98/4/6 96/4/6 99/4/6
f 97/3/6 85/3/6 100/3/6
f 99/3/6 97/3/6 100/3/6
