# MagicaVoxel @ Ephtracy

# group
o stair

# material
mtllib obj-3-stair.mtl
usemtl palette

# normals
vn -1 0 0
vn 1 0 0
vn 0 0 1
vn 0 0 -1
vn 0 -1 0
vn 0 1 0

# texcoords
vt 0.263672 0.5
vt 0.298828 0.5

# verts
v 1.2 0 -0.1
v 1.2 0 -0.2
v 1.2 0 -0.8
v 1.2 0.1 -0.1
v 1.2 0.1 -0.2
v 1.2 0.1 -0.3
v 1.2 0.1 -0.4
v 1.2 0.2 -0.1
v 1.2 0.2 -0.3
v 1.2 0.2 -0.4
v 1.2 0.2 -0.5
v 1.2 0.2 -0.6
v 1.2 0.3 -0.3
v 1.2 0.3 -0.5
v 1.2 0.3 -0.6
v 1.2 0.4 -0.5
v 1.2 0.4 -0.8
v 1.8 0.1 -0.1
v 1.8 0.1 -0.3
v 1.8 0.2 -0.1
v 1.8 0.2 -0.3
v 1.8 0.2 -0.5
v 1.8 0.3 -0.3
v 1.8 0.3 -0.5
v 1.8 0.3 -0.7
v 1.8 0.4 -0.5
v 1.8 0.4 -0.7
v 1.3 0.1 -0.1
v 1.3 0.1 -0.3
v 1.3 0.2 -0.1
v 1.3 0.2 -0.3
v 1.3 0.2 -0.5
v 1.3 0.3 -0.3
v 1.3 0.3 -0.5
v 1.3 0.3 -0.7
v 1.3 0.4 -0.5
v 1.3 0.4 -0.7
v 1.9 0 -0.1
v 1.9 0 -0.2
v 1.9 0 -0.8
v 1.9 0.1 -0.1
v 1.9 0.1 -0.2
v 1.9 0.1 -0.3
v 1.9 0.1 -0.4
v 1.9 0.2 -0.1
v 1.9 0.2 -0.3
v 1.9 0.2 -0.4
v 1.9 0.2 -0.5
v 1.9 0.2 -0.6
v 1.9 0.3 -0.3
v 1.9 0.3 -0.5
v 1.9 0.3 -0.6
v 1.9 0.4 -0.5
v 1.9 0.4 -0.8
v 1.2 0 -0.1
v 1.2 0.1 -0.1
v 1.2 0.2 -0.1
v 1.3 0 -0.1
v 1.3 0.1 -0.1
v 1.3 0.2 -0.1
v 1.8 0 -0.1
v 1.8 0.1 -0.1
v 1.8 0.2 -0.1
v 1.9 0 -0.1
v 1.9 0.1 -0.1
v 1.9 0.2 -0.1
v 1.2 0.2 -0.3
v 1.2 0.3 -0.3
v 1.3 0.1 -0.3
v 1.3 0.2 -0.3
v 1.3 0.3 -0.3
v 1.8 0.1 -0.3
v 1.8 0.2 -0.3
v 1.8 0.3 -0.3
v 1.9 0.2 -0.3
v 1.9 0.3 -0.3
v 1.2 0.3 -0.5
v 1.2 0.4 -0.5
v 1.3 0.2 -0.5
v 1.3 0.3 -0.5
v 1.3 0.4 -0.5
v 1.8 0.2 -0.5
v 1.8 0.3 -0.5
v 1.8 0.4 -0.5
v 1.9 0.3 -0.5
v 1.9 0.4 -0.5
v 1.3 0.3 -0.7
v 1.3 0.4 -0.7
v 1.8 0.3 -0.7
v 1.8 0.4 -0.7
v 1.2 0 -0.8
v 1.2 0.4 -0.8
v 1.9 0 -0.8
v 1.9 0.4 -0.8
v 1.2 0 -0.1
v 1.3 0 -0.1
v 1.8 0 -0.1
v 1.9 0 -0.1
v 1.2 0 -0.2
v 1.3 0 -0.2
v 1.8 0 -0.2
v 1.9 0 -0.2
v 1.2 0 -0.8
v 1.9 0 -0.8
v 1.3 0.1 -0.1
v 1.8 0.1 -0.1
v 1.3 0.1 -0.3
v 1.8 0.1 -0.3
v 1.2 0.2 -0.1
v 1.3 0.2 -0.1
v 1.8 0.2 -0.1
v 1.9 0.2 -0.1
v 1.2 0.2 -0.3
v 1.3 0.2 -0.3
v 1.8 0.2 -0.3
v 1.9 0.2 -0.3
v 1.3 0.2 -0.5
v 1.8 0.2 -0.5
v 1.2 0.3 -0.3
v 1.3 0.3 -0.3
v 1.8 0.3 -0.3
v 1.9 0.3 -0.3
v 1.2 0.3 -0.5
v 1.3 0.3 -0.5
v 1.8 0.3 -0.5
v 1.9 0.3 -0.5
v 1.3 0.3 -0.7
v 1.8 0.3 -0.7
v 1.2 0.4 -0.5
v 1.3 0.4 -0.5
v 1.8 0.4 -0.5
v 1.9 0.4 -0.5
v 1.3 0.4 -0.7
v 1.8 0.4 -0.7
v 1.2 0.4 -0.8
v 1.9 0.4 -0.8

# faces
f 4/2/1 2/2/1 1/2/1
f 5/1/1 3/1/1 2/1/1
f 5/2/1 2/2/1 4/2/1
f 6/1/1 3/1/1 5/1/1
f 7/1/1 3/1/1 6/1/1
f 8/1/1 5/1/1 4/1/1
f 8/1/1 6/1/1 5/1/1
f 9/2/1 7/2/1 6/2/1
f 9/1/1 6/1/1 8/1/1
f 10/1/1 3/1/1 7/1/1
f 10/2/1 7/2/1 9/2/1
f 11/1/1 3/1/1 10/1/1
f 12/1/1 3/1/1 11/1/1
f 13/1/1 10/1/1 9/1/1
f 13/1/1 11/1/1 10/1/1
f 14/2/1 12/2/1 11/2/1
f 14/1/1 11/1/1 13/1/1
f 15/1/1 3/1/1 12/1/1
f 15/2/1 12/2/1 14/2/1
f 16/1/1 15/1/1 14/1/1
f 17/1/1 3/1/1 15/1/1
f 17/1/1 15/1/1 16/1/1
f 20/1/1 19/1/1 18/1/1
f 21/1/1 19/1/1 20/1/1
f 23/1/1 22/1/1 21/1/1
f 24/1/1 22/1/1 23/1/1
f 26/1/1 25/1/1 24/1/1
f 27/1/1 25/1/1 26/1/1
f 28/1/2 29/1/2 30/1/2
f 30/1/2 29/1/2 31/1/2
f 31/1/2 32/1/2 33/1/2
f 33/1/2 32/1/2 34/1/2
f 34/1/2 35/1/2 36/1/2
f 36/1/2 35/1/2 37/1/2
f 38/2/2 39/2/2 41/2/2
f 39/1/2 40/1/2 42/1/2
f 41/2/2 39/2/2 42/2/2
f 42/1/2 40/1/2 43/1/2
f 43/1/2 40/1/2 44/1/2
f 41/1/2 42/1/2 45/1/2
f 42/1/2 43/1/2 45/1/2
f 43/2/2 44/2/2 46/2/2
f 45/1/2 43/1/2 46/1/2
f 44/1/2 40/1/2 47/1/2
f 46/2/2 44/2/2 47/2/2
f 47/1/2 40/1/2 48/1/2
f 48/1/2 40/1/2 49/1/2
f 46/1/2 47/1/2 50/1/2
f 47/1/2 48/1/2 50/1/2
f 48/2/2 49/2/2 51/2/2
f 50/1/2 48/1/2 51/1/2
f 49/1/2 40/1/2 52/1/2
f 51/2/2 49/2/2 52/2/2
f 51/1/2 52/1/2 53/1/2
f 52/1/2 40/1/2 54/1/2
f 53/1/2 52/1/2 54/1/2
f 58/2/3 56/2/3 55/2/3
f 59/1/3 57/1/3 56/1/3
f 59/2/3 56/2/3 58/2/3
f 60/1/3 57/1/3 59/1/3
f 61/1/3 59/1/3 58/1/3
f 62/1/3 59/1/3 61/1/3
f 64/2/3 62/2/3 61/2/3
f 65/1/3 63/1/3 62/1/3
f 65/2/3 62/2/3 64/2/3
f 66/1/3 63/1/3 65/1/3
f 70/1/3 68/1/3 67/1/3
f 71/1/3 68/1/3 70/1/3
f 72/1/3 70/1/3 69/1/3
f 73/1/3 70/1/3 72/1/3
f 75/1/3 74/1/3 73/1/3
f 76/1/3 74/1/3 75/1/3
f 80/1/3 78/1/3 77/1/3
f 81/1/3 78/1/3 80/1/3
f 82/1/3 80/1/3 79/1/3
f 83/1/3 80/1/3 82/1/3
f 85/1/3 84/1/3 83/1/3
f 86/1/3 84/1/3 85/1/3
f 89/1/3 88/1/3 87/1/3
f 90/1/3 88/1/3 89/1/3
f 91/1/4 92/1/4 93/1/4
f 93/1/4 92/1/4 94/1/4
f 99/2/5 96/2/5 95/2/5
f 100/1/5 97/1/5 96/1/5
f 100/2/5 96/2/5 99/2/5
f 101/2/5 98/2/5 97/2/5
f 101/1/5 97/1/5 100/1/5
f 102/2/5 98/2/5 101/2/5
f 103/1/5 100/1/5 99/1/5
f 103/1/5 101/1/5 100/1/5
f 103/1/5 102/1/5 101/1/5
f 104/1/5 102/1/5 103/1/5
f 105/1/6 106/1/6 107/1/6
f 107/1/6 106/1/6 108/1/6
f 109/1/6 110/1/6 113/1/6
f 113/1/6 110/1/6 114/1/6
f 111/1/6 112/1/6 115/1/6
f 115/1/6 112/1/6 116/1/6
f 114/1/6 115/1/6 117/1/6
f 117/1/6 115/1/6 118/1/6
f 119/1/6 120/1/6 123/1/6
f 123/1/6 120/1/6 124/1/6
f 121/1/6 122/1/6 125/1/6
f 125/1/6 122/1/6 126/1/6
f 124/1/6 125/1/6 127/1/6
f 127/1/6 125/1/6 128/1/6
f 129/1/6 130/1/6 133/1/6
f 131/1/6 132/1/6 134/1/6
f 129/1/6 133/1/6 135/1/6
f 133/1/6 134/1/6 135/1/6
f 134/1/6 132/1/6 136/1/6
f 135/1/6 134/1/6 136/1/6
