# MagicaVoxel @ Ephtracy

# group
o crate

# material
mtllib obj-9-crate.mtl
usemtl palette

# normals
vn -1 0 0
vn 1 0 0
vn 0 0 1
vn 0 0 -1
vn 0 -1 0
vn 0 1 0

# texcoords
vt 0.267578 0.5
vt 0.294922 0.5
vt 0.298828 0.5
vt 0.302734 0.5

# verts
v -0.8 0 -2.1
v -0.8 0 -2.3
v -0.8 0 -2.4
v -0.8 0 -2.6
v -0.8 0.1 -2.1
v -0.8 0.1 -2.2
v -0.8 0.1 -2.3
v -0.8 0.1 -2.4
v -0.8 0.1 -2.5
v -0.8 0.1 -2.6
v -0.8 0.2 -2.1
v -0.8 0.2 -2.2
v -0.8 0.2 -2.3
v -0.8 0.2 -2.4
v -0.8 0.2 -2.5
v -0.8 0.2 -2.6
v -0.8 0.3 -2.1
v -0.8 0.3 -2.2
v -0.8 0.3 -2.3
v -0.8 0.3 -2.4
v -0.8 0.3 -2.5
v -0.8 0.3 -2.6
v -0.8 0.4 -2.2
v -0.8 0.4 -2.3
v -0.8 0.4 -2.4
v -0.8 0.4 -2.5
v -0.8 0.5 -2.1
v -0.8 0.5 -2.2
v -0.8 0.5 -2.5
v -0.8 0.5 -2.6
v -0.3 0 -2.1
v -0.3 0 -2.3
v -0.3 0 -2.4
v -0.3 0 -2.6
v -0.3 0.1 -2.1
v -0.3 0.1 -2.2
v -0.3 0.1 -2.3
v -0.3 0.1 -2.4
v -0.3 0.1 -2.5
v -0.3 0.1 -2.6
v -0.3 0.2 -2.1
v -0.3 0.2 -2.2
v -0.3 0.2 -2.3
v -0.3 0.2 -2.4
v -0.3 0.2 -2.5
v -0.3 0.2 -2.6
v -0.3 0.3 -2.1
v -0.3 0.3 -2.2
v -0.3 0.3 -2.3
v -0.3 0.3 -2.4
v -0.3 0.3 -2.5
v -0.3 0.3 -2.6
v -0.3 0.4 -2.2
v -0.3 0.4 -2.3
v -0.3 0.4 -2.4
v -0.3 0.4 -2.5
v -0.3 0.5 -2.1
v -0.3 0.5 -2.2
v -0.3 0.5 -2.5
v -0.3 0.5 -2.6
v -0.8 0 -2.1
v -0.8 0.1 -2.1
v -0.8 0.2 -2.1
v -0.8 0.3 -2.1
v -0.8 0.5 -2.1
v -0.7 0.1 -2.1
v -0.7 0.2 -2.1
v -0.7 0.3 -2.1
v -0.7 0.4 -2.1
v -0.7 0.5 -2.1
v -0.6 0 -2.1
v -0.6 0.1 -2.1
v -0.6 0.2 -2.1
v -0.6 0.3 -2.1
v -0.6 0.4 -2.1
v -0.6 0.5 -2.1
v -0.5 0 -2.1
v -0.5 0.1 -2.1
v -0.5 0.2 -2.1
v -0.5 0.3 -2.1
v -0.5 0.4 -2.1
v -0.5 0.5 -2.1
v -0.4 0.1 -2.1
v -0.4 0.2 -2.1
v -0.4 0.3 -2.1
v -0.4 0.4 -2.1
v -0.4 0.5 -2.1
v -0.3 0 -2.1
v -0.3 0.1 -2.1
v -0.3 0.2 -2.1
v -0.3 0.3 -2.1
v -0.3 0.5 -2.1
v -0.8 0 -2.6
v -0.8 0.1 -2.6
v -0.8 0.2 -2.6
v -0.8 0.3 -2.6
v -0.8 0.5 -2.6
v -0.7 0.1 -2.6
v -0.7 0.2 -2.6
v -0.7 0.3 -2.6
v -0.7 0.4 -2.6
v -0.7 0.5 -2.6
v -0.6 0 -2.6
v -0.6 0.1 -2.6
v -0.6 0.2 -2.6
v -0.6 0.3 -2.6
v -0.6 0.4 -2.6
v -0.5 0 -2.6
v -0.5 0.1 -2.6
v -0.5 0.2 -2.6
v -0.5 0.3 -2.6
v -0.5 0.4 -2.6
v -0.5 0.5 -2.6
v -0.4 0.1 -2.6
v -0.4 0.2 -2.6
v -0.4 0.3 -2.6
v -0.4 0.4 -2.6
v -0.3 0 -2.6
v -0.3 0.1 -2.6
v -0.3 0.2 -2.6
v -0.3 0.3 -2.6
v -0.3 0.5 -2.6
v -0.8 0 -2.1
v -0.6 0 -2.1
v -0.5 0 -2.1
v -0.3 0 -2.1
v -0.7 0 -2.2
v -0.6 0 -2.2
v -0.5 0 -2.2
v -0.4 0 -2.2
v -0.8 0 -2.3
v -0.7 0 -2.3
v -0.6 0 -2.3
v -0.4 0 -2.3
v -0.3 0 -2.3
v -0.8 0 -2.4
v -0.7 0 -2.4
v -0.6 0 -2.4
v -0.4 0 -2.4
v -0.3 0 -2.4
v -0.7 0 -2.5
v -0.6 0 -2.5
v -0.5 0 -2.5
v -0.4 0 -2.5
v -0.8 0 -2.6
v -0.6 0 -2.6
v -0.5 0 -2.6
v -0.3 0 -2.6
v -0.8 0.5 -2.1
v -0.7 0.5 -2.1
v -0.6 0.5 -2.1
v -0.5 0.5 -2.1
v -0.4 0.5 -2.1
v -0.3 0.5 -2.1
v -0.8 0.5 -2.2
v -0.7 0.5 -2.2
v -0.6 0.5 -2.2
v -0.5 0.5 -2.2
v -0.4 0.5 -2.2
v -0.3 0.5 -2.2
v -0.7 0.5 -2.3
v -0.6 0.5 -2.3
v -0.5 0.5 -2.3
v -0.4 0.5 -2.3
v -0.7 0.5 -2.4
v -0.6 0.5 -2.4
v -0.5 0.5 -2.4
v -0.4 0.5 -2.4
v -0.8 0.5 -2.5
v -0.7 0.5 -2.5
v -0.6 0.5 -2.5
v -0.5 0.5 -2.5
v -0.4 0.5 -2.5
v -0.3 0.5 -2.5
v -0.8 0.5 -2.6
v -0.7 0.5 -2.6
v -0.5 0.5 -2.6
v -0.3 0.5 -2.6

# faces
f 5/3/1 2/3/1 1/3/1
f 6/3/1 2/3/1 5/3/1
f 7/4/1 3/4/1 2/4/1
f 7/3/1 2/3/1 6/3/1
f 8/3/1 4/3/1 3/3/1
f 8/4/1 3/4/1 7/4/1
f 9/3/1 4/3/1 8/3/1
f 10/3/1 4/3/1 9/3/1
f 11/4/1 6/4/1 5/4/1
f 12/1/1 7/1/1 6/1/1
f 12/4/1 6/4/1 11/4/1
f 13/2/1 8/2/1 7/2/1
f 13/1/1 7/1/1 12/1/1
f 14/1/1 9/1/1 8/1/1
f 14/2/1 8/2/1 13/2/1
f 15/4/1 10/4/1 9/4/1
f 15/1/1 9/1/1 14/1/1
f 16/4/1 10/4/1 15/4/1
f 17/3/1 12/3/1 11/3/1
f 18/4/1 13/4/1 12/4/1
f 18/3/1 12/3/1 17/3/1
f 19/3/1 14/3/1 13/3/1
f 19/4/1 13/4/1 18/4/1
f 20/4/1 15/4/1 14/4/1
f 20/3/1 14/3/1 19/3/1
f 21/3/1 16/3/1 15/3/1
f 21/4/1 15/4/1 20/4/1
f 22/3/1 16/3/1 21/3/1
f 23/4/1 18/4/1 17/4/1
f 23/1/1 19/1/1 18/1/1
f 24/2/1 20/2/1 19/2/1
f 24/1/1 19/1/1 23/1/1
f 25/1/1 21/1/1 20/1/1
f 25/2/1 20/2/1 24/2/1
f 26/4/1 22/4/1 21/4/1
f 26/1/1 21/1/1 25/1/1
f 27/4/1 23/4/1 17/4/1
f 28/3/1 25/3/1 24/3/1
f 28/4/1 23/4/1 27/4/1
f 28/3/1 24/3/1 23/3/1
f 28/3/1 26/3/1 25/3/1
f 29/4/1 22/4/1 26/4/1
f 29/3/1 26/3/1 28/3/1
f 30/4/1 22/4/1 29/4/1
f 31/3/2 32/3/2 35/3/2
f 35/3/2 32/3/2 36/3/2
f 32/4/2 33/4/2 37/4/2
f 36/3/2 32/3/2 37/3/2
f 33/3/2 34/3/2 38/3/2
f 37/4/2 33/4/2 38/4/2
f 38/3/2 34/3/2 39/3/2
f 39/3/2 34/3/2 40/3/2
f 35/4/2 36/4/2 41/4/2
f 36/1/2 37/1/2 42/1/2
f 41/4/2 36/4/2 42/4/2
f 37/2/2 38/2/2 43/2/2
f 42/1/2 37/1/2 43/1/2
f 38/1/2 39/1/2 44/1/2
f 43/2/2 38/2/2 44/2/2
f 39/4/2 40/4/2 45/4/2
f 44/1/2 39/1/2 45/1/2
f 45/4/2 40/4/2 46/4/2
f 41/3/2 42/3/2 47/3/2
f 42/4/2 43/4/2 48/4/2
f 47/3/2 42/3/2 48/3/2
f 43/3/2 44/3/2 49/3/2
f 48/4/2 43/4/2 49/4/2
f 44/4/2 45/4/2 50/4/2
f 49/3/2 44/3/2 50/3/2
f 45/3/2 46/3/2 51/3/2
f 50/4/2 45/4/2 51/4/2
f 51/3/2 46/3/2 52/3/2
f 47/4/2 48/4/2 53/4/2
f 48/1/2 49/1/2 53/1/2
f 49/2/2 50/2/2 54/2/2
f 53/1/2 49/1/2 54/1/2
f 50/1/2 51/1/2 55/1/2
f 54/2/2 50/2/2 55/2/2
f 51/4/2 52/4/2 56/4/2
f 55/1/2 51/1/2 56/1/2
f 47/4/2 53/4/2 57/4/2
f 54/3/2 55/3/2 58/3/2
f 57/4/2 53/4/2 58/4/2
f 53/3/2 54/3/2 58/3/2
f 55/3/2 56/3/2 58/3/2
f 56/4/2 52/4/2 59/4/2
f 58/3/2 56/3/2 59/3/2
f 59/4/2 52/4/2 60/4/2
f 66/3/3 62/3/3 61/3/3
f 66/4/3 63/4/3 62/4/3
f 67/3/3 64/3/3 63/3/3
f 67/4/3 63/4/3 66/4/3
f 68/4/3 65/4/3 64/4/3
f 68/3/3 64/3/3 67/3/3
f 69/4/3 65/4/3 68/4/3
f 70/4/3 65/4/3 69/4/3
f 71/3/3 66/3/3 61/3/3
f 72/1/3 67/1/3 66/1/3
f 72/3/3 66/3/3 71/3/3
f 73/4/3 68/4/3 67/4/3
f 73/1/3 67/1/3 72/1/3
f 74/1/3 69/1/3 68/1/3
f 74/4/3 68/4/3 73/4/3
f 75/3/3 70/3/3 69/3/3
f 75/1/3 69/1/3 74/1/3
f 76/3/3 70/3/3 75/3/3
f 77/4/3 72/4/3 71/4/3
f 78/2/3 73/2/3 72/2/3
f 78/4/3 72/4/3 77/4/3
f 79/3/3 74/3/3 73/3/3
f 79/2/3 73/2/3 78/2/3
f 80/2/3 75/2/3 74/2/3
f 80/3/3 74/3/3 79/3/3
f 81/4/3 76/4/3 75/4/3
f 81/2/3 75/2/3 80/2/3
f 82/4/3 76/4/3 81/4/3
f 83/3/3 78/3/3 77/3/3
f 83/1/3 79/1/3 78/1/3
f 84/4/3 80/4/3 79/4/3
f 84/1/3 79/1/3 83/1/3
f 85/1/3 81/1/3 80/1/3
f 85/4/3 80/4/3 84/4/3
f 86/3/3 82/3/3 81/3/3
f 86/1/3 81/1/3 85/1/3
f 87/3/3 82/3/3 86/3/3
f 88/3/3 83/3/3 77/3/3
f 89/4/3 84/4/3 83/4/3
f 89/3/3 83/3/3 88/3/3
f 90/3/3 85/3/3 84/3/3
f 90/4/3 84/4/3 89/4/3
f 91/4/3 86/4/3 85/4/3
f 91/3/3 85/3/3 90/3/3
f 91/4/3 87/4/3 86/4/3
f 92/4/3 87/4/3 91/4/3
f 93/3/4 94/3/4 98/3/4
f 94/4/4 95/4/4 98/4/4
f 95/3/4 96/3/4 99/3/4
f 98/4/4 95/4/4 99/4/4
f 96/4/4 97/4/4 100/4/4
f 99/3/4 96/3/4 100/3/4
f 100/4/4 97/4/4 101/4/4
f 101/4/4 97/4/4 102/4/4
f 93/3/4 98/3/4 103/3/4
f 98/1/4 99/1/4 104/1/4
f 103/3/4 98/3/4 104/3/4
f 99/4/4 100/4/4 105/4/4
f 104/1/4 99/1/4 105/1/4
f 100/1/4 101/1/4 106/1/4
f 105/4/4 100/4/4 106/4/4
f 101/3/4 102/3/4 107/3/4
f 106/1/4 101/1/4 107/1/4
f 103/4/4 104/4/4 108/4/4
f 104/2/4 105/2/4 109/2/4
f 108/4/4 104/4/4 109/4/4
f 105/3/4 106/3/4 110/3/4
f 109/2/4 105/2/4 110/2/4
f 106/2/4 107/2/4 111/2/4
f 110/3/4 106/3/4 111/3/4
f 107/3/4 102/3/4 112/3/4
f 111/2/4 107/2/4 112/2/4
f 112/3/4 102/3/4 113/3/4
f 108/3/4 109/3/4 114/3/4
f 109/1/4 110/1/4 114/1/4
f 110/4/4 111/4/4 115/4/4
f 114/1/4 110/1/4 115/1/4
f 111/1/4 112/1/4 116/1/4
f 115/4/4 111/4/4 116/4/4
f 112/4/4 113/4/4 117/4/4
f 116/1/4 112/1/4 117/1/4
f 108/3/4 114/3/4 118/3/4
f 114/4/4 115/4/4 119/4/4
f 118/3/4 114/3/4 119/3/4
f 115/3/4 116/3/4 120/3/4
f 119/4/4 115/4/4 120/4/4
f 116/4/4 117/4/4 121/4/4
f 120/3/4 116/3/4 121/3/4
f 117/4/4 113/4/4 122/4/4
f 121/4/4 117/4/4 122/4/4
f 127/3/5 124/3/5 123/3/5
f 128/4/5 125/4/5 124/4/5
f 128/3/5 124/3/5 127/3/5
f 129/3/5 126/3/5 125/3/5
f 129/4/5 125/4/5 128/4/5
f 130/3/5 126/3/5 129/3/5
f 131/3/5 127/3/5 123/3/5
f 132/1/5 128/1/5 127/1/5
f 132/3/5 127/3/5 131/3/5
f 133/3/5 129/3/5 128/3/5
f 133/1/5 128/1/5 132/1/5
f 134/3/5 126/3/5 130/3/5
f 134/2/5 130/2/5 129/2/5
f 135/3/5 126/3/5 134/3/5
f 136/4/5 132/4/5 131/4/5
f 137/2/5 133/2/5 132/2/5
f 137/4/5 132/4/5 136/4/5
f 138/3/5 129/3/5 133/3/5
f 138/2/5 133/2/5 137/2/5
f 139/2/5 134/2/5 129/2/5
f 139/4/5 135/4/5 134/4/5
f 140/4/5 135/4/5 139/4/5
f 141/3/5 137/3/5 136/3/5
f 141/1/5 138/1/5 137/1/5
f 142/3/5 129/3/5 138/3/5
f 142/1/5 138/1/5 141/1/5
f 143/2/5 139/2/5 129/2/5
f 143/3/5 129/3/5 142/3/5
f 144/3/5 140/3/5 139/3/5
f 144/2/5 139/2/5 143/2/5
f 145/3/5 141/3/5 136/3/5
f 145/3/5 142/3/5 141/3/5
f 146/4/5 143/4/5 142/4/5
f 146/3/5 142/3/5 145/3/5
f 147/3/5 144/3/5 143/3/5
f 147/4/5 143/4/5 146/4/5
f 148/3/5 140/3/5 144/3/5
f 148/3/5 144/3/5 147/3/5
f 149/4/6 150/4/6 155/4/6
f 150/3/6 151/3/6 156/3/6
f 155/4/6 150/4/6 156/4/6
f 151/4/6 152/4/6 157/4/6
f 156/3/6 151/3/6 157/3/6
f 152/3/6 153/3/6 158/3/6
f 157/4/6 152/4/6 158/4/6
f 153/4/6 154/4/6 159/4/6
f 158/3/6 153/3/6 159/3/6
f 159/4/6 154/4/6 160/4/6
f 155/3/6 156/3/6 161/3/6
f 156/1/6 157/1/6 161/1/6
f 157/4/6 158/4/6 162/4/6
f 161/1/6 157/1/6 162/1/6
f 158/1/6 159/1/6 163/1/6
f 162/4/6 158/4/6 163/4/6
f 159/3/6 160/3/6 164/3/6
f 163/1/6 159/1/6 164/1/6
f 155/3/6 161/3/6 165/3/6
f 161/2/6 162/2/6 165/2/6
f 162/3/6 163/3/6 166/3/6
f 165/2/6 162/2/6 166/2/6
f 163/2/6 164/2/6 167/2/6
f 166/3/6 163/3/6 167/3/6
f 164/3/6 160/3/6 168/3/6
f 167/2/6 164/2/6 168/2/6
f 155/3/6 165/3/6 169/3/6
f 165/1/6 166/1/6 170/1/6
f 169/3/6 165/3/6 170/3/6
f 166/4/6 167/4/6 171/4/6
f 170/1/6 166/1/6 171/1/6
f 167/1/6 168/1/6 172/1/6
f 171/4/6 167/4/6 172/4/6
f 168/3/6 160/3/6 173/3/6
f 172/1/6 168/1/6 173/1/6
f 173/3/6 160/3/6 174/3/6
f 169/4/6 170/4/6 175/4/6
f 171/3/6 172/3/6 176/3/6
f 175/4/6 170/4/6 176/4/6
f 170/3/6 171/3/6 176/3/6
f 173/4/6 174/4/6 177/4/6
f 176/3/6 172/3/6 177/3/6
f 172/4/6 173/4/6 177/4/6
f 177/4/6 174/4/6 178/4/6
