# MagicaVoxel @ Ephtracy

# group
o rope

# material
mtllib obj-5-rope.mtl
usemtl palette

# normals
vn -1 0 0
vn 1 0 0
vn 0 0 1
vn 0 0 -1
vn 0 -1 0
vn 0 1 0

# texcoords
vt 0.357422 0.5
vt 0.392578 0.5

# verts
v -0.4 0 0.6
v -0.4 0 0.3
v -0.4 0.1 0.6
v -0.4 0.1 0.3
v -0.3 0 0.8
v -0.3 0 0.7
v -0.3 0 0.6
v -0.3 0 0.3
v -0.3 0 0.2
v -0.3 0.1 0.8
v -0.3 0.1 0.7
v -0.3 0.1 0.6
v -0.3 0.1 0.5
v -0.3 0.1 0.4
v -0.3 0.1 0.3
v -0.3 0.1 0.2
v -0.3 0.2 0.5
v -0.3 0.2 0.4
v -0.3 0.2 0.3
v -0.2 0 0.9
v -0.2 0 0.8
v -0.2 0.1 0.9
v -0.2 0.1 0.8
v -0.2 0.1 0.6
v -0.2 0.1 0.5
v -0.2 0.2 0.6
v -0.2 0.2 0.5
v -0.1 0 0.5
v -0.1 0 0.4
v -0.1 0.1 0.5
v -0.1 0.1 0.4
v -0.1 0.2 0.5
v -0.1 0.2 0.4
v 0.2 0 0.8
v 0.2 0 0.7
v 0.2 0.1 0.8
v 0.2 0.1 0.7
v -0.2 0 0.8
v -0.2 0 0.7
v -0.2 0 0.5
v -0.2 0 0.4
v -0.2 0.1 0.8
v -0.2 0.1 0.7
v -0.2 0.1 0.5
v -0.2 0.1 0.4
v -0.2 0.2 0.5
v -0.2 0.2 0.4
v 0 0 0.7
v 0 0 0.6
v 0 0.1 0.7
v 0 0.1 0.6
v 0 0.1 0.5
v 0 0.1 0.4
v 0 0.1 0.3
v 0 0.2 0.6
v 0 0.2 0.5
v 0 0.2 0.4
v 0 0.2 0.3
v 0.1 0 0.6
v 0.1 0 0.5
v 0.1 0 0.4
v 0.1 0 0.3
v 0.1 0 0.2
v 0.1 0.1 0.6
v 0.1 0.1 0.5
v 0.1 0.1 0.4
v 0.1 0.1 0.3
v 0.1 0.1 0.2
v 0.1 0.2 0.5
v 0.1 0.2 0.4
v 0.2 0 0.9
v 0.2 0 0.8
v 0.2 0 0.5
v 0.2 0 0.4
v 0.2 0.1 0.9
v 0.2 0.1 0.8
v 0.2 0.1 0.5
v 0.2 0.1 0.4
v 0.3 0 0.8
v 0.3 0 0.7
v 0.3 0.1 0.8
v 0.3 0.1 0.7
v -0.2 0 0.9
v -0.2 0.1 0.9
v -0.1 0 0.9
v -0.1 0.1 0.9
v 0 0 0.9
v 0 0.1 0.9
v 0.1 0 0.9
v 0.1 0.1 0.9
v 0.2 0 0.9
v 0.2 0.1 0.9
v -0.3 0 0.8
v -0.3 0.1 0.8
v -0.2 0 0.8
v -0.2 0.1 0.8
v 0.2 0 0.8
v 0.2 0.1 0.8
v 0.3 0 0.8
v 0.3 0.1 0.8
v -0.2 0 0.7
v -0.2 0.1 0.7
v 0 0 0.7
v 0 0.1 0.7
v -0.4 0 0.6
v -0.4 0.1 0.6
v -0.3 0 0.6
v -0.3 0.1 0.6
v -0.2 0.1 0.6
v -0.2 0.2 0.6
v -0.1 0.1 0.6
v -0.1 0.2 0.6
v 0 0 0.6
v 0 0.1 0.6
v 0 0.2 0.6
v 0.1 0 0.6
v 0.1 0.1 0.6
v -0.3 0.1 0.5
v -0.3 0.2 0.5
v -0.2 0.1 0.5
v -0.2 0.2 0.5
v 0 0.1 0.5
v 0 0.2 0.5
v 0.1 0 0.5
v 0.1 0.1 0.5
v 0.1 0.2 0.5
v 0.2 0 0.5
v 0.2 0.1 0.5
v -0.2 0 0.4
v -0.2 0.1 0.4
v -0.2 0.2 0.4
v -0.1 0 0.4
v -0.1 0.1 0.4
v -0.1 0.2 0.4
v -0.2 0 0.8
v -0.2 0.1 0.8
v -0.1 0 0.8
v -0.1 0.1 0.8
v 0 0 0.8
v 0 0.1 0.8
v 0.1 0 0.8
v 0.1 0.1 0.8
v 0.2 0 0.8
v 0.2 0.1 0.8
v 0.2 0 0.7
v 0.2 0.1 0.7
v 0.3 0 0.7
v 0.3 0.1 0.7
v -0.2 0 0.5
v -0.2 0.1 0.5
v -0.2 0.2 0.5
v -0.1 0 0.5
v -0.1 0.1 0.5
v -0.1 0.2 0.5
v 0 0.1 0.4
v 0 0.2 0.4
v 0.1 0 0.4
v 0.1 0.1 0.4
v 0.1 0.2 0.4
v 0.2 0 0.4
v 0.2 0.1 0.4
v -0.4 0 0.3
v -0.4 0.1 0.3
v -0.3 0 0.3
v -0.3 0.1 0.3
v -0.3 0.2 0.3
v -0.1 0.1 0.3
v -0.1 0.2 0.3
v 0 0.1 0.3
v 0 0.2 0.3
v -0.3 0 0.2
v -0.3 0.1 0.2
v 0 0 0.2
v 0 0.1 0.2
v 0.1 0 0.2
v 0.1 0.1 0.2
v -0.2 0 0.9
v -0.1 0 0.9
v 0 0 0.9
v 0.1 0 0.9
v 0.2 0 0.9
v -0.3 0 0.8
v -0.2 0 0.8
v -0.1 0 0.8
v 0 0 0.8
v 0.1 0 0.8
v 0.2 0 0.8
v 0.3 0 0.8
v -0.3 0 0.7
v -0.2 0 0.7
v 0 0 0.7
v 0.2 0 0.7
v 0.3 0 0.7
v -0.4 0 0.6
v -0.3 0 0.6
v -0.2 0 0.6
v 0 0 0.6
v 0.1 0 0.6
v -0.3 0 0.5
v -0.2 0 0.5
v -0.1 0 0.5
v 0 0 0.5
v 0.1 0 0.5
v 0.2 0 0.5
v -0.2 0 0.4
v -0.1 0 0.4
v 0 0 0.4
v 0.1 0 0.4
v 0.2 0 0.4
v -0.4 0 0.3
v -0.3 0 0.3
v 0 0 0.3
v 0.1 0 0.3
v -0.3 0 0.2
v 0 0 0.2
v 0.1 0 0.2
v -0.2 0.1 0.9
v -0.1 0.1 0.9
v 0 0.1 0.9
v 0.1 0.1 0.9
v 0.2 0.1 0.9
v -0.3 0.1 0.8
v -0.2 0.1 0.8
v -0.1 0.1 0.8
v 0 0.1 0.8
v 0.1 0.1 0.8
v 0.2 0.1 0.8
v 0.3 0.1 0.8
v -0.3 0.1 0.7
v -0.2 0.1 0.7
v 0 0.1 0.7
v 0.2 0.1 0.7
v 0.3 0.1 0.7
v -0.4 0.1 0.6
v -0.3 0.1 0.6
v -0.2 0.1 0.6
v -0.1 0.1 0.6
v 0 0.1 0.6
v 0.1 0.1 0.6
v -0.3 0.1 0.5
v -0.2 0.1 0.5
v 0 0.1 0.5
v 0.1 0.1 0.5
v 0.2 0.1 0.5
v -0.3 0.1 0.4
v 0 0.1 0.4
v 0.1 0.1 0.4
v 0.2 0.1 0.4
v -0.4 0.1 0.3
v -0.3 0.1 0.3
v -0.1 0.1 0.3
v 0 0.1 0.3
v 0.1 0.1 0.3
v -0.3 0.1 0.2
v 0 0.1 0.2
v 0.1 0.1 0.2
v -0.2 0.2 0.6
v -0.1 0.2 0.6
v 0 0.2 0.6
v -0.3 0.2 0.5
v -0.2 0.2 0.5
v -0.1 0.2 0.5
v 0 0.2 0.5
v 0.1 0.2 0.5
v -0.3 0.2 0.4
v -0.2 0.2 0.4
v -0.1 0.2 0.4
v 0 0.2 0.4
v 0.1 0.2 0.4
v -0.3 0.2 0.3
v -0.1 0.2 0.3
v 0 0.2 0.3

# faces
f 3/1/1 2/1/1 1/1/1
f 4/1/1 2/1/1 3/1/1
f 10/2/1 6/2/1 5/2/1
f 11/1/1 7/1/1 6/1/1
f 11/2/1 6/2/1 10/2/1
f 12/1/1 7/1/1 11/1/1
f 15/1/1 9/1/1 8/1/1
f 16/1/1 9/1/1 15/1/1
f 17/1/1 14/1/1 13/1/1
f 18/2/1 15/2/1 14/2/1
f 18/1/1 14/1/1 17/1/1
f 19/2/1 15/2/1 18/2/1
f 22/1/1 21/1/1 20/1/1
f 23/1/1 21/1/1 22/1/1
f 26/1/1 25/1/1 24/1/1
f 27/1/1 25/1/1 26/1/1
f 30/2/1 29/2/1 28/2/1
f 31/2/1 29/2/1 30/2/1
f 32/1/1 31/1/1 30/1/1
f 33/1/1 31/1/1 32/1/1
f 36/2/1 35/2/1 34/2/1
f 37/2/1 35/2/1 36/2/1
f 38/2/2 39/2/2 42/2/2
f 42/2/2 39/2/2 43/2/2
f 40/2/2 41/2/2 44/2/2
f 44/2/2 41/2/2 45/2/2
f 44/1/2 45/1/2 46/1/2
f 46/1/2 45/1/2 47/1/2
f 48/1/2 49/1/2 50/1/2
f 50/1/2 49/1/2 51/1/2
f 51/2/2 52/2/2 55/2/2
f 55/2/2 52/2/2 56/2/2
f 53/1/2 54/1/2 57/1/2
f 57/1/2 54/1/2 58/1/2
f 59/1/2 60/1/2 64/1/2
f 64/1/2 60/1/2 65/1/2
f 61/1/2 62/1/2 66/1/2
f 62/2/2 63/2/2 67/2/2
f 66/1/2 62/1/2 67/1/2
f 67/2/2 63/2/2 68/2/2
f 65/1/2 66/1/2 69/1/2
f 69/1/2 66/1/2 70/1/2
f 71/2/2 72/2/2 75/2/2
f 75/2/2 72/2/2 76/2/2
f 73/2/2 74/2/2 77/2/2
f 77/2/2 74/2/2 78/2/2
f 79/2/2 80/2/2 81/2/2
f 81/2/2 80/2/2 82/2/2
f 85/1/3 84/1/3 83/1/3
f 86/1/3 84/1/3 85/1/3
f 87/2/3 86/2/3 85/2/3
f 88/2/3 86/2/3 87/2/3
f 89/1/3 88/1/3 87/1/3
f 90/1/3 88/1/3 89/1/3
f 91/2/3 90/2/3 89/2/3
f 92/2/3 90/2/3 91/2/3
f 95/2/3 94/2/3 93/2/3
f 96/2/3 94/2/3 95/2/3
f 99/2/3 98/2/3 97/2/3
f 100/2/3 98/2/3 99/2/3
f 103/1/3 102/1/3 101/1/3
f 104/1/3 102/1/3 103/1/3
f 107/1/3 106/1/3 105/1/3
f 108/1/3 106/1/3 107/1/3
f 111/1/3 110/1/3 109/1/3
f 112/1/3 110/1/3 111/1/3
f 114/2/3 112/2/3 111/2/3
f 115/2/3 112/2/3 114/2/3
f 116/1/3 114/1/3 113/1/3
f 117/1/3 114/1/3 116/1/3
f 120/1/3 119/1/3 118/1/3
f 121/1/3 119/1/3 120/1/3
f 125/1/3 123/1/3 122/1/3
f 126/1/3 123/1/3 125/1/3
f 127/2/3 125/2/3 124/2/3
f 128/2/3 125/2/3 127/2/3
f 132/2/3 130/2/3 129/2/3
f 132/2/3 131/2/3 130/2/3
f 133/2/3 131/2/3 132/2/3
f 134/2/3 131/2/3 133/2/3
f 135/1/4 136/1/4 137/1/4
f 137/1/4 136/1/4 138/1/4
f 137/2/4 138/2/4 139/2/4
f 139/2/4 138/2/4 140/2/4
f 139/1/4 140/1/4 141/1/4
f 141/1/4 140/1/4 142/1/4
f 141/2/4 142/2/4 143/2/4
f 143/2/4 142/2/4 144/2/4
f 145/2/4 146/2/4 147/2/4
f 147/2/4 146/2/4 148/2/4
f 149/2/4 150/2/4 152/2/4
f 150/1/4 151/1/4 153/1/4
f 152/2/4 150/2/4 153/2/4
f 153/1/4 151/1/4 154/1/4
f 155/1/4 156/1/4 158/1/4
f 158/1/4 156/1/4 159/1/4
f 157/2/4 158/2/4 160/2/4
f 160/2/4 158/2/4 161/2/4
f 162/1/4 163/1/4 164/1/4
f 164/1/4 163/1/4 165/1/4
f 165/2/4 166/2/4 167/2/4
f 167/2/4 166/2/4 168/2/4
f 167/1/4 168/1/4 169/1/4
f 169/1/4 168/1/4 170/1/4
f 171/1/4 172/1/4 173/1/4
f 173/1/4 172/1/4 174/1/4
f 173/2/4 174/2/4 175/2/4
f 175/2/4 174/2/4 176/2/4
f 183/1/5 178/1/5 177/1/5
f 184/2/5 179/2/5 178/2/5
f 184/1/5 178/1/5 183/1/5
f 185/1/5 180/1/5 179/1/5
f 185/2/5 179/2/5 184/2/5
f 186/2/5 181/2/5 180/2/5
f 186/1/5 180/1/5 185/1/5
f 187/2/5 181/2/5 186/2/5
f 189/2/5 183/2/5 182/2/5
f 190/2/5 183/2/5 189/2/5
f 192/2/5 188/2/5 187/2/5
f 193/2/5 188/2/5 192/2/5
f 195/1/5 191/1/5 190/1/5
f 195/1/5 190/1/5 189/1/5
f 196/1/5 191/1/5 195/1/5
f 197/1/5 191/1/5 196/1/5
f 199/1/5 195/1/5 194/1/5
f 199/1/5 196/1/5 195/1/5
f 200/2/5 197/2/5 196/2/5
f 200/1/5 196/1/5 199/1/5
f 201/2/5 197/2/5 200/2/5
f 202/1/5 198/1/5 197/1/5
f 202/2/5 197/2/5 201/2/5
f 203/1/5 198/1/5 202/1/5
f 205/2/5 200/2/5 199/2/5
f 206/2/5 204/2/5 203/2/5
f 206/2/5 203/2/5 202/2/5
f 206/2/5 202/2/5 201/2/5
f 207/2/5 204/2/5 206/2/5
f 208/2/5 204/2/5 207/2/5
f 209/2/5 204/2/5 208/2/5
f 210/1/5 199/1/5 194/1/5
f 211/2/5 205/2/5 199/2/5
f 211/1/5 199/1/5 210/1/5
f 211/2/5 206/2/5 205/2/5
f 211/2/5 207/2/5 206/2/5
f 212/1/5 208/1/5 207/1/5
f 212/2/5 207/2/5 211/2/5
f 213/1/5 208/1/5 212/1/5
f 214/1/5 212/1/5 211/1/5
f 215/2/5 213/2/5 212/2/5
f 215/1/5 212/1/5 214/1/5
f 216/2/5 213/2/5 215/2/5
f 217/1/6 218/1/6 223/1/6
f 218/2/6 219/2/6 224/2/6
f 223/1/6 218/1/6 224/1/6
f 219/1/6 220/1/6 225/1/6
f 224/2/6 219/2/6 225/2/6
f 220/2/6 221/2/6 226/2/6
f 225/1/6 220/1/6 226/1/6
f 226/2/6 221/2/6 227/2/6
f 222/2/6 223/2/6 229/2/6
f 229/2/6 223/2/6 230/2/6
f 227/2/6 228/2/6 232/2/6
f 232/2/6 228/2/6 233/2/6
f 230/1/6 231/1/6 235/1/6
f 229/1/6 230/1/6 235/1/6
f 235/1/6 231/1/6 236/1/6
f 236/1/6 231/1/6 237/1/6
f 237/1/6 231/1/6 238/1/6
f 234/1/6 235/1/6 240/1/6
f 235/1/6 236/1/6 240/1/6
f 240/1/6 236/1/6 241/1/6
f 238/1/6 239/1/6 242/1/6
f 242/1/6 239/1/6 243/1/6
f 234/1/6 240/1/6 245/1/6
f 243/2/6 244/2/6 247/2/6
f 247/2/6 244/2/6 248/2/6
f 234/1/6 245/1/6 249/1/6
f 249/1/6 245/1/6 250/1/6
f 246/1/6 247/1/6 252/1/6
f 252/1/6 247/1/6 253/1/6
f 250/1/6 251/1/6 254/1/6
f 251/1/6 252/1/6 254/1/6
f 252/2/6 253/2/6 255/2/6
f 254/1/6 252/1/6 255/1/6
f 255/2/6 253/2/6 256/2/6
f 257/1/6 258/1/6 261/1/6
f 258/2/6 259/2/6 262/2/6
f 261/1/6 258/1/6 262/1/6
f 262/2/6 259/2/6 263/2/6
f 260/1/6 261/1/6 265/1/6
f 265/1/6 261/1/6 266/1/6
f 263/1/6 264/1/6 267/1/6
f 262/1/6 263/1/6 267/1/6
f 267/1/6 264/1/6 268/1/6
f 268/1/6 264/1/6 269/1/6
f 265/2/6 266/2/6 270/2/6
f 266/2/6 267/2/6 270/2/6
f 267/1/6 268/1/6 271/1/6
f 270/2/6 267/2/6 271/2/6
f 271/1/6 268/1/6 272/1/6
