# MagicaVoxel @ Ephtracy

# group
o barrel

# material
mtllib obj-8-barrel.mtl
usemtl palette

# normals
vn -1 0 0
vn 1 0 0
vn 0 0 1
vn 0 0 -1
vn 0 -1 0
vn 0 1 0

# texcoords
vt 0.177734 0.5
vt 0.224609 0.5
vt 0.978516 0.5
vt 0.982422 0.5

# verts
v 0 0 -2.1
v 0 0 -2.2
v 0 0 -2.3
v 0 0 -2.4
v 0 0.1 -2
v 0 0.1 -2.1
v 0 0.1 -2.2
v 0 0.1 -2.3
v 0 0.1 -2.4
v 0 0.1 -2.5
v 0 0.3 -2
v 0 0.3 -2.1
v 0 0.3 -2.2
v 0 0.3 -2.3
v 0 0.3 -2.4
v 0 0.3 -2.5
v 0 0.4 -2
v 0 0.4 -2.1
v 0 0.4 -2.2
v 0 0.4 -2.3
v 0 0.4 -2.4
v 0 0.4 -2.5
v 0 0.5 -2
v 0 0.5 -2.1
v 0 0.5 -2.2
v 0 0.5 -2.3
v 0 0.5 -2.4
v 0 0.5 -2.5
v 0 0.6 -2.1
v 0 0.6 -2.2
v 0 0.6 -2.3
v 0 0.6 -2.4
v 0.1 0 -2
v 0.1 0 -2.1
v 0.1 0 -2.4
v 0.1 0 -2.5
v 0.1 0.1 -2
v 0.1 0.1 -2.1
v 0.1 0.1 -2.4
v 0.1 0.1 -2.5
v 0.1 0.5 -2
v 0.1 0.5 -2.1
v 0.1 0.5 -2.4
v 0.1 0.5 -2.5
v 0.1 0.6 -2
v 0.1 0.6 -2.1
v 0.1 0.6 -2.4
v 0.1 0.6 -2.5
v 0.4 0 -2
v 0.4 0 -2.1
v 0.4 0 -2.4
v 0.4 0 -2.5
v 0.4 0.1 -2
v 0.4 0.1 -2.1
v 0.4 0.1 -2.4
v 0.4 0.1 -2.5
v 0.4 0.5 -2
v 0.4 0.5 -2.1
v 0.4 0.5 -2.4
v 0.4 0.5 -2.5
v 0.4 0.6 -2
v 0.4 0.6 -2.1
v 0.4 0.6 -2.4
v 0.4 0.6 -2.5
v 0.5 0 -2.1
v 0.5 0 -2.2
v 0.5 0 -2.3
v 0.5 0 -2.4
v 0.5 0.1 -2
v 0.5 0.1 -2.1
v 0.5 0.1 -2.2
v 0.5 0.1 -2.3
v 0.5 0.1 -2.4
v 0.5 0.1 -2.5
v 0.5 0.3 -2
v 0.5 0.3 -2.1
v 0.5 0.3 -2.2
v 0.5 0.3 -2.3
v 0.5 0.3 -2.4
v 0.5 0.3 -2.5
v 0.5 0.4 -2
v 0.5 0.4 -2.1
v 0.5 0.4 -2.2
v 0.5 0.4 -2.3
v 0.5 0.4 -2.4
v 0.5 0.4 -2.5
v 0.5 0.5 -2
v 0.5 0.5 -2.1
v 0.5 0.5 -2.2
v 0.5 0.5 -2.3
v 0.5 0.5 -2.4
v 0.5 0.5 -2.5
v 0.5 0.6 -2.1
v 0.5 0.6 -2.2
v 0.5 0.6 -2.3
v 0.5 0.6 -2.4
v 0 0.1 -2
v 0 0.3 -2
v 0 0.4 -2
v 0 0.5 -2
v 0.1 0 -2
v 0.1 0.1 -2
v 0.1 0.3 -2
v 0.1 0.4 -2
v 0.1 0.5 -2
v 0.1 0.6 -2
v 0.2 0 -2
v 0.2 0.1 -2
v 0.2 0.3 -2
v 0.2 0.4 -2
v 0.2 0.5 -2
v 0.2 0.6 -2
v 0.3 0 -2
v 0.3 0.1 -2
v 0.3 0.3 -2
v 0.3 0.4 -2
v 0.3 0.5 -2
v 0.3 0.6 -2
v 0.4 0 -2
v 0.4 0.1 -2
v 0.4 0.3 -2
v 0.4 0.4 -2
v 0.4 0.5 -2
v 0.4 0.6 -2
v 0.5 0.1 -2
v 0.5 0.3 -2
v 0.5 0.4 -2
v 0.5 0.5 -2
v 0 0 -2.1
v 0 0.1 -2.1
v 0 0.5 -2.1
v 0 0.6 -2.1
v 0.1 0 -2.1
v 0.1 0.1 -2.1
v 0.1 0.5 -2.1
v 0.1 0.6 -2.1
v 0.4 0 -2.1
v 0.4 0.1 -2.1
v 0.4 0.5 -2.1
v 0.4 0.6 -2.1
v 0.5 0 -2.1
v 0.5 0.1 -2.1
v 0.5 0.5 -2.1
v 0.5 0.6 -2.1
v 0 0 -2.4
v 0 0.1 -2.4
v 0 0.5 -2.4
v 0 0.6 -2.4
v 0.1 0 -2.4
v 0.1 0.1 -2.4
v 0.1 0.5 -2.4
v 0.1 0.6 -2.4
v 0.4 0 -2.4
v 0.4 0.1 -2.4
v 0.4 0.5 -2.4
v 0.4 0.6 -2.4
v 0.5 0 -2.4
v 0.5 0.1 -2.4
v 0.5 0.5 -2.4
v 0.5 0.6 -2.4
v 0 0.1 -2.5
v 0 0.3 -2.5
v 0 0.4 -2.5
v 0 0.5 -2.5
v 0.1 0 -2.5
v 0.1 0.1 -2.5
v 0.1 0.3 -2.5
v 0.1 0.4 -2.5
v 0.1 0.5 -2.5
v 0.1 0.6 -2.5
v 0.2 0 -2.5
v 0.2 0.1 -2.5
v 0.2 0.3 -2.5
v 0.2 0.4 -2.5
v 0.2 0.5 -2.5
v 0.2 0.6 -2.5
v 0.3 0 -2.5
v 0.3 0.1 -2.5
v 0.3 0.3 -2.5
v 0.3 0.4 -2.5
v 0.3 0.5 -2.5
v 0.3 0.6 -2.5
v 0.4 0 -2.5
v 0.4 0.1 -2.5
v 0.4 0.3 -2.5
v 0.4 0.4 -2.5
v 0.4 0.5 -2.5
v 0.4 0.6 -2.5
v 0.5 0.1 -2.5
v 0.5 0.3 -2.5
v 0.5 0.4 -2.5
v 0.5 0.5 -2.5
v 0.1 0 -2
v 0.2 0 -2
v 0.3 0 -2
v 0.4 0 -2
v 0 0 -2.1
v 0.1 0 -2.1
v 0.2 0 -2.1
v 0.3 0 -2.1
v 0.4 0 -2.1
v 0.5 0 -2.1
v 0 0 -2.2
v 0.1 0 -2.2
v 0.4 0 -2.2
v 0.5 0 -2.2
v 0 0 -2.3
v 0.1 0 -2.3
v 0.4 0 -2.3
v 0.5 0 -2.3
v 0 0 -2.4
v 0.1 0 -2.4
v 0.2 0 -2.4
v 0.3 0 -2.4
v 0.4 0 -2.4
v 0.5 0 -2.4
v 0.1 0 -2.5
v 0.2 0 -2.5
v 0.3 0 -2.5
v 0.4 0 -2.5
v 0 0.1 -2
v 0.1 0.1 -2
v 0.4 0.1 -2
v 0.5 0.1 -2
v 0 0.1 -2.1
v 0.1 0.1 -2.1
v 0.4 0.1 -2.1
v 0.5 0.1 -2.1
v 0 0.1 -2.4
v 0.1 0.1 -2.4
v 0.4 0.1 -2.4
v 0.5 0.1 -2.4
v 0 0.1 -2.5
v 0.1 0.1 -2.5
v 0.4 0.1 -2.5
v 0.5 0.1 -2.5
v 0 0.5 -2
v 0.1 0.5 -2
v 0.4 0.5 -2
v 0.5 0.5 -2
v 0 0.5 -2.1
v 0.1 0.5 -2.1
v 0.4 0.5 -2.1
v 0.5 0.5 -2.1
v 0 0.5 -2.4
v 0.1 0.5 -2.4
v 0.4 0.5 -2.4
v 0.5 0.5 -2.4
v 0 0.5 -2.5
v 0.1 0.5 -2.5
v 0.4 0.5 -2.5
v 0.5 0.5 -2.5
v 0.1 0.6 -2
v 0.2 0.6 -2
v 0.3 0.6 -2
v 0.4 0.6 -2
v 0 0.6 -2.1
v 0.1 0.6 -2.1
v 0.2 0.6 -2.1
v 0.3 0.6 -2.1
v 0.4 0.6 -2.1
v 0.5 0.6 -2.1
v 0 0.6 -2.2
v 0.1 0.6 -2.2
v 0.2 0.6 -2.2
v 0.3 0.6 -2.2
v 0.4 0.6 -2.2
v 0.5 0.6 -2.2
v 0 0.6 -2.3
v 0.1 0.6 -2.3
v 0.2 0.6 -2.3
v 0.3 0.6 -2.3
v 0.4 0.6 -2.3
v 0.5 0.6 -2.3
v 0 0.6 -2.4
v 0.1 0.6 -2.4
v 0.2 0.6 -2.4
v 0.3 0.6 -2.4
v 0.4 0.6 -2.4
v 0.5 0.6 -2.4
v 0.1 0.6 -2.5
v 0.2 0.6 -2.5
v 0.3 0.6 -2.5
v 0.4 0.6 -2.5

# faces
f 6/4/1 2/4/1 1/4/1
f 7/3/1 3/3/1 2/3/1
f 7/4/1 2/4/1 6/4/1
f 8/4/1 4/4/1 3/4/1
f 8/3/1 3/3/1 7/3/1
f 9/4/1 4/4/1 8/4/1
f 11/1/1 6/1/1 5/1/1
f 12/2/1 7/2/1 6/2/1
f 12/1/1 6/1/1 11/1/1
f 13/1/1 8/1/1 7/1/1
f 13/2/1 7/2/1 12/2/1
f 14/2/1 9/2/1 8/2/1
f 14/1/1 8/1/1 13/1/1
f 15/1/1 10/1/1 9/1/1
f 15/2/1 9/2/1 14/2/1
f 16/1/1 10/1/1 15/1/1
f 17/4/1 12/4/1 11/4/1
f 18/3/1 14/3/1 13/3/1
f 18/4/1 12/4/1 17/4/1
f 18/3/1 13/3/1 12/3/1
f 18/3/1 15/3/1 14/3/1
f 19/3/1 15/3/1 18/3/1
f 20/3/1 15/3/1 19/3/1
f 21/4/1 16/4/1 15/4/1
f 21/3/1 15/3/1 20/3/1
f 22/4/1 16/4/1 21/4/1
f 23/1/1 18/1/1 17/1/1
f 24/2/1 19/2/1 18/2/1
f 24/1/1 18/1/1 23/1/1
f 25/1/1 20/1/1 19/1/1
f 25/2/1 19/2/1 24/2/1
f 26/2/1 21/2/1 20/2/1
f 26/1/1 20/1/1 25/1/1
f 27/1/1 22/1/1 21/1/1
f 27/2/1 21/2/1 26/2/1
f 28/1/1 22/1/1 27/1/1
f 29/4/1 25/4/1 24/4/1
f 30/3/1 26/3/1 25/3/1
f 30/4/1 25/4/1 29/4/1
f 31/4/1 27/4/1 26/4/1
f 31/3/1 26/3/1 30/3/1
f 32/4/1 27/4/1 31/4/1
f 37/4/1 34/4/1 33/4/1
f 38/4/1 34/4/1 37/4/1
f 39/4/1 36/4/1 35/4/1
f 40/4/1 36/4/1 39/4/1
f 45/4/1 42/4/1 41/4/1
f 46/4/1 42/4/1 45/4/1
f 47/4/1 44/4/1 43/4/1
f 48/4/1 44/4/1 47/4/1
f 49/4/2 50/4/2 53/4/2
f 53/4/2 50/4/2 54/4/2
f 51/4/2 52/4/2 55/4/2
f 55/4/2 52/4/2 56/4/2
f 57/4/2 58/4/2 61/4/2
f 61/4/2 58/4/2 62/4/2
f 59/4/2 60/4/2 63/4/2
f 63/4/2 60/4/2 64/4/2
f 65/4/2 66/4/2 70/4/2
f 66/3/2 67/3/2 71/3/2
f 70/4/2 66/4/2 71/4/2
f 67/4/2 68/4/2 72/4/2
f 71/3/2 67/3/2 72/3/2
f 72/4/2 68/4/2 73/4/2
f 69/1/2 70/1/2 75/1/2
f 70/2/2 71/2/2 76/2/2
f 75/1/2 70/1/2 76/1/2
f 71/1/2 72/1/2 77/1/2
f 76/2/2 71/2/2 77/2/2
f 72/2/2 73/2/2 78/2/2
f 77/1/2 72/1/2 78/1/2
f 73/1/2 74/1/2 79/1/2
f 78/2/2 73/2/2 79/2/2
f 79/1/2 74/1/2 80/1/2
f 75/4/2 76/4/2 81/4/2
f 77/3/2 78/3/2 82/3/2
f 81/4/2 76/4/2 82/4/2
f 76/3/2 77/3/2 82/3/2
f 78/3/2 79/3/2 82/3/2
f 82/3/2 79/3/2 83/3/2
f 83/3/2 79/3/2 84/3/2
f 79/4/2 80/4/2 85/4/2
f 84/3/2 79/3/2 85/3/2
f 85/4/2 80/4/2 86/4/2
f 81/1/2 82/1/2 87/1/2
f 82/2/2 83/2/2 88/2/2
f 87/1/2 82/1/2 88/1/2
f 83/1/2 84/1/2 89/1/2
f 88/2/2 83/2/2 89/2/2
f 84/2/2 85/2/2 90/2/2
f 89/1/2 84/1/2 90/1/2
f 85/1/2 86/1/2 91/1/2
f 90/2/2 85/2/2 91/2/2
f 91/1/2 86/1/2 92/1/2
f 88/4/2 89/4/2 93/4/2
f 89/3/2 90/3/2 94/3/2
f 93/4/2 89/4/2 94/4/2
f 90/4/2 91/4/2 95/4/2
f 94/3/2 90/3/2 95/3/2
f 95/4/2 91/4/2 96/4/2
f 102/1/3 98/1/3 97/1/3
f 103/4/3 99/4/3 98/4/3
f 103/1/3 98/1/3 102/1/3
f 104/1/3 100/1/3 99/1/3
f 104/4/3 99/4/3 103/4/3
f 105/1/3 100/1/3 104/1/3
f 107/4/3 102/4/3 101/4/3
f 108/2/3 103/2/3 102/2/3
f 108/4/3 102/4/3 107/4/3
f 109/3/3 104/3/3 103/3/3
f 109/2/3 103/2/3 108/2/3
f 110/2/3 105/2/3 104/2/3
f 110/3/3 104/3/3 109/3/3
f 111/4/3 106/4/3 105/4/3
f 111/2/3 105/2/3 110/2/3
f 112/4/3 106/4/3 111/4/3
f 113/3/3 108/3/3 107/3/3
f 114/1/3 109/1/3 108/1/3
f 114/3/3 108/3/3 113/3/3
f 115/3/3 110/3/3 109/3/3
f 115/1/3 109/1/3 114/1/3
f 116/1/3 111/1/3 110/1/3
f 116/3/3 110/3/3 115/3/3
f 117/3/3 112/3/3 111/3/3
f 117/1/3 111/1/3 116/1/3
f 118/3/3 112/3/3 117/3/3
f 119/4/3 114/4/3 113/4/3
f 120/2/3 115/2/3 114/2/3
f 120/4/3 114/4/3 119/4/3
f 121/3/3 116/3/3 115/3/3
f 121/2/3 115/2/3 120/2/3
f 122/2/3 117/2/3 116/2/3
f 122/3/3 116/3/3 121/3/3
f 123/4/3 118/4/3 117/4/3
f 123/2/3 117/2/3 122/2/3
f 124/4/3 118/4/3 123/4/3
f 125/1/3 121/1/3 120/1/3
f 126/4/3 122/4/3 121/4/3
f 126/1/3 121/1/3 125/1/3
f 127/1/3 123/1/3 122/1/3
f 127/4/3 122/4/3 126/4/3
f 128/1/3 123/1/3 127/1/3
f 133/4/3 130/4/3 129/4/3
f 134/4/3 130/4/3 133/4/3
f 135/4/3 132/4/3 131/4/3
f 136/4/3 132/4/3 135/4/3
f 141/4/3 138/4/3 137/4/3
f 142/4/3 138/4/3 141/4/3
f 143/4/3 140/4/3 139/4/3
f 144/4/3 140/4/3 143/4/3
f 145/4/4 146/4/4 149/4/4
f 149/4/4 146/4/4 150/4/4
f 147/4/4 148/4/4 151/4/4
f 151/4/4 148/4/4 152/4/4
f 153/4/4 154/4/4 157/4/4
f 157/4/4 154/4/4 158/4/4
f 155/4/4 156/4/4 159/4/4
f 159/4/4 156/4/4 160/4/4
f 161/1/4 162/1/4 166/1/4
f 162/4/4 163/4/4 167/4/4
f 166/1/4 162/1/4 167/1/4
f 163/1/4 164/1/4 168/1/4
f 167/4/4 163/4/4 168/4/4
f 168/1/4 164/1/4 169/1/4
f 165/4/4 166/4/4 171/4/4
f 166/2/4 167/2/4 172/2/4
f 171/4/4 166/4/4 172/4/4
f 167/3/4 168/3/4 173/3/4
f 172/2/4 167/2/4 173/2/4
f 168/2/4 169/2/4 174/2/4
f 173/3/4 168/3/4 174/3/4
f 169/4/4 170/4/4 175/4/4
f 174/2/4 169/2/4 175/2/4
f 175/4/4 170/4/4 176/4/4
f 171/3/4 172/3/4 177/3/4
f 172/1/4 173/1/4 178/1/4
f 177/3/4 172/3/4 178/3/4
f 173/3/4 174/3/4 179/3/4
f 178/1/4 173/1/4 179/1/4
f 174/1/4 175/1/4 180/1/4
f 179/3/4 174/3/4 180/3/4
f 175/3/4 176/3/4 181/3/4
f 180/1/4 175/1/4 181/1/4
f 181/3/4 176/3/4 182/3/4
f 177/4/4 178/4/4 183/4/4
f 178/2/4 179/2/4 184/2/4
f 183/4/4 178/4/4 184/4/4
f 179/3/4 180/3/4 185/3/4
f 184/2/4 179/2/4 185/2/4
f 180/2/4 181/2/4 186/2/4
f 185/3/4 180/3/4 186/3/4
f 181/4/4 182/4/4 187/4/4
f 186/2/4 181/2/4 187/2/4
f 187/4/4 182/4/4 188/4/4
f 184/1/4 185/1/4 189/1/4
f 185/4/4 186/4/4 190/4/4
f 189/1/4 185/1/4 190/1/4
f 186/1/4 187/1/4 191/1/4
f 190/4/4 186/4/4 191/4/4
f 191/1/4 187/1/4 192/1/4
f 198/4/5 194/4/5 193/4/5
f 199/3/5 195/3/5 194/3/5
f 199/4/5 194/4/5 198/4/5
f 200/4/5 196/4/5 195/4/5
f 200/3/5 195/3/5 199/3/5
f 201/4/5 196/4/5 200/4/5
f 203/4/5 198/4/5 197/4/5
f 204/2/5 199/2/5 198/2/5
f 204/4/5 198/4/5 203/4/5
f 204/2/5 200/2/5 199/2/5
f 204/2/5 201/2/5 200/2/5
f 205/4/5 202/4/5 201/4/5
f 205/2/5 201/2/5 204/2/5
f 206/4/5 202/4/5 205/4/5
f 207/3/5 204/3/5 203/3/5
f 208/2/5 205/2/5 204/2/5
f 208/3/5 204/3/5 207/3/5
f 209/3/5 206/3/5 205/3/5
f 209/2/5 205/2/5 208/2/5
f 210/3/5 206/3/5 209/3/5
f 211/4/5 208/4/5 207/4/5
f 212/2/5 209/2/5 208/2/5
f 212/4/5 208/4/5 211/4/5
f 213/2/5 209/2/5 212/2/5
f 214/2/5 209/2/5 213/2/5
f 215/4/5 210/4/5 209/4/5
f 215/2/5 209/2/5 214/2/5
f 216/4/5 210/4/5 215/4/5
f 217/4/5 213/4/5 212/4/5
f 218/3/5 214/3/5 213/3/5
f 218/4/5 213/4/5 217/4/5
f 219/4/5 215/4/5 214/4/5
f 219/3/5 214/3/5 218/3/5
f 220/4/5 215/4/5 219/4/5
f 225/1/5 222/1/5 221/1/5
f 226/1/5 222/1/5 225/1/5
f 227/1/5 224/1/5 223/1/5
f 228/1/5 224/1/5 227/1/5
f 233/1/5 230/1/5 229/1/5
f 234/1/5 230/1/5 233/1/5
f 235/1/5 232/1/5 231/1/5
f 236/1/5 232/1/5 235/1/5
f 237/1/6 238/1/6 241/1/6
f 241/1/6 238/1/6 242/1/6
f 239/1/6 240/1/6 243/1/6
f 243/1/6 240/1/6 244/1/6
f 245/1/6 246/1/6 249/1/6
f 249/1/6 246/1/6 250/1/6
f 247/1/6 248/1/6 251/1/6
f 251/1/6 248/1/6 252/1/6
f 253/4/6 254/4/6 258/4/6
f 254/3/6 255/3/6 259/3/6
f 258/4/6 254/4/6 259/4/6
f 255/4/6 256/4/6 260/4/6
f 259/3/6 255/3/6 260/3/6
f 260/4/6 256/4/6 261/4/6
f 257/4/6 258/4/6 263/4/6
f 258/2/6 259/2/6 264/2/6
f 263/4/6 258/4/6 264/4/6
f 259/1/6 260/1/6 265/1/6
f 264/2/6 259/2/6 265/2/6
f 260/2/6 261/2/6 266/2/6
f 265/1/6 260/1/6 266/1/6
f 261/4/6 262/4/6 267/4/6
f 266/2/6 261/2/6 267/2/6
f 267/4/6 262/4/6 268/4/6
f 263/3/6 264/3/6 269/3/6
f 265/1/6 266/1/6 270/1/6
f 269/3/6 264/3/6 270/3/6
f 264/1/6 265/1/6 270/1/6
f 266/1/6 267/1/6 270/1/6
f 270/1/6 267/1/6 271/1/6
f 271/1/6 267/1/6 272/1/6
f 267/3/6 268/3/6 273/3/6
f 272/1/6 267/1/6 273/1/6
f 273/3/6 268/3/6 274/3/6
f 269/4/6 270/4/6 275/4/6
f 270/2/6 271/2/6 276/2/6
f 275/4/6 270/4/6 276/4/6
f 271/1/6 272/1/6 277/1/6
f 276/2/6 271/2/6 277/2/6
f 272/2/6 273/2/6 278/2/6
f 277/1/6 272/1/6 278/1/6
f 273/4/6 274/4/6 279/4/6
f 278/2/6 273/2/6 279/2/6
f 279/4/6 274/4/6 280/4/6
f 276/4/6 277/4/6 281/4/6
f 277/3/6 278/3/6 282/3/6
f 281/4/6 277/4/6 282/4/6
f 278/4/6 279/4/6 283/4/6
f 282/3/6 278/3/6 283/3/6
f 283/4/6 279/4/6 284/4/6
