# MagicaVoxel @ Ephtracy

# group
o 

# material
mtllib char-deer.mtl
usemtl palette

# normals
vn -1 0 0
vn 1 0 0
vn 0 0 1
vn 0 0 -1
vn 0 -1 0
vn 0 1 0

# texcoords
vt 0.00585938 0.5
vt 0.0449219 0.5
vt 0.232422 0.5
vt 0.533203 0.5
vt 0.869141 0.5
vt 0.876953 0.5

# verts
v 0.2 3.1 -0.6
v 0.2 3.1 -0.7
v 0.2 3.2 -0.6
v 0.2 3.2 -0.7
v 0.3 3.2 -0.6
v 0.3 3.2 -0.7
v 0.3 3.3 -0.6
v 0.3 3.3 -0.7
v 0.4 2.7 -0.3
v 0.4 2.7 -0.7
v 0.4 2.8 -0.5
v 0.4 2.8 -0.6
v 0.4 2.9 -0.5
v 0.4 2.9 -0.6
v 0.4 3 -0.3
v 0.4 3 -0.6
v 0.4 3 -0.7
v 0.4 3.1 -0.6
v 0.4 3.1 -0.7
v 0.5 2 -0.6
v 0.5 2 -0.7
v 0.5 2.3 -0.6
v 0.5 2.3 -0.7
v 0.5 2.6 -0.6
v 0.5 2.6 -0.7
v 0.6 2.6 -0.6
v 0.6 2.6 -0.7
v 0.6 2.7 -0.6
v 0.6 2.7 -0.7
v 0.7 2 -0.6
v 0.7 2 -0.7
v 0.7 2.3 -0.6
v 0.7 2.3 -0.7
v 0.8 3 -0.6
v 0.8 3 -0.7
v 0.8 3.2 -0.6
v 0.8 3.2 -0.7
v 0.9 3.2 -0.6
v 0.9 3.2 -0.7
v 0.9 3.3 -0.6
v 0.9 3.3 -0.7
v 0.4 3.2 -0.6
v 0.4 3.2 -0.7
v 0.4 3.3 -0.6
v 0.4 3.3 -0.7
v 0.5 3 -0.6
v 0.5 3 -0.7
v 0.5 3.2 -0.6
v 0.5 3.2 -0.7
v 0.6 2 -0.6
v 0.6 2 -0.7
v 0.6 2.3 -0.6
v 0.6 2.3 -0.7
v 0.7 2.6 -0.6
v 0.7 2.6 -0.7
v 0.7 2.7 -0.6
v 0.7 2.7 -0.7
v 0.8 2 -0.6
v 0.8 2 -0.7
v 0.8 2.3 -0.6
v 0.8 2.3 -0.7
v 0.8 2.6 -0.6
v 0.8 2.6 -0.7
v 0.9 2.7 -0.3
v 0.9 2.7 -0.7
v 0.9 2.8 -0.5
v 0.9 2.8 -0.6
v 0.9 2.9 -0.5
v 0.9 2.9 -0.6
v 0.9 3 -0.3
v 0.9 3 -0.6
v 0.9 3 -0.7
v 0.9 3.1 -0.6
v 0.9 3.1 -0.7
v 1 3.2 -0.6
v 1 3.2 -0.7
v 1 3.3 -0.6
v 1 3.3 -0.7
v 1.1 3.1 -0.6
v 1.1 3.1 -0.7
v 1.1 3.2 -0.6
v 1.1 3.2 -0.7
v 0.4 2.7 -0.3
v 0.4 3 -0.3
v 0.6 2.8 -0.3
v 0.6 2.9 -0.3
v 0.7 2.8 -0.3
v 0.7 2.9 -0.3
v 0.9 2.7 -0.3
v 0.9 3 -0.3
v 0.2 3.1 -0.6
v 0.2 3.2 -0.6
v 0.3 3.2 -0.6
v 0.3 3.3 -0.6
v 0.4 3 -0.6
v 0.4 3.1 -0.6
v 0.4 3.2 -0.6
v 0.4 3.3 -0.6
v 0.5 2 -0.6
v 0.5 2.3 -0.6
v 0.5 2.6 -0.6
v 0.5 3 -0.6
v 0.5 3.2 -0.6
v 0.6 2 -0.6
v 0.6 2.3 -0.6
v 0.6 2.6 -0.6
v 0.6 2.7 -0.6
v 0.7 2 -0.6
v 0.7 2.3 -0.6
v 0.7 2.6 -0.6
v 0.7 2.7 -0.6
v 0.8 2 -0.6
v 0.8 2.3 -0.6
v 0.8 2.6 -0.6
v 0.8 3 -0.6
v 0.8 3.2 -0.6
v 0.9 3 -0.6
v 0.9 3.1 -0.6
v 0.9 3.2 -0.6
v 0.9 3.3 -0.6
v 1 3.2 -0.6
v 1 3.3 -0.6
v 1.1 3.1 -0.6
v 1.1 3.2 -0.6
v 0.2 3.1 -0.7
v 0.2 3.2 -0.7
v 0.3 3.2 -0.7
v 0.3 3.3 -0.7
v 0.4 2.7 -0.7
v 0.4 3 -0.7
v 0.4 3.1 -0.7
v 0.4 3.2 -0.7
v 0.4 3.3 -0.7
v 0.5 2 -0.7
v 0.5 2.3 -0.7
v 0.5 2.6 -0.7
v 0.5 3 -0.7
v 0.5 3.2 -0.7
v 0.6 2 -0.7
v 0.6 2.3 -0.7
v 0.6 2.6 -0.7
v 0.6 2.7 -0.7
v 0.6 2.8 -0.7
v 0.7 2 -0.7
v 0.7 2.3 -0.7
v 0.7 2.6 -0.7
v 0.7 2.7 -0.7
v 0.7 2.8 -0.7
v 0.8 2 -0.7
v 0.8 2.3 -0.7
v 0.8 2.6 -0.7
v 0.8 3 -0.7
v 0.8 3.2 -0.7
v 0.9 2.7 -0.7
v 0.9 3 -0.7
v 0.9 3.1 -0.7
v 0.9 3.2 -0.7
v 0.9 3.3 -0.7
v 1 3.2 -0.7
v 1 3.3 -0.7
v 1.1 3.1 -0.7
v 1.1 3.2 -0.7
v 0.5 2 -0.6
v 0.6 2 -0.6
v 0.7 2 -0.6
v 0.8 2 -0.6
v 0.5 2 -0.7
v 0.6 2 -0.7
v 0.7 2 -0.7
v 0.8 2 -0.7
v 0.6 2.3 -0.6
v 0.7 2.3 -0.6
v 0.6 2.3 -0.7
v 0.7 2.3 -0.7
v 0.4 2.7 -0.3
v 0.9 2.7 -0.3
v 0.5 2.7 -0.4
v 0.8 2.7 -0.4
v 0.5 2.7 -0.6
v 0.6 2.7 -0.6
v 0.7 2.7 -0.6
v 0.8 2.7 -0.6
v 0.4 2.7 -0.7
v 0.6 2.7 -0.7
v 0.7 2.7 -0.7
v 0.9 2.7 -0.7
v 0.2 3.1 -0.6
v 0.4 3.1 -0.6
v 0.9 3.1 -0.6
v 1.1 3.1 -0.6
v 0.2 3.1 -0.7
v 0.4 3.1 -0.7
v 0.9 3.1 -0.7
v 1.1 3.1 -0.7
v 0.5 2.6 -0.6
v 0.6 2.6 -0.6
v 0.7 2.6 -0.6
v 0.8 2.6 -0.6
v 0.5 2.6 -0.7
v 0.6 2.6 -0.7
v 0.7 2.6 -0.7
v 0.8 2.6 -0.7
v 0.4 3 -0.3
v 0.9 3 -0.3
v 0.4 3 -0.6
v 0.5 3 -0.6
v 0.8 3 -0.6
v 0.9 3 -0.6
v 0.5 3 -0.7
v 0.8 3 -0.7
v 0.2 3.2 -0.6
v 0.3 3.2 -0.6
v 0.4 3.2 -0.6
v 0.5 3.2 -0.6
v 0.8 3.2 -0.6
v 0.9 3.2 -0.6
v 1 3.2 -0.6
v 1.1 3.2 -0.6
v 0.2 3.2 -0.7
v 0.3 3.2 -0.7
v 0.4 3.2 -0.7
v 0.5 3.2 -0.7
v 0.8 3.2 -0.7
v 0.9 3.2 -0.7
v 1 3.2 -0.7
v 1.1 3.2 -0.7
v 0.3 3.3 -0.6
v 0.4 3.3 -0.6
v 0.9 3.3 -0.6
v 1 3.3 -0.6
v 0.3 3.3 -0.7
v 0.4 3.3 -0.7
v 0.9 3.3 -0.7
v 1 3.3 -0.7

# faces
f 3/1/1 2/1/1 1/1/1
f 4/1/1 2/1/1 3/1/1
f 7/1/1 6/1/1 5/1/1
f 8/1/1 6/1/1 7/1/1
f 11/4/1 10/4/1 9/4/1
f 12/4/1 10/4/1 11/4/1
f 13/4/1 11/4/1 9/4/1
f 13/6/1 12/6/1 11/6/1
f 14/4/1 10/4/1 12/4/1
f 14/6/1 12/6/1 13/6/1
f 15/4/1 13/4/1 9/4/1
f 15/4/1 14/4/1 13/4/1
f 16/4/1 10/4/1 14/4/1
f 16/4/1 14/4/1 15/4/1
f 17/4/1 10/4/1 16/4/1
f 18/1/1 17/1/1 16/1/1
f 19/1/1 17/1/1 18/1/1
f 22/4/1 21/4/1 20/4/1
f 23/4/1 21/4/1 22/4/1
f 24/2/1 23/2/1 22/2/1
f 25/2/1 23/2/1 24/2/1
f 28/4/1 27/4/1 26/4/1
f 29/4/1 27/4/1 28/4/1
f 32/4/1 31/4/1 30/4/1
f 33/4/1 31/4/1 32/4/1
f 36/1/1 35/1/1 34/1/1
f 37/1/1 35/1/1 36/1/1
f 40/1/1 39/1/1 38/1/1
f 41/1/1 39/1/1 40/1/1
f 42/1/2 43/1/2 44/1/2
f 44/1/2 43/1/2 45/1/2
f 46/1/2 47/1/2 48/1/2
f 48/1/2 47/1/2 49/1/2
f 50/4/2 51/4/2 52/4/2
f 52/4/2 51/4/2 53/4/2
f 54/4/2 55/4/2 56/4/2
f 56/4/2 55/4/2 57/4/2
f 58/4/2 59/4/2 60/4/2
f 60/4/2 59/4/2 61/4/2
f 60/2/2 61/2/2 62/2/2
f 62/2/2 61/2/2 63/2/2
f 64/4/2 65/4/2 66/4/2
f 66/4/2 65/4/2 67/4/2
f 64/4/2 66/4/2 68/4/2
f 66/6/2 67/6/2 68/6/2
f 67/4/2 65/4/2 69/4/2
f 68/6/2 67/6/2 69/6/2
f 64/4/2 68/4/2 70/4/2
f 68/4/2 69/4/2 70/4/2
f 69/4/2 65/4/2 71/4/2
f 70/4/2 69/4/2 71/4/2
f 71/4/2 65/4/2 72/4/2
f 71/1/2 72/1/2 73/1/2
f 73/1/2 72/1/2 74/1/2
f 75/1/2 76/1/2 77/1/2
f 77/1/2 76/1/2 78/1/2
f 79/1/2 80/1/2 81/1/2
f 81/1/2 80/1/2 82/1/2
f 85/4/3 84/4/3 83/4/3
f 86/4/3 84/4/3 85/4/3
f 87/4/3 85/4/3 83/4/3
f 87/5/3 86/5/3 85/5/3
f 88/4/3 84/4/3 86/4/3
f 88/5/3 86/5/3 87/5/3
f 89/4/3 87/4/3 83/4/3
f 89/4/3 88/4/3 87/4/3
f 90/4/3 84/4/3 88/4/3
f 90/4/3 88/4/3 89/4/3
f 93/1/3 92/1/3 91/1/3
f 96/1/3 93/1/3 91/1/3
f 96/1/3 94/1/3 93/1/3
f 97/1/3 94/1/3 96/1/3
f 98/1/3 94/1/3 97/1/3
f 102/1/3 96/1/3 95/1/3
f 102/1/3 97/1/3 96/1/3
f 103/1/3 97/1/3 102/1/3
f 104/4/3 100/4/3 99/4/3
f 105/2/3 101/2/3 100/2/3
f 105/4/3 100/4/3 104/4/3
f 106/2/3 101/2/3 105/2/3
f 109/2/3 106/2/3 105/2/3
f 110/4/3 107/4/3 106/4/3
f 110/2/3 106/2/3 109/2/3
f 111/4/3 107/4/3 110/4/3
f 112/4/3 109/4/3 108/4/3
f 113/2/3 110/2/3 109/2/3
f 113/4/3 109/4/3 112/4/3
f 114/2/3 110/2/3 113/2/3
f 117/1/3 116/1/3 115/1/3
f 118/1/3 116/1/3 117/1/3
f 119/1/3 116/1/3 118/1/3
f 121/1/3 119/1/3 118/1/3
f 121/1/3 120/1/3 119/1/3
f 122/1/3 120/1/3 121/1/3
f 123/1/3 121/1/3 118/1/3
f 124/1/3 121/1/3 123/1/3
f 125/1/4 126/1/4 127/1/4
f 125/1/4 127/1/4 131/1/4
f 127/1/4 128/1/4 131/1/4
f 131/1/4 128/1/4 132/1/4
f 132/1/4 128/1/4 133/1/4
f 129/4/4 130/4/4 137/4/4
f 130/1/4 131/1/4 137/1/4
f 131/1/4 132/1/4 137/1/4
f 137/1/4 132/1/4 138/1/4
f 134/4/4 135/4/4 139/4/4
f 135/2/4 136/2/4 140/2/4
f 139/4/4 135/4/4 140/4/4
f 140/2/4 136/2/4 141/2/4
f 129/4/4 137/4/4 142/4/4
f 142/4/4 137/4/4 143/4/4
f 140/2/4 141/2/4 145/2/4
f 141/4/4 142/4/4 146/4/4
f 145/2/4 141/2/4 146/2/4
f 142/2/4 143/2/4 147/2/4
f 146/4/4 142/4/4 147/4/4
f 143/4/4 137/4/4 148/4/4
f 147/2/4 143/2/4 148/2/4
f 144/4/4 145/4/4 149/4/4
f 145/2/4 146/2/4 150/2/4
f 149/4/4 145/4/4 150/4/4
f 150/2/4 146/2/4 151/2/4
f 148/4/4 137/4/4 152/4/4
f 147/4/4 148/4/4 152/4/4
f 147/4/4 152/4/4 154/4/4
f 152/1/4 153/1/4 155/1/4
f 154/4/4 152/4/4 155/4/4
f 155/1/4 153/1/4 156/1/4
f 156/1/4 153/1/4 157/1/4
f 156/1/4 157/1/4 159/1/4
f 157/1/4 158/1/4 159/1/4
f 159/1/4 158/1/4 160/1/4
f 156/1/4 159/1/4 161/1/4
f 161/1/4 159/1/4 162/1/4
f 167/4/5 164/4/5 163/4/5
f 168/4/5 164/4/5 167/4/5
f 169/4/5 166/4/5 165/4/5
f 170/4/5 166/4/5 169/4/5
f 173/2/5 172/2/5 171/2/5
f 174/2/5 172/2/5 173/2/5
f 177/4/5 176/4/5 175/4/5
f 178/4/5 176/4/5 177/4/5
f 179/4/5 177/4/5 175/4/5
f 179/2/5 178/2/5 177/2/5
f 180/2/5 178/2/5 179/2/5
f 181/2/5 178/2/5 180/2/5
f 182/4/5 176/4/5 178/4/5
f 182/2/5 178/2/5 181/2/5
f 183/4/5 179/4/5 175/4/5
f 183/4/5 180/4/5 179/4/5
f 184/4/5 180/4/5 183/4/5
f 185/4/5 182/4/5 181/4/5
f 186/4/5 176/4/5 182/4/5
f 186/4/5 182/4/5 185/4/5
f 191/1/5 188/1/5 187/1/5
f 192/1/5 188/1/5 191/1/5
f 193/1/5 190/1/5 189/1/5
f 194/1/5 190/1/5 193/1/5
f 195/2/6 196/2/6 199/2/6
f 199/2/6 196/2/6 200/2/6
f 197/2/6 198/2/6 201/2/6
f 201/2/6 198/2/6 202/2/6
f 203/4/6 204/4/6 205/4/6
f 205/4/6 204/4/6 206/4/6
f 206/4/6 204/4/6 207/4/6
f 207/4/6 204/4/6 208/4/6
f 206/4/6 207/4/6 209/4/6
f 209/4/6 207/4/6 210/4/6
f 211/1/6 212/1/6 219/1/6
f 219/1/6 212/1/6 220/1/6
f 213/1/6 214/1/6 221/1/6
f 221/1/6 214/1/6 222/1/6
f 215/1/6 216/1/6 223/1/6
f 223/1/6 216/1/6 224/1/6
f 217/1/6 218/1/6 225/1/6
f 225/1/6 218/1/6 226/1/6
f 227/1/6 228/1/6 231/1/6
f 231/1/6 228/1/6 232/1/6
f 229/1/6 230/1/6 233/1/6
f 233/1/6 230/1/6 234/1/6
