# MagicaVoxel @ Ephtracy

# group
o deck1

# material
mtllib environ-28-deck1.mtl
usemtl palette

# normals
vn -1 0 0
vn 1 0 0
vn 0 0 1
vn 0 0 -1
vn 0 -1 0
vn 0 1 0

# texcoords
vt 0.201172 0.5
vt 0.216797 0.5
vt 0.232422 0.5

# verts
v -0.3 0 1
v -0.3 0 0.8
v -0.3 0 0.7
v -0.3 0 0.6
v -0.3 0 0.4
v -0.3 0 0.3
v -0.3 0.1 1
v -0.3 0.1 0.8
v -0.3 0.1 0.7
v -0.3 0.1 0.6
v -0.3 0.1 0.4
v -0.3 0.1 0.3
v 0.4 0 1
v 0.4 0 0.9
v 0.4 0 0.7
v 0.4 0 0.6
v 0.4 0 0.5
v 0.4 0 0.3
v 0.4 0.1 1
v 0.4 0.1 0.9
v 0.4 0.1 0.7
v 0.4 0.1 0.6
v 0.4 0.1 0.5
v 0.4 0.1 0.3
v -0.3 0 1
v -0.3 0.1 1
v 0.1 0 1
v 0.1 0.1 1
v 0.4 0 1
v 0.4 0.1 1
v -0.3 0 0.3
v -0.3 0.1 0.3
v 0 0 0.3
v 0 0.1 0.3
v 0.4 0 0.3
v 0.4 0.1 0.3
v -0.3 0 1
v 0.1 0 1
v 0.4 0 1
v 0.1 0 0.9
v 0.4 0 0.9
v -0.3 0 0.8
v 0.1 0 0.8
v -0.3 0 0.7
v 0.1 0 0.7
v 0.4 0 0.7
v -0.3 0 0.6
v -0.2 0 0.6
v -0.1 0 0.6
v 0 0 0.6
v 0.4 0 0.6
v -0.2 0 0.5
v -0.1 0 0.5
v 0 0 0.5
v 0.4 0 0.5
v -0.3 0 0.4
v 0 0 0.4
v -0.3 0 0.3
v 0 0 0.3
v 0.4 0 0.3
v -0.3 0.1 1
v 0.1 0.1 1
v 0.4 0.1 1
v 0.1 0.1 0.9
v 0.4 0.1 0.9
v -0.3 0.1 0.8
v 0.1 0.1 0.8
v -0.3 0.1 0.7
v 0.1 0.1 0.7
v 0.4 0.1 0.7
v -0.3 0.1 0.6
v -0.2 0.1 0.6
v -0.1 0.1 0.6
v 0 0.1 0.6
v 0.4 0.1 0.6
v -0.2 0.1 0.5
v -0.1 0.1 0.5
v 0 0.1 0.5
v 0.4 0.1 0.5
v -0.3 0.1 0.4
v 0 0.1 0.4
v -0.3 0.1 0.3
v 0 0.1 0.3
v 0.4 0.1 0.3

# faces
f 7/3/1 2/3/1 1/3/1
f 8/2/1 3/2/1 2/2/1
f 8/3/1 2/3/1 7/3/1
f 9/1/1 4/1/1 3/1/1
f 9/2/1 3/2/1 8/2/1
f 10/3/1 5/3/1 4/3/1
f 10/1/1 4/1/1 9/1/1
f 11/1/1 6/1/1 5/1/1
f 11/3/1 5/3/1 10/3/1
f 12/1/1 6/1/1 11/1/1
f 13/1/2 14/1/2 19/1/2
f 14/3/2 15/3/2 20/3/2
f 19/1/2 14/1/2 20/1/2
f 15/1/2 16/1/2 21/1/2
f 20/3/2 15/3/2 21/3/2
f 16/2/2 17/2/2 22/2/2
f 21/1/2 16/1/2 22/1/2
f 17/3/2 18/3/2 23/3/2
f 22/2/2 17/2/2 23/2/2
f 23/3/2 18/3/2 24/3/2
f 27/3/3 26/3/3 25/3/3
f 28/3/3 26/3/3 27/3/3
f 29/1/3 28/1/3 27/1/3
f 30/1/3 28/1/3 29/1/3
f 31/1/4 32/1/4 33/1/4
f 33/1/4 32/1/4 34/1/4
f 33/3/4 34/3/4 35/3/4
f 35/3/4 34/3/4 36/3/4
f 40/3/5 38/3/5 37/3/5
f 40/1/5 39/1/5 38/1/5
f 41/1/5 39/1/5 40/1/5
f 42/3/5 40/3/5 37/3/5
f 42/3/5 41/3/5 40/3/5
f 43/3/5 41/3/5 42/3/5
f 44/2/5 43/2/5 42/2/5
f 45/3/5 41/3/5 43/3/5
f 45/2/5 43/2/5 44/2/5
f 46/3/5 41/3/5 45/3/5
f 47/1/5 45/1/5 44/1/5
f 47/1/5 46/1/5 45/1/5
f 48/1/5 46/1/5 47/1/5
f 49/1/5 46/1/5 48/1/5
f 50/1/5 46/1/5 49/1/5
f 51/1/5 46/1/5 50/1/5
f 52/3/5 48/3/5 47/3/5
f 52/2/5 49/2/5 48/2/5
f 53/3/5 50/3/5 49/3/5
f 53/2/5 49/2/5 52/2/5
f 54/2/5 51/2/5 50/2/5
f 54/3/5 50/3/5 53/3/5
f 55/2/5 51/2/5 54/2/5
f 56/3/5 53/3/5 52/3/5
f 56/3/5 52/3/5 47/3/5
f 56/3/5 55/3/5 54/3/5
f 56/3/5 54/3/5 53/3/5
f 57/3/5 55/3/5 56/3/5
f 58/1/5 57/1/5 56/1/5
f 59/3/5 55/3/5 57/3/5
f 59/1/5 57/1/5 58/1/5
f 60/3/5 55/3/5 59/3/5
f 61/3/6 62/3/6 64/3/6
f 62/1/6 63/1/6 64/1/6
f 64/1/6 63/1/6 65/1/6
f 61/3/6 64/3/6 66/3/6
f 64/3/6 65/3/6 66/3/6
f 66/3/6 65/3/6 67/3/6
f 66/2/6 67/2/6 68/2/6
f 67/3/6 65/3/6 69/3/6
f 68/2/6 67/2/6 69/2/6
f 69/3/6 65/3/6 70/3/6
f 68/1/6 69/1/6 71/1/6
f 69/1/6 70/1/6 71/1/6
f 71/1/6 70/1/6 72/1/6
f 72/1/6 70/1/6 73/1/6
f 73/1/6 70/1/6 74/1/6
f 74/1/6 70/1/6 75/1/6
f 71/3/6 72/3/6 76/3/6
f 72/2/6 73/2/6 76/2/6
f 73/3/6 74/3/6 77/3/6
f 76/2/6 73/2/6 77/2/6
f 74/2/6 75/2/6 78/2/6
f 77/3/6 74/3/6 78/3/6
f 78/2/6 75/2/6 79/2/6
f 76/3/6 77/3/6 80/3/6
f 71/3/6 76/3/6 80/3/6
f 78/3/6 79/3/6 80/3/6
f 77/3/6 78/3/6 80/3/6
f 80/3/6 79/3/6 81/3/6
f 80/1/6 81/1/6 82/1/6
f 81/3/6 79/3/6 83/3/6
f 82/1/6 81/1/6 83/1/6
f 83/3/6 79/3/6 84/3/6
