# MagicaVoxel @ Ephtracy

# group
o deck1-kraken-3

# material
mtllib environ-1-deck1-kraken-3.mtl
usemtl palette

# normals
vn -1 0 0
vn 1 0 0
vn 0 0 1
vn 0 0 -1
vn 0 -1 0
vn 0 1 0

# texcoords
vt 0.197266 0.5
vt 0.201172 0.5
vt 0.216797 0.5
vt 0.232422 0.5
vt 0.685547 0.5
vt 0.783203 0.5
vt 0.794922 0.5

# verts
v -5.4 1.4 -0.2
v -5.4 1.4 -0.3
v -5.4 1.5 -0.2
v -5.4 1.5 -0.3
v -5.3 1.2 -0.1
v -5.3 1.2 -0.3
v -5.3 1.3 -0.1
v -5.3 1.3 -0.2
v -5.3 1.4 -0.2
v -5.3 1.4 -0.3
v -5.2 1 -0.1
v -5.2 1 -0.2
v -5.2 1 -0.3
v -5.2 1.2 -0.1
v -5.2 1.2 -0.2
v -5.2 1.2 -0.3
v -5.1 0.9 -0.1
v -5.1 0.9 -0.3
v -5.1 1 -0.1
v -5.1 1 -0.2
v -5.1 1 -0.3
v -5 0 0.4
v -5 0 0.2
v -5 0 0.1
v -5 0 0
v -5 0 -0.1
v -5 0 -0.2
v -5 0 -0.3
v -5 0.1 0.4
v -5 0.1 0.2
v -5 0.1 0.1
v -5 0.1 0
v -5 0.1 -0.1
v -5 0.1 -0.2
v -5 0.1 -0.3
v -5 0.2 0.2
v -5 0.2 0.1
v -5 0.8 -0.1
v -5 0.8 -0.3
v -5 0.9 -0.1
v -5 0.9 -0.3
v -4.9 0.6 -0.2
v -4.9 0.6 -0.3
v -4.9 0.7 0
v -4.9 0.7 -0.2
v -4.9 0.7 -0.3
v -4.9 0.8 0
v -4.9 0.8 -0.1
v -4.9 0.8 -0.2
v -4.9 0.8 -0.3
v -4.8 0 0.3
v -4.8 0 0.2
v -4.8 0 0.1
v -4.8 0 -0.1
v -4.8 0.1 0.3
v -4.8 0.1 0.2
v -4.8 0.1 0.1
v -4.8 0.1 -0.1
v -4.8 0.4 0.2
v -4.8 0.4 0.1
v -4.8 0.4 -0.1
v -4.8 0.4 -0.2
v -4.8 0.5 0.1
v -4.8 0.5 0
v -4.8 0.5 -0.2
v -4.8 0.5 -0.3
v -4.8 0.6 -0.2
v -4.8 0.6 -0.3
v -4.8 0.7 0
v -4.8 0.7 -0.2
v -4.7 0.1 -0.1
v -4.7 0.1 -0.2
v -4.7 0.2 -0.1
v -4.7 0.2 -0.2
v -4.7 0.5 0.1
v -4.7 0.5 0
v -4.7 0.6 0.1
v -4.7 0.6 0
v -4.6 0.2 -0.2
v -4.6 0.2 -0.3
v -4.6 0.3 -0.2
v -4.6 0.3 -0.3
v -4.5 0 0.3
v -4.5 0 0.2
v -4.5 0 0.1
v -4.5 0 0
v -4.5 0 -0.1
v -4.5 0 -0.2
v -4.5 0.1 0.3
v -4.5 0.1 0.2
v -4.5 0.1 0.1
v -4.5 0.1 0
v -4.5 0.1 -0.1
v -4.5 0.1 -0.2
v -4.5 0.2 0.3
v -4.5 0.2 0.2
v -4.5 0.3 0.1
v -4.5 0.3 0
v -4.4 0 0.2
v -4.4 0 0.1
v -4.4 0.1 0.2
v -4.4 0.1 0.1
v -4.4 0.3 0.1
v -4.4 0.3 0
v -4.4 0.4 0.1
v -4.4 0.4 0
v -5.3 1.4 -0.2
v -5.3 1.4 -0.3
v -5.3 1.5 -0.2
v -5.3 1.5 -0.3
v -5.2 1.3 -0.2
v -5.2 1.3 -0.3
v -5.2 1.4 -0.2
v -5.2 1.4 -0.3
v -5.1 1.1 -0.1
v -5.1 1.1 -0.2
v -5.1 1.1 -0.3
v -5.1 1.2 -0.2
v -5.1 1.2 -0.3
v -5.1 1.3 -0.1
v -5.1 1.3 -0.3
v -4.9 0 0.3
v -4.9 0 0.2
v -4.9 0 0.1
v -4.9 0 0
v -4.9 0.1 0.3
v -4.9 0.1 0.2
v -4.9 0.1 0.1
v -4.9 0.1 0
v -4.9 0.2 0.2
v -4.9 0.2 0.1
v -4.9 1 -0.1
v -4.9 1 -0.2
v -4.9 1 -0.3
v -4.9 1.1 -0.1
v -4.9 1.1 -0.3
v -4.8 0.9 -0.1
v -4.8 0.9 -0.2
v -4.8 0.9 -0.3
v -4.8 1 -0.1
v -4.8 1 -0.2
v -4.8 1 -0.3
v -4.7 0 0.3
v -4.7 0 0.2
v -4.7 0.1 0.3
v -4.7 0.1 0.2
v -4.7 0.7 0
v -4.7 0.7 -0.1
v -4.7 0.7 -0.2
v -4.7 0.7 -0.3
v -4.7 0.8 0
v -4.7 0.8 -0.1
v -4.7 0.8 -0.2
v -4.7 0.8 -0.3
v -4.7 0.9 -0.1
v -4.7 0.9 -0.2
v -4.7 0.9 -0.3
v -4.6 0 0.1
v -4.6 0 -0.1
v -4.6 0 -0.2
v -4.6 0.1 0.2
v -4.6 0.1 0.1
v -4.6 0.1 -0.1
v -4.6 0.1 -0.2
v -4.6 0.2 -0.1
v -4.6 0.3 0.1
v -4.6 0.3 -0.1
v -4.6 0.4 0.2
v -4.6 0.4 0.1
v -4.6 0.4 -0.1
v -4.6 0.4 -0.2
v -4.6 0.5 -0.1
v -4.6 0.5 -0.2
v -4.6 0.5 -0.3
v -4.6 0.6 0.1
v -4.6 0.6 0
v -4.6 0.6 -0.1
v -4.6 0.6 -0.2
v -4.6 0.6 -0.3
v -4.6 0.7 0
v -4.6 0.7 -0.1
v -4.6 0.7 -0.2
v -4.6 0.7 -0.3
v -4.6 0.8 -0.1
v -4.6 0.8 -0.2
v -4.5 0 0.2
v -4.5 0 0.1
v -4.5 0.1 0.2
v -4.5 0.1 0.1
v -4.5 0.1 -0.1
v -4.5 0.1 -0.2
v -4.5 0.2 -0.1
v -4.5 0.2 -0.2
v -4.5 0.2 -0.3
v -4.5 0.3 -0.2
v -4.5 0.3 -0.3
v -4.4 0.1 0.3
v -4.4 0.1 0.2
v -4.4 0.1 0.1
v -4.4 0.1 0
v -4.4 0.2 0.3
v -4.4 0.2 0.2
v -4.4 0.3 0.1
v -4.4 0.3 0
v -4.3 0 0.4
v -4.3 0 0.3
v -4.3 0 0.1
v -4.3 0 0
v -4.3 0 -0.1
v -4.3 0 -0.2
v -4.3 0 -0.3
v -4.3 0.1 0.4
v -4.3 0.1 0.3
v -4.3 0.1 0.1
v -4.3 0.1 0
v -4.3 0.1 -0.1
v -4.3 0.1 -0.2
v -4.3 0.1 -0.3
v -4.3 0.3 0.1
v -4.3 0.3 0
v -4.3 0.4 0.1
v -4.3 0.4 0
v -5 0 0.4
v -5 0.1 0.4
v -4.6 0 0.4
v -4.6 0.1 0.4
v -4.3 0 0.4
v -4.3 0.1 0.4
v -4.5 0.1 0.3
v -4.5 0.2 0.3
v -4.4 0.1 0.3
v -4.4 0.2 0.3
v -5 0.1 0.2
v -5 0.2 0.2
v -4.9 0 0.2
v -4.9 0.1 0.2
v -4.9 0.2 0.2
v -4.8 0 0.2
v -4.8 0.1 0.2
v -4.8 0.4 0.2
v -4.7 0 0.2
v -4.7 0.1 0.2
v -4.6 0 0.2
v -4.6 0.1 0.2
v -4.6 0.4 0.2
v -4.5 0 0.2
v -4.5 0.1 0.2
v -4.8 0.4 0.1
v -4.8 0.5 0.1
v -4.7 0.5 0.1
v -4.7 0.6 0.1
v -4.6 0.4 0.1
v -4.6 0.6 0.1
v -4.5 0 0.1
v -4.5 0.1 0.1
v -4.5 0.3 0.1
v -4.4 0 0.1
v -4.4 0.1 0.1
v -4.4 0.3 0.1
v -4.4 0.4 0.1
v -4.3 0.3 0.1
v -4.3 0.4 0.1
v -4.9 0.7 0
v -4.9 0.8 0
v -4.8 0.5 0
v -4.8 0.7 0
v -4.7 0.5 0
v -4.7 0.6 0
v -4.7 0.7 0
v -4.7 0.8 0
v -4.6 0.6 0
v -4.6 0.7 0
v -5.3 1.2 -0.1
v -5.3 1.3 -0.1
v -5.2 1 -0.1
v -5.2 1.2 -0.1
v -5.1 0.9 -0.1
v -5.1 1 -0.1
v -5.1 1.1 -0.1
v -5.1 1.3 -0.1
v -5 0 -0.1
v -5 0.1 -0.1
v -5 0.8 -0.1
v -5 0.9 -0.1
v -4.9 0.8 -0.1
v -4.9 1 -0.1
v -4.9 1.1 -0.1
v -4.8 0 -0.1
v -4.8 0.1 -0.1
v -4.8 0.9 -0.1
v -4.8 1 -0.1
v -4.7 0.7 -0.1
v -4.7 0.8 -0.1
v -4.7 0.9 -0.1
v -4.6 0.1 -0.1
v -4.6 0.2 -0.1
v -4.6 0.7 -0.1
v -4.6 0.8 -0.1
v -4.5 0 -0.1
v -4.5 0.1 -0.1
v -4.5 0.2 -0.1
v -4.4 0 -0.1
v -4.4 0.1 -0.1
v -4.3 0 -0.1
v -4.3 0.1 -0.1
v -5.4 1.4 -0.2
v -5.4 1.5 -0.2
v -5.3 1.3 -0.2
v -5.3 1.4 -0.2
v -5.3 1.5 -0.2
v -5.2 1.3 -0.2
v -5.2 1.4 -0.2
v -4.9 0.6 -0.2
v -4.9 0.7 -0.2
v -4.8 0.6 -0.2
v -4.8 0.7 -0.2
v -4.6 0 -0.2
v -4.6 0.1 -0.2
v -4.6 0.2 -0.2
v -4.6 0.3 -0.2
v -4.5 0 -0.2
v -4.5 0.1 -0.2
v -4.5 0.2 -0.2
v -4.5 0.3 -0.2
v -4.9 0 0.3
v -4.9 0.1 0.3
v -4.8 0 0.3
v -4.8 0.1 0.3
v -4.7 0 0.3
v -4.7 0.1 0.3
v -4.6 0 0.3
v -4.6 0.1 0.3
v -4.5 0 0.3
v -4.5 0.1 0.3
v -4.5 0 0.2
v -4.5 0.1 0.2
v -4.5 0.2 0.2
v -4.4 0 0.2
v -4.4 0.1 0.2
v -4.4 0.2 0.2
v -5 0.1 0.1
v -5 0.2 0.1
v -4.9 0 0.1
v -4.9 0.1 0.1
v -4.9 0.2 0.1
v -4.8 0 0.1
v -4.8 0.1 0.1
v -4.6 0 0.1
v -4.6 0.1 0.1
v -4.5 0 0.1
v -4.5 0.1 0.1
v -5 0 0
v -5 0.1 0
v -4.9 0 0
v -4.9 0.1 0
v -4.5 0 0
v -4.5 0.1 0
v -4.5 0.3 0
v -4.4 0 0
v -4.4 0.1 0
v -4.4 0.3 0
v -4.4 0.4 0
v -4.3 0 0
v -4.3 0.1 0
v -4.3 0.3 0
v -4.3 0.4 0
v -4.8 0.1 -0.1
v -4.8 0.4 -0.1
v -4.7 0.1 -0.1
v -4.7 0.2 -0.1
v -4.7 0.3 -0.1
v -4.7 0.4 -0.1
v -4.6 0.2 -0.1
v -4.6 0.3 -0.1
v -4.6 0.4 -0.1
v -4.8 0.4 -0.2
v -4.8 0.5 -0.2
v -4.7 0.1 -0.2
v -4.7 0.2 -0.2
v -4.7 0.7 -0.2
v -4.7 0.8 -0.2
v -4.6 0.2 -0.2
v -4.6 0.4 -0.2
v -4.6 0.5 -0.2
v -4.6 0.7 -0.2
v -4.6 0.8 -0.2
v -4.5 0.1 -0.2
v -4.5 0.2 -0.2
v -5.4 1.4 -0.3
v -5.4 1.5 -0.3
v -5.3 1.2 -0.3
v -5.3 1.4 -0.3
v -5.3 1.5 -0.3
v -5.2 1 -0.3
v -5.2 1.2 -0.3
v -5.2 1.3 -0.3
v -5.2 1.4 -0.3
v -5.1 0.9 -0.3
v -5.1 1 -0.3
v -5.1 1.1 -0.3
v -5.1 1.2 -0.3
v -5.1 1.3 -0.3
v -5 0 -0.3
v -5 0.1 -0.3
v -5 0.8 -0.3
v -5 0.9 -0.3
v -5 1 -0.3
v -4.9 0.6 -0.3
v -4.9 0.7 -0.3
v -4.9 0.8 -0.3
v -4.9 1 -0.3
v -4.9 1.1 -0.3
v -4.8 0.5 -0.3
v -4.8 0.6 -0.3
v -4.8 0.7 -0.3
v -4.8 0.8 -0.3
v -4.8 0.9 -0.3
v -4.8 1 -0.3
v -4.7 0 -0.3
v -4.7 0.1 -0.3
v -4.7 0.6 -0.3
v -4.7 0.7 -0.3
v -4.7 0.8 -0.3
v -4.7 0.9 -0.3
v -4.6 0.2 -0.3
v -4.6 0.3 -0.3
v -4.6 0.5 -0.3
v -4.6 0.6 -0.3
v -4.6 0.7 -0.3
v -4.5 0.2 -0.3
v -4.5 0.3 -0.3
v -4.4 0 -0.3
v -4.4 0.1 -0.3
v -4.3 0 -0.3
v -4.3 0.1 -0.3
v -5 0 0.4
v -4.6 0 0.4
v -4.3 0 0.4
v -4.9 0 0.3
v -4.8 0 0.3
v -4.7 0 0.3
v -4.6 0 0.3
v -4.5 0 0.3
v -4.3 0 0.3
v -5 0 0.2
v -4.9 0 0.2
v -4.8 0 0.2
v -4.7 0 0.2
v -4.6 0 0.2
v -4.5 0 0.2
v -4.4 0 0.2
v -5 0 0.1
v -4.9 0 0.1
v -4.8 0 0.1
v -4.6 0 0.1
v -4.5 0 0.1
v -4.4 0 0.1
v -4.3 0 0.1
v -5 0 0
v -4.9 0 0
v -4.5 0 0
v -4.4 0 0
v -4.3 0 0
v -5 0 -0.1
v -4.8 0 -0.1
v -4.7 0 -0.1
v -4.6 0 -0.1
v -4.5 0 -0.1
v -4.4 0 -0.1
v -4.3 0 -0.1
v -5 0 -0.2
v -4.7 0 -0.2
v -4.6 0 -0.2
v -4.5 0 -0.2
v -4.4 0 -0.2
v -4.3 0 -0.2
v -5 0 -0.3
v -4.7 0 -0.3
v -4.4 0 -0.3
v -4.3 0 -0.3
v -4.6 0.1 -0.1
v -4.5 0.1 -0.1
v -4.6 0.1 -0.2
v -4.5 0.1 -0.2
v -4.6 0.2 -0.2
v -4.5 0.2 -0.2
v -4.6 0.2 -0.3
v -4.5 0.2 -0.3
v -4.4 0.3 0.1
v -4.3 0.3 0.1
v -4.4 0.3 0
v -4.3 0.3 0
v -4.8 0.4 -0.1
v -4.7 0.4 -0.1
v -4.6 0.4 -0.1
v -4.8 0.4 -0.2
v -4.6 0.4 -0.2
v -4.8 0.5 -0.2
v -4.6 0.5 -0.2
v -4.8 0.5 -0.3
v -4.6 0.5 -0.3
v -4.9 0.6 -0.2
v -4.8 0.6 -0.2
v -4.9 0.6 -0.3
v -4.8 0.6 -0.3
v -4.9 0.7 0
v -4.8 0.7 0
v -4.9 0.7 -0.2
v -4.8 0.7 -0.2
v -5 0.8 -0.1
v -4.9 0.8 -0.1
v -4.9 0.8 -0.2
v -5 0.8 -0.3
v -4.9 0.8 -0.3
v -5.1 0.9 -0.1
v -5 0.9 -0.1
v -5.1 0.9 -0.3
v -5 0.9 -0.3
v -5.2 1 -0.1
v -5.1 1 -0.1
v -5.2 1 -0.2
v -5.1 1 -0.2
v -5.2 1 -0.3
v -5.1 1 -0.3
v -5.3 1.2 -0.1
v -5.2 1.2 -0.1
v -5.2 1.2 -0.2
v -5.3 1.2 -0.3
v -5.2 1.2 -0.3
v -5.4 1.4 -0.2
v -5.3 1.4 -0.2
v -5.4 1.4 -0.3
v -5.3 1.4 -0.3
v -5 0.1 0.4
v -4.6 0.1 0.4
v -4.3 0.1 0.4
v -4.9 0.1 0.3
v -4.8 0.1 0.3
v -4.7 0.1 0.3
v -4.6 0.1 0.3
v -4.5 0.1 0.3
v -4.4 0.1 0.3
v -4.3 0.1 0.3
v -5 0.1 0.2
v -4.9 0.1 0.2
v -4.8 0.1 0.2
v -4.7 0.1 0.2
v -4.6 0.1 0.2
v -4.5 0.1 0.2
v -4.4 0.1 0.2
v -5 0.1 0.1
v -4.9 0.1 0.1
v -4.8 0.1 0.1
v -4.6 0.1 0.1
v -4.5 0.1 0.1
v -4.4 0.1 0.1
v -4.3 0.1 0.1
v -5 0.1 0
v -4.9 0.1 0
v -4.4 0.1 0
v -4.3 0.1 0
v -5 0.1 -0.1
v -4.8 0.1 -0.1
v -4.7 0.1 -0.1
v -4.5 0.1 -0.1
v -4.4 0.1 -0.1
v -4.3 0.1 -0.1
v -5 0.1 -0.2
v -4.7 0.1 -0.2
v -4.5 0.1 -0.2
v -4.4 0.1 -0.2
v -4.3 0.1 -0.2
v -5 0.1 -0.3
v -4.7 0.1 -0.3
v -4.4 0.1 -0.3
v -4.3 0.1 -0.3
v -4.5 0.2 0.3
v -4.4 0.2 0.3
v -5 0.2 0.2
v -4.9 0.2 0.2
v -4.5 0.2 0.2
v -4.4 0.2 0.2
v -5 0.2 0.1
v -4.9 0.2 0.1
v -4.7 0.2 -0.1
v -4.6 0.2 -0.1
v -4.5 0.2 -0.1
v -4.7 0.2 -0.2
v -4.6 0.2 -0.2
v -4.5 0.2 -0.2
v -4.5 0.3 0.1
v -4.4 0.3 0.1
v -4.5 0.3 0
v -4.4 0.3 0
v -4.6 0.3 -0.2
v -4.5 0.3 -0.2
v -4.6 0.3 -0.3
v -4.5 0.3 -0.3
v -4.8 0.4 0.2
v -4.6 0.4 0.2
v -4.8 0.4 0.1
v -4.6 0.4 0.1
v -4.4 0.4 0.1
v -4.3 0.4 0.1
v -4.4 0.4 0
v -4.3 0.4 0
v -4.8 0.5 0.1
v -4.7 0.5 0.1
v -4.8 0.5 0
v -4.7 0.5 0
v -4.7 0.6 0.1
v -4.6 0.6 0.1
v -4.7 0.6 0
v -4.6 0.6 0
v -4.7 0.7 0
v -4.6 0.7 0
v -4.7 0.7 -0.1
v -4.6 0.7 -0.1
v -4.7 0.7 -0.2
v -4.6 0.7 -0.2
v -4.7 0.7 -0.3
v -4.6 0.7 -0.3
v -4.9 0.8 0
v -4.7 0.8 0
v -4.9 0.8 -0.1
v -4.7 0.8 -0.1
v -4.6 0.8 -0.1
v -4.7 0.8 -0.2
v -4.6 0.8 -0.2
v -4.8 0.9 -0.1
v -4.7 0.9 -0.1
v -4.8 0.9 -0.2
v -4.7 0.9 -0.2
v -4.8 0.9 -0.3
v -4.7 0.9 -0.3
v -4.9 1 -0.1
v -4.8 1 -0.1
v -4.9 1 -0.2
v -4.8 1 -0.2
v -4.9 1 -0.3
v -4.8 1 -0.3
v -5.1 1.1 -0.1
v -4.9 1.1 -0.1
v -5.1 1.1 -0.2
v -5.1 1.1 -0.3
v -4.9 1.1 -0.3
v -5.3 1.3 -0.1
v -5.1 1.3 -0.1
v -5.3 1.3 -0.2
v -5.2 1.3 -0.2
v -5.2 1.3 -0.3
v -5.1 1.3 -0.3
v -5.3 1.4 -0.2
v -5.2 1.4 -0.2
v -5.3 1.4 -0.3
v -5.2 1.4 -0.3
v -5.4 1.5 -0.2
v -5.3 1.5 -0.2
v -5.4 1.5 -0.3
v -5.3 1.5 -0.3

# faces
f 3/7/1 2/7/1 1/7/1
f 4/7/1 2/7/1 3/7/1
f 7/7/1 6/7/1 5/7/1
f 8/7/1 6/7/1 7/7/1
f 9/7/1 6/7/1 8/7/1
f 10/7/1 6/7/1 9/7/1
f 14/7/1 12/7/1 11/7/1
f 15/6/1 13/6/1 12/6/1
f 15/7/1 12/7/1 14/7/1
f 16/6/1 13/6/1 15/6/1
f 19/7/1 18/7/1 17/7/1
f 20/7/1 18/7/1 19/7/1
f 21/7/1 18/7/1 20/7/1
f 29/4/1 23/4/1 22/4/1
f 30/3/1 24/3/1 23/3/1
f 30/4/1 23/4/1 29/4/1
f 31/2/1 25/2/1 24/2/1
f 31/3/1 24/3/1 30/3/1
f 32/2/1 25/2/1 31/2/1
f 33/4/1 27/4/1 26/4/1
f 34/2/1 28/2/1 27/2/1
f 34/4/1 27/4/1 33/4/1
f 35/2/1 28/2/1 34/2/1
f 36/5/1 31/5/1 30/5/1
f 37/5/1 31/5/1 36/5/1
f 40/7/1 39/7/1 38/7/1
f 41/7/1 39/7/1 40/7/1
f 45/7/1 43/7/1 42/7/1
f 46/7/1 43/7/1 45/7/1
f 47/7/1 45/7/1 44/7/1
f 48/7/1 45/7/1 47/7/1
f 49/6/1 46/6/1 45/6/1
f 49/7/1 45/7/1 48/7/1
f 50/6/1 46/6/1 49/6/1
f 55/1/1 52/1/1 51/1/1
f 56/1/1 52/1/1 55/1/1
f 57/7/1 54/7/1 53/7/1
f 58/7/1 54/7/1 57/7/1
f 59/7/1 57/7/1 56/7/1
f 59/7/1 58/7/1 57/7/1
f 60/7/1 58/7/1 59/7/1
f 61/7/1 58/7/1 60/7/1
f 63/7/1 61/7/1 60/7/1
f 63/7/1 62/7/1 61/7/1
f 64/7/1 62/7/1 63/7/1
f 65/7/1 62/7/1 64/7/1
f 67/7/1 66/7/1 65/7/1
f 67/7/1 65/7/1 64/7/1
f 68/7/1 66/7/1 67/7/1
f 69/7/1 67/7/1 64/7/1
f 70/7/1 67/7/1 69/7/1
f 73/5/1 72/5/1 71/5/1
f 74/5/1 72/5/1 73/5/1
f 77/7/1 76/7/1 75/7/1
f 78/7/1 76/7/1 77/7/1
f 81/5/1 80/5/1 79/5/1
f 82/5/1 80/5/1 81/5/1
f 89/4/1 84/4/1 83/4/1
f 90/4/1 84/4/1 89/4/1
f 91/1/1 86/1/1 85/1/1
f 92/1/1 86/1/1 91/1/1
f 93/1/1 88/1/1 87/1/1
f 94/1/1 88/1/1 93/1/1
f 95/5/1 90/5/1 89/5/1
f 96/5/1 90/5/1 95/5/1
f 97/5/1 92/5/1 91/5/1
f 98/5/1 92/5/1 97/5/1
f 101/4/1 100/4/1 99/4/1
f 102/4/1 100/4/1 101/4/1
f 105/5/1 104/5/1 103/5/1
f 106/5/1 104/5/1 105/5/1
f 107/7/2 108/7/2 109/7/2
f 109/7/2 108/7/2 110/7/2
f 111/7/2 112/7/2 113/7/2
f 113/7/2 112/7/2 114/7/2
f 115/7/2 116/7/2 118/7/2
f 116/6/2 117/6/2 118/6/2
f 118/6/2 117/6/2 119/6/2
f 115/7/2 118/7/2 120/7/2
f 118/7/2 119/7/2 120/7/2
f 120/7/2 119/7/2 121/7/2
f 122/4/2 123/4/2 126/4/2
f 126/4/2 123/4/2 127/4/2
f 124/2/2 125/2/2 128/2/2
f 128/2/2 125/2/2 129/2/2
f 127/5/2 128/5/2 130/5/2
f 130/5/2 128/5/2 131/5/2
f 132/7/2 133/7/2 135/7/2
f 133/7/2 134/7/2 135/7/2
f 135/7/2 134/7/2 136/7/2
f 137/7/2 138/7/2 140/7/2
f 138/6/2 139/6/2 141/6/2
f 140/7/2 138/7/2 141/7/2
f 141/6/2 139/6/2 142/6/2
f 143/1/2 144/1/2 145/1/2
f 145/1/2 144/1/2 146/1/2
f 147/7/2 148/7/2 151/7/2
f 151/7/2 148/7/2 152/7/2
f 149/7/2 150/7/2 153/7/2
f 153/7/2 150/7/2 154/7/2
f 152/7/2 153/7/2 155/7/2
f 153/6/2 154/6/2 156/6/2
f 155/7/2 153/7/2 156/7/2
f 156/6/2 154/6/2 157/6/2
f 158/7/2 159/7/2 162/7/2
f 159/1/2 160/1/2 163/1/2
f 162/7/2 159/7/2 163/7/2
f 163/1/2 160/1/2 164/1/2
f 161/7/2 162/7/2 165/7/2
f 162/7/2 163/7/2 165/7/2
f 161/7/2 165/7/2 166/7/2
f 166/7/2 165/7/2 167/7/2
f 161/7/2 166/7/2 168/7/2
f 166/6/2 167/6/2 169/6/2
f 168/7/2 166/7/2 169/7/2
f 169/6/2 167/6/2 170/6/2
f 169/7/2 170/7/2 172/7/2
f 170/7/2 171/7/2 172/7/2
f 172/7/2 171/7/2 173/7/2
f 169/7/2 172/7/2 175/7/2
f 175/7/2 172/7/2 176/7/2
f 172/6/2 173/6/2 177/6/2
f 176/7/2 172/7/2 177/7/2
f 173/7/2 174/7/2 178/7/2
f 177/6/2 173/6/2 178/6/2
f 178/7/2 174/7/2 179/7/2
f 176/7/2 177/7/2 180/7/2
f 177/7/2 178/7/2 180/7/2
f 180/7/2 178/7/2 181/7/2
f 178/6/2 179/6/2 182/6/2
f 181/7/2 178/7/2 182/7/2
f 182/6/2 179/6/2 183/6/2
f 181/7/2 182/7/2 184/7/2
f 184/7/2 182/7/2 185/7/2
f 186/5/2 187/5/2 188/5/2
f 188/5/2 187/5/2 189/5/2
f 190/5/2 191/5/2 192/5/2
f 192/5/2 191/5/2 193/5/2
f 193/5/2 194/5/2 195/5/2
f 195/5/2 194/5/2 196/5/2
f 197/5/2 198/5/2 201/5/2
f 201/5/2 198/5/2 202/5/2
f 199/5/2 200/5/2 203/5/2
f 203/5/2 200/5/2 204/5/2
f 205/2/2 206/2/2 212/2/2
f 206/4/2 207/4/2 213/4/2
f 212/2/2 206/2/2 213/2/2
f 207/2/2 208/2/2 214/2/2
f 213/4/2 207/4/2 214/4/2
f 214/2/2 208/2/2 215/2/2
f 209/4/2 210/4/2 216/4/2
f 210/1/2 211/1/2 217/1/2
f 216/4/2 210/4/2 217/4/2
f 217/1/2 211/1/2 218/1/2
f 219/5/2 220/5/2 221/5/2
f 221/5/2 220/5/2 222/5/2
f 225/4/3 224/4/3 223/4/3
f 226/4/3 224/4/3 225/4/3
f 227/2/3 226/2/3 225/2/3
f 228/2/3 226/2/3 227/2/3
f 231/5/3 230/5/3 229/5/3
f 232/5/3 230/5/3 231/5/3
f 236/5/3 234/5/3 233/5/3
f 237/5/3 234/5/3 236/5/3
f 238/1/3 236/1/3 235/1/3
f 239/1/3 236/1/3 238/1/3
f 242/7/3 240/7/3 239/7/3
f 243/7/3 242/7/3 241/7/3
f 244/7/3 240/7/3 242/7/3
f 244/7/3 242/7/3 243/7/3
f 245/7/3 240/7/3 244/7/3
f 246/5/3 244/5/3 243/5/3
f 247/5/3 244/5/3 246/5/3
f 250/7/3 249/7/3 248/7/3
f 252/7/3 250/7/3 248/7/3
f 252/7/3 251/7/3 250/7/3
f 253/7/3 251/7/3 252/7/3
f 257/1/3 255/1/3 254/1/3
f 258/5/3 256/5/3 255/5/3
f 258/1/3 255/1/3 257/1/3
f 259/5/3 256/5/3 258/5/3
f 261/5/3 260/5/3 259/5/3
f 262/5/3 260/5/3 261/5/3
f 266/7/3 264/7/3 263/7/3
f 267/7/3 266/7/3 265/7/3
f 268/7/3 266/7/3 267/7/3
f 269/7/3 264/7/3 266/7/3
f 269/7/3 266/7/3 268/7/3
f 270/7/3 264/7/3 269/7/3
f 271/7/3 269/7/3 268/7/3
f 272/7/3 269/7/3 271/7/3
f 276/7/3 274/7/3 273/7/3
f 278/7/3 276/7/3 275/7/3
f 279/7/3 276/7/3 278/7/3
f 280/7/3 274/7/3 276/7/3
f 280/7/3 276/7/3 279/7/3
f 284/7/3 279/7/3 278/7/3
f 284/7/3 278/7/3 277/7/3
f 285/7/3 284/7/3 283/7/3
f 286/7/3 279/7/3 284/7/3
f 286/7/3 284/7/3 285/7/3
f 287/7/3 279/7/3 286/7/3
f 288/4/3 282/4/3 281/4/3
f 289/4/3 282/4/3 288/4/3
f 290/7/3 286/7/3 285/7/3
f 291/7/3 286/7/3 290/7/3
f 293/7/3 290/7/3 285/7/3
f 294/7/3 290/7/3 293/7/3
f 297/7/3 293/7/3 292/7/3
f 298/7/3 293/7/3 297/7/3
f 300/5/3 296/5/3 295/5/3
f 301/5/3 296/5/3 300/5/3
f 302/1/3 300/1/3 299/1/3
f 303/1/3 300/1/3 302/1/3
f 304/4/3 303/4/3 302/4/3
f 305/4/3 303/4/3 304/4/3
f 309/7/3 307/7/3 306/7/3
f 310/7/3 307/7/3 309/7/3
f 311/7/3 309/7/3 308/7/3
f 312/7/3 309/7/3 311/7/3
f 315/7/3 314/7/3 313/7/3
f 316/7/3 314/7/3 315/7/3
f 321/4/3 318/4/3 317/4/3
f 322/4/3 318/4/3 321/4/3
f 323/5/3 320/5/3 319/5/3
f 324/5/3 320/5/3 323/5/3
f 325/4/4 326/4/4 327/4/4
f 327/4/4 326/4/4 328/4/4
f 329/4/4 330/4/4 331/4/4
f 331/4/4 330/4/4 332/4/4
f 331/2/4 332/2/4 333/2/4
f 333/2/4 332/2/4 334/2/4
f 335/4/4 336/4/4 338/4/4
f 336/5/4 337/5/4 339/5/4
f 338/4/4 336/4/4 339/4/4
f 339/5/4 337/5/4 340/5/4
f 341/5/4 342/5/4 344/5/4
f 344/5/4 342/5/4 345/5/4
f 343/1/4 344/1/4 346/1/4
f 346/1/4 344/1/4 347/1/4
f 348/5/4 349/5/4 350/5/4
f 350/5/4 349/5/4 351/5/4
f 352/2/4 353/2/4 354/2/4
f 354/2/4 353/2/4 355/2/4
f 356/1/4 357/1/4 359/1/4
f 357/5/4 358/5/4 360/5/4
f 359/1/4 357/1/4 360/1/4
f 360/5/4 358/5/4 361/5/4
f 359/2/4 360/2/4 363/2/4
f 363/2/4 360/2/4 364/2/4
f 361/5/4 362/5/4 365/5/4
f 365/5/4 362/5/4 366/5/4
f 367/7/4 368/7/4 369/7/4
f 369/7/4 368/7/4 370/7/4
f 370/7/4 368/7/4 371/7/4
f 371/7/4 368/7/4 372/7/4
f 370/7/4 371/7/4 373/7/4
f 371/6/4 372/6/4 374/6/4
f 373/7/4 371/7/4 374/7/4
f 374/6/4 372/6/4 375/6/4
f 378/5/4 379/5/4 382/5/4
f 376/7/4 377/7/4 383/7/4
f 383/7/4 377/7/4 384/7/4
f 380/7/4 381/7/4 385/7/4
f 385/7/4 381/7/4 386/7/4
f 378/5/4 382/5/4 387/5/4
f 387/5/4 382/5/4 388/5/4
f 389/7/4 390/7/4 392/7/4
f 392/7/4 390/7/4 393/7/4
f 391/7/4 392/7/4 395/7/4
f 395/7/4 392/7/4 396/7/4
f 396/7/4 392/7/4 397/7/4
f 394/6/4 395/6/4 399/6/4
f 399/6/4 395/6/4 400/6/4
f 395/7/4 396/7/4 401/7/4
f 400/6/4 395/6/4 401/6/4
f 401/7/4 396/7/4 402/7/4
f 399/7/4 400/7/4 406/7/4
f 398/7/4 399/7/4 406/7/4
f 406/7/4 400/7/4 407/7/4
f 405/7/4 406/7/4 410/7/4
f 406/6/4 407/6/4 411/6/4
f 407/7/4 400/7/4 411/7/4
f 411/7/4 400/7/4 412/7/4
f 408/7/4 409/7/4 414/7/4
f 409/6/4 410/6/4 415/6/4
f 414/7/4 409/7/4 415/7/4
f 410/7/4 406/7/4 416/7/4
f 415/6/4 410/6/4 416/6/4
f 406/6/4 411/6/4 417/6/4
f 416/7/4 406/7/4 417/7/4
f 417/6/4 411/6/4 418/6/4
f 403/2/4 404/2/4 419/2/4
f 419/2/4 404/2/4 420/2/4
f 413/7/4 414/7/4 421/7/4
f 414/7/4 415/7/4 421/7/4
f 415/7/4 416/7/4 421/7/4
f 421/7/4 416/7/4 422/7/4
f 416/6/4 417/6/4 423/6/4
f 422/7/4 416/7/4 423/7/4
f 423/6/4 417/6/4 424/6/4
f 413/7/4 421/7/4 427/7/4
f 421/6/4 422/6/4 428/6/4
f 427/7/4 421/7/4 428/7/4
f 428/6/4 422/6/4 429/6/4
f 425/5/4 426/5/4 430/5/4
f 430/5/4 426/5/4 431/5/4
f 419/4/4 420/4/4 432/4/4
f 432/4/4 420/4/4 433/4/4
f 432/1/4 433/1/4 434/1/4
f 434/1/4 433/1/4 435/1/4
f 439/4/5 437/4/5 436/4/5
f 440/4/5 437/4/5 439/4/5
f 441/4/5 437/4/5 440/4/5
f 442/2/5 438/2/5 437/2/5
f 442/4/5 437/4/5 441/4/5
f 443/2/5 438/2/5 442/2/5
f 444/2/5 438/2/5 443/2/5
f 445/4/5 439/4/5 436/4/5
f 446/4/5 439/4/5 445/4/5
f 447/1/5 441/1/5 440/1/5
f 448/1/5 441/1/5 447/1/5
f 450/4/5 444/4/5 443/4/5
f 451/4/5 444/4/5 450/4/5
f 452/3/5 446/3/5 445/3/5
f 453/1/5 447/1/5 446/1/5
f 453/3/5 446/3/5 452/3/5
f 454/7/5 449/7/5 448/7/5
f 454/1/5 447/1/5 453/1/5
f 454/7/5 448/7/5 447/7/5
f 455/5/5 450/5/5 449/5/5
f 455/7/5 449/7/5 454/7/5
f 456/5/5 450/5/5 455/5/5
f 457/4/5 444/4/5 451/4/5
f 458/4/5 444/4/5 457/4/5
f 459/2/5 453/2/5 452/2/5
f 460/2/5 453/2/5 459/2/5
f 461/1/5 457/1/5 456/1/5
f 462/2/5 458/2/5 457/2/5
f 462/1/5 457/1/5 461/1/5
f 463/2/5 458/2/5 462/2/5
f 465/7/5 455/7/5 454/7/5
f 466/7/5 455/7/5 465/7/5
f 467/7/5 455/7/5 466/7/5
f 471/4/5 465/4/5 464/4/5
f 471/4/5 466/4/5 465/4/5
f 472/1/5 467/1/5 466/1/5
f 472/4/5 466/4/5 471/4/5
f 473/1/5 467/1/5 472/1/5
f 474/1/5 469/1/5 468/1/5
f 475/4/5 470/4/5 469/4/5
f 475/1/5 469/1/5 474/1/5
f 476/4/5 470/4/5 475/4/5
f 477/2/5 472/2/5 471/2/5
f 478/4/5 474/4/5 473/4/5
f 478/2/5 472/2/5 477/2/5
f 478/4/5 473/4/5 472/4/5
f 478/4/5 475/4/5 474/4/5
f 479/1/5 476/1/5 475/1/5
f 479/4/5 475/4/5 478/4/5
f 480/1/5 476/1/5 479/1/5
f 483/5/5 482/5/5 481/5/5
f 484/5/5 482/5/5 483/5/5
f 487/5/5 486/5/5 485/5/5
f 488/5/5 486/5/5 487/5/5
f 491/5/5 490/5/5 489/5/5
f 492/5/5 490/5/5 491/5/5
f 496/7/5 494/7/5 493/7/5
f 496/7/5 495/7/5 494/7/5
f 497/7/5 495/7/5 496/7/5
f 500/7/5 499/7/5 498/7/5
f 501/7/5 499/7/5 500/7/5
f 504/7/5 503/7/5 502/7/5
f 505/7/5 503/7/5 504/7/5
f 508/7/5 507/7/5 506/7/5
f 509/7/5 507/7/5 508/7/5
f 512/7/5 511/7/5 510/7/5
f 513/7/5 512/7/5 510/7/5
f 514/7/5 512/7/5 513/7/5
f 517/7/5 516/7/5 515/7/5
f 518/7/5 516/7/5 517/7/5
f 521/7/5 520/7/5 519/7/5
f 522/7/5 520/7/5 521/7/5
f 523/6/5 522/6/5 521/6/5
f 524/6/5 522/6/5 523/6/5
f 527/7/5 526/7/5 525/7/5
f 528/7/5 527/7/5 525/7/5
f 529/7/5 527/7/5 528/7/5
f 532/7/5 531/7/5 530/7/5
f 533/7/5 531/7/5 532/7/5
f 534/4/6 535/4/6 537/4/6
f 537/4/6 535/4/6 538/4/6
f 538/4/6 535/4/6 539/4/6
f 535/2/6 536/2/6 540/2/6
f 539/4/6 535/4/6 540/4/6
f 540/2/6 536/2/6 541/2/6
f 541/2/6 536/2/6 542/2/6
f 542/2/6 536/2/6 543/2/6
f 534/4/6 537/4/6 544/4/6
f 544/4/6 537/4/6 545/4/6
f 538/1/6 539/1/6 546/1/6
f 546/1/6 539/1/6 547/1/6
f 542/4/6 543/4/6 550/4/6
f 545/1/6 546/1/6 552/1/6
f 552/1/6 546/1/6 553/1/6
f 548/5/6 549/5/6 554/5/6
f 554/5/6 549/5/6 555/5/6
f 550/4/6 543/4/6 556/4/6
f 556/4/6 543/4/6 557/4/6
f 551/2/6 552/2/6 558/2/6
f 558/2/6 552/2/6 559/2/6
f 556/2/6 557/2/6 560/2/6
f 560/2/6 557/2/6 561/2/6
f 562/4/6 563/4/6 568/4/6
f 563/4/6 564/4/6 568/4/6
f 568/4/6 564/4/6 569/4/6
f 565/1/6 566/1/6 570/1/6
f 566/4/6 567/4/6 571/4/6
f 570/1/6 566/1/6 571/1/6
f 571/4/6 567/4/6 572/4/6
f 568/2/6 569/2/6 573/2/6
f 569/4/6 570/4/6 574/4/6
f 573/2/6 569/2/6 574/2/6
f 570/4/6 571/4/6 574/4/6
f 571/1/6 572/1/6 575/1/6
f 574/4/6 571/4/6 575/4/6
f 575/1/6 572/1/6 576/1/6
f 577/5/6 578/5/6 581/5/6
f 581/5/6 578/5/6 582/5/6
f 579/5/6 580/5/6 583/5/6
f 583/5/6 580/5/6 584/5/6
f 585/5/6 586/5/6 588/5/6
f 586/5/6 587/5/6 588/5/6
f 588/5/6 587/5/6 589/5/6
f 589/5/6 587/5/6 590/5/6
f 591/5/6 592/5/6 593/5/6
f 593/5/6 592/5/6 594/5/6
f 595/5/6 596/5/6 597/5/6
f 597/5/6 596/5/6 598/5/6
f 599/7/6 600/7/6 601/7/6
f 601/7/6 600/7/6 602/7/6
f 603/5/6 604/5/6 605/5/6
f 605/5/6 604/5/6 606/5/6
f 607/7/6 608/7/6 609/7/6
f 609/7/6 608/7/6 610/7/6
f 611/7/6 612/7/6 613/7/6
f 613/7/6 612/7/6 614/7/6
f 615/7/6 616/7/6 617/7/6
f 617/7/6 616/7/6 618/7/6
f 619/6/6 620/6/6 621/6/6
f 621/6/6 620/6/6 622/6/6
f 623/7/6 624/7/6 625/7/6
f 625/7/6 624/7/6 626/7/6
f 626/7/6 627/7/6 628/7/6
f 628/7/6 627/7/6 629/7/6
f 630/7/6 631/7/6 632/7/6
f 632/7/6 631/7/6 633/7/6
f 632/6/6 633/6/6 634/6/6
f 634/6/6 633/6/6 635/6/6
f 636/7/6 637/7/6 638/7/6
f 638/7/6 637/7/6 639/7/6
f 638/6/6 639/6/6 640/6/6
f 640/6/6 639/6/6 641/6/6
f 642/7/6 643/7/6 644/7/6
f 644/7/6 643/7/6 645/7/6
f 645/7/6 643/7/6 646/7/6
f 647/7/6 648/7/6 649/7/6
f 649/7/6 648/7/6 650/7/6
f 650/7/6 648/7/6 651/7/6
f 651/7/6 648/7/6 652/7/6
f 653/7/6 654/7/6 655/7/6
f 655/7/6 654/7/6 656/7/6
f 657/7/6 658/7/6 659/7/6
f 659/7/6 658/7/6 660/7/6
