# MagicaVoxel @ Ephtracy

# group
o deck1-kraken-1

# material
mtllib environ-3-deck1-kraken-1.mtl
usemtl palette

# normals
vn -1 0 0
vn 1 0 0
vn 0 0 1
vn 0 0 -1
vn 0 -1 0
vn 0 1 0

# texcoords
vt 0.197266 0.5
vt 0.201172 0.5
vt 0.216797 0.5
vt 0.232422 0.5
vt 0.685547 0.5
vt 0.783203 0.5
vt 0.794922 0.5

# verts
v -3.1 0 0.4
v -3.1 0 0.2
v -3.1 0 0.1
v -3.1 0 0
v -3.1 0 -0.1
v -3.1 0 -0.2
v -3.1 0 -0.3
v -3.1 0.1 0.4
v -3.1 0.1 0.2
v -3.1 0.1 0.1
v -3.1 0.1 0
v -3.1 0.1 -0.1
v -3.1 0.1 -0.2
v -3.1 0.1 -0.3
v -3.1 0.2 0.2
v -3.1 0.2 0.1
v -2.9 0 0.3
v -2.9 0 0.2
v -2.9 0 0.1
v -2.9 0 -0.1
v -2.9 0.1 0.3
v -2.9 0.1 0.2
v -2.9 0.1 0.1
v -2.9 0.1 -0.1
v -2.9 0.3 0.1
v -2.9 0.3 -0.1
v -2.8 0.1 -0.1
v -2.8 0.1 -0.2
v -2.8 0.2 -0.1
v -2.8 0.2 -0.2
v -2.8 0.2 -0.3
v -2.8 0.3 0.1
v -2.8 0.3 -0.1
v -2.8 0.3 -0.2
v -2.8 0.3 -0.3
v -2.8 0.5 0.1
v -2.8 0.5 -0.1
v -2.7 0.5 0
v -2.7 0.5 -0.1
v -2.7 0.6 0
v -2.7 0.6 -0.1
v -2.6 0 0.3
v -2.6 0 0.2
v -2.6 0 0.1
v -2.6 0 0
v -2.6 0 -0.1
v -2.6 0 -0.2
v -2.6 0.1 0.3
v -2.6 0.1 0.2
v -2.6 0.1 0.1
v -2.6 0.1 0
v -2.6 0.1 -0.1
v -2.6 0.1 -0.2
v -2.6 0.2 0.3
v -2.6 0.2 0.2
v -2.6 0.6 0
v -2.6 0.6 -0.1
v -2.6 0.7 0
v -2.6 0.7 -0.1
v -2.5 0 0.2
v -2.5 0 0.1
v -2.5 0.1 0.2
v -2.5 0.1 0.1
v -3 0 0.3
v -3 0 0.2
v -3 0 0.1
v -3 0 0
v -3 0.1 0.3
v -3 0.1 0.2
v -3 0.1 0.1
v -3 0.1 0
v -3 0.2 0.2
v -3 0.2 0.1
v -2.9 0 0.2
v -2.9 0 0.1
v -2.9 0.1 0.2
v -2.9 0.1 0.1
v -2.8 0 0.3
v -2.8 0 0.2
v -2.8 0.1 0.3
v -2.8 0.1 0.2
v -2.7 0 0.1
v -2.7 0 -0.1
v -2.7 0 -0.2
v -2.7 0.1 0.1
v -2.7 0.1 -0.1
v -2.7 0.1 -0.2
v -2.7 0.2 0.1
v -2.7 0.2 -0.1
v -2.7 0.2 -0.2
v -2.7 0.2 -0.3
v -2.7 0.3 0.1
v -2.7 0.3 -0.1
v -2.7 0.3 -0.2
v -2.7 0.3 -0.3
v -2.6 0.3 0.1
v -2.6 0.3 -0.1
v -2.6 0.4 0.1
v -2.6 0.4 -0.1
v -2.6 0.5 0.1
v -2.6 0.5 0
v -2.6 0.5 -0.1
v -2.5 0.1 0.3
v -2.5 0.1 0.2
v -2.5 0.2 0.3
v -2.5 0.2 0.2
v -2.5 0.5 0
v -2.5 0.5 -0.1
v -2.5 0.6 0
v -2.5 0.6 -0.1
v -2.5 0.7 0
v -2.5 0.7 -0.1
v -2.4 0 0.4
v -2.4 0 0.3
v -2.4 0 0.1
v -2.4 0 0
v -2.4 0 -0.1
v -2.4 0 -0.2
v -2.4 0 -0.3
v -2.4 0.1 0.4
v -2.4 0.1 0.3
v -2.4 0.1 0.1
v -2.4 0.1 0
v -2.4 0.1 -0.1
v -2.4 0.1 -0.2
v -2.4 0.1 -0.3
v -3.1 0 0.4
v -3.1 0.1 0.4
v -2.7 0 0.4
v -2.7 0.1 0.4
v -2.4 0 0.4
v -2.4 0.1 0.4
v -2.6 0.1 0.3
v -2.6 0.2 0.3
v -2.5 0.1 0.3
v -2.5 0.2 0.3
v -3.1 0.1 0.2
v -3.1 0.2 0.2
v -3 0 0.2
v -3 0.1 0.2
v -3 0.2 0.2
v -2.9 0 0.2
v -2.9 0.1 0.2
v -2.9 0 0.1
v -2.9 0.1 0.1
v -2.9 0.3 0.1
v -2.8 0.1 0.1
v -2.8 0.2 0.1
v -2.8 0.3 0.1
v -2.8 0.5 0.1
v -2.7 0 0.1
v -2.7 0.1 0.1
v -2.7 0.2 0.1
v -2.7 0.3 0.1
v -2.7 0.4 0.1
v -2.6 0 0.1
v -2.6 0.1 0.1
v -2.6 0.3 0.1
v -2.6 0.4 0.1
v -2.6 0.5 0.1
v -2.5 0 0.1
v -2.5 0.1 0.1
v -2.7 0.5 0
v -2.7 0.6 0
v -2.6 0.5 0
v -2.6 0.6 0
v -2.6 0.7 0
v -2.5 0.5 0
v -2.5 0.6 0
v -2.5 0.7 0
v -3.1 0 -0.1
v -3.1 0.1 -0.1
v -2.9 0 -0.1
v -2.9 0.1 -0.1
v -2.6 0 -0.1
v -2.6 0.1 -0.1
v -2.5 0 -0.1
v -2.5 0.1 -0.1
v -2.4 0 -0.1
v -2.4 0.1 -0.1
v -2.8 0.2 -0.2
v -2.8 0.3 -0.2
v -2.7 0 -0.2
v -2.7 0.1 -0.2
v -2.7 0.2 -0.2
v -2.7 0.3 -0.2
v -2.6 0 -0.2
v -2.6 0.1 -0.2
v -3 0 0.3
v -3 0.1 0.3
v -2.9 0 0.3
v -2.9 0.1 0.3
v -2.8 0 0.3
v -2.8 0.1 0.3
v -2.7 0 0.3
v -2.7 0.1 0.3
v -2.6 0 0.3
v -2.6 0.1 0.3
v -2.9 0 0.2
v -2.9 0.1 0.2
v -2.8 0 0.2
v -2.8 0.1 0.2
v -2.6 0 0.2
v -2.6 0.1 0.2
v -2.6 0.2 0.2
v -2.5 0 0.2
v -2.5 0.1 0.2
v -2.5 0.2 0.2
v -3.1 0.1 0.1
v -3.1 0.2 0.1
v -3 0 0.1
v -3 0.1 0.1
v -3 0.2 0.1
v -2.9 0 0.1
v -2.9 0.1 0.1
v -3.1 0 0
v -3.1 0.1 0
v -3 0 0
v -3 0.1 0
v -2.6 0 0
v -2.6 0.1 0
v -2.5 0 0
v -2.5 0.1 0
v -2.4 0 0
v -2.4 0.1 0
v -2.9 0.1 -0.1
v -2.9 0.3 -0.1
v -2.8 0.1 -0.1
v -2.8 0.2 -0.1
v -2.8 0.3 -0.1
v -2.8 0.5 -0.1
v -2.7 0.2 -0.1
v -2.7 0.3 -0.1
v -2.7 0.4 -0.1
v -2.7 0.5 -0.1
v -2.7 0.6 -0.1
v -2.6 0.3 -0.1
v -2.6 0.4 -0.1
v -2.6 0.5 -0.1
v -2.6 0.6 -0.1
v -2.6 0.7 -0.1
v -2.5 0.5 -0.1
v -2.5 0.6 -0.1
v -2.5 0.7 -0.1
v -2.8 0.1 -0.2
v -2.8 0.2 -0.2
v -2.7 0.1 -0.2
v -2.7 0.2 -0.2
v -3.1 0 -0.3
v -3.1 0.1 -0.3
v -2.8 0 -0.3
v -2.8 0.1 -0.3
v -2.8 0.2 -0.3
v -2.8 0.3 -0.3
v -2.7 0.2 -0.3
v -2.7 0.3 -0.3
v -2.5 0 -0.3
v -2.5 0.1 -0.3
v -2.4 0 -0.3
v -2.4 0.1 -0.3
v -3.1 0 0.4
v -2.7 0 0.4
v -2.4 0 0.4
v -3 0 0.3
v -2.9 0 0.3
v -2.8 0 0.3
v -2.7 0 0.3
v -2.6 0 0.3
v -2.4 0 0.3
v -3.1 0 0.2
v -3 0 0.2
v -2.9 0 0.2
v -2.8 0 0.2
v -2.6 0 0.2
v -2.5 0 0.2
v -3.1 0 0.1
v -3 0 0.1
v -2.9 0 0.1
v -2.7 0 0.1
v -2.6 0 0.1
v -2.5 0 0.1
v -2.4 0 0.1
v -3.1 0 0
v -3 0 0
v -2.6 0 0
v -2.5 0 0
v -2.4 0 0
v -3.1 0 -0.1
v -2.9 0 -0.1
v -2.8 0 -0.1
v -2.7 0 -0.1
v -2.6 0 -0.1
v -2.5 0 -0.1
v -2.4 0 -0.1
v -3.1 0 -0.2
v -2.8 0 -0.2
v -2.7 0 -0.2
v -2.6 0 -0.2
v -2.5 0 -0.2
v -2.4 0 -0.2
v -3.1 0 -0.3
v -2.8 0 -0.3
v -2.5 0 -0.3
v -2.4 0 -0.3
v -2.8 0.2 -0.2
v -2.7 0.2 -0.2
v -2.8 0.2 -0.3
v -2.7 0.2 -0.3
v -2.7 0.3 0.1
v -2.6 0.3 0.1
v -2.7 0.3 -0.1
v -2.6 0.3 -0.1
v -2.6 0.5 0
v -2.5 0.5 0
v -2.6 0.5 -0.1
v -2.5 0.5 -0.1
v -3.1 0.1 0.4
v -2.7 0.1 0.4
v -2.4 0.1 0.4
v -3 0.1 0.3
v -2.9 0.1 0.3
v -2.8 0.1 0.3
v -2.7 0.1 0.3
v -2.6 0.1 0.3
v -2.5 0.1 0.3
v -2.4 0.1 0.3
v -3.1 0.1 0.2
v -3 0.1 0.2
v -2.9 0.1 0.2
v -2.8 0.1 0.2
v -2.5 0.1 0.2
v -3.1 0.1 0.1
v -3 0.1 0.1
v -2.9 0.1 0.1
v -2.6 0.1 0.1
v -2.5 0.1 0.1
v -2.4 0.1 0.1
v -3.1 0.1 0
v -3 0.1 0
v -2.6 0.1 0
v -2.5 0.1 0
v -2.4 0.1 0
v -3.1 0.1 -0.1
v -2.9 0.1 -0.1
v -2.8 0.1 -0.1
v -2.6 0.1 -0.1
v -2.5 0.1 -0.1
v -2.4 0.1 -0.1
v -3.1 0.1 -0.2
v -2.8 0.1 -0.2
v -2.7 0.1 -0.2
v -2.6 0.1 -0.2
v -2.5 0.1 -0.2
v -2.4 0.1 -0.2
v -3.1 0.1 -0.3
v -2.8 0.1 -0.3
v -2.5 0.1 -0.3
v -2.4 0.1 -0.3
v -2.6 0.2 0.3
v -2.5 0.2 0.3
v -3.1 0.2 0.2
v -3 0.2 0.2
v -2.6 0.2 0.2
v -2.5 0.2 0.2
v -3.1 0.2 0.1
v -3 0.2 0.1
v -2.8 0.2 -0.1
v -2.7 0.2 -0.1
v -2.8 0.2 -0.2
v -2.7 0.2 -0.2
v -2.9 0.3 0.1
v -2.8 0.3 0.1
v -2.9 0.3 -0.1
v -2.8 0.3 -0.1
v -2.8 0.3 -0.2
v -2.7 0.3 -0.2
v -2.8 0.3 -0.3
v -2.7 0.3 -0.3
v -2.8 0.5 0.1
v -2.6 0.5 0.1
v -2.7 0.5 0
v -2.6 0.5 0
v -2.8 0.5 -0.1
v -2.7 0.5 -0.1
v -2.7 0.6 0
v -2.6 0.6 0
v -2.7 0.6 -0.1
v -2.6 0.6 -0.1
v -2.6 0.7 0
v -2.5 0.7 0
v -2.6 0.7 -0.1
v -2.5 0.7 -0.1

# faces
f 8/4/1 2/4/1 1/4/1
f 9/3/1 3/3/1 2/3/1
f 9/4/1 2/4/1 8/4/1
f 10/2/1 4/2/1 3/2/1
f 10/3/1 3/3/1 9/3/1
f 11/2/1 4/2/1 10/2/1
f 12/4/1 6/4/1 5/4/1
f 13/2/1 7/2/1 6/2/1
f 13/4/1 6/4/1 12/4/1
f 14/2/1 7/2/1 13/2/1
f 15/5/1 10/5/1 9/5/1
f 16/5/1 10/5/1 15/5/1
f 21/1/1 18/1/1 17/1/1
f 22/1/1 18/1/1 21/1/1
f 23/7/1 20/7/1 19/7/1
f 24/7/1 20/7/1 23/7/1
f 25/7/1 24/7/1 23/7/1
f 26/7/1 24/7/1 25/7/1
f 29/5/1 28/5/1 27/5/1
f 30/5/1 28/5/1 29/5/1
f 34/5/1 31/5/1 30/5/1
f 35/5/1 31/5/1 34/5/1
f 36/7/1 33/7/1 32/7/1
f 37/7/1 33/7/1 36/7/1
f 40/6/1 39/6/1 38/6/1
f 41/6/1 39/6/1 40/6/1
f 48/4/1 43/4/1 42/4/1
f 49/4/1 43/4/1 48/4/1
f 50/1/1 45/1/1 44/1/1
f 51/1/1 45/1/1 50/1/1
f 52/1/1 47/1/1 46/1/1
f 53/1/1 47/1/1 52/1/1
f 54/5/1 49/5/1 48/5/1
f 55/5/1 49/5/1 54/5/1
f 58/6/1 57/6/1 56/6/1
f 59/6/1 57/6/1 58/6/1
f 62/4/1 61/4/1 60/4/1
f 63/4/1 61/4/1 62/4/1
f 64/4/2 65/4/2 68/4/2
f 68/4/2 65/4/2 69/4/2
f 66/2/2 67/2/2 70/2/2
f 70/2/2 67/2/2 71/2/2
f 69/5/2 70/5/2 72/5/2
f 72/5/2 70/5/2 73/5/2
f 74/1/2 75/1/2 76/1/2
f 76/1/2 75/1/2 77/1/2
f 78/1/2 79/1/2 80/1/2
f 80/1/2 79/1/2 81/1/2
f 82/7/2 83/7/2 85/7/2
f 83/1/2 84/1/2 86/1/2
f 85/7/2 83/7/2 86/7/2
f 86/1/2 84/1/2 87/1/2
f 85/6/2 86/6/2 88/6/2
f 86/5/2 87/5/2 89/5/2
f 88/6/2 86/6/2 89/6/2
f 89/5/2 87/5/2 90/5/2
f 88/7/2 89/7/2 92/7/2
f 92/7/2 89/7/2 93/7/2
f 90/5/2 91/5/2 94/5/2
f 94/5/2 91/5/2 95/5/2
f 96/6/2 97/6/2 98/6/2
f 98/6/2 97/6/2 99/6/2
f 98/7/2 99/7/2 100/7/2
f 100/7/2 99/7/2 101/7/2
f 101/7/2 99/7/2 102/7/2
f 103/5/2 104/5/2 105/5/2
f 105/5/2 104/5/2 106/5/2
f 107/7/2 108/7/2 109/7/2
f 109/7/2 108/7/2 110/7/2
f 109/6/2 110/6/2 111/6/2
f 111/6/2 110/6/2 112/6/2
f 113/2/2 114/2/2 120/2/2
f 114/4/2 115/4/2 121/4/2
f 120/2/2 114/2/2 121/2/2
f 115/2/2 116/2/2 122/2/2
f 121/4/2 115/4/2 122/4/2
f 122/2/2 116/2/2 123/2/2
f 117/4/2 118/4/2 124/4/2
f 118/1/2 119/1/2 125/1/2
f 124/4/2 118/4/2 125/4/2
f 125/1/2 119/1/2 126/1/2
f 129/4/3 128/4/3 127/4/3
f 130/4/3 128/4/3 129/4/3
f 131/2/3 130/2/3 129/2/3
f 132/2/3 130/2/3 131/2/3
f 135/5/3 134/5/3 133/5/3
f 136/5/3 134/5/3 135/5/3
f 140/5/3 138/5/3 137/5/3
f 141/5/3 138/5/3 140/5/3
f 142/1/3 140/1/3 139/1/3
f 143/1/3 140/1/3 142/1/3
f 147/7/3 145/7/3 144/7/3
f 147/7/3 146/7/3 145/7/3
f 148/7/3 146/7/3 147/7/3
f 149/7/3 146/7/3 148/7/3
f 151/7/3 147/7/3 144/7/3
f 152/6/3 148/6/3 147/6/3
f 152/7/3 147/7/3 151/7/3
f 153/7/3 150/7/3 149/7/3
f 153/6/3 148/6/3 152/6/3
f 153/7/3 149/7/3 148/7/3
f 154/7/3 150/7/3 153/7/3
f 155/7/3 150/7/3 154/7/3
f 158/6/3 155/6/3 154/6/3
f 159/7/3 150/7/3 155/7/3
f 159/6/3 155/6/3 158/6/3
f 160/7/3 150/7/3 159/7/3
f 161/1/3 157/1/3 156/1/3
f 162/1/3 157/1/3 161/1/3
f 165/6/3 164/6/3 163/6/3
f 166/6/3 164/6/3 165/6/3
f 168/7/3 166/7/3 165/7/3
f 169/6/3 167/6/3 166/6/3
f 169/7/3 166/7/3 168/7/3
f 170/6/3 167/6/3 169/6/3
f 173/4/3 172/4/3 171/4/3
f 174/4/3 172/4/3 173/4/3
f 177/1/3 176/1/3 175/1/3
f 178/1/3 176/1/3 177/1/3
f 179/4/3 178/4/3 177/4/3
f 180/4/3 178/4/3 179/4/3
f 185/5/3 182/5/3 181/5/3
f 186/5/3 182/5/3 185/5/3
f 187/4/3 184/4/3 183/4/3
f 188/4/3 184/4/3 187/4/3
f 189/4/4 190/4/4 191/4/4
f 191/4/4 190/4/4 192/4/4
f 193/4/4 194/4/4 195/4/4
f 195/4/4 194/4/4 196/4/4
f 195/2/4 196/2/4 197/2/4
f 197/2/4 196/2/4 198/2/4
f 199/1/4 200/1/4 201/1/4
f 201/1/4 200/1/4 202/1/4
f 203/4/4 204/4/4 206/4/4
f 204/5/4 205/5/4 207/5/4
f 206/4/4 204/4/4 207/4/4
f 207/5/4 205/5/4 208/5/4
f 209/5/4 210/5/4 212/5/4
f 212/5/4 210/5/4 213/5/4
f 211/1/4 212/1/4 214/1/4
f 214/1/4 212/1/4 215/1/4
f 216/2/4 217/2/4 218/2/4
f 218/2/4 217/2/4 219/2/4
f 220/1/4 221/1/4 222/1/4
f 222/1/4 221/1/4 223/1/4
f 222/2/4 223/2/4 224/2/4
f 224/2/4 223/2/4 225/2/4
f 226/7/4 227/7/4 228/7/4
f 228/7/4 227/7/4 229/7/4
f 229/7/4 227/7/4 230/7/4
f 230/7/4 231/7/4 232/7/4
f 229/7/4 230/7/4 232/7/4
f 232/7/4 231/7/4 233/7/4
f 233/7/4 231/7/4 234/7/4
f 234/7/4 231/7/4 235/7/4
f 233/6/4 234/6/4 237/6/4
f 234/7/4 235/7/4 238/7/4
f 237/6/4 234/6/4 238/6/4
f 235/6/4 236/6/4 239/6/4
f 238/7/4 235/7/4 239/7/4
f 239/6/4 236/6/4 240/6/4
f 239/7/4 240/7/4 242/7/4
f 240/6/4 241/6/4 243/6/4
f 242/7/4 240/7/4 243/7/4
f 243/6/4 241/6/4 244/6/4
f 245/5/4 246/5/4 247/5/4
f 247/5/4 246/5/4 248/5/4
f 249/2/4 250/2/4 251/2/4
f 251/2/4 250/2/4 252/2/4
f 253/5/4 254/5/4 255/5/4
f 255/5/4 254/5/4 256/5/4
f 251/4/4 252/4/4 257/4/4
f 257/4/4 252/4/4 258/4/4
f 257/1/4 258/1/4 259/1/4
f 259/1/4 258/1/4 260/1/4
f 264/4/5 262/4/5 261/4/5
f 265/4/5 262/4/5 264/4/5
f 266/4/5 262/4/5 265/4/5
f 267/2/5 263/2/5 262/2/5
f 267/4/5 262/4/5 266/4/5
f 268/2/5 263/2/5 267/2/5
f 269/2/5 263/2/5 268/2/5
f 270/4/5 264/4/5 261/4/5
f 271/4/5 264/4/5 270/4/5
f 272/1/5 266/1/5 265/1/5
f 273/1/5 266/1/5 272/1/5
f 274/4/5 269/4/5 268/4/5
f 275/4/5 269/4/5 274/4/5
f 276/3/5 271/3/5 270/3/5
f 277/1/5 272/1/5 271/1/5
f 277/3/5 271/3/5 276/3/5
f 278/1/5 272/1/5 277/1/5
f 281/4/5 269/4/5 275/4/5
f 282/4/5 269/4/5 281/4/5
f 283/2/5 277/2/5 276/2/5
f 284/2/5 277/2/5 283/2/5
f 285/1/5 281/1/5 280/1/5
f 286/2/5 282/2/5 281/2/5
f 286/1/5 281/1/5 285/1/5
f 287/2/5 282/2/5 286/2/5
f 289/7/5 279/7/5 278/7/5
f 290/7/5 279/7/5 289/7/5
f 291/7/5 279/7/5 290/7/5
f 295/4/5 289/4/5 288/4/5
f 295/4/5 290/4/5 289/4/5
f 296/1/5 291/1/5 290/1/5
f 296/4/5 290/4/5 295/4/5
f 297/1/5 291/1/5 296/1/5
f 298/1/5 293/1/5 292/1/5
f 299/4/5 294/4/5 293/4/5
f 299/1/5 293/1/5 298/1/5
f 300/4/5 294/4/5 299/4/5
f 301/2/5 296/2/5 295/2/5
f 302/4/5 298/4/5 297/4/5
f 302/2/5 296/2/5 301/2/5
f 302/4/5 297/4/5 296/4/5
f 302/4/5 299/4/5 298/4/5
f 303/1/5 300/1/5 299/1/5
f 303/4/5 299/4/5 302/4/5
f 304/1/5 300/1/5 303/1/5
f 307/5/5 306/5/5 305/5/5
f 308/5/5 306/5/5 307/5/5
f 311/6/5 310/6/5 309/6/5
f 312/6/5 310/6/5 311/6/5
f 315/7/5 314/7/5 313/7/5
f 316/7/5 314/7/5 315/7/5
f 317/4/6 318/4/6 320/4/6
f 320/4/6 318/4/6 321/4/6
f 321/4/6 318/4/6 322/4/6
f 318/2/6 319/2/6 323/2/6
f 322/4/6 318/4/6 323/4/6
f 323/2/6 319/2/6 324/2/6
f 324/2/6 319/2/6 325/2/6
f 325/2/6 319/2/6 326/2/6
f 317/4/6 320/4/6 327/4/6
f 327/4/6 320/4/6 328/4/6
f 321/1/6 322/1/6 329/1/6
f 329/1/6 322/1/6 330/1/6
f 325/4/6 326/4/6 331/4/6
f 328/1/6 329/1/6 333/1/6
f 333/1/6 329/1/6 334/1/6
f 331/4/6 326/4/6 336/4/6
f 336/4/6 326/4/6 337/4/6
f 332/2/6 333/2/6 338/2/6
f 338/2/6 333/2/6 339/2/6
f 335/1/6 336/1/6 340/1/6
f 336/2/6 337/2/6 341/2/6
f 340/1/6 336/1/6 341/1/6
f 341/2/6 337/2/6 342/2/6
f 343/4/6 344/4/6 349/4/6
f 344/4/6 345/4/6 349/4/6
f 349/4/6 345/4/6 350/4/6
f 346/1/6 347/1/6 352/1/6
f 347/4/6 348/4/6 353/4/6
f 352/1/6 347/1/6 353/1/6
f 353/4/6 348/4/6 354/4/6
f 349/2/6 350/2/6 355/2/6
f 351/4/6 352/4/6 356/4/6
f 355/2/6 350/2/6 356/2/6
f 350/4/6 351/4/6 356/4/6
f 352/4/6 353/4/6 356/4/6
f 353/1/6 354/1/6 357/1/6
f 356/4/6 353/4/6 357/4/6
f 357/1/6 354/1/6 358/1/6
f 359/5/6 360/5/6 363/5/6
f 363/5/6 360/5/6 364/5/6
f 361/5/6 362/5/6 365/5/6
f 365/5/6 362/5/6 366/5/6
f 367/5/6 368/5/6 369/5/6
f 369/5/6 368/5/6 370/5/6
f 371/7/6 372/7/6 373/7/6
f 373/7/6 372/7/6 374/7/6
f 375/5/6 376/5/6 377/5/6
f 377/5/6 376/5/6 378/5/6
f 379/7/6 380/7/6 381/7/6
f 381/7/6 380/7/6 382/7/6
f 379/7/6 381/7/6 383/7/6
f 383/7/6 381/7/6 384/7/6
f 385/6/6 386/6/6 387/6/6
f 387/6/6 386/6/6 388/6/6
f 389/6/6 390/6/6 391/6/6
f 391/6/6 390/6/6 392/6/6
