# MagicaVoxel @ Ephtracy

# group
o deck1-broken

# material
mtllib environ-0-deck1-broken.mtl
usemtl palette

# normals
vn -1 0 0
vn 1 0 0
vn 0 0 1
vn 0 0 -1
vn 0 -1 0
vn 0 1 0

# texcoords
vt 0.197266 0.5
vt 0.201172 0.5
vt 0.216797 0.5
vt 0.232422 0.5

# verts
v -3.1 0 -1.1
v -3.1 0 -1.3
v -3.1 0 -1.4
v -3.1 0 -1.5
v -3.1 0 -1.6
v -3.1 0 -1.7
v -3.1 0 -1.8
v -3.1 0.1 -1.1
v -3.1 0.1 -1.3
v -3.1 0.1 -1.4
v -3.1 0.1 -1.5
v -3.1 0.1 -1.6
v -3.1 0.1 -1.7
v -3.1 0.1 -1.8
v -2.9 0 -1.2
v -2.9 0 -1.3
v -2.9 0.1 -1.2
v -2.9 0.1 -1.3
v -2.6 0 -1.2
v -2.6 0 -1.3
v -2.6 0 -1.4
v -2.6 0 -1.5
v -2.6 0 -1.6
v -2.6 0 -1.7
v -2.6 0.1 -1.2
v -2.6 0.1 -1.3
v -2.6 0.1 -1.4
v -2.6 0.1 -1.5
v -2.6 0.1 -1.6
v -2.6 0.1 -1.7
v -2.5 0 -1.3
v -2.5 0 -1.4
v -2.5 0.1 -1.3
v -2.5 0.1 -1.4
v -3 0 -1.2
v -3 0 -1.3
v -3 0 -1.4
v -3 0 -1.5
v -3 0.1 -1.2
v -3 0.1 -1.3
v -3 0.1 -1.4
v -3 0.1 -1.5
v -2.9 0 -1.3
v -2.9 0 -1.4
v -2.9 0.1 -1.3
v -2.9 0.1 -1.4
v -2.8 0 -1.2
v -2.8 0 -1.3
v -2.8 0.1 -1.2
v -2.8 0.1 -1.3
v -2.7 0 -1.6
v -2.7 0 -1.7
v -2.7 0.1 -1.6
v -2.7 0.1 -1.7
v -2.4 0 -1.1
v -2.4 0 -1.2
v -2.4 0 -1.4
v -2.4 0 -1.5
v -2.4 0 -1.6
v -2.4 0 -1.7
v -2.4 0 -1.8
v -2.4 0.1 -1.1
v -2.4 0.1 -1.2
v -2.4 0.1 -1.4
v -2.4 0.1 -1.5
v -2.4 0.1 -1.6
v -2.4 0.1 -1.7
v -2.4 0.1 -1.8
v -3.1 0 -1.1
v -3.1 0.1 -1.1
v -2.7 0 -1.1
v -2.7 0.1 -1.1
v -2.4 0 -1.1
v -2.4 0.1 -1.1
v -3 0 -1.3
v -3 0.1 -1.3
v -2.9 0 -1.3
v -2.9 0.1 -1.3
v -2.6 0 -1.4
v -2.6 0.1 -1.4
v -2.5 0 -1.4
v -2.5 0.1 -1.4
v -3.1 0 -1.6
v -3.1 0.1 -1.6
v -2.8 0 -1.6
v -2.8 0.1 -1.6
v -2.7 0 -1.6
v -2.7 0.1 -1.6
v -2.6 0 -1.6
v -2.6 0.1 -1.6
v -2.5 0 -1.6
v -2.5 0.1 -1.6
v -2.4 0 -1.6
v -2.4 0.1 -1.6
v -2.7 0 -1.7
v -2.7 0.1 -1.7
v -2.6 0 -1.7
v -2.6 0.1 -1.7
v -3 0 -1.2
v -3 0.1 -1.2
v -2.9 0 -1.2
v -2.9 0.1 -1.2
v -2.8 0 -1.2
v -2.8 0.1 -1.2
v -2.7 0 -1.2
v -2.7 0.1 -1.2
v -2.6 0 -1.2
v -2.6 0.1 -1.2
v -2.9 0 -1.3
v -2.9 0.1 -1.3
v -2.8 0 -1.3
v -2.8 0.1 -1.3
v -2.6 0 -1.3
v -2.6 0.1 -1.3
v -2.5 0 -1.3
v -2.5 0.1 -1.3
v -3 0 -1.4
v -3 0.1 -1.4
v -2.9 0 -1.4
v -2.9 0.1 -1.4
v -3.1 0 -1.5
v -3.1 0.1 -1.5
v -3 0 -1.5
v -3 0.1 -1.5
v -2.6 0 -1.5
v -2.6 0.1 -1.5
v -2.5 0 -1.5
v -2.5 0.1 -1.5
v -2.4 0 -1.5
v -2.4 0.1 -1.5
v -3.1 0 -1.8
v -3.1 0.1 -1.8
v -2.8 0 -1.8
v -2.8 0.1 -1.8
v -2.5 0 -1.8
v -2.5 0.1 -1.8
v -2.4 0 -1.8
v -2.4 0.1 -1.8
v -3.1 0 -1.1
v -2.7 0 -1.1
v -2.4 0 -1.1
v -3 0 -1.2
v -2.9 0 -1.2
v -2.8 0 -1.2
v -2.7 0 -1.2
v -2.6 0 -1.2
v -2.4 0 -1.2
v -3.1 0 -1.3
v -3 0 -1.3
v -2.9 0 -1.3
v -2.8 0 -1.3
v -2.6 0 -1.3
v -2.5 0 -1.3
v -3.1 0 -1.4
v -3 0 -1.4
v -2.9 0 -1.4
v -2.6 0 -1.4
v -2.5 0 -1.4
v -2.4 0 -1.4
v -3.1 0 -1.5
v -3 0 -1.5
v -2.6 0 -1.5
v -2.5 0 -1.5
v -2.4 0 -1.5
v -3.1 0 -1.6
v -2.8 0 -1.6
v -2.7 0 -1.6
v -2.6 0 -1.6
v -2.5 0 -1.6
v -2.4 0 -1.6
v -3.1 0 -1.7
v -2.8 0 -1.7
v -2.7 0 -1.7
v -2.6 0 -1.7
v -2.5 0 -1.7
v -2.4 0 -1.7
v -3.1 0 -1.8
v -2.8 0 -1.8
v -2.5 0 -1.8
v -2.4 0 -1.8
v -3.1 0.1 -1.1
v -2.7 0.1 -1.1
v -2.4 0.1 -1.1
v -3 0.1 -1.2
v -2.9 0.1 -1.2
v -2.8 0.1 -1.2
v -2.7 0.1 -1.2
v -2.6 0.1 -1.2
v -2.4 0.1 -1.2
v -3.1 0.1 -1.3
v -3 0.1 -1.3
v -2.9 0.1 -1.3
v -2.8 0.1 -1.3
v -2.6 0.1 -1.3
v -2.5 0.1 -1.3
v -3.1 0.1 -1.4
v -3 0.1 -1.4
v -2.9 0.1 -1.4
v -2.6 0.1 -1.4
v -2.5 0.1 -1.4
v -2.4 0.1 -1.4
v -3.1 0.1 -1.5
v -3 0.1 -1.5
v -2.6 0.1 -1.5
v -2.5 0.1 -1.5
v -2.4 0.1 -1.5
v -3.1 0.1 -1.6
v -2.8 0.1 -1.6
v -2.7 0.1 -1.6
v -2.6 0.1 -1.6
v -2.5 0.1 -1.6
v -2.4 0.1 -1.6
v -3.1 0.1 -1.7
v -2.8 0.1 -1.7
v -2.7 0.1 -1.7
v -2.6 0.1 -1.7
v -2.5 0.1 -1.7
v -2.4 0.1 -1.7
v -3.1 0.1 -1.8
v -2.8 0.1 -1.8
v -2.5 0.1 -1.8
v -2.4 0.1 -1.8

# faces
f 8/4/1 2/4/1 1/4/1
f 9/3/1 3/3/1 2/3/1
f 9/4/1 2/4/1 8/4/1
f 10/2/1 4/2/1 3/2/1
f 10/3/1 3/3/1 9/3/1
f 11/2/1 4/2/1 10/2/1
f 12/4/1 6/4/1 5/4/1
f 13/2/1 7/2/1 6/2/1
f 13/4/1 6/4/1 12/4/1
f 14/2/1 7/2/1 13/2/1
f 17/1/1 16/1/1 15/1/1
f 18/1/1 16/1/1 17/1/1
f 25/4/1 20/4/1 19/4/1
f 26/4/1 20/4/1 25/4/1
f 27/1/1 22/1/1 21/1/1
f 28/1/1 22/1/1 27/1/1
f 29/1/1 24/1/1 23/1/1
f 30/1/1 24/1/1 29/1/1
f 33/4/1 32/4/1 31/4/1
f 34/4/1 32/4/1 33/4/1
f 35/4/2 36/4/2 39/4/2
f 39/4/2 36/4/2 40/4/2
f 37/2/2 38/2/2 41/2/2
f 41/2/2 38/2/2 42/2/2
f 43/1/2 44/1/2 45/1/2
f 45/1/2 44/1/2 46/1/2
f 47/1/2 48/1/2 49/1/2
f 49/1/2 48/1/2 50/1/2
f 51/1/2 52/1/2 53/1/2
f 53/1/2 52/1/2 54/1/2
f 55/2/2 56/2/2 62/2/2
f 56/4/2 57/4/2 63/4/2
f 62/2/2 56/2/2 63/2/2
f 57/2/2 58/2/2 64/2/2
f 63/4/2 57/4/2 64/4/2
f 64/2/2 58/2/2 65/2/2
f 59/4/2 60/4/2 66/4/2
f 60/1/2 61/1/2 67/1/2
f 66/4/2 60/4/2 67/4/2
f 67/1/2 61/1/2 68/1/2
f 71/4/3 70/4/3 69/4/3
f 72/4/3 70/4/3 71/4/3
f 73/2/3 72/2/3 71/2/3
f 74/2/3 72/2/3 73/2/3
f 77/1/3 76/1/3 75/1/3
f 78/1/3 76/1/3 77/1/3
f 81/1/3 80/1/3 79/1/3
f 82/1/3 80/1/3 81/1/3
f 85/4/3 84/4/3 83/4/3
f 86/4/3 84/4/3 85/4/3
f 87/1/3 86/1/3 85/1/3
f 88/1/3 86/1/3 87/1/3
f 91/1/3 90/1/3 89/1/3
f 92/1/3 90/1/3 91/1/3
f 93/4/3 92/4/3 91/4/3
f 94/4/3 92/4/3 93/4/3
f 97/4/3 96/4/3 95/4/3
f 98/4/3 96/4/3 97/4/3
f 99/4/4 100/4/4 101/4/4
f 101/4/4 100/4/4 102/4/4
f 103/4/4 104/4/4 105/4/4
f 105/4/4 104/4/4 106/4/4
f 105/2/4 106/2/4 107/2/4
f 107/2/4 106/2/4 108/2/4
f 109/1/4 110/1/4 111/1/4
f 111/1/4 110/1/4 112/1/4
f 113/4/4 114/4/4 115/4/4
f 115/4/4 114/4/4 116/4/4
f 117/1/4 118/1/4 119/1/4
f 119/1/4 118/1/4 120/1/4
f 121/2/4 122/2/4 123/2/4
f 123/2/4 122/2/4 124/2/4
f 125/1/4 126/1/4 127/1/4
f 127/1/4 126/1/4 128/1/4
f 127/2/4 128/2/4 129/2/4
f 129/2/4 128/2/4 130/2/4
f 131/2/4 132/2/4 133/2/4
f 133/2/4 132/2/4 134/2/4
f 133/4/4 134/4/4 135/4/4
f 135/4/4 134/4/4 136/4/4
f 135/1/4 136/1/4 137/1/4
f 137/1/4 136/1/4 138/1/4
f 142/4/5 140/4/5 139/4/5
f 143/4/5 140/4/5 142/4/5
f 144/4/5 140/4/5 143/4/5
f 145/2/5 141/2/5 140/2/5
f 145/4/5 140/4/5 144/4/5
f 146/2/5 141/2/5 145/2/5
f 147/2/5 141/2/5 146/2/5
f 148/4/5 142/4/5 139/4/5
f 149/4/5 142/4/5 148/4/5
f 150/1/5 144/1/5 143/1/5
f 151/1/5 144/1/5 150/1/5
f 152/4/5 147/4/5 146/4/5
f 153/4/5 147/4/5 152/4/5
f 154/3/5 149/3/5 148/3/5
f 155/1/5 150/1/5 149/1/5
f 155/3/5 149/3/5 154/3/5
f 156/1/5 150/1/5 155/1/5
f 158/4/5 147/4/5 153/4/5
f 159/4/5 147/4/5 158/4/5
f 160/2/5 155/2/5 154/2/5
f 161/2/5 155/2/5 160/2/5
f 162/1/5 158/1/5 157/1/5
f 163/2/5 159/2/5 158/2/5
f 163/1/5 158/1/5 162/1/5
f 164/2/5 159/2/5 163/2/5
f 171/4/5 166/4/5 165/4/5
f 172/1/5 167/1/5 166/1/5
f 172/4/5 166/4/5 171/4/5
f 173/1/5 167/1/5 172/1/5
f 174/1/5 169/1/5 168/1/5
f 175/4/5 170/4/5 169/4/5
f 175/1/5 169/1/5 174/1/5
f 176/4/5 170/4/5 175/4/5
f 177/2/5 172/2/5 171/2/5
f 178/4/5 174/4/5 173/4/5
f 178/2/5 172/2/5 177/2/5
f 178/4/5 173/4/5 172/4/5
f 178/4/5 175/4/5 174/4/5
f 179/1/5 176/1/5 175/1/5
f 179/4/5 175/4/5 178/4/5
f 180/1/5 176/1/5 179/1/5
f 181/4/6 182/4/6 184/4/6
f 184/4/6 182/4/6 185/4/6
f 185/4/6 182/4/6 186/4/6
f 182/2/6 183/2/6 187/2/6
f 186/4/6 182/4/6 187/4/6
f 187/2/6 183/2/6 188/2/6
f 188/2/6 183/2/6 189/2/6
f 181/4/6 184/4/6 190/4/6
f 190/4/6 184/4/6 191/4/6
f 185/1/6 186/1/6 192/1/6
f 192/1/6 186/1/6 193/1/6
f 188/4/6 189/4/6 194/4/6
f 194/4/6 189/4/6 195/4/6
f 190/3/6 191/3/6 196/3/6
f 191/1/6 192/1/6 197/1/6
f 196/3/6 191/3/6 197/3/6
f 197/1/6 192/1/6 198/1/6
f 195/4/6 189/4/6 200/4/6
f 200/4/6 189/4/6 201/4/6
f 196/2/6 197/2/6 202/2/6
f 202/2/6 197/2/6 203/2/6
f 199/1/6 200/1/6 204/1/6
f 200/2/6 201/2/6 205/2/6
f 204/1/6 200/1/6 205/1/6
f 205/2/6 201/2/6 206/2/6
f 207/4/6 208/4/6 213/4/6
f 208/1/6 209/1/6 214/1/6
f 213/4/6 208/4/6 214/4/6
f 214/1/6 209/1/6 215/1/6
f 210/1/6 211/1/6 216/1/6
f 211/4/6 212/4/6 217/4/6
f 216/1/6 211/1/6 217/1/6
f 217/4/6 212/4/6 218/4/6
f 213/2/6 214/2/6 219/2/6
f 215/4/6 216/4/6 220/4/6
f 219/2/6 214/2/6 220/2/6
f 214/4/6 215/4/6 220/4/6
f 216/4/6 217/4/6 220/4/6
f 217/1/6 218/1/6 221/1/6
f 220/4/6 217/4/6 221/4/6
f 221/1/6 218/1/6 222/1/6
