# MagicaVoxel @ Ephtracy

# group
o 

# material
mtllib pig-11x11.mtl
usemtl palette

# normals
vn -1 0 0
vn 1 0 0
vn 0 0 1
vn 0 0 -1
vn 0 -1 0
vn 0 1 0

# texcoords
vt 0.314453 0.5
vt 0.501953 0.5
vt 0.505859 0.5
vt 0.509766 0.5
vt 0.513672 0.5

# verts
v 0.3 2.6 -0.2
v 0.3 2.6 -0.6
v 0.3 2.7 -0.4
v 0.3 2.7 -0.5
v 0.3 2.8 -0.4
v 0.3 2.8 -0.5
v 0.3 2.9 -0.2
v 0.3 2.9 -0.5
v 0.3 3 -0.4
v 0.3 3 -0.5
v 0.3 3 -0.6
v 0.3 3.1 -0.4
v 0.3 3.1 -0.5
v 0.4 2 -0.5
v 0.4 2 -0.6
v 0.4 2.1 -0.5
v 0.4 2.1 -0.6
v 0.4 2.2 -0.5
v 0.4 2.2 -0.6
v 0.4 2.5 -0.5
v 0.4 2.5 -0.6
v 0.5 2.2 -0.6
v 0.5 2.2 -0.7
v 0.5 2.3 -0.6
v 0.5 2.3 -0.7
v 0.5 2.3 -0.8
v 0.5 2.4 -0.7
v 0.5 2.4 -0.8
v 0.5 2.5 -0.5
v 0.5 2.5 -0.6
v 0.5 2.6 -0.5
v 0.5 2.6 -0.6
v 0.6 2 -0.5
v 0.6 2 -0.6
v 0.6 2.1 -0.5
v 0.6 2.1 -0.6
v 0.6 2.2 -0.5
v 0.6 2.2 -0.6
v 0.6 2.9 -0.5
v 0.6 2.9 -0.6
v 0.6 3 -0.5
v 0.6 3 -0.6
v 0.7 3 -0.4
v 0.7 3 -0.5
v 0.7 3.1 -0.4
v 0.7 3.1 -0.5
v 0.4 3 -0.4
v 0.4 3 -0.5
v 0.4 3.1 -0.4
v 0.4 3.1 -0.5
v 0.5 2 -0.5
v 0.5 2 -0.6
v 0.5 2.1 -0.5
v 0.5 2.1 -0.6
v 0.5 2.2 -0.5
v 0.5 2.2 -0.6
v 0.5 2.9 -0.5
v 0.5 2.9 -0.6
v 0.5 3 -0.5
v 0.5 3 -0.6
v 0.6 2.2 -0.6
v 0.6 2.2 -0.7
v 0.6 2.3 -0.6
v 0.6 2.3 -0.7
v 0.6 2.3 -0.8
v 0.6 2.4 -0.7
v 0.6 2.4 -0.8
v 0.6 2.5 -0.5
v 0.6 2.5 -0.6
v 0.6 2.6 -0.5
v 0.6 2.6 -0.6
v 0.7 2 -0.5
v 0.7 2 -0.6
v 0.7 2.1 -0.5
v 0.7 2.1 -0.6
v 0.7 2.2 -0.5
v 0.7 2.2 -0.6
v 0.7 2.5 -0.5
v 0.7 2.5 -0.6
v 0.8 2.6 -0.2
v 0.8 2.6 -0.6
v 0.8 2.7 -0.4
v 0.8 2.7 -0.5
v 0.8 2.8 -0.4
v 0.8 2.8 -0.5
v 0.8 2.9 -0.2
v 0.8 2.9 -0.5
v 0.8 3 -0.4
v 0.8 3 -0.5
v 0.8 3 -0.6
v 0.8 3.1 -0.4
v 0.8 3.1 -0.5
v 0.3 2.6 -0.2
v 0.3 2.9 -0.2
v 0.4 2.7 -0.2
v 0.4 2.8 -0.2
v 0.5 2.7 -0.2
v 0.5 2.8 -0.2
v 0.6 2.7 -0.2
v 0.6 2.8 -0.2
v 0.7 2.7 -0.2
v 0.7 2.8 -0.2
v 0.8 2.6 -0.2
v 0.8 2.9 -0.2
v 0.3 3 -0.4
v 0.3 3.1 -0.4
v 0.4 3 -0.4
v 0.4 3.1 -0.4
v 0.7 3 -0.4
v 0.7 3.1 -0.4
v 0.8 3 -0.4
v 0.8 3.1 -0.4
v 0.3 2.9 -0.5
v 0.3 3 -0.5
v 0.4 2 -0.5
v 0.4 2.1 -0.5
v 0.4 2.2 -0.5
v 0.4 2.5 -0.5
v 0.4 3 -0.5
v 0.5 2 -0.5
v 0.5 2.1 -0.5
v 0.5 2.2 -0.5
v 0.5 2.5 -0.5
v 0.5 2.6 -0.5
v 0.5 2.9 -0.5
v 0.5 3 -0.5
v 0.6 2 -0.5
v 0.6 2.1 -0.5
v 0.6 2.2 -0.5
v 0.6 2.5 -0.5
v 0.6 2.6 -0.5
v 0.6 2.9 -0.5
v 0.6 3 -0.5
v 0.7 2 -0.5
v 0.7 2.1 -0.5
v 0.7 2.2 -0.5
v 0.7 2.5 -0.5
v 0.7 3 -0.5
v 0.8 2.9 -0.5
v 0.8 3 -0.5
v 0.5 2.3 -0.7
v 0.5 2.4 -0.7
v 0.6 2.3 -0.7
v 0.6 2.4 -0.7
v 0.3 3 -0.5
v 0.3 3.1 -0.5
v 0.4 3 -0.5
v 0.4 3.1 -0.5
v 0.7 3 -0.5
v 0.7 3.1 -0.5
v 0.8 3 -0.5
v 0.8 3.1 -0.5
v 0.3 2.6 -0.6
v 0.3 3 -0.6
v 0.4 2 -0.6
v 0.4 2.1 -0.6
v 0.4 2.2 -0.6
v 0.4 2.5 -0.6
v 0.5 2 -0.6
v 0.5 2.1 -0.6
v 0.5 2.2 -0.6
v 0.5 2.3 -0.6
v 0.5 2.5 -0.6
v 0.5 2.6 -0.6
v 0.5 2.9 -0.6
v 0.5 3 -0.6
v 0.6 2 -0.6
v 0.6 2.1 -0.6
v 0.6 2.2 -0.6
v 0.6 2.3 -0.6
v 0.6 2.5 -0.6
v 0.6 2.6 -0.6
v 0.6 2.9 -0.6
v 0.6 3 -0.6
v 0.7 2 -0.6
v 0.7 2.1 -0.6
v 0.7 2.2 -0.6
v 0.7 2.5 -0.6
v 0.8 2.6 -0.6
v 0.8 3 -0.6
v 0.5 2.2 -0.7
v 0.5 2.3 -0.7
v 0.6 2.2 -0.7
v 0.6 2.3 -0.7
v 0.5 2.3 -0.8
v 0.5 2.4 -0.8
v 0.6 2.3 -0.8
v 0.6 2.4 -0.8
v 0.4 2 -0.5
v 0.5 2 -0.5
v 0.6 2 -0.5
v 0.7 2 -0.5
v 0.4 2 -0.6
v 0.5 2 -0.6
v 0.6 2 -0.6
v 0.7 2 -0.6
v 0.5 2.2 -0.5
v 0.6 2.2 -0.5
v 0.5 2.2 -0.6
v 0.6 2.2 -0.6
v 0.5 2.2 -0.7
v 0.6 2.2 -0.7
v 0.5 2.3 -0.7
v 0.6 2.3 -0.7
v 0.5 2.3 -0.8
v 0.6 2.3 -0.8
v 0.3 2.6 -0.2
v 0.8 2.6 -0.2
v 0.5 2.6 -0.5
v 0.6 2.6 -0.5
v 0.3 2.6 -0.6
v 0.5 2.6 -0.6
v 0.6 2.6 -0.6
v 0.8 2.6 -0.6
v 0.3 3 -0.4
v 0.4 3 -0.4
v 0.7 3 -0.4
v 0.8 3 -0.4
v 0.3 3 -0.5
v 0.4 3 -0.5
v 0.7 3 -0.5
v 0.8 3 -0.5
v 0.5 2.3 -0.6
v 0.6 2.3 -0.6
v 0.5 2.3 -0.7
v 0.6 2.3 -0.7
v 0.5 2.4 -0.7
v 0.6 2.4 -0.7
v 0.5 2.4 -0.8
v 0.6 2.4 -0.8
v 0.4 2.5 -0.5
v 0.5 2.5 -0.5
v 0.6 2.5 -0.5
v 0.7 2.5 -0.5
v 0.4 2.5 -0.6
v 0.5 2.5 -0.6
v 0.6 2.5 -0.6
v 0.7 2.5 -0.6
v 0.3 2.9 -0.2
v 0.8 2.9 -0.2
v 0.3 2.9 -0.5
v 0.5 2.9 -0.5
v 0.6 2.9 -0.5
v 0.8 2.9 -0.5
v 0.5 2.9 -0.6
v 0.6 2.9 -0.6
v 0.3 3 -0.5
v 0.4 3 -0.5
v 0.5 3 -0.5
v 0.6 3 -0.5
v 0.7 3 -0.5
v 0.8 3 -0.5
v 0.3 3 -0.6
v 0.5 3 -0.6
v 0.6 3 -0.6
v 0.8 3 -0.6
v 0.3 3.1 -0.4
v 0.4 3.1 -0.4
v 0.7 3.1 -0.4
v 0.8 3.1 -0.4
v 0.3 3.1 -0.5
v 0.4 3.1 -0.5
v 0.7 3.1 -0.5
v 0.8 3.1 -0.5

# faces
f 3/2/1 2/2/1 1/2/1
f 4/2/1 2/2/1 3/2/1
f 5/2/1 3/2/1 1/2/1
f 5/3/1 4/3/1 3/3/1
f 6/2/1 2/2/1 4/2/1
f 6/3/1 4/3/1 5/3/1
f 7/2/1 5/2/1 1/2/1
f 7/2/1 6/2/1 5/2/1
f 8/2/1 2/2/1 6/2/1
f 8/2/1 6/2/1 7/2/1
f 10/2/1 2/2/1 8/2/1
f 11/2/1 2/2/1 10/2/1
f 12/2/1 10/2/1 9/2/1
f 13/2/1 10/2/1 12/2/1
f 16/5/1 15/5/1 14/5/1
f 17/5/1 15/5/1 16/5/1
f 18/2/1 17/2/1 16/2/1
f 19/2/1 17/2/1 18/2/1
f 20/1/1 19/1/1 18/1/1
f 21/1/1 19/1/1 20/1/1
f 24/2/1 23/2/1 22/2/1
f 25/2/1 23/2/1 24/2/1
f 27/2/1 26/2/1 25/2/1
f 28/2/1 26/2/1 27/2/1
f 31/2/1 30/2/1 29/2/1
f 32/2/1 30/2/1 31/2/1
f 35/5/1 34/5/1 33/5/1
f 36/5/1 34/5/1 35/5/1
f 37/2/1 36/2/1 35/2/1
f 38/2/1 36/2/1 37/2/1
f 41/2/1 40/2/1 39/2/1
f 42/2/1 40/2/1 41/2/1
f 45/2/1 44/2/1 43/2/1
f 46/2/1 44/2/1 45/2/1
f 47/2/2 48/2/2 49/2/2
f 49/2/2 48/2/2 50/2/2
f 51/5/2 52/5/2 53/5/2
f 53/5/2 52/5/2 54/5/2
f 53/2/2 54/2/2 55/2/2
f 55/2/2 54/2/2 56/2/2
f 57/2/2 58/2/2 59/2/2
f 59/2/2 58/2/2 60/2/2
f 61/2/2 62/2/2 63/2/2
f 63/2/2 62/2/2 64/2/2
f 64/2/2 65/2/2 66/2/2
f 66/2/2 65/2/2 67/2/2
f 68/2/2 69/2/2 70/2/2
f 70/2/2 69/2/2 71/2/2
f 72/5/2 73/5/2 74/5/2
f 74/5/2 73/5/2 75/5/2
f 74/2/2 75/2/2 76/2/2
f 76/2/2 75/2/2 77/2/2
f 76/1/2 77/1/2 78/1/2
f 78/1/2 77/1/2 79/1/2
f 80/2/2 81/2/2 82/2/2
f 82/2/2 81/2/2 83/2/2
f 80/2/2 82/2/2 84/2/2
f 82/3/2 83/3/2 84/3/2
f 83/2/2 81/2/2 85/2/2
f 84/3/2 83/3/2 85/3/2
f 80/2/2 84/2/2 86/2/2
f 84/2/2 85/2/2 86/2/2
f 85/2/2 81/2/2 87/2/2
f 86/2/2 85/2/2 87/2/2
f 87/2/2 81/2/2 89/2/2
f 89/2/2 81/2/2 90/2/2
f 88/2/2 89/2/2 91/2/2
f 91/2/2 89/2/2 92/2/2
f 95/2/3 94/2/3 93/2/3
f 96/2/3 94/2/3 95/2/3
f 97/2/3 95/2/3 93/2/3
f 97/4/3 96/4/3 95/4/3
f 98/2/3 94/2/3 96/2/3
f 98/4/3 96/4/3 97/4/3
f 99/2/3 97/2/3 93/2/3
f 99/2/3 98/2/3 97/2/3
f 100/2/3 94/2/3 98/2/3
f 100/2/3 98/2/3 99/2/3
f 101/2/3 99/2/3 93/2/3
f 101/4/3 100/4/3 99/4/3
f 102/2/3 94/2/3 100/2/3
f 102/4/3 100/4/3 101/4/3
f 103/2/3 101/2/3 93/2/3
f 103/2/3 102/2/3 101/2/3
f 104/2/3 94/2/3 102/2/3
f 104/2/3 102/2/3 103/2/3
f 107/2/3 106/2/3 105/2/3
f 108/2/3 106/2/3 107/2/3
f 111/2/3 110/2/3 109/2/3
f 112/2/3 110/2/3 111/2/3
f 119/2/3 114/2/3 113/2/3
f 120/5/3 116/5/3 115/5/3
f 121/2/3 117/2/3 116/2/3
f 121/5/3 116/5/3 120/5/3
f 122/1/3 118/1/3 117/1/3
f 122/2/3 117/2/3 121/2/3
f 123/1/3 118/1/3 122/1/3
f 125/2/3 119/2/3 113/2/3
f 126/2/3 119/2/3 125/2/3
f 129/1/3 123/1/3 122/1/3
f 130/2/3 124/2/3 123/2/3
f 130/1/3 123/1/3 129/1/3
f 131/2/3 124/2/3 130/2/3
f 134/5/3 128/5/3 127/5/3
f 135/2/3 129/2/3 128/2/3
f 135/5/3 128/5/3 134/5/3
f 136/1/3 130/1/3 129/1/3
f 136/2/3 129/2/3 135/2/3
f 137/1/3 130/1/3 136/1/3
f 138/2/3 133/2/3 132/2/3
f 139/2/3 138/2/3 132/2/3
f 140/2/3 138/2/3 139/2/3
f 143/2/3 142/2/3 141/2/3
f 144/2/3 142/2/3 143/2/3
f 145/2/4 146/2/4 147/2/4
f 147/2/4 146/2/4 148/2/4
f 149/2/4 150/2/4 151/2/4
f 151/2/4 150/2/4 152/2/4
f 155/5/4 156/5/4 159/5/4
f 156/2/4 157/2/4 160/2/4
f 159/5/4 156/5/4 160/5/4
f 157/1/4 158/1/4 161/1/4
f 160/2/4 157/2/4 161/2/4
f 161/1/4 158/1/4 162/1/4
f 162/1/4 158/1/4 163/1/4
f 153/2/4 154/2/4 164/2/4
f 164/2/4 154/2/4 165/2/4
f 165/2/4 154/2/4 166/2/4
f 162/1/4 163/1/4 170/1/4
f 164/2/4 165/2/4 171/2/4
f 163/2/4 164/2/4 171/2/4
f 170/1/4 163/1/4 171/1/4
f 171/2/4 165/2/4 172/2/4
f 172/2/4 165/2/4 173/2/4
f 167/5/4 168/5/4 175/5/4
f 168/2/4 169/2/4 176/2/4
f 175/5/4 168/5/4 176/5/4
f 169/1/4 170/1/4 177/1/4
f 176/2/4 169/2/4 177/2/4
f 170/1/4 171/1/4 177/1/4
f 177/1/4 171/1/4 178/1/4
f 172/2/4 173/2/4 179/2/4
f 173/2/4 174/2/4 179/2/4
f 179/2/4 174/2/4 180/2/4
f 181/2/4 182/2/4 183/2/4
f 183/2/4 182/2/4 184/2/4
f 185/2/4 186/2/4 187/2/4
f 187/2/4 186/2/4 188/2/4
f 193/5/5 190/5/5 189/5/5
f 194/5/5 190/5/5 193/5/5
f 195/5/5 192/5/5 191/5/5
f 196/5/5 192/5/5 195/5/5
f 199/1/5 198/1/5 197/1/5
f 200/1/5 198/1/5 199/1/5
f 201/2/5 200/2/5 199/2/5
f 202/2/5 200/2/5 201/2/5
f 205/2/5 204/2/5 203/2/5
f 206/2/5 204/2/5 205/2/5
f 209/2/5 208/2/5 207/2/5
f 210/2/5 208/2/5 209/2/5
f 211/2/5 209/2/5 207/2/5
f 212/2/5 209/2/5 211/2/5
f 213/2/5 208/2/5 210/2/5
f 214/2/5 208/2/5 213/2/5
f 219/2/5 216/2/5 215/2/5
f 220/2/5 216/2/5 219/2/5
f 221/2/5 218/2/5 217/2/5
f 222/2/5 218/2/5 221/2/5
f 223/2/6 224/2/6 225/2/6
f 225/2/6 224/2/6 226/2/6
f 227/2/6 228/2/6 229/2/6
f 229/2/6 228/2/6 230/2/6
f 231/1/6 232/1/6 235/1/6
f 235/1/6 232/1/6 236/1/6
f 233/1/6 234/1/6 237/1/6
f 237/1/6 234/1/6 238/1/6
f 239/2/6 240/2/6 241/2/6
f 241/2/6 240/2/6 242/2/6
f 242/2/6 240/2/6 243/2/6
f 243/2/6 240/2/6 244/2/6
f 242/2/6 243/2/6 245/2/6
f 245/2/6 243/2/6 246/2/6
f 247/2/6 248/2/6 253/2/6
f 248/2/6 249/2/6 253/2/6
f 253/2/6 249/2/6 254/2/6
f 251/2/6 252/2/6 255/2/6
f 250/2/6 251/2/6 255/2/6
f 255/2/6 252/2/6 256/2/6
f 257/2/6 258/2/6 261/2/6
f 261/2/6 258/2/6 262/2/6
f 259/2/6 260/2/6 263/2/6
f 263/2/6 260/2/6 264/2/6
