# MagicaVoxel @ Ephtracy

# group
o 

# material
mtllib crate-7x7.mtl
usemtl palette

# normals
vn -1 0 0
vn 1 0 0
vn 0 0 1
vn 0 0 -1
vn 0 -1 0
vn 0 1 0

# texcoords
vt 0.197266 0.5
vt 0.201172 0.5
vt 0.205078 0.5
vt 0.208984 0.5

# verts
v 0 2 0
v 0 2 -0.2
v 0 2 -0.5
v 0 2 -0.7
v 0 2.1 0
v 0 2.1 -0.1
v 0 2.1 -0.2
v 0 2.1 -0.5
v 0 2.1 -0.6
v 0 2.1 -0.7
v 0 2.2 0
v 0 2.2 -0.1
v 0 2.2 -0.2
v 0 2.2 -0.5
v 0 2.2 -0.6
v 0 2.2 -0.7
v 0 2.3 0
v 0 2.3 -0.1
v 0 2.3 -0.2
v 0 2.3 -0.5
v 0 2.3 -0.6
v 0 2.3 -0.7
v 0 2.4 0
v 0 2.4 -0.1
v 0 2.4 -0.2
v 0 2.4 -0.5
v 0 2.4 -0.6
v 0 2.4 -0.7
v 0 2.5 0
v 0 2.5 -0.1
v 0 2.5 -0.2
v 0 2.5 -0.5
v 0 2.5 -0.6
v 0 2.5 -0.7
v 0 2.6 0
v 0 2.6 -0.1
v 0 2.6 -0.2
v 0 2.6 -0.5
v 0 2.6 -0.6
v 0 2.6 -0.7
v 0 2.7 0
v 0 2.7 -0.2
v 0 2.7 -0.5
v 0 2.7 -0.7
v 0.7 2 0
v 0.7 2 -0.2
v 0.7 2 -0.6
v 0.7 2 -0.7
v 0.7 2.1 0
v 0.7 2.1 -0.1
v 0.7 2.1 -0.2
v 0.7 2.1 -0.5
v 0.7 2.1 -0.6
v 0.7 2.1 -0.7
v 0.7 2.2 0
v 0.7 2.2 -0.1
v 0.7 2.2 -0.2
v 0.7 2.2 -0.5
v 0.7 2.2 -0.6
v 0.7 2.2 -0.7
v 0.7 2.3 0
v 0.7 2.3 -0.1
v 0.7 2.3 -0.2
v 0.7 2.3 -0.5
v 0.7 2.3 -0.6
v 0.7 2.3 -0.7
v 0.7 2.4 0
v 0.7 2.4 -0.1
v 0.7 2.4 -0.2
v 0.7 2.4 -0.5
v 0.7 2.4 -0.6
v 0.7 2.4 -0.7
v 0.7 2.5 0
v 0.7 2.5 -0.1
v 0.7 2.5 -0.2
v 0.7 2.5 -0.5
v 0.7 2.5 -0.6
v 0.7 2.5 -0.7
v 0.7 2.6 0
v 0.7 2.6 -0.1
v 0.7 2.6 -0.2
v 0.7 2.6 -0.5
v 0.7 2.6 -0.6
v 0.7 2.6 -0.7
v 0.7 2.7 0
v 0.7 2.7 -0.2
v 0.7 2.7 -0.5
v 0.7 2.7 -0.7
v 0 2 0
v 0 2.1 0
v 0 2.2 0
v 0 2.3 0
v 0 2.4 0
v 0 2.5 0
v 0 2.6 0
v 0 2.7 0
v 0.1 2.1 0
v 0.1 2.2 0
v 0.1 2.3 0
v 0.1 2.4 0
v 0.1 2.5 0
v 0.1 2.6 0
v 0.2 2 0
v 0.2 2.1 0
v 0.2 2.2 0
v 0.2 2.3 0
v 0.2 2.4 0
v 0.2 2.5 0
v 0.2 2.6 0
v 0.2 2.7 0
v 0.5 2 0
v 0.5 2.1 0
v 0.5 2.2 0
v 0.5 2.3 0
v 0.5 2.4 0
v 0.5 2.5 0
v 0.5 2.6 0
v 0.5 2.7 0
v 0.6 2.1 0
v 0.6 2.2 0
v 0.6 2.3 0
v 0.6 2.4 0
v 0.6 2.5 0
v 0.6 2.6 0
v 0.7 2 0
v 0.7 2.1 0
v 0.7 2.2 0
v 0.7 2.3 0
v 0.7 2.4 0
v 0.7 2.5 0
v 0.7 2.6 0
v 0.7 2.7 0
v 0 2 -0.7
v 0 2.1 -0.7
v 0 2.2 -0.7
v 0 2.3 -0.7
v 0 2.4 -0.7
v 0 2.5 -0.7
v 0 2.6 -0.7
v 0 2.7 -0.7
v 0.1 2.1 -0.7
v 0.1 2.2 -0.7
v 0.1 2.3 -0.7
v 0.1 2.4 -0.7
v 0.1 2.5 -0.7
v 0.1 2.6 -0.7
v 0.2 2 -0.7
v 0.2 2.1 -0.7
v 0.2 2.2 -0.7
v 0.2 2.3 -0.7
v 0.2 2.4 -0.7
v 0.2 2.5 -0.7
v 0.2 2.6 -0.7
v 0.2 2.7 -0.7
v 0.5 2 -0.7
v 0.5 2.1 -0.7
v 0.5 2.2 -0.7
v 0.5 2.3 -0.7
v 0.5 2.4 -0.7
v 0.5 2.5 -0.7
v 0.5 2.6 -0.7
v 0.5 2.7 -0.7
v 0.6 2.1 -0.7
v 0.6 2.2 -0.7
v 0.6 2.3 -0.7
v 0.6 2.4 -0.7
v 0.6 2.5 -0.7
v 0.6 2.6 -0.7
v 0.7 2 -0.7
v 0.7 2.1 -0.7
v 0.7 2.2 -0.7
v 0.7 2.3 -0.7
v 0.7 2.4 -0.7
v 0.7 2.5 -0.7
v 0.7 2.6 -0.7
v 0.7 2.7 -0.7
v 0 2 0
v 0.2 2 0
v 0.5 2 0
v 0.7 2 0
v 0.1 2 -0.1
v 0.2 2 -0.1
v 0.5 2 -0.1
v 0.6 2 -0.1
v 0 2 -0.2
v 0.1 2 -0.2
v 0.2 2 -0.2
v 0.5 2 -0.2
v 0.6 2 -0.2
v 0.7 2 -0.2
v 0.1 2 -0.3
v 0.2 2 -0.3
v 0.5 2 -0.3
v 0.6 2 -0.3
v 0.1 2 -0.4
v 0.2 2 -0.4
v 0.5 2 -0.4
v 0.6 2 -0.4
v 0 2 -0.5
v 0.1 2 -0.5
v 0.2 2 -0.5
v 0.5 2 -0.5
v 0.6 2 -0.5
v 0.1 2 -0.6
v 0.2 2 -0.6
v 0.5 2 -0.6
v 0.6 2 -0.6
v 0.7 2 -0.6
v 0 2 -0.7
v 0.2 2 -0.7
v 0.5 2 -0.7
v 0.7 2 -0.7
v 0 2.7 0
v 0.2 2.7 0
v 0.5 2.7 0
v 0.7 2.7 0
v 0.1 2.7 -0.1
v 0.2 2.7 -0.1
v 0.5 2.7 -0.1
v 0.6 2.7 -0.1
v 0 2.7 -0.2
v 0.1 2.7 -0.2
v 0.2 2.7 -0.2
v 0.5 2.7 -0.2
v 0.6 2.7 -0.2
v 0.7 2.7 -0.2
v 0.1 2.7 -0.3
v 0.2 2.7 -0.3
v 0.5 2.7 -0.3
v 0.6 2.7 -0.3
v 0.1 2.7 -0.4
v 0.2 2.7 -0.4
v 0.5 2.7 -0.4
v 0.6 2.7 -0.4
v 0 2.7 -0.5
v 0.1 2.7 -0.5
v 0.2 2.7 -0.5
v 0.5 2.7 -0.5
v 0.6 2.7 -0.5
v 0.7 2.7 -0.5
v 0.1 2.7 -0.6
v 0.2 2.7 -0.6
v 0.5 2.7 -0.6
v 0.6 2.7 -0.6
v 0 2.7 -0.7
v 0.2 2.7 -0.7
v 0.5 2.7 -0.7
v 0.7 2.7 -0.7

# faces
f 5/3/1 2/3/1 1/3/1
f 6/3/1 2/3/1 5/3/1
f 7/1/1 3/1/1 2/1/1
f 7/3/1 2/3/1 6/3/1
f 8/3/1 4/3/1 3/3/1
f 8/1/1 3/1/1 7/1/1
f 9/3/1 4/3/1 8/3/1
f 10/3/1 4/3/1 9/3/1
f 11/1/1 6/1/1 5/1/1
f 12/4/1 7/4/1 6/4/1
f 12/1/1 6/1/1 11/1/1
f 13/2/1 8/2/1 7/2/1
f 13/4/1 7/4/1 12/4/1
f 14/4/1 9/4/1 8/4/1
f 14/2/1 8/2/1 13/2/1
f 15/1/1 10/1/1 9/1/1
f 15/4/1 9/4/1 14/4/1
f 16/1/1 10/1/1 15/1/1
f 17/3/1 12/3/1 11/3/1
f 17/3/1 13/3/1 12/3/1
f 18/3/1 13/3/1 17/3/1
f 19/1/1 14/1/1 13/1/1
f 19/3/1 13/3/1 18/3/1
f 20/3/1 16/3/1 15/3/1
f 20/1/1 14/1/1 19/1/1
f 20/3/1 15/3/1 14/3/1
f 21/3/1 16/3/1 20/3/1
f 22/3/1 16/3/1 21/3/1
f 23/1/1 18/1/1 17/1/1
f 24/4/1 19/4/1 18/4/1
f 24/1/1 18/1/1 23/1/1
f 25/2/1 20/2/1 19/2/1
f 25/4/1 19/4/1 24/4/1
f 26/4/1 21/4/1 20/4/1
f 26/2/1 20/2/1 25/2/1
f 27/1/1 22/1/1 21/1/1
f 27/4/1 21/4/1 26/4/1
f 28/1/1 22/1/1 27/1/1
f 29/3/1 24/3/1 23/3/1
f 29/3/1 25/3/1 24/3/1
f 30/3/1 25/3/1 29/3/1
f 31/1/1 26/1/1 25/1/1
f 31/3/1 25/3/1 30/3/1
f 32/3/1 28/3/1 27/3/1
f 32/1/1 26/1/1 31/1/1
f 32/3/1 27/3/1 26/3/1
f 33/3/1 28/3/1 32/3/1
f 34/3/1 28/3/1 33/3/1
f 35/1/1 30/1/1 29/1/1
f 36/4/1 31/4/1 30/4/1
f 36/1/1 30/1/1 35/1/1
f 37/2/1 32/2/1 31/2/1
f 37/4/1 31/4/1 36/4/1
f 38/4/1 33/4/1 32/4/1
f 38/2/1 32/2/1 37/2/1
f 39/1/1 34/1/1 33/1/1
f 39/4/1 33/4/1 38/4/1
f 40/1/1 34/1/1 39/1/1
f 41/3/1 36/3/1 35/3/1
f 41/3/1 37/3/1 36/3/1
f 42/1/1 38/1/1 37/1/1
f 42/3/1 37/3/1 41/3/1
f 43/3/1 40/3/1 39/3/1
f 43/1/1 38/1/1 42/1/1
f 43/3/1 39/3/1 38/3/1
f 44/3/1 40/3/1 43/3/1
f 45/3/2 46/3/2 49/3/2
f 49/3/2 46/3/2 50/3/2
f 46/1/2 47/1/2 51/1/2
f 50/3/2 46/3/2 51/3/2
f 51/1/2 47/1/2 52/1/2
f 47/3/2 48/3/2 53/3/2
f 52/1/2 47/1/2 53/1/2
f 53/3/2 48/3/2 54/3/2
f 49/1/2 50/1/2 55/1/2
f 50/4/2 51/4/2 56/4/2
f 55/1/2 50/1/2 56/1/2
f 51/2/2 52/2/2 57/2/2
f 56/4/2 51/4/2 57/4/2
f 52/4/2 53/4/2 58/4/2
f 57/2/2 52/2/2 58/2/2
f 53/1/2 54/1/2 59/1/2
f 58/4/2 53/4/2 59/4/2
f 59/1/2 54/1/2 60/1/2
f 55/3/2 56/3/2 61/3/2
f 56/3/2 57/3/2 61/3/2
f 61/3/2 57/3/2 62/3/2
f 57/1/2 58/1/2 63/1/2
f 62/3/2 57/3/2 63/3/2
f 59/3/2 60/3/2 64/3/2
f 63/1/2 58/1/2 64/1/2
f 58/3/2 59/3/2 64/3/2
f 64/3/2 60/3/2 65/3/2
f 65/3/2 60/3/2 66/3/2
f 61/1/2 62/1/2 67/1/2
f 62/4/2 63/4/2 68/4/2
f 67/1/2 62/1/2 68/1/2
f 63/2/2 64/2/2 69/2/2
f 68/4/2 63/4/2 69/4/2
f 64/4/2 65/4/2 70/4/2
f 69/2/2 64/2/2 70/2/2
f 65/1/2 66/1/2 71/1/2
f 70/4/2 65/4/2 71/4/2
f 71/1/2 66/1/2 72/1/2
f 67/3/2 68/3/2 73/3/2
f 68/3/2 69/3/2 73/3/2
f 73/3/2 69/3/2 74/3/2
f 69/1/2 70/1/2 75/1/2
f 74/3/2 69/3/2 75/3/2
f 71/3/2 72/3/2 76/3/2
f 75/1/2 70/1/2 76/1/2
f 70/3/2 71/3/2 76/3/2
f 76/3/2 72/3/2 77/3/2
f 77/3/2 72/3/2 78/3/2
f 73/1/2 74/1/2 79/1/2
f 74/4/2 75/4/2 80/4/2
f 79/1/2 74/1/2 80/1/2
f 75/2/2 76/2/2 81/2/2
f 80/4/2 75/4/2 81/4/2
f 76/4/2 77/4/2 82/4/2
f 81/2/2 76/2/2 82/2/2
f 77/1/2 78/1/2 83/1/2
f 82/4/2 77/4/2 83/4/2
f 83/1/2 78/1/2 84/1/2
f 79/3/2 80/3/2 85/3/2
f 80/3/2 81/3/2 85/3/2
f 81/1/2 82/1/2 86/1/2
f 85/3/2 81/3/2 86/3/2
f 83/3/2 84/3/2 87/3/2
f 86/1/2 82/1/2 87/1/2
f 82/3/2 83/3/2 87/3/2
f 87/3/2 84/3/2 88/3/2
f 97/3/3 90/3/3 89/3/3
f 97/1/3 91/1/3 90/1/3
f 98/3/3 92/3/3 91/3/3
f 98/1/3 91/1/3 97/1/3
f 99/1/3 93/1/3 92/1/3
f 99/3/3 92/3/3 98/3/3
f 100/3/3 94/3/3 93/3/3
f 100/1/3 93/1/3 99/1/3
f 101/1/3 95/1/3 94/1/3
f 101/3/3 94/3/3 100/3/3
f 102/3/3 96/3/3 95/3/3
f 102/1/3 95/1/3 101/1/3
f 103/3/3 97/3/3 89/3/3
f 104/4/3 98/4/3 97/4/3
f 104/3/3 97/3/3 103/3/3
f 105/3/3 99/3/3 98/3/3
f 105/4/3 98/4/3 104/4/3
f 106/4/3 100/4/3 99/4/3
f 106/3/3 99/3/3 105/3/3
f 107/3/3 101/3/3 100/3/3
f 107/4/3 100/4/3 106/4/3
f 108/4/3 102/4/3 101/4/3
f 108/3/3 101/3/3 107/3/3
f 109/3/3 96/3/3 102/3/3
f 109/4/3 102/4/3 108/4/3
f 110/3/3 96/3/3 109/3/3
f 111/1/3 104/1/3 103/1/3
f 112/2/3 105/2/3 104/2/3
f 112/1/3 104/1/3 111/1/3
f 113/1/3 106/1/3 105/1/3
f 113/2/3 105/2/3 112/2/3
f 114/2/3 107/2/3 106/2/3
f 114/1/3 106/1/3 113/1/3
f 115/1/3 108/1/3 107/1/3
f 115/2/3 107/2/3 114/2/3
f 116/2/3 109/2/3 108/2/3
f 116/1/3 108/1/3 115/1/3
f 117/1/3 110/1/3 109/1/3
f 117/2/3 109/2/3 116/2/3
f 118/1/3 110/1/3 117/1/3
f 119/3/3 112/3/3 111/3/3
f 119/4/3 113/4/3 112/4/3
f 120/3/3 114/3/3 113/3/3
f 120/4/3 113/4/3 119/4/3
f 121/4/3 115/4/3 114/4/3
f 121/3/3 114/3/3 120/3/3
f 122/3/3 116/3/3 115/3/3
f 122/4/3 115/4/3 121/4/3
f 123/4/3 117/4/3 116/4/3
f 123/3/3 116/3/3 122/3/3
f 124/3/3 118/3/3 117/3/3
f 124/4/3 117/4/3 123/4/3
f 125/3/3 119/3/3 111/3/3
f 126/1/3 120/1/3 119/1/3
f 126/3/3 119/3/3 125/3/3
f 127/3/3 121/3/3 120/3/3
f 127/1/3 120/1/3 126/1/3
f 128/1/3 122/1/3 121/1/3
f 128/3/3 121/3/3 127/3/3
f 129/3/3 123/3/3 122/3/3
f 129/1/3 122/1/3 128/1/3
f 130/1/3 124/1/3 123/1/3
f 130/3/3 123/3/3 129/3/3
f 131/3/3 118/3/3 124/3/3
f 131/1/3 124/1/3 130/1/3
f 132/3/3 118/3/3 131/3/3
f 133/3/4 134/3/4 141/3/4
f 134/1/4 135/1/4 141/1/4
f 135/3/4 136/3/4 142/3/4
f 141/1/4 135/1/4 142/1/4
f 136/1/4 137/1/4 143/1/4
f 142/3/4 136/3/4 143/3/4
f 137/3/4 138/3/4 144/3/4
f 143/1/4 137/1/4 144/1/4
f 138/1/4 139/1/4 145/1/4
f 144/3/4 138/3/4 145/3/4
f 139/3/4 140/3/4 146/3/4
f 145/1/4 139/1/4 146/1/4
f 133/3/4 141/3/4 147/3/4
f 141/4/4 142/4/4 148/4/4
f 147/3/4 141/3/4 148/3/4
f 142/3/4 143/3/4 149/3/4
f 148/4/4 142/4/4 149/4/4
f 143/4/4 144/4/4 150/4/4
f 149/3/4 143/3/4 150/3/4
f 144/3/4 145/3/4 151/3/4
f 150/4/4 144/4/4 151/4/4
f 145/4/4 146/4/4 152/4/4
f 151/3/4 145/3/4 152/3/4
f 146/3/4 140/3/4 153/3/4
f 152/4/4 146/4/4 153/4/4
f 153/3/4 140/3/4 154/3/4
f 147/1/4 148/1/4 155/1/4
f 148/2/4 149/2/4 156/2/4
f 155/1/4 148/1/4 156/1/4
f 149/1/4 150/1/4 157/1/4
f 156/2/4 149/2/4 157/2/4
f 150/2/4 151/2/4 158/2/4
f 157/1/4 150/1/4 158/1/4
f 151/1/4 152/1/4 159/1/4
f 158/2/4 151/2/4 159/2/4
f 152/2/4 153/2/4 160/2/4
f 159/1/4 152/1/4 160/1/4
f 153/1/4 154/1/4 161/1/4
f 160/2/4 153/2/4 161/2/4
f 161/1/4 154/1/4 162/1/4
f 155/3/4 156/3/4 163/3/4
f 156/4/4 157/4/4 163/4/4
f 157/3/4 158/3/4 164/3/4
f 163/4/4 157/4/4 164/4/4
f 158/4/4 159/4/4 165/4/4
f 164/3/4 158/3/4 165/3/4
f 159/3/4 160/3/4 166/3/4
f 165/4/4 159/4/4 166/4/4
f 160/4/4 161/4/4 167/4/4
f 166/3/4 160/3/4 167/3/4
f 161/3/4 162/3/4 168/3/4
f 167/4/4 161/4/4 168/4/4
f 155/3/4 163/3/4 169/3/4
f 163/1/4 164/1/4 170/1/4
f 169/3/4 163/3/4 170/3/4
f 164/3/4 165/3/4 171/3/4
f 170/1/4 164/1/4 171/1/4
f 165/1/4 166/1/4 172/1/4
f 171/3/4 165/3/4 172/3/4
f 166/3/4 167/3/4 173/3/4
f 172/1/4 166/1/4 173/1/4
f 167/1/4 168/1/4 174/1/4
f 173/3/4 167/3/4 174/3/4
f 168/3/4 162/3/4 175/3/4
f 174/1/4 168/1/4 175/1/4
f 175/3/4 162/3/4 176/3/4
f 181/3/5 178/3/5 177/3/5
f 182/1/5 179/1/5 178/1/5
f 182/3/5 178/3/5 181/3/5
f 183/3/5 180/3/5 179/3/5
f 183/1/5 179/1/5 182/1/5
f 184/3/5 180/3/5 183/3/5
f 185/3/5 181/3/5 177/3/5
f 186/4/5 182/4/5 181/4/5
f 186/3/5 181/3/5 185/3/5
f 187/2/5 183/2/5 182/2/5
f 187/4/5 182/4/5 186/4/5
f 188/4/5 184/4/5 183/4/5
f 188/2/5 183/2/5 187/2/5
f 189/3/5 180/3/5 184/3/5
f 189/4/5 184/4/5 188/4/5
f 190/3/5 180/3/5 189/3/5
f 191/1/5 186/1/5 185/1/5
f 191/3/5 187/3/5 186/3/5
f 192/1/5 188/1/5 187/1/5
f 192/3/5 187/3/5 191/3/5
f 193/3/5 189/3/5 188/3/5
f 193/1/5 188/1/5 192/1/5
f 194/1/5 190/1/5 189/1/5
f 194/3/5 189/3/5 193/3/5
f 195/1/5 191/1/5 185/1/5
f 195/4/5 192/4/5 191/4/5
f 196/2/5 193/2/5 192/2/5
f 196/4/5 192/4/5 195/4/5
f 197/4/5 194/4/5 193/4/5
f 197/2/5 193/2/5 196/2/5
f 198/1/5 190/1/5 194/1/5
f 198/4/5 194/4/5 197/4/5
f 199/1/5 195/1/5 185/1/5
f 200/3/5 196/3/5 195/3/5
f 200/1/5 195/1/5 199/1/5
f 201/1/5 197/1/5 196/1/5
f 201/3/5 196/3/5 200/3/5
f 202/3/5 198/3/5 197/3/5
f 202/1/5 197/1/5 201/1/5
f 203/1/5 190/1/5 198/1/5
f 203/3/5 198/3/5 202/3/5
f 204/3/5 200/3/5 199/3/5
f 204/4/5 201/4/5 200/4/5
f 205/2/5 202/2/5 201/2/5
f 205/4/5 201/4/5 204/4/5
f 206/4/5 203/4/5 202/4/5
f 206/2/5 202/2/5 205/2/5
f 207/1/5 190/1/5 203/1/5
f 207/4/5 203/4/5 206/4/5
f 208/1/5 190/1/5 207/1/5
f 209/3/5 204/3/5 199/3/5
f 209/3/5 205/3/5 204/3/5
f 210/1/5 206/1/5 205/1/5
f 210/3/5 205/3/5 209/3/5
f 211/3/5 208/3/5 207/3/5
f 211/1/5 206/1/5 210/1/5
f 211/3/5 207/3/5 206/3/5
f 212/3/5 208/3/5 211/3/5
f 213/3/6 214/3/6 217/3/6
f 214/1/6 215/1/6 218/1/6
f 217/3/6 214/3/6 218/3/6
f 215/3/6 216/3/6 219/3/6
f 218/1/6 215/1/6 219/1/6
f 219/3/6 216/3/6 220/3/6
f 213/3/6 217/3/6 221/3/6
f 217/4/6 218/4/6 222/4/6
f 221/3/6 217/3/6 222/3/6
f 218/2/6 219/2/6 223/2/6
f 222/4/6 218/4/6 223/4/6
f 219/4/6 220/4/6 224/4/6
f 223/2/6 219/2/6 224/2/6
f 220/3/6 216/3/6 225/3/6
f 224/4/6 220/4/6 225/4/6
f 225/3/6 216/3/6 226/3/6
f 221/1/6 222/1/6 227/1/6
f 222/3/6 223/3/6 227/3/6
f 223/1/6 224/1/6 228/1/6
f 227/3/6 223/3/6 228/3/6
f 224/3/6 225/3/6 229/3/6
f 228/1/6 224/1/6 229/1/6
f 225/1/6 226/1/6 230/1/6
f 229/3/6 225/3/6 230/3/6
f 221/1/6 227/1/6 231/1/6
f 227/4/6 228/4/6 231/4/6
f 228/2/6 229/2/6 232/2/6
f 231/4/6 228/4/6 232/4/6
f 229/4/6 230/4/6 233/4/6
f 232/2/6 229/2/6 233/2/6
f 230/1/6 226/1/6 234/1/6
f 233/4/6 230/4/6 234/4/6
f 221/1/6 231/1/6 235/1/6
f 231/3/6 232/3/6 236/3/6
f 235/1/6 231/1/6 236/1/6
f 232/1/6 233/1/6 237/1/6
f 236/3/6 232/3/6 237/3/6
f 233/3/6 234/3/6 238/3/6
f 237/1/6 233/1/6 238/1/6
f 234/1/6 226/1/6 239/1/6
f 238/3/6 234/3/6 239/3/6
f 239/1/6 226/1/6 240/1/6
f 235/3/6 236/3/6 241/3/6
f 236/4/6 237/4/6 241/4/6
f 237/2/6 238/2/6 242/2/6
f 241/4/6 237/4/6 242/4/6
f 238/4/6 239/4/6 243/4/6
f 242/2/6 238/2/6 243/2/6
f 239/3/6 240/3/6 244/3/6
f 243/4/6 239/4/6 244/4/6
f 235/3/6 241/3/6 245/3/6
f 241/3/6 242/3/6 245/3/6
f 242/1/6 243/1/6 246/1/6
f 245/3/6 242/3/6 246/3/6
f 243/3/6 244/3/6 247/3/6
f 246/1/6 243/1/6 247/1/6
f 244/3/6 240/3/6 248/3/6
f 247/3/6 244/3/6 248/3/6
